<?xml version="1.0" encoding="UTF-8" standalone="no"?><svg xmlns="http://www.w3.org/2000/svg" xmlns:xlink="http://www.w3.org/1999/xlink" contentScriptType="application/ecmascript" contentStyleType="text/css" height="719px" preserveAspectRatio="none" style="width:649px;height:719px;" version="1.1" viewBox="0 0 649 719" width="649px" zoomAndPan="magnify"><defs><filter height="300%" id="f150dtg795kkbc" width="300%" x="-1" y="-1"><feGaussianBlur result="blurOut" stdDeviation="2.0"/><feColorMatrix in="blurOut" result="blurOut2" type="matrix" values="0 0 0 0 0 0 0 0 0 0 0 0 0 0 0 0 0 0 .4 0"/><feOffset dx="4.0" dy="4.0" in="blurOut2" result="blurOut3"/><feBlend in="SourceGraphic" in2="blurOut3" mode="normal"/></filter></defs><g><rect fill="#FEFECE" filter="url(#f150dtg795kkbc)" height="77.2038" rx="12.5" ry="12.5" style="stroke: #A80036; stroke-width: 1.5;" width="97" x="10" y="325.8056"/><text fill="#000000" font-family="sans-serif" font-size="14" lengthAdjust="spacingAndGlyphs" textLength="56" x="20" y="350.7716">Types of</text><text fill="#000000" font-family="sans-serif" font-size="14" lengthAdjust="spacingAndGlyphs" textLength="77" x="20" y="369.8395">modulation</text><text fill="#000000" font-family="sans-serif" font-size="14" lengthAdjust="spacingAndGlyphs" textLength="75" x="20" y="388.9074">techniques</text><rect fill="#FEFECE" filter="url(#f150dtg795kkbc)" height="77.2038" rx="12.5" ry="12.5" style="stroke: #A80036; stroke-width: 1.5;" width="97" x="157" y="60"/><text fill="#000000" font-family="sans-serif" font-size="14" font-weight="bold" lengthAdjust="spacingAndGlyphs" textLength="49" x="167" y="84.9659">Analog</text><text fill="#000000" font-family="sans-serif" font-size="14" lengthAdjust="spacingAndGlyphs" textLength="77" x="167" y="104.0339">Modulation</text><text fill="#000000" font-family="sans-serif" font-size="14" lengthAdjust="spacingAndGlyphs" textLength="75" x="167" y="123.1018">techniques</text><rect fill="#FEFECE" filter="url(#f150dtg795kkbc)" height="39.0679" rx="12.5" ry="12.5" style="stroke: #A80036; stroke-width: 1.5;" width="171" x="304" y="20"/><text fill="#000000" font-family="sans-serif" font-size="14" lengthAdjust="spacingAndGlyphs" textLength="151" x="314" y="44.9659">Amplitude modulation</text><path d="M254,98.6019 L264,98.6019 C279,98.6019 279,39.534 294,39.534 L304,39.534 " fill="none" style="stroke: #A80036; stroke-width: 1.0;"/><rect fill="#FEFECE" filter="url(#f150dtg795kkbc)" height="39.0679" rx="12.5" ry="12.5" style="stroke: #A80036; stroke-width: 1.5;" width="171" x="304" y="79.0679"/><text fill="#000000" font-family="sans-serif" font-size="14" lengthAdjust="spacingAndGlyphs" textLength="151" x="314" y="104.0339">Frequency modulation</text><path d="M254,98.6019 L264,98.6019 C279,98.6019 279,98.6019 294,98.6019 L304,98.6019 " fill="none" style="stroke: #A80036; stroke-width: 1.0;"/><rect fill="#FEFECE" filter="url(#f150dtg795kkbc)" height="39.0679" rx="12.5" ry="12.5" style="stroke: #A80036; stroke-width: 1.5;" width="141" x="304" y="138.1358"/><text fill="#000000" font-family="sans-serif" font-size="14" lengthAdjust="spacingAndGlyphs" textLength="121" x="314" y="163.1018">Phase modulation</text><path d="M254,98.6019 L264,98.6019 C279,98.6019 279,157.6698 294,157.6698 L304,157.6698 " fill="none" style="stroke: #A80036; stroke-width: 1.0;"/><path d="M107,364.4075 L117,364.4075 C132,364.4075 132,98.6019 147,98.6019 L157,98.6019 " fill="none" style="stroke: #A80036; stroke-width: 1.0;"/><rect fill="#FEFECE" filter="url(#f150dtg795kkbc)" height="77.2038" rx="12.5" ry="12.5" style="stroke: #A80036; stroke-width: 1.5;" width="97" x="157" y="414.4075"/><text fill="#000000" font-family="sans-serif" font-size="14" font-weight="bold" lengthAdjust="spacingAndGlyphs" textLength="45" x="167" y="439.3734">Digital</text><text fill="#000000" font-family="sans-serif" font-size="14" lengthAdjust="spacingAndGlyphs" textLength="77" x="167" y="458.4414">Modulation</text><text fill="#000000" font-family="sans-serif" font-size="14" lengthAdjust="spacingAndGlyphs" textLength="75" x="167" y="477.5093">techniques</text><rect fill="#FEFECE" filter="url(#f150dtg795kkbc)" height="39.0679" rx="12.5" ry="12.5" style="stroke: #A80036; stroke-width: 1.5;" width="171" x="304" y="226.7377"/><text fill="#000000" font-family="sans-serif" font-size="14" lengthAdjust="spacingAndGlyphs" textLength="151" x="314" y="251.7036">Amplitude modulation</text><rect fill="#FEFECE" filter="url(#f150dtg795kkbc)" height="39.0679" rx="12.5" ry="12.5" style="stroke: #A80036; stroke-width: 1.5;" width="50" x="525" y="197.2038"/><text fill="#000000" font-family="sans-serif" font-size="14" lengthAdjust="spacingAndGlyphs" textLength="30" x="535" y="222.1697">PAM</text><path d="M475,246.2717 L485,246.2717 C500,246.2717 500,216.7377 515,216.7377 L525,216.7377 " fill="none" style="stroke: #A80036; stroke-width: 1.0;"/><rect fill="#FEFECE" filter="url(#f150dtg795kkbc)" height="39.0679" rx="12.5" ry="12.5" style="stroke: #A80036; stroke-width: 1.5;" width="53" x="525" y="256.2717"/><text fill="#000000" font-family="sans-serif" font-size="14" lengthAdjust="spacingAndGlyphs" textLength="33" x="535" y="281.2376">QAM</text><path d="M475,246.2717 L485,246.2717 C500,246.2717 500,275.8056 515,275.8056 L525,275.8056 " fill="none" style="stroke: #A80036; stroke-width: 1.0;"/><path d="M254,453.0094 L264,453.0094 C279,453.0094 279,246.2717 294,246.2717 L304,246.2717 " fill="none" style="stroke: #A80036; stroke-width: 1.0;"/><rect fill="#FEFECE" filter="url(#f150dtg795kkbc)" height="39.0679" rx="12.5" ry="12.5" style="stroke: #A80036; stroke-width: 1.5;" width="171" x="304" y="315.3396"/><text fill="#000000" font-family="sans-serif" font-size="14" lengthAdjust="spacingAndGlyphs" textLength="151" x="314" y="340.3055">Frequency modulation</text><rect fill="#FEFECE" filter="url(#f150dtg795kkbc)" height="39.0679" rx="12.5" ry="12.5" style="stroke: #A80036; stroke-width: 1.5;" width="44" x="525" y="315.3396"/><text fill="#000000" font-family="sans-serif" font-size="14" lengthAdjust="spacingAndGlyphs" textLength="24" x="535" y="340.3055">FSK</text><path d="M475,334.8735 L485,334.8735 C500,334.8735 500,334.8735 515,334.8735 L525,334.8735 " fill="none" style="stroke: #A80036; stroke-width: 1.0;"/><path d="M254,453.0094 L264,453.0094 C279,453.0094 279,334.8735 294,334.8735 L304,334.8735 " fill="none" style="stroke: #A80036; stroke-width: 1.0;"/><rect fill="#FEFECE" filter="url(#f150dtg795kkbc)" height="39.0679" rx="12.5" ry="12.5" style="stroke: #A80036; stroke-width: 1.5;" width="141" x="304" y="433.4754"/><text fill="#000000" font-family="sans-serif" font-size="14" lengthAdjust="spacingAndGlyphs" textLength="121" x="314" y="458.4414">Phase modulation</text><rect fill="#FEFECE" filter="url(#f150dtg795kkbc)" height="39.0679" rx="12.5" ry="12.5" style="stroke: #A80036; stroke-width: 1.5;" width="45" x="495" y="374.4075"/><text fill="#000000" font-family="sans-serif" font-size="14" lengthAdjust="spacingAndGlyphs" textLength="25" x="505" y="399.3734">PSK</text><path d="M445,453.0094 L455,453.0094 C470,453.0094 470,393.9415 485,393.9415 L495,393.9415 " fill="none" style="stroke: #A80036; stroke-width: 1.0;"/><rect fill="#FEFECE" filter="url(#f150dtg795kkbc)" height="39.0679" rx="12.5" ry="12.5" style="stroke: #A80036; stroke-width: 1.5;" width="55" x="495" y="433.4754"/><text fill="#000000" font-family="sans-serif" font-size="14" lengthAdjust="spacingAndGlyphs" textLength="35" x="505" y="458.4414">DPSK</text><path d="M445,453.0094 L455,453.0094 C470,453.0094 470,453.0094 485,453.0094 L495,453.0094 " fill="none" style="stroke: #A80036; stroke-width: 1.0;"/><rect fill="#FEFECE" filter="url(#f150dtg795kkbc)" height="39.0679" rx="12.5" ry="12.5" style="stroke: #A80036; stroke-width: 1.5;" width="56" x="495" y="492.5433"/><text fill="#000000" font-family="sans-serif" font-size="14" lengthAdjust="spacingAndGlyphs" textLength="36" x="505" y="517.5093">OPSK</text><path d="M445,453.0094 L455,453.0094 C470,453.0094 470,512.0773 485,512.0773 L495,512.0773 " fill="none" style="stroke: #A80036; stroke-width: 1.0;"/><path d="M254,453.0094 L264,453.0094 C279,453.0094 279,453.0094 294,453.0094 L304,453.0094 " fill="none" style="stroke: #A80036; stroke-width: 1.0;"/><rect fill="#FEFECE" filter="url(#f150dtg795kkbc)" height="39.0679" rx="12.5" ry="12.5" style="stroke: #A80036; stroke-width: 1.5;" width="223" x="304" y="610.6792"/><text fill="#000000" font-family="sans-serif" font-size="14" lengthAdjust="spacingAndGlyphs" textLength="203" x="314" y="635.6451">Continuous phase modulation</text><rect fill="#FEFECE" filter="url(#f150dtg795kkbc)" height="39.0679" rx="12.5" ry="12.5" style="stroke: #A80036; stroke-width: 1.5;" width="60" x="577" y="551.6113"/><text fill="#000000" font-family="sans-serif" font-size="14" lengthAdjust="spacingAndGlyphs" textLength="40" x="587" y="576.5772">GMSK</text><path d="M527,630.2131 L537,630.2131 C552,630.2131 552,571.1452 567,571.1452 L577,571.1452 " fill="none" style="stroke: #A80036; stroke-width: 1.0;"/><rect fill="#FEFECE" filter="url(#f150dtg795kkbc)" height="39.0679" rx="12.5" ry="12.5" style="stroke: #A80036; stroke-width: 1.5;" width="50" x="577" y="610.6792"/><text fill="#000000" font-family="sans-serif" font-size="14" lengthAdjust="spacingAndGlyphs" textLength="30" x="587" y="635.6451">MSK</text><path d="M527,630.2131 L537,630.2131 C552,630.2131 552,630.2131 567,630.2131 L577,630.2131 " fill="none" style="stroke: #A80036; stroke-width: 1.0;"/><rect fill="#FEFECE" filter="url(#f150dtg795kkbc)" height="39.0679" rx="12.5" ry="12.5" style="stroke: #A80036; stroke-width: 1.5;" width="61" x="577" y="669.7471"/><text fill="#000000" font-family="sans-serif" font-size="14" lengthAdjust="spacingAndGlyphs" textLength="41" x="587" y="694.713">CPFSK</text><path d="M527,630.2131 L537,630.2131 C552,630.2131 552,689.281 567,689.281 L577,689.281 " fill="none" style="stroke: #A80036; stroke-width: 1.0;"/><path d="M254,453.0094 L264,453.0094 C279,453.0094 279,630.2131 294,630.2131 L304,630.2131 " fill="none" style="stroke: #A80036; stroke-width: 1.0;"/><path d="M107,364.4075 L117,364.4075 C132,364.4075 132,453.0094 147,453.0094 L157,453.0094 " fill="none" style="stroke: #A80036; stroke-width: 1.0;"/><!--MD5=[7ef367099d2599d710f7fccedea98287]
@startmindmap
* Types of\nmodulation\ntechniques
** **Analog**\nModulation\ntechniques
*** Amplitude modulation
*** Frequency modulation
*** Phase modulation
** **Digital**\nModulation\ntechniques
*** Amplitude modulation
**** PAM
**** QAM
*** Frequency modulation
**** FSK
*** Phase modulation
**** PSK
**** DPSK
**** OPSK
*** Continuous phase modulation
**** GMSK
**** MSK
**** CPFSK
@endmindmap

PlantUML version 1.2020.02(Sun Mar 01 14:22:07 GST 2020)
(GPL source distribution)
Java Runtime: OpenJDK Runtime Environment
JVM: OpenJDK 64-Bit Server VM
Java Version: 17.0.8+7-Debian-1deb12u1
Operating System: Linux
Default Encoding: UTF-8
Language: pt
Country: BR
--></g></svg>