<?xml version="1.0" encoding="UTF-8" standalone="no"?><svg xmlns="http://www.w3.org/2000/svg" xmlns:xlink="http://www.w3.org/1999/xlink" contentScriptType="application/ecmascript" contentStyleType="text/css" height="686px" preserveAspectRatio="none" style="width:660px;height:686px;" version="1.1" viewBox="0 0 660 686" width="660px" zoomAndPan="magnify"><defs><filter height="300%" id="f150dtg795kkbc" width="300%" x="-1" y="-1"><feGaussianBlur result="blurOut" stdDeviation="2.0"/><feColorMatrix in="blurOut" result="blurOut2" type="matrix" values="0 0 0 0 0 0 0 0 0 0 0 0 0 0 0 0 0 0 .4 0"/><feOffset dx="4.0" dy="4.0" in="blurOut2" result="blurOut3"/><feBlend in="SourceGraphic" in2="blurOut3" mode="normal"/></filter></defs><g><rect fill="#FEFECE" filter="url(#f150dtg795kkbc)" height="68.8906" rx="12.5" ry="12.5" style="stroke: #A80036; stroke-width: 1.5;" width="98" x="10" y="313.3359"/><text fill="#000000" font-family="sans-serif" font-size="14" lengthAdjust="spacingAndGlyphs" textLength="59" x="20" y="336.3311">Types of</text><text fill="#000000" font-family="sans-serif" font-size="14" lengthAdjust="spacingAndGlyphs" textLength="77" x="20" y="352.6279">modulation</text><text fill="#000000" font-family="sans-serif" font-size="14" lengthAdjust="spacingAndGlyphs" textLength="78" x="20" y="368.9248">techniques</text><rect fill="#FEFECE" filter="url(#f150dtg795kkbc)" height="68.8906" rx="12.5" ry="12.5" style="stroke: #A80036; stroke-width: 1.5;" width="98" x="158" y="60"/><text fill="#000000" font-family="sans-serif" font-size="14" font-weight="bold" lengthAdjust="spacingAndGlyphs" textLength="54" x="168" y="82.9951">Analog</text><text fill="#000000" font-family="sans-serif" font-size="14" lengthAdjust="spacingAndGlyphs" textLength="76" x="168" y="99.292">Modulation</text><text fill="#000000" font-family="sans-serif" font-size="14" lengthAdjust="spacingAndGlyphs" textLength="78" x="168" y="115.5889">techniques</text><rect fill="#FEFECE" filter="url(#f150dtg795kkbc)" height="36.2969" rx="12.5" ry="12.5" style="stroke: #A80036; stroke-width: 1.5;" width="170" x="306" y="20"/><text fill="#000000" font-family="sans-serif" font-size="14" lengthAdjust="spacingAndGlyphs" textLength="150" x="316" y="42.9951">Amplitude modulation</text><path d="M256,94.4453 L266,94.4453 C281,94.4453 281,38.1484 296,38.1484 L306,38.1484 " fill="none" style="stroke: #A80036; stroke-width: 1.0;"/><rect fill="#FEFECE" filter="url(#f150dtg795kkbc)" height="36.2969" rx="12.5" ry="12.5" style="stroke: #A80036; stroke-width: 1.5;" width="174" x="306" y="76.2969"/><text fill="#000000" font-family="sans-serif" font-size="14" lengthAdjust="spacingAndGlyphs" textLength="154" x="316" y="99.292">Frequency modulation</text><path d="M256,94.4453 L266,94.4453 C281,94.4453 281,94.4453 296,94.4453 L306,94.4453 " fill="none" style="stroke: #A80036; stroke-width: 1.0;"/><rect fill="#FEFECE" filter="url(#f150dtg795kkbc)" height="36.2969" rx="12.5" ry="12.5" style="stroke: #A80036; stroke-width: 1.5;" width="144" x="306" y="132.5938"/><text fill="#000000" font-family="sans-serif" font-size="14" lengthAdjust="spacingAndGlyphs" textLength="124" x="316" y="155.5889">Phase modulation</text><path d="M256,94.4453 L266,94.4453 C281,94.4453 281,150.7422 296,150.7422 L306,150.7422 " fill="none" style="stroke: #A80036; stroke-width: 1.0;"/><path d="M108,347.7813 L118,347.7813 C133,347.7813 133,94.4453 148,94.4453 L158,94.4453 " fill="none" style="stroke: #A80036; stroke-width: 1.0;"/><rect fill="#FEFECE" filter="url(#f150dtg795kkbc)" height="68.8906" rx="12.5" ry="12.5" style="stroke: #A80036; stroke-width: 1.5;" width="98" x="158" y="397.7813"/><text fill="#000000" font-family="sans-serif" font-size="14" font-weight="bold" lengthAdjust="spacingAndGlyphs" textLength="48" x="168" y="420.7764">Digital</text><text fill="#000000" font-family="sans-serif" font-size="14" lengthAdjust="spacingAndGlyphs" textLength="76" x="168" y="437.0732">Modulation</text><text fill="#000000" font-family="sans-serif" font-size="14" lengthAdjust="spacingAndGlyphs" textLength="78" x="168" y="453.3701">techniques</text><rect fill="#FEFECE" filter="url(#f150dtg795kkbc)" height="36.2969" rx="12.5" ry="12.5" style="stroke: #A80036; stroke-width: 1.5;" width="170" x="306" y="217.0391"/><text fill="#000000" font-family="sans-serif" font-size="14" lengthAdjust="spacingAndGlyphs" textLength="150" x="316" y="240.0342">Amplitude modulation</text><rect fill="#FEFECE" filter="url(#f150dtg795kkbc)" height="36.2969" rx="12.5" ry="12.5" style="stroke: #A80036; stroke-width: 1.5;" width="50" x="526" y="188.8906"/><text fill="#000000" font-family="sans-serif" font-size="14" lengthAdjust="spacingAndGlyphs" textLength="30" x="536" y="211.8857">PAM</text><path d="M476,235.1875 L486,235.1875 C501,235.1875 501,207.0391 516,207.0391 L526,207.0391 " fill="none" style="stroke: #A80036; stroke-width: 1.0;"/><rect fill="#FEFECE" filter="url(#f150dtg795kkbc)" height="36.2969" rx="12.5" ry="12.5" style="stroke: #A80036; stroke-width: 1.5;" width="52" x="526" y="245.1875"/><text fill="#000000" font-family="sans-serif" font-size="14" lengthAdjust="spacingAndGlyphs" textLength="32" x="536" y="268.1826">QAM</text><path d="M476,235.1875 L486,235.1875 C501,235.1875 501,263.3359 516,263.3359 L526,263.3359 " fill="none" style="stroke: #A80036; stroke-width: 1.0;"/><path d="M256,432.2266 L266,432.2266 C281,432.2266 281,235.1875 296,235.1875 L306,235.1875 " fill="none" style="stroke: #A80036; stroke-width: 1.0;"/><rect fill="#FEFECE" filter="url(#f150dtg795kkbc)" height="36.2969" rx="12.5" ry="12.5" style="stroke: #A80036; stroke-width: 1.5;" width="174" x="306" y="301.4844"/><text fill="#000000" font-family="sans-serif" font-size="14" lengthAdjust="spacingAndGlyphs" textLength="154" x="316" y="324.4795">Frequency modulation</text><rect fill="#FEFECE" filter="url(#f150dtg795kkbc)" height="36.2969" rx="12.5" ry="12.5" style="stroke: #A80036; stroke-width: 1.5;" width="46" x="530" y="301.4844"/><text fill="#000000" font-family="sans-serif" font-size="14" lengthAdjust="spacingAndGlyphs" textLength="26" x="540" y="324.4795">FSK</text><path d="M480,319.6328 L490,319.6328 C505,319.6328 505,319.6328 520,319.6328 L530,319.6328 " fill="none" style="stroke: #A80036; stroke-width: 1.0;"/><path d="M256,432.2266 L266,432.2266 C281,432.2266 281,319.6328 296,319.6328 L306,319.6328 " fill="none" style="stroke: #A80036; stroke-width: 1.0;"/><rect fill="#FEFECE" filter="url(#f150dtg795kkbc)" height="36.2969" rx="12.5" ry="12.5" style="stroke: #A80036; stroke-width: 1.5;" width="144" x="306" y="414.0781"/><text fill="#000000" font-family="sans-serif" font-size="14" lengthAdjust="spacingAndGlyphs" textLength="124" x="316" y="437.0732">Phase modulation</text><rect fill="#FEFECE" filter="url(#f150dtg795kkbc)" height="36.2969" rx="12.5" ry="12.5" style="stroke: #A80036; stroke-width: 1.5;" width="47" x="500" y="357.7813"/><text fill="#000000" font-family="sans-serif" font-size="14" lengthAdjust="spacingAndGlyphs" textLength="27" x="510" y="380.7764">PSK</text><path d="M450,432.2266 L460,432.2266 C475,432.2266 475,375.9297 490,375.9297 L500,375.9297 " fill="none" style="stroke: #A80036; stroke-width: 1.0;"/><rect fill="#FEFECE" filter="url(#f150dtg795kkbc)" height="36.2969" rx="12.5" ry="12.5" style="stroke: #A80036; stroke-width: 1.5;" width="58" x="500" y="414.0781"/><text fill="#000000" font-family="sans-serif" font-size="14" lengthAdjust="spacingAndGlyphs" textLength="38" x="510" y="437.0732">DPSK</text><path d="M450,432.2266 L460,432.2266 C475,432.2266 475,432.2266 490,432.2266 L500,432.2266 " fill="none" style="stroke: #A80036; stroke-width: 1.0;"/><rect fill="#FEFECE" filter="url(#f150dtg795kkbc)" height="36.2969" rx="12.5" ry="12.5" style="stroke: #A80036; stroke-width: 1.5;" width="58" x="500" y="470.375"/><text fill="#000000" font-family="sans-serif" font-size="14" lengthAdjust="spacingAndGlyphs" textLength="38" x="510" y="493.3701">OPSK</text><path d="M450,432.2266 L460,432.2266 C475,432.2266 475,488.5234 490,488.5234 L500,488.5234 " fill="none" style="stroke: #A80036; stroke-width: 1.0;"/><path d="M256,432.2266 L266,432.2266 C281,432.2266 281,432.2266 296,432.2266 L306,432.2266 " fill="none" style="stroke: #A80036; stroke-width: 1.0;"/><rect fill="#FEFECE" filter="url(#f150dtg795kkbc)" height="36.2969" rx="12.5" ry="12.5" style="stroke: #A80036; stroke-width: 1.5;" width="228" x="306" y="582.9688"/><text fill="#000000" font-family="sans-serif" font-size="14" lengthAdjust="spacingAndGlyphs" textLength="208" x="316" y="605.9639">Continuous phase modulation</text><rect fill="#FEFECE" filter="url(#f150dtg795kkbc)" height="36.2969" rx="12.5" ry="12.5" style="stroke: #A80036; stroke-width: 1.5;" width="61" x="584" y="526.6719"/><text fill="#000000" font-family="sans-serif" font-size="14" lengthAdjust="spacingAndGlyphs" textLength="41" x="594" y="549.667">GMSK</text><path d="M534,601.1172 L544,601.1172 C559,601.1172 559,544.8203 574,544.8203 L584,544.8203 " fill="none" style="stroke: #A80036; stroke-width: 1.0;"/><rect fill="#FEFECE" filter="url(#f150dtg795kkbc)" height="36.2969" rx="12.5" ry="12.5" style="stroke: #A80036; stroke-width: 1.5;" width="50" x="584" y="582.9688"/><text fill="#000000" font-family="sans-serif" font-size="14" lengthAdjust="spacingAndGlyphs" textLength="30" x="594" y="605.9639">MSK</text><path d="M534,601.1172 L544,601.1172 C559,601.1172 559,601.1172 574,601.1172 L584,601.1172 " fill="none" style="stroke: #A80036; stroke-width: 1.0;"/><rect fill="#FEFECE" filter="url(#f150dtg795kkbc)" height="36.2969" rx="12.5" ry="12.5" style="stroke: #A80036; stroke-width: 1.5;" width="65" x="584" y="639.2656"/><text fill="#000000" font-family="sans-serif" font-size="14" lengthAdjust="spacingAndGlyphs" textLength="45" x="594" y="662.2607">CPFSK</text><path d="M534,601.1172 L544,601.1172 C559,601.1172 559,657.4141 574,657.4141 L584,657.4141 " fill="none" style="stroke: #A80036; stroke-width: 1.0;"/><path d="M256,432.2266 L266,432.2266 C281,432.2266 281,601.1172 296,601.1172 L306,601.1172 " fill="none" style="stroke: #A80036; stroke-width: 1.0;"/><path d="M108,347.7813 L118,347.7813 C133,347.7813 133,432.2266 148,432.2266 L158,432.2266 " fill="none" style="stroke: #A80036; stroke-width: 1.0;"/><!--MD5=[32d6e70b181476552b0cbfccc688a0ba]
@startmindmap
* Types of\nmodulation\ntechniques
** **Analog**\nModulation\ntechniques
*** Amplitude modulation
*** Frequency modulation
*** Phase modulation
** **Digital**\nModulation\ntechniques
*** Amplitude modulation
**** PAM
**** QAM
*** Frequency modulation
**** FSK
*** Phase modulation
**** PSK
**** DPSK
**** OPSK
*** Continuous phase modulation
**** GMSK
**** MSK
**** CPFSK
@endmindmap

PlantUML version 1.2020.02(Sun Mar 01 14:22:07 GST 2020)
(GPL source distribution)
Java Runtime: OpenJDK Runtime Environment
JVM: OpenJDK 64-Bit Server VM
Java Version: 11.0.23+9-post-Ubuntu-1ubuntu122.04.1
Operating System: Linux
Default Encoding: UTF-8
Language: en
Country: US
--></g></svg>