<svg xmlns="http://www.w3.org/2000/svg" class="pikchr" viewBox="0 0 458.972 409.364"><path style="fill:#7f7f7f" d="m285.625 208.779-11.52 4.32v-8.64z"/><path d="M2.16 208.779h277.705" style="fill:none;stroke-width:2.16;stroke:#7f7f7f"/><text x="302.444" y="218.859" text-anchor="middle" fill="#FFF" dominant-baseline="central">Re</text><path style="fill:#7f7f7f" d="m30.506 10.354 4.32 11.52h-8.64z"/><path d="M30.506 407.204V16.114" style="fill:none;stroke-width:2.16;stroke:#7f7f7f"/><text x="47.383" y="20.433" text-anchor="middle" fill="#FFF" dominant-baseline="central">Im</text><path style="fill:#ff7f7f" d="m257.278 38.7-9.936 15.552-7.776-10.368z"/><path d="m30.506 208.779 219.86-164.895" style="fill:none;stroke-width:3.24;stroke:#ff7f7f"/><circle cx="257.278" cy="38.7" r="4.32" style="fill:#ff7f7f;stroke-width:2.16;stroke:#ff7f7f"/><path style="fill:#ffff7f" d="m257.278 378.857-17.712-5.184 7.776-10.368z"/><path d="m30.506 208.779 219.86 164.894" style="fill:none;stroke-width:3.24;stroke:#ffff7f"/><circle cx="257.278" cy="378.857" r="4.32" style="fill:#ffff7f;stroke-width:2.16;stroke:#ffff7f"/><path d="M257.278 208.779V38.7M30.506 38.7h226.772M257.278 208.779v170.078M30.506 378.857h226.772" style="fill:none;stroke-width:1.4472;stroke:#fff;stroke-dasharray:7.2,7.2"/><text x="19.505" y="223.899" text-anchor="middle" font-style="italic" fill="#FFF" dominant-baseline="central">0</text><text x="246.565" y="223.899" text-anchor="middle" font-style="italic" fill="#FFF" dominant-baseline="central">a</text><text x="19.447" y="38.7" text-anchor="middle" font-style="italic" fill="#FFF" dominant-baseline="central">b</text><text x="16.683" y="378.857" text-anchor="middle" font-style="italic" fill="#FFF" dominant-baseline="central">-b</text><text x="329.638" y="17.91" text-anchor="middle" font-style="italic" fill="#FF7F7F" font-size="156.25%" dominant-baseline="central">Z = a + bi</text><text x="309.388" y="378.857" text-anchor="middle" fill="#FFFF7F" font-size="156.25%" dominant-baseline="central">conj(Z)</text><text x="285.625" y="75.233" fill="#7F7F7F" dominant-baseline="central">a: real part</text><text x="285.625" y="95.393" fill="#7F7F7F" dominant-baseline="central">b: imaginary part</text><text x="285.625" y="115.553" fill="#7F7F7F" dominant-baseline="central">i: imaginary number</text><text x="143.892" y="113.659" text-anchor="middle" fill="#FFF" transform="rotate(-36.87 143.892 123.739)" dominant-baseline="central">abs</text><path style="fill:#fff" d="m143.892 208.779 1.288-12.236 7.728 3.864zM121.215 140.747l12.236 1.288-3.864 7.728z"/><path d="M146.468 203.627q20.101-40.203-20.101-60.304" style="fill:none;stroke-width:2.16;stroke:#fff"/><text x="173.786" y="172.923" text-anchor="middle" fill="#FFF" dominant-baseline="central">  phase</text></svg>