<svg xmlns="http://www.w3.org/2000/svg" class="pikchr" viewBox="0 0 656.237 339.63"><path d="M16.307 167.391h113.386v-72H16.307Z" style="fill:none;stroke-width:2.16;stroke:#ffd17f"/><text x="73" y="121.311" text-anchor="middle" fill="#FFD17F" dominant-baseline="central">Header</text><text x="73" y="141.471" text-anchor="middle" fill="#FFD17F" dominant-baseline="central">16 bytes</text><path d="M129.693 167.391h396.851v-72H129.693Z" style="fill:#116f11;stroke-width:2.16;stroke:#7fff7f"/><text x="328.118" y="121.311" text-anchor="middle" fill="#7FFF7F" dominant-baseline="central">Requested memory</text><text x="328.118" y="141.471" text-anchor="middle" fill="#7FFF7F" dominant-baseline="central">20 bytes</text><path d="M526.544 167.391h113.385v-72H526.544Z" style="fill:none;stroke-width:2.16;stroke:#ff7fff"/><text x="583.237" y="121.311" text-anchor="middle" fill="#FF7FFF" dominant-baseline="central">Padding</text><text x="583.237" y="141.471" text-anchor="middle" fill="#FF7FFF" dominant-baseline="central">12 bytes</text><path style="fill:#ff7f7f" d="m129.693 95.391 2.442-12.058 7.327 4.58z"/><path d="m132.746 90.507 25.294-40.47h28.346" style="fill:none;stroke-width:2.16;stroke-linejoin:round;stroke:#ff7f7f"/><text x="302.853" y="50.037" text-anchor="middle" fill="#FF7F7F" dominant-baseline="central">The address you are given</text><path d="M16.307 84.053 44.654 27.36h566.929l28.346 56.693" style="fill:none;stroke-width:2.16;stroke-linejoin:round;stroke:#7f7f7f"/><text x="328.118" y="12.24" text-anchor="middle" fill="#7F7F7F" dominant-baseline="central">Total allocated memory **</text><path d="M129.693 201.407h255.118v-28.346H129.693Z" style="fill:none;stroke-width:1.4472;stroke:#565656"/><text x="257.252" y="187.234" text-anchor="middle" fill="#565656" dominant-baseline="central">16-byte block</text><path d="M384.811 201.407h255.118v-28.346H384.811Z" style="fill:none;stroke-width:1.4472;stroke:#565656"/><text x="512.37" y="187.234" text-anchor="middle" fill="#565656" dominant-baseline="central">16-byte block</text><path style="fill:#7f7f7f" d="m73 167.391 9.016 8.372-7.728 3.864z"/><path d="m75.576 172.543 54.117 108.234h56.693" style="fill:none;stroke-width:2.16;stroke-linejoin:round;stroke:#7f7f7f"/><path d="M191.664 337.47h272.909v-90.72H191.664Z" style="fill:none;stroke-width:1.4472;stroke:#7f7f7f"/><text x="194.906" y="261.87" fill="#7F7F7F" dominant-baseline="central">size</text><text x="194.906" y="282.03" fill="#7F7F7F" dominant-baseline="central">special marker</text><text x="194.906" y="302.19" fill="#7F7F7F" dominant-baseline="central">checksum</text><text x="194.906" y="322.35" fill="#7F7F7F" dominant-baseline="central">pointers to next/previous block</text><path d="M191.664 246.75h272.909v-90.72H191.664Z" style="fill:none;stroke-width:1.4472;stroke:#7f7f7f"/><text x="194.906" y="171.15" fill="#7F7F7F" dominant-baseline="central">size</text><text x="194.906" y="191.31" fill="#7F7F7F" dominant-baseline="central">special marker</text><text x="194.906" y="211.47" fill="#7F7F7F" dominant-baseline="central">checksum</text><text x="194.906" y="231.63" fill="#7F7F7F" dominant-baseline="central">pointers to next/previous block</text><text x="328.118" y="261.87" text-anchor="middle" fill="#FFF" dominant-baseline="central">**  The size of the header and the padding are totally implementation defined</text></svg>