<svg xmlns="http://www.w3.org/2000/svg" class="pikchr" viewBox="0 0 627.942 89.359"><path d="M2 58h56V2H2Z" style="fill:none;stroke-width:2.16;stroke:#ffd17f"/><text x="30" y="30" fill="#FFD17F" dominant-baseline="central" font-size="64%" text-anchor="middle">Header 1</text><path d="M58 58h114V2H58Z" style="fill:#116f11;stroke-width:2.16;stroke:#7fff7f"/><text x="115" y="30" fill="#7FFF7F" dominant-baseline="central" font-size="64%" text-anchor="middle">Block 1</text><path d="M183 58h57V2h-57Z" style="fill:none;stroke-width:2.16;stroke:#ffd17f"/><text x="211" y="30" fill="#FFD17F" dominant-baseline="central" font-size="64%" text-anchor="middle">Header 2</text><path d="M240 58h113V2H240Z" style="fill:#116f11;stroke-width:2.16;stroke:#7fff7f"/><text x="296" y="30" fill="#7FFF7F" dominant-baseline="central" font-size="64%" text-anchor="middle">Block 2</text><text x="404" y="20" fill="#FFF" dominant-baseline="central" text-anchor="middle">...</text><path d="M455 58h57V2h-57Z" style="fill:none;stroke-width:2.16;stroke:#ffd17f"/><text x="484" y="30" fill="#FFD17F" dominant-baseline="central" font-size="64%" text-anchor="middle">Header N</text><path d="M512 58h113V2H512Z" style="fill:#116f11;stroke-width:2.16;stroke:#7fff7f"/><text x="569" y="30" fill="#7FFF7F" dominant-baseline="central" font-size="64%" text-anchor="middle">Block N</text><path d="m240 58 4 12h-9z" style="fill:#fff"/><path d="M30 58v29h210V64" style="fill:none;stroke-width:2.16;stroke-linejoin:round;stroke:#fff"/><path d="m512 58 4 12h-8z" style="fill:#fff"/><path d="M444 30v57h68V64" style="fill:none;stroke-width:2.16;stroke-linejoin:round;stroke:#fff"/></svg>