<svg xmlns="http://www.w3.org/2000/svg" class="pikchr" viewBox="0 0 627.942 89.359"><path d="M2.16 58.853h56.693V2.16H2.16Z" style="fill:none;stroke-width:2.16;stroke:#ffd17f"/><text x="30.506" y="30.506" text-anchor="middle" fill="#FFD17F" font-size="64%" dominant-baseline="central">Header 1</text><path d="M58.853 58.853h113.386V2.16H58.853Z" style="fill:#116f11;stroke-width:2.16;stroke:#7fff7f"/><text x="115.546" y="30.506" text-anchor="middle" fill="#7FFF7F" font-size="64%" dominant-baseline="central">Block 1</text><path d="M183.577 58.853h56.693V2.16h-56.693Z" style="fill:none;stroke-width:2.16;stroke:#ffd17f"/><text x="211.924" y="30.506" text-anchor="middle" fill="#FFD17F" font-size="64%" dominant-baseline="central">Header 2</text><path d="M240.27 58.853h113.386V2.16H240.27Z" style="fill:#116f11;stroke-width:2.16;stroke:#7fff7f"/><text x="296.963" y="30.506" text-anchor="middle" fill="#7FFF7F" font-size="64%" dominant-baseline="central">Block 2</text><text x="404.68" y="20.427" text-anchor="middle" fill="#FFF" dominant-baseline="central">...</text><path d="M455.703 58.853h56.693V2.16h-56.693Z" style="fill:none;stroke-width:2.16;stroke:#ffd17f"/><text x="484.05" y="30.506" text-anchor="middle" fill="#FFD17F" font-size="64%" dominant-baseline="central">Header N</text><path d="M512.396 58.853h113.386V2.16H512.396Z" style="fill:#116f11;stroke-width:2.16;stroke:#7fff7f"/><text x="569.089" y="30.506" text-anchor="middle" fill="#7FFF7F" font-size="64%" dominant-baseline="central">Block N</text><path style="fill:#fff" d="m240.27 58.853 4.32 11.52h-8.64z"/><path d="M30.506 58.853v28.346H240.27V64.613" style="fill:none;stroke-width:2.16;stroke-linejoin:round;stroke:#fff"/><path style="fill:#fff" d="m512.396 58.853 4.32 11.52h-8.64z"/><path d="M444.365 30.506V87.2h68.031V64.613" style="fill:none;stroke-width:2.16;stroke-linejoin:round;stroke:#fff"/></svg>