<svg xmlns="http://www.w3.org/2000/svg" class="pikchr" viewBox="0 0 542.97 360.72"><path d="M108 99h44V56h-44Z" style="fill:#7f7f00;stroke-width:2.16;stroke:#fff"/><text x="130" y="77" fill="#FFF" dominant-baseline="central" text-anchor="middle">5</text><path d="M152 99h43V56h-43Z" style="fill:#7f7f00;stroke-width:2.16;stroke:#fff"/><text x="173" y="77" fill="#FFF" dominant-baseline="central" text-anchor="middle">7</text><path d="M195 99h43V56h-43Z" style="fill:#7f7f00;stroke-width:2.16;stroke:#fff"/><text x="216" y="77" fill="#FFF" dominant-baseline="central" text-anchor="middle">4</text><path d="M238 99h43V56h-43Z" style="fill:#00007f;stroke-width:2.16;stroke:#fff"/><text x="260" y="77" fill="#FFF" dominant-baseline="central" text-anchor="middle">2</text><path d="M281 99h43V56h-43Z" style="fill:#3f7f3f;stroke-width:2.16;stroke:#fff"/><text x="303" y="77" fill="#FFF" dominant-baseline="central" text-anchor="middle">8</text><path d="M324 99h44V56h-44Z" style="fill:#3f7f3f;stroke-width:2.16;stroke:#fff"/><text x="346" y="77" fill="#FFF" dominant-baseline="central" text-anchor="middle">6</text><path d="M368 99h43V56h-43Z" style="fill:#00007f;stroke-width:2.16;stroke:#fff"/><text x="389" y="77" fill="#FFF" dominant-baseline="central" text-anchor="middle">1</text><path d="M411 99h43V56h-43Z" style="fill:#3f7f3f;stroke-width:2.16;stroke:#fff"/><text x="432" y="77" fill="#FFF" dominant-baseline="central" text-anchor="middle">9</text><path d="M454 99h43V56h-43Z" style="fill:#00007f;stroke-width:2.16;stroke:#fff"/><text x="476" y="77" fill="#FFF" dominant-baseline="central" text-anchor="middle">0</text><path d="M497 99h43V56h-43Z" style="fill:#3f7f3f;stroke-width:2.16;stroke:#fff"/><text x="519" y="77" fill="#FFF" dominant-baseline="central" text-anchor="middle">3</text><path d="M195 214h43v-43h-43Z" style="fill:#00007f;stroke-width:2.16;stroke:#fff"/><text x="216" y="192" fill="#FFF" dominant-baseline="central" text-anchor="middle">2</text><path d="m216 171 3-12 7 4z" style="fill:#fff"/><path d="m260 99-41 67" style="fill:none;stroke-width:2.16;stroke:#fff"/><path d="M108 315h44v-43h-44Z" style="fill:#00007f;stroke-width:2.16;stroke:#fff"/><text x="130" y="293" fill="#FFF" dominant-baseline="central" text-anchor="middle">0</text><path d="M152 315h43v-43h-43Z" style="fill:#00007f;stroke-width:2.16;stroke:#fff"/><text x="173" y="293" fill="#FFF" dominant-baseline="central" text-anchor="middle">1</text><path d="M195 315h43v-43h-43Z" style="fill:#00007f;stroke-width:2.16;stroke:#fff"/><text x="216" y="293" fill="#FFF" dominant-baseline="central" text-anchor="middle">2</text><path d="M238 358h43v-43h-43Z" style="fill:#7f7f00;stroke-width:2.16;stroke:#fff"/><text x="260" y="336" fill="#FFF" dominant-baseline="central" text-anchor="middle">7</text><path d="M281 358h43v-43h-43Z" style="fill:#3f7f3f;stroke-width:2.16;stroke:#fff"/><text x="303" y="336" fill="#FFF" dominant-baseline="central" text-anchor="middle">8</text><path d="M324 358h44v-43h-44Z" style="fill:#3f7f3f;stroke-width:2.16;stroke:#fff"/><text x="346" y="336" fill="#FFF" dominant-baseline="central" text-anchor="middle">6</text><path d="M368 358h43v-43h-43Z" style="fill:#7f7f00;stroke-width:2.16;stroke:#fff"/><text x="389" y="336" fill="#FFF" dominant-baseline="central" text-anchor="middle">5</text><path d="M411 358h43v-43h-43Z" style="fill:#3f7f3f;stroke-width:2.16;stroke:#fff"/><text x="432" y="336" fill="#FFF" dominant-baseline="central" text-anchor="middle">9</text><path d="M454 358h43v-43h-43Z" style="fill:#7f7f00;stroke-width:2.16;stroke:#fff"/><text x="476" y="336" fill="#FFF" dominant-baseline="central" text-anchor="middle">4</text><path d="M497 358h43v-43h-43Z" style="fill:#3f7f3f;stroke-width:2.16;stroke:#fff"/><text x="519" y="336" fill="#FFF" dominant-baseline="central" text-anchor="middle">3</text><path d="m216 272-4-12h9z" style="fill:#fff"/><path d="M216 214v52" style="fill:none;stroke-width:2.16;stroke:#fff"/><path d="m519 315-5-12h9z" style="fill:#fff"/><path d="M519 99v210" style="fill:none;stroke-width:2.16;stroke:#fff"/><path d="m432 315-4-12h9z" style="fill:#fff"/><path d="M432 99v210" style="fill:none;stroke-width:2.16;stroke:#fff"/><path d="m346 315-4-12h8z" style="fill:#fff"/><path d="M346 99v210" style="fill:none;stroke-width:2.16;stroke:#fff"/><path d="m303 315-5-12h9z" style="fill:#fff"/><path d="M303 99v210" style="fill:none;stroke-width:2.16;stroke:#fff"/><path d="m195 192-12 5v-9z" style="fill:#fff"/><path d="M189 192h-66" style="fill:none;stroke-width:2.16;stroke:#fff"/><text x="159" y="181" fill="#FFF" dominant-baseline="central" text-anchor="middle">3rd</text><text x="159" y="204" fill="#FFF" dominant-baseline="central" text-anchor="middle">position</text><text x="260" y="12" fill="#FFF" dominant-baseline="central" text-anchor="middle">3rd element</text><path d="m260 56-5-12h9z" style="fill:#fff"/><path d="M260 27v23" style="fill:none;stroke-width:2.16;stroke:#fff"/><text x="36" y="293" fill="#FFF" dominant-baseline="central" font-size="156.25%" text-anchor="middle">[0, 3)</text></svg>