<svg xmlns="http://www.w3.org/2000/svg" class="pikchr" viewBox="0 0 631.534 356.644"><path d="M2.944 244.244H116.33v-72H2.944Z" style="fill:none;stroke-width:2.16;stroke:#ffd17f"/><text x="59.637" y="188.084" text-anchor="middle" fill="#FFD17F" dominant-baseline="central">Header</text><text x="59.637" y="208.244" text-anchor="middle" fill="#FFD17F" dominant-baseline="central">Metadata</text><text x="59.637" y="224.776" text-anchor="middle" fill="#FFD17F" font-size="64%" dominant-baseline="central">16 bytes</text><path d="M116.33 244.244h396.85v-72H116.33Z" style="fill:#116f11;stroke-width:2.16;stroke:#7fff7f"/><text x="314.755" y="198.164" text-anchor="middle" fill="#7FFF7F" dominant-baseline="central">Requested memory</text><text x="314.755" y="214.696" text-anchor="middle" fill="#7FFF7F" font-size="64%" dominant-baseline="central">20 bytes</text><path d="M513.18 244.244h113.386v-72H513.18Z" style="fill:none;stroke-width:2.16;stroke:#ff7fff"/><text x="569.873" y="188.084" text-anchor="middle" fill="#FF7FFF" dominant-baseline="central">Padding</text><text x="569.873" y="208.244" text-anchor="middle" fill="#FF7FFF" dominant-baseline="central">For alignment</text><text x="569.873" y="224.776" text-anchor="middle" fill="#FF7FFF" font-size="64%" dominant-baseline="central">12 bytes</text><path style="fill:#ff7f7f" d="m116.33 172.244 2.442-12.058 7.327 4.579z"/><path d="m119.383 167.36 25.293-40.47h28.347" style="fill:none;stroke-width:2.16;stroke-linejoin:round;stroke:#ff7f7f"/><path d="M173.023 142.01h232.934v-30.24H173.023Z" style="fill:none;stroke-width:1.4472;stroke:#ff7f7f"/><text x="289.49" y="126.89" text-anchor="middle" fill="#FF7F7F" dominant-baseline="central">The address you are given</text><path d="M2.944 160.906 31.291 47.52H598.22l28.346 113.386" style="fill:none;stroke-width:2.16;stroke-linejoin:round;stroke:#7f7f7f"/><text x="314.755" y="12.24" text-anchor="middle" fill="#7F7F7F" dominant-baseline="central">Total allocated memory</text><text x="314.755" y="32.4" text-anchor="middle" fill="#7F7F7F" dominant-baseline="central">The size of the header and the padding are totally implementation defined</text><path d="M116.33 278.26h255.118v-28.346H116.33Z" style="fill:none;stroke-width:1.4472;stroke:#7f7f7f"/><text x="243.889" y="264.087" text-anchor="middle" fill="#7F7F7F" font-size="80%" dominant-baseline="central">16-byte block</text><path d="M371.448 278.26h255.118v-28.346H371.448Z" style="fill:none;stroke-width:1.4472;stroke:#7f7f7f"/><text x="499.007" y="264.087" text-anchor="middle" fill="#7F7F7F" font-size="80%" dominant-baseline="central">16-byte block</text><path style="fill:#7f7f7f" d="m59.637 244.244 7.741 9.563-8.196 2.732z"/><path d="m61.459 249.709 26.525 79.575h28.346" style="fill:none;stroke-width:2.16;stroke-linejoin:round;stroke:#7f7f7f"/><path d="M116.33 354.484h279.36v-50.4H116.33Z" style="fill:none;stroke-width:1.4472;stroke:#7f7f7f"/><text x="256.01" y="319.204" text-anchor="middle" fill="#7F7F7F" dominant-baseline="central">size, special marker, checksum,</text><text x="256.01" y="339.364" text-anchor="middle" fill="#7F7F7F" dominant-baseline="central">pointers to next/previous block</text></svg>