<svg xmlns="http://www.w3.org/2000/svg" class="pikchr" viewBox="0 0 740.866 833.906"><text x="258" y="8" fill="#FFF" dominant-baseline="central" font-size="64%" text-anchor="middle">High address</text><path d="M116 76h284V20H116Z" style="fill:none;stroke-width:2.16;stroke:#fff"/><text x="258" y="38" fill="#FFF" dominant-baseline="central" text-anchor="middle">Kernel virtual memory</text><text x="258" y="58" fill="#FFF" dominant-baseline="central" text-anchor="middle">(code, data, heap, stack)</text><path d="M116 133h284V76H116Z" style="fill:none;stroke-width:2.16;stroke:#fff"/><text x="258" y="95" fill="#FFF" dominant-baseline="central" text-anchor="middle">Command line</text><text x="258" y="115" fill="#FFF" dominant-baseline="central" text-anchor="middle">Environment variables</text><path d="M116 190h284v-57H116Z" style="fill:#7f7f00;stroke-width:2.16;stroke:#fff"/><text x="258" y="161" fill="#FFF" dominant-baseline="central" text-anchor="middle">Stack</text><path d="M116 303h284V190H116Z" style="fill:#4d7f4d;stroke-width:2.16;stroke:#fff"/><text x="258" y="246" fill="#FFF" dominant-baseline="central" text-anchor="middle">Free memory</text><path d="M116 360h284v-57H116Z" style="fill:#7f3f7f;stroke-width:2.16;stroke:#fff"/><text x="258" y="321" fill="#FFF" dominant-baseline="central" text-anchor="middle">Memory mapped region</text><text x="258" y="341" fill="#FFF" dominant-baseline="central" text-anchor="middle">for shared libraries</text><path d="M116 473h284V360H116Z" style="fill:#4d7f4d;stroke-width:2.16;stroke:#fff"/><text x="258" y="416" fill="#FFF" dominant-baseline="central" text-anchor="middle">Free memory</text><path d="M116 530h284v-57H116Z" style="fill:#194452;stroke-width:2.16;stroke:#fff"/><text x="258" y="491" fill="#FFF" dominant-baseline="central" text-anchor="middle">Runtime heap</text><text x="258" y="512" fill="#FFF" dominant-baseline="central" text-anchor="middle">created by malloc</text><path d="M116 587h284v-57H116Z" style="fill:#194452;stroke-width:2.16;stroke:#fff"/><text x="258" y="558" fill="#FFF" dominant-baseline="central" text-anchor="middle">Heap</text><path d="M116 643h284v-56H116Z" style="fill:none;stroke-width:2.16;stroke:#fff"/><text x="258" y="605" fill="#FFF" dominant-baseline="central" text-anchor="middle">UNINITIALIZED DATA</text><text x="258" y="625" fill="#FFF" dominant-baseline="central" text-anchor="middle">(.bss)</text><path d="M116 700h284v-57H116Z" style="fill:none;stroke-width:2.16;stroke:#fff"/><text x="258" y="661" fill="#FFF" dominant-baseline="central" text-anchor="middle">INITIALIZED DATA</text><text x="258" y="682" fill="#FFF" dominant-baseline="central" text-anchor="middle">(.data)</text><path d="M116 757h284v-57H116Z" style="fill:none;stroke-width:2.16;stroke:#fff"/><text x="258" y="718" fill="#FFF" dominant-baseline="central" text-anchor="middle">Read only segment</text><text x="258" y="738" fill="#FFF" dominant-baseline="central" text-anchor="middle">(.init, .text, .rodata)</text><path d="M116 813h284v-56H116Z" style="fill:none;stroke-width:2.16;stroke:#fff"/><text x="258" y="785" fill="#FFF" dominant-baseline="central" text-anchor="middle">UNUSED</text><text x="258" y="825" fill="#FFF" dominant-baseline="central" font-size="64%" text-anchor="middle">Low address</text><path d="m400 615 11-4v8z" style="fill:#7f7f7f"/><path d="M406 615h66" style="fill:none;stroke-width:2.16;stroke:#7f7f7f"/><text x="595" y="605" fill="#7F7F7F" dominant-baseline="central" text-anchor="middle">initialized to zero by exec</text><text x="595" y="625" fill="#7F7F7F" dominant-baseline="central" text-anchor="middle">(global and static variables)</text><path d="m400 672 11-5v9z" style="fill:#7f7f7f"/><path d="M406 672h66" style="fill:none;stroke-width:2.16;stroke:#7f7f7f"/><text x="608" y="661" fill="#7F7F7F" dominant-baseline="central" text-anchor="middle">read from program file by exec</text><text x="608" y="682" fill="#7F7F7F" dominant-baseline="central" text-anchor="middle">(global and static variables)</text><path d="m400 728 8-9 4 7z" style="fill:#7f7f7f"/><path d="m405 725 68-39" style="fill:none;stroke-width:2.16;stroke:#7f7f7f"/><text x="74" y="20" fill="#7F7F7F" dominant-baseline="central" text-anchor="middle">0xffff ffff</text><text x="57" y="76" fill="#7F7F7F" dominant-baseline="central" text-anchor="middle">0xc000 0000</text><text x="56" y="360" fill="#7F7F7F" dominant-baseline="central" text-anchor="middle">0x4000 0000</text><text x="56" y="757" fill="#7F7F7F" dominant-baseline="central" text-anchor="middle">0x0804 8000</text><text x="56" y="813" fill="#7F7F7F" dominant-baseline="central" text-anchor="middle">0x0000 0000</text><text x="258" y="205" fill="#FFF" dominant-baseline="central" text-anchor="middle">▼</text><text x="258" y="288" fill="#FFF" dominant-baseline="central" text-anchor="middle">▲</text><text x="258" y="458" fill="#FFF" dominant-baseline="central" text-anchor="middle">▲</text><path d="m400 190 11-5v9z" style="fill:#ff7f7f"/><path d="M406 190h66" style="fill:none;stroke-width:2.16;stroke:#ff7f7f"/><text x="552" y="190" fill="#FF7F7F" dominant-baseline="central" text-anchor="middle">%esp (user stack)</text><path d="m400 473 11-4v8z" style="fill:#ff7f7f"/><path d="M406 473h66" style="fill:none;stroke-width:2.16;stroke:#ff7f7f"/><text x="492" y="473" fill="#FF7F7F" dominant-baseline="central" text-anchor="middle">brk</text><text x="532" y="48" fill="#7F7F7F" dominant-baseline="central" text-anchor="middle">Memory invisible to user code</text></svg>