<svg xmlns="http://www.w3.org/2000/svg" class="pikchr" viewBox="0 0 740.866 833.906"><text x="258" y="8" text-anchor="middle" fill="#FFF" font-size="64%" dominant-baseline="central">High address</text><path d="M116 76h284V20H116Z" style="fill:none;stroke-width:2.16;stroke:#fff"/><text x="258" y="38" text-anchor="middle" fill="#FFF" dominant-baseline="central">Kernel virtual memory</text><text x="258" y="58" text-anchor="middle" fill="#FFF" dominant-baseline="central">(code, data, heap, stack)</text><path d="M116 133h284V76H116Z" style="fill:none;stroke-width:2.16;stroke:#fff"/><text x="258" y="95" text-anchor="middle" fill="#FFF" dominant-baseline="central">Command line</text><text x="258" y="115" text-anchor="middle" fill="#FFF" dominant-baseline="central">Environment variables</text><path d="M116 190h284v-57H116Z" style="fill:#7f7f00;stroke-width:2.16;stroke:#fff"/><text x="258" y="161" text-anchor="middle" fill="#FFF" dominant-baseline="central">Stack</text><path d="M116 303h284V190H116Z" style="fill:#4d7f4d;stroke-width:2.16;stroke:#fff"/><text x="258" y="246" text-anchor="middle" fill="#FFF" dominant-baseline="central">Free memory</text><path d="M116 360h284v-57H116Z" style="fill:#7f3f7f;stroke-width:2.16;stroke:#fff"/><text x="258" y="321" text-anchor="middle" fill="#FFF" dominant-baseline="central">Memory mapped region</text><text x="258" y="341" text-anchor="middle" fill="#FFF" dominant-baseline="central">for shared libraries</text><path d="M116 473h284V360H116Z" style="fill:#4d7f4d;stroke-width:2.16;stroke:#fff"/><text x="258" y="416" text-anchor="middle" fill="#FFF" dominant-baseline="central">Free memory</text><path d="M116 530h284v-57H116Z" style="fill:#194452;stroke-width:2.16;stroke:#fff"/><text x="258" y="491" text-anchor="middle" fill="#FFF" dominant-baseline="central">Runtime heap</text><text x="258" y="512" text-anchor="middle" fill="#FFF" dominant-baseline="central">created by malloc</text><path d="M116 587h284v-57H116Z" style="fill:#194452;stroke-width:2.16;stroke:#fff"/><text x="258" y="558" text-anchor="middle" fill="#FFF" dominant-baseline="central">Heap</text><path d="M116 643h284v-56H116Z" style="fill:none;stroke-width:2.16;stroke:#fff"/><text x="258" y="605" text-anchor="middle" fill="#FFF" dominant-baseline="central">UNINITIALIZED DATA</text><text x="258" y="625" text-anchor="middle" fill="#FFF" dominant-baseline="central">(.bss)</text><path d="M116 700h284v-57H116Z" style="fill:none;stroke-width:2.16;stroke:#fff"/><text x="258" y="661" text-anchor="middle" fill="#FFF" dominant-baseline="central">INITIALIZED DATA</text><text x="258" y="682" text-anchor="middle" fill="#FFF" dominant-baseline="central">(.data)</text><path d="M116 757h284v-57H116Z" style="fill:none;stroke-width:2.16;stroke:#fff"/><text x="258" y="718" text-anchor="middle" fill="#FFF" dominant-baseline="central">Read only segment</text><text x="258" y="738" text-anchor="middle" fill="#FFF" dominant-baseline="central">(.init, .text, .rodata)</text><path d="M116 813h284v-56H116Z" style="fill:none;stroke-width:2.16;stroke:#fff"/><text x="258" y="785" text-anchor="middle" fill="#FFF" dominant-baseline="central">UNUSED</text><text x="258" y="825" text-anchor="middle" fill="#FFF" font-size="64%" dominant-baseline="central">Low address</text><path style="fill:#7f7f7f" d="m400 615 11-4v8z"/><path d="M406 615h66" style="fill:none;stroke-width:2.16;stroke:#7f7f7f"/><text x="595" y="605" text-anchor="middle" fill="#7F7F7F" dominant-baseline="central">initialized to zero by exec</text><text x="595" y="625" text-anchor="middle" fill="#7F7F7F" dominant-baseline="central">(global and static variables)</text><path style="fill:#7f7f7f" d="m400 672 11-5v9z"/><path d="M406 672h66" style="fill:none;stroke-width:2.16;stroke:#7f7f7f"/><text x="608" y="661" text-anchor="middle" fill="#7F7F7F" dominant-baseline="central">read from program file by exec</text><text x="608" y="682" text-anchor="middle" fill="#7F7F7F" dominant-baseline="central">(global and static variables)</text><path style="fill:#7f7f7f" d="m400 728 8-9 4 7z"/><path d="m405 725 68-39" style="fill:none;stroke-width:2.16;stroke:#7f7f7f"/><text x="74" y="20" text-anchor="middle" fill="#7F7F7F" dominant-baseline="central">0xffff ffff</text><text x="57" y="76" text-anchor="middle" fill="#7F7F7F" dominant-baseline="central">0xc000 0000</text><text x="56" y="360" text-anchor="middle" fill="#7F7F7F" dominant-baseline="central">0x4000 0000</text><text x="56" y="757" text-anchor="middle" fill="#7F7F7F" dominant-baseline="central">0x0804 8000</text><text x="56" y="813" text-anchor="middle" fill="#7F7F7F" dominant-baseline="central">0x0000 0000</text><text x="258" y="205" text-anchor="middle" fill="#FFF" dominant-baseline="central">▼</text><text x="258" y="288" text-anchor="middle" fill="#FFF" dominant-baseline="central">▲</text><text x="258" y="458" text-anchor="middle" fill="#FFF" dominant-baseline="central">▲</text><path style="fill:#ff7f7f" d="m400 190 11-5v9z"/><path d="M406 190h66" style="fill:none;stroke-width:2.16;stroke:#ff7f7f"/><text x="552" y="190" text-anchor="middle" fill="#FF7F7F" dominant-baseline="central">%esp (user stack)</text><path style="fill:#ff7f7f" d="m400 473 11-4v8z"/><path d="M406 473h66" style="fill:none;stroke-width:2.16;stroke:#ff7f7f"/><text x="492" y="473" text-anchor="middle" fill="#FF7F7F" dominant-baseline="central">brk</text><text x="532" y="48" text-anchor="middle" fill="#7F7F7F" dominant-baseline="central">Memory invisible to user code</text></svg>