<svg xmlns="http://www.w3.org/2000/svg" class="pikchr" viewBox="0 0 741.328 231.092"><path d="M285 58h170V30H285Z" style="fill:#7f7f00;stroke-width:2.16;stroke:#fff"/><text x="370" y="44" fill="#FFF" dominant-baseline="central" text-anchor="middle">Vtable  of class B</text><path d="M285 87h170V58H285Z" style="fill:none;stroke-width:2.16;stroke:#fff"/><text x="370" y="73" fill="#FFF" dominant-baseline="central" text-anchor="middle">bar</text><path d="M285 115h170V87H285Z" style="fill:none;stroke-width:2.16;stroke:#fff"/><text x="370" y="101" fill="#FFF" dominant-baseline="central" text-anchor="middle">qux</text><path d="M285 172h170v-29H285Z" style="fill:#7f7f00;stroke-width:2.16;stroke:#fff"/><text x="370" y="158" fill="#FFF" dominant-baseline="central" text-anchor="middle">Vtable of class C</text><path d="M285 200h170v-28H285Z" style="fill:none;stroke-width:2.16;stroke:#fff"/><text x="370" y="186" fill="#FFF" dominant-baseline="central" text-anchor="middle">bar</text><path d="M285 228h170v-28H285Z" style="fill:none;stroke-width:2.16;stroke:#fff"/><text x="370" y="214" fill="#FFF" dominant-baseline="central" text-anchor="middle">qux</text><path d="M569 87h170V58H569Z" style="fill:none;stroke-width:2.16;stroke:#fff"/><text x="654" y="73" fill="#FFF" dominant-baseline="central" text-anchor="middle">B::bar()</text><path d="M569 143h170v-28H569Z" style="fill:none;stroke-width:2.16;stroke:#fff"/><text x="654" y="129" fill="#FFF" dominant-baseline="central" text-anchor="middle">B::qux()</text><path d="M569 200h170v-28H569Z" style="fill:none;stroke-width:2.16;stroke:#fff"/><text x="654" y="186" fill="#FFF" dominant-baseline="central" text-anchor="middle">C::bar()</text><path d="M2 58h170V30H2Z" style="fill:#7f7f00;stroke-width:2.16;stroke:#fff"/><text x="87" y="44" fill="#FFF" dominant-baseline="central" text-anchor="middle">__vptr</text><path d="M2 30h170V2H2Z" style="fill:#7f0000;stroke-width:2.16;stroke:#fff"/><text x="87" y="16" fill="#FFF" dominant-baseline="central" text-anchor="middle">Class B</text><path d="m285 44-11 4v-8z" style="fill:#fff"/><path d="M172 44h107" style="fill:none;stroke-width:2.16;stroke:#fff"/><path d="M2 172h170v-29H2Z" style="fill:#7f7f00;stroke-width:2.16;stroke:#fff"/><text x="87" y="158" fill="#FFF" dominant-baseline="central" text-anchor="middle">__vptr</text><path d="M2 143h170v-28H2Z" style="fill:#7f0000;stroke-width:2.16;stroke:#fff"/><text x="87" y="129" fill="#FFF" dominant-baseline="central" text-anchor="middle">Class C</text><path d="m285 158-11 4v-9z" style="fill:#fff"/><path d="M172 158h107" style="fill:none;stroke-width:2.16;stroke:#fff"/><path d="m569 73-12 4v-9z" style="fill:#fff"/><path d="M455 73h108" style="fill:none;stroke-width:2.16;stroke:#fff"/><path d="m569 129-13 2 2-9z" style="fill:#fff"/><path d="m455 101 108 27" style="fill:none;stroke-width:2.16;stroke:#fff"/><path d="m569 186-12 4v-8z" style="fill:#fff"/><path d="M455 186h108" style="fill:none;stroke-width:2.16;stroke:#fff"/><path d="m569 129-7 11-5-7z" style="fill:#fff"/><path d="m455 214 109-81" style="fill:none;stroke-width:2.16;stroke:#fff"/></svg>