<svg xmlns="http://www.w3.org/2000/svg" class="pikchr" viewBox="0 0 740.866 833.906"><text x="258.516" y="8.611" text-anchor="middle" fill="#FFF" font-size="64%" dominant-baseline="central">High address</text><path d="M116.784 76.795h283.465V20.102H116.784Z" style="fill:none;stroke-width:2.16;stroke:#fff"/><text x="258.516" y="38.369" text-anchor="middle" fill="#FFF" dominant-baseline="central">Kernel virtual memory</text><text x="258.516" y="58.529" text-anchor="middle" fill="#FFF" dominant-baseline="central">(code, data, heap, stack)</text><path d="M116.784 133.488h283.465V76.795H116.784Z" style="fill:none;stroke-width:2.16;stroke:#fff"/><text x="258.516" y="95.062" text-anchor="middle" fill="#FFF" dominant-baseline="central">Command line</text><text x="258.516" y="115.222" text-anchor="middle" fill="#FFF" dominant-baseline="central">Environment variables</text><path d="M116.784 190.181h283.465v-56.693H116.784Z" style="fill:#7f7f00;stroke-width:2.16;stroke:#fff"/><text x="258.516" y="161.835" text-anchor="middle" fill="#FFF" dominant-baseline="central">Stack</text><path d="M116.784 303.567h283.465V190.181H116.784Z" style="fill:#4d7f4d;stroke-width:2.16;stroke:#fff"/><text x="258.516" y="246.874" text-anchor="middle" fill="#FFF" dominant-baseline="central">Free memory</text><path d="M116.784 360.26h283.465v-56.693H116.784Z" style="fill:#7f3f7f;stroke-width:2.16;stroke:#fff"/><text x="258.516" y="321.833" text-anchor="middle" fill="#FFF" dominant-baseline="central">Memory mapped region</text><text x="258.516" y="341.993" text-anchor="middle" fill="#FFF" dominant-baseline="central">for shared libraries</text><path d="M116.784 473.646h283.465V360.26H116.784Z" style="fill:#4d7f4d;stroke-width:2.16;stroke:#fff"/><text x="258.516" y="416.953" text-anchor="middle" fill="#FFF" dominant-baseline="central">Free memory</text><path d="M116.784 530.339h283.465v-56.693H116.784Z" style="fill:#194452;stroke-width:2.16;stroke:#fff"/><text x="258.516" y="491.912" text-anchor="middle" fill="#FFF" dominant-baseline="central">Runtime heap</text><text x="258.516" y="512.072" text-anchor="middle" fill="#FFF" dominant-baseline="central">created by malloc</text><path d="M116.784 587.032h283.465v-56.693H116.784Z" style="fill:#194452;stroke-width:2.16;stroke:#fff"/><text x="258.516" y="558.685" text-anchor="middle" fill="#FFF" dominant-baseline="central">Heap</text><path d="M116.784 643.724h283.465v-56.692H116.784Z" style="fill:none;stroke-width:2.16;stroke:#fff"/><text x="258.516" y="605.298" text-anchor="middle" fill="#FFF" dominant-baseline="central">UNINITIALIZED DATA</text><text x="258.516" y="625.458" text-anchor="middle" fill="#FFF" dominant-baseline="central">(.bss)</text><path d="M116.784 700.417h283.465v-56.693H116.784Z" style="fill:none;stroke-width:2.16;stroke:#fff"/><text x="258.516" y="661.991" text-anchor="middle" fill="#FFF" dominant-baseline="central">INITIALIZED DATA</text><text x="258.516" y="682.151" text-anchor="middle" fill="#FFF" dominant-baseline="central">(.data)</text><path d="M116.784 757.11h283.465v-56.693H116.784Z" style="fill:none;stroke-width:2.16;stroke:#fff"/><text x="258.516" y="718.684" text-anchor="middle" fill="#FFF" dominant-baseline="central">Read only segment</text><text x="258.516" y="738.844" text-anchor="middle" fill="#FFF" dominant-baseline="central">(.init, .text, .rodata)</text><path d="M116.784 813.803h283.465V757.11H116.784Z" style="fill:none;stroke-width:2.16;stroke:#fff"/><text x="258.516" y="785.457" text-anchor="middle" fill="#FFF" dominant-baseline="central">UNUSED</text><text x="258.516" y="825.294" text-anchor="middle" fill="#FFF" font-size="64%" dominant-baseline="central">Low address</text><path style="fill:#7f7f7f" d="m400.249 615.378 11.52-4.32v8.64z"/><path d="M406.009 615.378h66.24" style="fill:none;stroke-width:2.16;stroke:#7f7f7f"/><text x="595.455" y="605.298" text-anchor="middle" fill="#7F7F7F" dominant-baseline="central">initialized to zero by exec</text><text x="595.455" y="625.458" text-anchor="middle" fill="#7F7F7F" dominant-baseline="central">(global and static variables)</text><path style="fill:#7f7f7f" d="m400.249 672.071 11.52-4.32v8.64z"/><path d="M406.009 672.071h66.24" style="fill:none;stroke-width:2.16;stroke:#7f7f7f"/><text x="608.357" y="661.991" text-anchor="middle" fill="#7F7F7F" dominant-baseline="central">read from program file by exec</text><text x="608.357" y="682.151" text-anchor="middle" fill="#7F7F7F" dominant-baseline="central">(global and static variables)</text><path style="fill:#7f7f7f" d="m400.249 728.764 7.816-9.501 4.32 7.482z"/><path d="m405.237 725.884 68.658-39.64" style="fill:none;stroke-width:2.16;stroke:#7f7f7f"/><text x="74.563" y="20.102" text-anchor="middle" fill="#7F7F7F" dominant-baseline="central">0xffff ffff</text><text x="57.226" y="76.795" text-anchor="middle" fill="#7F7F7F" dominant-baseline="central">0xc000 0000</text><text x="56.592" y="360.26" text-anchor="middle" fill="#7F7F7F" dominant-baseline="central">0x4000 0000</text><text x="56.592" y="757.11" text-anchor="middle" fill="#7F7F7F" dominant-baseline="central">0x0804 8000</text><text x="56.592" y="813.803" text-anchor="middle" fill="#7F7F7F" dominant-baseline="central">0x0000 0000</text><text x="258.516" y="205.301" text-anchor="middle" fill="#FFF" dominant-baseline="central">▼</text><text x="258.516" y="288.447" text-anchor="middle" fill="#FFF" dominant-baseline="central">▲</text><text x="258.516" y="458.526" text-anchor="middle" fill="#FFF" dominant-baseline="central">▲</text><path style="fill:#ff7f7f" d="m400.249 190.181 11.52-4.32v8.64z"/><path d="M406.009 190.181h66.24" style="fill:none;stroke-width:2.16;stroke:#ff7f7f"/><text x="552.428" y="190.181" text-anchor="middle" fill="#FF7F7F" dominant-baseline="central">%esp (user stack)</text><path style="fill:#ff7f7f" d="m400.249 473.646 11.52-4.32v8.64z"/><path d="M406.009 473.646h66.24" style="fill:none;stroke-width:2.16;stroke:#ff7f7f"/><text x="492.351" y="473.646" text-anchor="middle" fill="#FF7F7F" dominant-baseline="central">brk</text><text x="532.786" y="48.449" text-anchor="middle" fill="#7F7F7F" dominant-baseline="central">Memory invisible to user code</text></svg>