<svg xmlns="http://www.w3.org/2000/svg" class="pikchr" viewBox="0 0 629.51 501.523"><path d="M2 244h114v-72H2Z" style="fill:none;stroke-width:2.16;stroke:#ffd17f"/><text x="59" y="198" fill="#FFD17F" dominant-baseline="central" text-anchor="middle">Header</text><text x="59" y="214" fill="#FFD17F" dominant-baseline="central" font-size="64%" text-anchor="middle">16 bytes</text><path d="M116 244h397v-72H116Z" style="fill:#116f11;stroke-width:2.16;stroke:#7fff7f"/><text x="314" y="198" fill="#7FFF7F" dominant-baseline="central" text-anchor="middle">Requested memory</text><text x="314" y="214" fill="#7FFF7F" dominant-baseline="central" font-size="64%" text-anchor="middle">20 bytes</text><path d="M513 244h113v-72H513Z" style="fill:none;stroke-width:2.16;stroke:#ff7fff"/><text x="569" y="198" fill="#FF7FFF" dominant-baseline="central" text-anchor="middle">Padding</text><text x="569" y="214" fill="#FF7FFF" dominant-baseline="central" font-size="64%" text-anchor="middle">12 bytes</text><path d="m116 172 2-12 8 4z" style="fill:#ff7f7f"/><path d="m119 167 25-41h29" style="fill:none;stroke-width:2.16;stroke-linejoin:round;stroke:#ff7f7f"/><path d="M173 142h232v-31H173Z" style="fill:none;stroke-width:1.4472;stroke:#ff7f7f"/><text x="289" y="126" fill="#FF7F7F" dominant-baseline="central" text-anchor="middle">The address you are given</text><path d="M2 160 31 47h567l28 113" style="fill:none;stroke-width:2.16;stroke-linejoin:round;stroke:#7f7f7f"/><text x="314" y="12" fill="#7F7F7F" dominant-baseline="central" text-anchor="middle">Total allocated memory</text><text x="314" y="32" fill="#7F7F7F" dominant-baseline="central" text-anchor="middle">The size of the header and the padding are totally implementation defined</text><path d="M116 278h255v-29H116Z" style="fill:none;stroke-width:1.4472;stroke:#7f7f7f"/><text x="243" y="264" fill="#7F7F7F" dominant-baseline="central" font-size="80%" text-anchor="middle">16-byte block</text><path d="M371 278h255v-29H371Z" style="fill:none;stroke-width:1.4472;stroke:#7f7f7f"/><text x="499" y="264" fill="#7F7F7F" dominant-baseline="central" font-size="80%" text-anchor="middle">16-byte block</text><path d="m59 244 8 9-8 3z" style="fill:#7f7f7f"/><path d="m61 249 26 80h29" style="fill:none;stroke-width:2.16;stroke-linejoin:round;stroke:#7f7f7f"/><path d="M116 354h279v-50H116Z" style="fill:none;stroke-width:1.4472;stroke:#7f7f7f"/><text x="256" y="319" fill="#7F7F7F" dominant-baseline="central" text-anchor="middle">size, special marker, checksum,</text><text x="256" y="339" fill="#7F7F7F" dominant-baseline="central" text-anchor="middle">pointers to next/previous block</text><path d="M2 471h57v-57H2Z" style="fill:none;stroke-width:2.16;stroke:#ffd17f"/><text x="31" y="442" fill="#FFD17F" dominant-baseline="central" font-size="64%" text-anchor="middle">Header 1</text><path d="M59 471h114v-57H59Z" style="fill:#116f11;stroke-width:2.16;stroke:#7fff7f"/><text x="116" y="442" fill="#7FFF7F" dominant-baseline="central" font-size="64%" text-anchor="middle">Block 1</text><path d="M184 471h57v-57h-57Z" style="fill:none;stroke-width:2.16;stroke:#ffd17f"/><text x="212" y="442" fill="#FFD17F" dominant-baseline="central" font-size="64%" text-anchor="middle">Header 2</text><path d="M241 471h113v-57H241Z" style="fill:#116f11;stroke-width:2.16;stroke:#7fff7f"/><text x="297" y="442" fill="#7FFF7F" dominant-baseline="central" font-size="64%" text-anchor="middle">Block 2</text><text x="405" y="432" fill="#FFF" dominant-baseline="central" text-anchor="middle">...</text><path d="M456 471h57v-57h-57Z" style="fill:none;stroke-width:2.16;stroke:#ffd17f"/><text x="484" y="442" fill="#FFD17F" dominant-baseline="central" font-size="64%" text-anchor="middle">Header N</text><path d="M513 471h113v-57H513Z" style="fill:#116f11;stroke-width:2.16;stroke:#7fff7f"/><text x="569" y="442" fill="#7FFF7F" dominant-baseline="central" font-size="64%" text-anchor="middle">Block N</text><path d="m241 471 4 11h-9z" style="fill:#fff"/><path d="M31 471v28h210v-23" style="fill:none;stroke-width:2.16;stroke-linejoin:round;stroke:#fff"/><path d="m513 471 4 11h-9z" style="fill:#fff"/><path d="M445 442v57h68v-23" style="fill:none;stroke-width:2.16;stroke-linejoin:round;stroke:#fff"/></svg>