<svg xmlns="http://www.w3.org/2000/svg" class="pikchr" viewBox="0 0 478.83 202.496"><path d="M12.643 65.248h56.693v-36H12.643Z" style="fill:none;stroke-width:2.16;stroke:#fff"/><text x="40.99" y="47.248" text-anchor="middle" fill="#FFF" dominant-baseline="central">char a</text><path d="M69.336 65.248h170.079v-36H69.336Z" style="fill:#2c2c2c;stroke-width:2.16;stroke:#fff"/><text x="154.375" y="47.248" text-anchor="middle" fill="#FFF" dominant-baseline="central">padding</text><path d="M239.415 65.248h226.772v-36H239.415Z" style="fill:none;stroke-width:2.16;stroke:#fff"/><text x="352.801" y="47.248" text-anchor="middle" fill="#FFF" dominant-baseline="central">int b</text><path d="M12.643 101.248h226.772v-36H12.643Z" style="fill:none;stroke-width:2.16;stroke:#fff"/><text x="126.029" y="83.248" text-anchor="middle" fill="#FFF" dominant-baseline="central">float c</text><path d="M239.415 101.248h226.772v-36H239.415Z" style="fill:#2c2c2c;stroke-width:2.16;stroke:#fff"/><text x="352.801" y="83.248" text-anchor="middle" fill="#FFF" dominant-baseline="central">padding</text><path d="M12.643 137.248h453.544v-36H12.643Z" style="fill:none;stroke-width:2.16;stroke:#fff"/><text x="239.415" y="119.248" text-anchor="middle" fill="#FFF" dominant-baseline="central">double d</text><path d="M12.643 173.248h56.693v-36H12.643Z" style="fill:none;stroke-width:2.16;stroke:#fff"/><text x="40.99" y="155.248" text-anchor="middle" fill="#FFF" dominant-baseline="central">char e</text><path d="M69.336 173.248h56.693v-36H69.336Z" style="fill:none;stroke-width:2.16;stroke:#fff"/><text x="97.683" y="155.248" text-anchor="middle" fill="#FFF" dominant-baseline="central">char f</text><path d="M126.029 173.248h340.158v-36H126.029Z" style="fill:#2c2c2c;stroke-width:2.16;stroke:#fff"/><text x="296.108" y="155.248" text-anchor="middle" fill="#FFF" dominant-baseline="central">padding</text><text x="12.643" y="12.24" text-anchor="middle" fill="#FFF" dominant-baseline="central">0</text><text x="239.415" y="12.24" text-anchor="middle" fill="#FFF" dominant-baseline="central">4</text><text x="466.187" y="12.24" text-anchor="middle" fill="#FFF" dominant-baseline="central">8</text><text x="12.643" y="190.256" text-anchor="middle" fill="#FFF" dominant-baseline="central">24</text><text x="69.336" y="190.256" text-anchor="middle" fill="#FFF" dominant-baseline="central">25</text><text x="466.187" y="190.256" text-anchor="middle" fill="#FFF" dominant-baseline="central">32</text></svg>