<svg xmlns="http://www.w3.org/2000/svg" class="pikchr" viewBox="0 0 631.534 356.644"><path d="M2 244h114v-72H2Z" style="fill:none;stroke-width:2.16;stroke:#ffd17f"/><text x="59" y="188" fill="#FFD17F" dominant-baseline="central" text-anchor="middle">Header</text><text x="59" y="208" fill="#FFD17F" dominant-baseline="central" text-anchor="middle">Metadata</text><text x="59" y="224" fill="#FFD17F" dominant-baseline="central" font-size="64%" text-anchor="middle">16 bytes</text><path d="M116 244h397v-72H116Z" style="fill:#116f11;stroke-width:2.16;stroke:#7fff7f"/><text x="314" y="198" fill="#7FFF7F" dominant-baseline="central" text-anchor="middle">Requested memory</text><text x="314" y="214" fill="#7FFF7F" dominant-baseline="central" font-size="64%" text-anchor="middle">20 bytes</text><path d="M513 244h113v-72H513Z" style="fill:none;stroke-width:2.16;stroke:#ff7fff"/><text x="569" y="188" fill="#FF7FFF" dominant-baseline="central" text-anchor="middle">Padding</text><text x="569" y="208" fill="#FF7FFF" dominant-baseline="central" text-anchor="middle">For alignment</text><text x="569" y="224" fill="#FF7FFF" dominant-baseline="central" font-size="64%" text-anchor="middle">12 bytes</text><path d="m116 172 2-12 8 4z" style="fill:#ff7f7f"/><path d="m119 167 25-41h29" style="fill:none;stroke-width:2.16;stroke-linejoin:round;stroke:#ff7f7f"/><path d="M173 142h232v-31H173Z" style="fill:none;stroke-width:1.4472;stroke:#ff7f7f"/><text x="289" y="126" fill="#FF7F7F" dominant-baseline="central" text-anchor="middle">The address you are given</text><path d="M2 160 31 47h567l28 113" style="fill:none;stroke-width:2.16;stroke-linejoin:round;stroke:#7f7f7f"/><text x="314" y="12" fill="#7F7F7F" dominant-baseline="central" text-anchor="middle">Total allocated memory</text><text x="314" y="32" fill="#7F7F7F" dominant-baseline="central" text-anchor="middle">The size of the header and the padding are totally implementation defined</text><path d="M116 278h255v-29H116Z" style="fill:none;stroke-width:1.4472;stroke:#7f7f7f"/><text x="243" y="264" fill="#7F7F7F" dominant-baseline="central" font-size="80%" text-anchor="middle">16-byte block</text><path d="M371 278h255v-29H371Z" style="fill:none;stroke-width:1.4472;stroke:#7f7f7f"/><text x="499" y="264" fill="#7F7F7F" dominant-baseline="central" font-size="80%" text-anchor="middle">16-byte block</text><path d="m59 244 8 9-8 3z" style="fill:#7f7f7f"/><path d="m61 249 26 80h29" style="fill:none;stroke-width:2.16;stroke-linejoin:round;stroke:#7f7f7f"/><path d="M116 354h279v-50H116Z" style="fill:none;stroke-width:1.4472;stroke:#7f7f7f"/><text x="256" y="319" fill="#7F7F7F" dominant-baseline="central" text-anchor="middle">size, special marker, checksum,</text><text x="256" y="339" fill="#7F7F7F" dominant-baseline="central" text-anchor="middle">pointers to next/previous block</text></svg>