<svg xmlns="http://www.w3.org/2000/svg" class="pikchr" viewBox="0 0 626.242 564.956"><text x="143.892" y="12.24" text-anchor="middle" fill="#FFF" dominant-baseline="central">High address</text><path d="M2.16 84.053h283.465V27.36H2.16Z" style="fill:none;stroke-width:2.16;stroke:#fff"/><text x="143.892" y="45.627" text-anchor="middle" fill="#FFF" dominant-baseline="central">Command line</text><text x="143.892" y="65.787" text-anchor="middle" fill="#FFF" dominant-baseline="central">Environment variables</text><path d="M2.16 140.746h283.465V84.053H2.16Z" style="fill:none;stroke-width:2.16;stroke:#fff"/><text x="143.892" y="112.399" text-anchor="middle" fill="#FFF" dominant-baseline="central">Stack ▼▼▼</text><path d="M2.16 310.825h283.465V140.746H2.16Z" style="fill:none;stroke-width:2.16;stroke:#fff"/><text x="143.892" y="225.785" text-anchor="middle" fill="#FFF" dominant-baseline="central">Free memory</text><path d="M2.16 367.517h283.465v-56.692H2.16Z" style="fill:none;stroke-width:2.16;stroke:#fff"/><text x="143.892" y="339.171" text-anchor="middle" fill="#FFF" dominant-baseline="central">Heap ▲▲▲</text><path d="M2.16 424.21h283.465v-56.693H2.16Z" style="fill:none;stroke-width:2.16;stroke:#fff"/><text x="143.892" y="395.864" text-anchor="middle" fill="#FFF" dominant-baseline="central">UNINITIALIZED DATA (BSS)</text><path d="M2.16 480.903h283.465V424.21H2.16Z" style="fill:none;stroke-width:2.16;stroke:#fff"/><text x="143.892" y="452.557" text-anchor="middle" fill="#FFF" dominant-baseline="central">INITIALIZED DATA</text><path d="M2.16 537.596h283.465v-56.693H2.16Z" style="fill:none;stroke-width:2.16;stroke:#fff"/><text x="143.892" y="509.25" text-anchor="middle" fill="#FFF" dominant-baseline="central">TEXT </text><text x="143.892" y="552.716" text-anchor="middle" fill="#FFF" dominant-baseline="central">Low address</text><path style="fill:#fff" d="m285.625 395.864 11.52-4.32v8.64z"/><path d="M291.385 395.864h66.24" style="fill:none;stroke-width:2.16;stroke:#fff"/><text x="480.831" y="385.784" text-anchor="middle" fill="#FFF" dominant-baseline="central">initialized to zero by exec</text><text x="480.831" y="405.944" text-anchor="middle" fill="#FFF" dominant-baseline="central">(global and static variables)</text><path style="fill:#fff" d="m285.625 452.557 11.52-4.32v8.64z"/><path d="M291.385 452.557h66.24" style="fill:none;stroke-width:2.16;stroke:#fff"/><text x="493.733" y="442.477" text-anchor="middle" fill="#FFF" dominant-baseline="central">read from program file by exec</text><text x="493.733" y="462.637" text-anchor="middle" fill="#FFF" dominant-baseline="central">(global and static variables)</text><path style="fill:#fff" d="m285.625 509.25 7.816-9.501 4.32 7.482z"/><path d="m290.613 506.37 68.658-39.64" style="fill:none;stroke-width:2.16;stroke:#fff"/></svg>