<svg xmlns='http://www.w3.org/2000/svg' class="pikchr" viewBox="0 0 458.972 409.364">
<polygon points="285,208 274,213 274,204" style="fill:rgb(127,127,127)"/>
<path d="M2,208L279,208"  style="fill:none;stroke-width:2.16;stroke:rgb(127,127,127);" />
<text x="302" y="218" text-anchor="middle" fill="rgb(255,255,255)" dominant-baseline="central">Re</text>
<polygon points="30,10 34,21 26,21" style="fill:rgb(127,127,127)"/>
<path d="M30,407L30,16"  style="fill:none;stroke-width:2.16;stroke:rgb(127,127,127);" />
<text x="47" y="20" text-anchor="middle" fill="rgb(255,255,255)" dominant-baseline="central">Im</text>
<polygon points="257,38 247,54 239,43" style="fill:rgb(255,127,127)"/>
<path d="M30,208L250,43"  style="fill:none;stroke-width:3.24;stroke:rgb(255,127,127);" />
<circle cx="257" cy="38" r="4.32" style="fill:rgb(255,127,127);stroke-width:2.16;stroke:rgb(255,127,127);" />
<polygon points="257,378 239,373 247,363" style="fill:rgb(255,255,127)"/>
<path d="M30,208L250,373"  style="fill:none;stroke-width:3.24;stroke:rgb(255,255,127);" />
<circle cx="257" cy="378" r="4.32" style="fill:rgb(255,255,127);stroke-width:2.16;stroke:rgb(255,255,127);" />
<path d="M257,208L257,38"  style="fill:none;stroke-width:1.4472;stroke:rgb(255,255,255);stroke-dasharray:7.2,7.2;" />
<path d="M30,38L257,38"  style="fill:none;stroke-width:1.4472;stroke:rgb(255,255,255);stroke-dasharray:7.2,7.2;" />
<path d="M257,208L257,378"  style="fill:none;stroke-width:1.4472;stroke:rgb(255,255,255);stroke-dasharray:7.2,7.2;" />
<path d="M30,378L257,378"  style="fill:none;stroke-width:1.4472;stroke:rgb(255,255,255);stroke-dasharray:7.2,7.2;" />
<text x="19" y="223" text-anchor="middle" font-style="italic" fill="rgb(255,255,255)" dominant-baseline="central">0</text>
<text x="246" y="223" text-anchor="middle" font-style="italic" fill="rgb(255,255,255)" dominant-baseline="central">a</text>
<text x="19" y="38" text-anchor="middle" font-style="italic" fill="rgb(255,255,255)" dominant-baseline="central">b</text>
<text x="16" y="378" text-anchor="middle" font-style="italic" fill="rgb(255,255,255)" dominant-baseline="central">-b</text>
<text x="329" y="17" text-anchor="middle" font-style="italic" fill="rgb(255,127,127)" font-size="156.25%" dominant-baseline="central">Z = a + bi</text>
<text x="309" y="378" text-anchor="middle" fill="rgb(255,255,127)" font-size="156.25%" dominant-baseline="central">conj(Z)</text>
<text x="285" y="75" text-anchor="start" fill="rgb(127,127,127)" dominant-baseline="central">a: real part</text>
<text x="285" y="95" text-anchor="start" fill="rgb(127,127,127)" dominant-baseline="central">b: imaginary part</text>
<text x="285" y="115" text-anchor="start" fill="rgb(127,127,127)" dominant-baseline="central">i: imaginary number</text>
<text x="143" y="113" text-anchor="middle" fill="rgb(255,255,255)" transform="rotate(-36.86989765 143,123)" dominant-baseline="central">abs</text>
<polygon points="143,208 137,198 146,196" style="fill:rgb(255,255,255)"/>
<polygon points="121,140 130,148 122,152" style="fill:rgb(255,255,255)"/>
<path d="M142,203 L 140,188 Q 138,172 130,159 L 123,145"  style="fill:none;stroke-width:2.16;stroke:rgb(255,255,255);" />
<text x="168" y="172" text-anchor="middle" fill="rgb(255,255,255)" dominant-baseline="central">phase</text>
</svg>

