<svg xmlns="http://www.w3.org/2000/svg" class="pikchr" viewBox="0 0 741.328 231.092"><path d="M285.625 58.853h170.078V30.506H285.625Z" style="fill:#7f7f00;stroke-width:2.16;stroke:#fff"/><text x="370.664" y="44.68" text-anchor="middle" fill="#FFF" dominant-baseline="central">Vtable  of class B</text><path d="M285.625 87.2h170.078V58.852H285.625Z" style="fill:none;stroke-width:2.16;stroke:#fff"/><text x="370.664" y="73.026" text-anchor="middle" fill="#FFF" dominant-baseline="central">bar</text><path d="M285.625 115.546h170.078V87.199H285.625Z" style="fill:none;stroke-width:2.16;stroke:#fff"/><text x="370.664" y="101.373" text-anchor="middle" fill="#FFF" dominant-baseline="central">qux</text><path d="M285.625 172.239h170.078v-28.347H285.625Z" style="fill:#7f7f00;stroke-width:2.16;stroke:#fff"/><text x="370.664" y="158.066" text-anchor="middle" fill="#FFF" dominant-baseline="central">Vtable of class C</text><path d="M285.625 200.585h170.078v-28.346H285.625Z" style="fill:none;stroke-width:2.16;stroke:#fff"/><text x="370.664" y="186.412" text-anchor="middle" fill="#FFF" dominant-baseline="central">bar</text><path d="M285.625 228.932h170.078v-28.347H285.625Z" style="fill:none;stroke-width:2.16;stroke:#fff"/><text x="370.664" y="214.758" text-anchor="middle" fill="#FFF" dominant-baseline="central">qux</text><path d="M569.089 87.2h170.079V58.852H569.089Z" style="fill:none;stroke-width:2.16;stroke:#fff"/><text x="654.129" y="73.026" text-anchor="middle" fill="#FFF" dominant-baseline="central">B::bar()</text><path d="M569.089 143.892h170.079v-28.346H569.089Z" style="fill:none;stroke-width:2.16;stroke:#fff"/><text x="654.129" y="129.719" text-anchor="middle" fill="#FFF" dominant-baseline="central">B::qux()</text><path d="M569.089 200.585h170.079v-28.346H569.089Z" style="fill:none;stroke-width:2.16;stroke:#fff"/><text x="654.129" y="186.412" text-anchor="middle" fill="#FFF" dominant-baseline="central">C::bar()</text><path d="M2.16 58.853h170.079V30.506H2.16Z" style="fill:#7f7f00;stroke-width:2.16;stroke:#fff"/><text x="87.199" y="44.68" text-anchor="middle" fill="#FFF" dominant-baseline="central">__vptr</text><path d="M2.16 30.506h170.079V2.16H2.16Z" style="fill:#7f0000;stroke-width:2.16;stroke:#fff"/><text x="87.199" y="16.333" text-anchor="middle" fill="#FFF" dominant-baseline="central">Class B</text><path style="fill:#fff" d="M285.625 44.68 274.105 49v-8.64z"/><path d="M172.239 44.68h107.626" style="fill:none;stroke-width:2.16;stroke:#fff"/><path d="M2.16 172.239h170.079v-28.347H2.16Z" style="fill:#7f7f00;stroke-width:2.16;stroke:#fff"/><text x="87.199" y="158.066" text-anchor="middle" fill="#FFF" dominant-baseline="central">__vptr</text><path d="M2.16 143.892h170.079v-28.346H2.16Z" style="fill:#7f0000;stroke-width:2.16;stroke:#fff"/><text x="87.199" y="129.719" text-anchor="middle" fill="#FFF" dominant-baseline="central">Class C</text><path style="fill:#fff" d="m285.625 158.066-11.52 4.32v-8.64z"/><path d="M172.239 158.066h107.626" style="fill:none;stroke-width:2.16;stroke:#fff"/><path style="fill:#fff" d="m569.089 73.026-11.52 4.32v-8.64z"/><path d="M455.703 73.026h107.626" style="fill:none;stroke-width:2.16;stroke:#fff"/><path style="fill:#fff" d="m569.089 129.719-12.224 1.397 2.096-8.382z"/><path d="m455.703 101.373 107.798 26.949" style="fill:none;stroke-width:2.16;stroke:#fff"/><path style="fill:#fff" d="m569.089 186.412-11.52 4.32v-8.64z"/><path d="M455.703 186.412h107.626" style="fill:none;stroke-width:2.16;stroke:#fff"/><path style="fill:#fff" d="m569.089 129.719-6.624 10.368-5.184-6.912z"/><path d="m455.703 214.758 108.778-81.583" style="fill:none;stroke-width:2.16;stroke:#fff"/></svg>