<svg xmlns="http://www.w3.org/2000/svg" class="pikchr" viewBox="0 0 629.51 501.523"><path d="M2.944 244.244H116.33v-72H2.944Z" style="fill:none;stroke-width:2.16;stroke:#ffd17f"/><text x="59.637" y="198.164" text-anchor="middle" fill="#FFD17F" dominant-baseline="central">Header</text><text x="59.637" y="214.696" text-anchor="middle" fill="#FFD17F" font-size="64%" dominant-baseline="central">16 bytes</text><path d="M116.33 244.244h396.85v-72H116.33Z" style="fill:#116f11;stroke-width:2.16;stroke:#7fff7f"/><text x="314.755" y="198.164" text-anchor="middle" fill="#7FFF7F" dominant-baseline="central">Requested memory</text><text x="314.755" y="214.696" text-anchor="middle" fill="#7FFF7F" font-size="64%" dominant-baseline="central">20 bytes</text><path d="M513.18 244.244h113.386v-72H513.18Z" style="fill:none;stroke-width:2.16;stroke:#ff7fff"/><text x="569.873" y="198.164" text-anchor="middle" fill="#FF7FFF" dominant-baseline="central">Padding</text><text x="569.873" y="214.696" text-anchor="middle" fill="#FF7FFF" font-size="64%" dominant-baseline="central">12 bytes</text><path style="fill:#ff7f7f" d="m116.33 172.244 2.442-12.058 7.327 4.579z"/><path d="m119.383 167.36 25.293-40.47h28.347" style="fill:none;stroke-width:2.16;stroke-linejoin:round;stroke:#ff7f7f"/><path d="M173.023 142.01h232.934v-30.24H173.023Z" style="fill:none;stroke-width:1.4472;stroke:#ff7f7f"/><text x="289.49" y="126.89" text-anchor="middle" fill="#FF7F7F" dominant-baseline="central">The address you are given</text><path d="M2.944 160.906 31.291 47.52H598.22l28.346 113.386" style="fill:none;stroke-width:2.16;stroke-linejoin:round;stroke:#7f7f7f"/><text x="314.755" y="12.24" text-anchor="middle" fill="#7F7F7F" dominant-baseline="central">Total allocated memory</text><text x="314.755" y="32.4" text-anchor="middle" fill="#7F7F7F" dominant-baseline="central">The size of the header and the padding are totally implementation defined</text><path d="M116.33 278.26h255.118v-28.346H116.33Z" style="fill:none;stroke-width:1.4472;stroke:#7f7f7f"/><text x="243.889" y="264.087" text-anchor="middle" fill="#7F7F7F" font-size="80%" dominant-baseline="central">16-byte block</text><path d="M371.448 278.26h255.118v-28.346H371.448Z" style="fill:none;stroke-width:1.4472;stroke:#7f7f7f"/><text x="499.007" y="264.087" text-anchor="middle" fill="#7F7F7F" font-size="80%" dominant-baseline="central">16-byte block</text><path style="fill:#7f7f7f" d="m59.637 244.244 7.741 9.563-8.196 2.732z"/><path d="m61.459 249.709 26.525 79.575h28.346" style="fill:none;stroke-width:2.16;stroke-linejoin:round;stroke:#7f7f7f"/><path d="M116.33 354.484h279.36v-50.4H116.33Z" style="fill:none;stroke-width:1.4472;stroke:#7f7f7f"/><text x="256.01" y="319.204" text-anchor="middle" fill="#7F7F7F" dominant-baseline="central">size, special marker, checksum,</text><text x="256.01" y="339.364" text-anchor="middle" fill="#7F7F7F" dominant-baseline="central">pointers to next/previous block</text><path d="M2.944 471.016h56.693v-56.693H2.944Z" style="fill:none;stroke-width:2.16;stroke:#ffd17f"/><text x="31.291" y="442.67" text-anchor="middle" fill="#FFD17F" font-size="64%" dominant-baseline="central">Header 1</text><path d="M59.637 471.016h113.386v-56.693H59.637Z" style="fill:#116f11;stroke-width:2.16;stroke:#7fff7f"/><text x="116.33" y="442.67" text-anchor="middle" fill="#7FFF7F" font-size="64%" dominant-baseline="central">Block 1</text><path d="M184.361 471.016h56.693v-56.693h-56.693Z" style="fill:none;stroke-width:2.16;stroke:#ffd17f"/><text x="212.708" y="442.67" text-anchor="middle" fill="#FFD17F" font-size="64%" dominant-baseline="central">Header 2</text><path d="M241.054 471.016H354.44v-56.693H241.054Z" style="fill:#116f11;stroke-width:2.16;stroke:#7fff7f"/><text x="297.747" y="442.67" text-anchor="middle" fill="#7FFF7F" font-size="64%" dominant-baseline="central">Block 2</text><text x="405.464" y="432.59" text-anchor="middle" fill="#FFF" dominant-baseline="central">...</text><path d="M456.487 471.016h56.693v-56.693h-56.693Z" style="fill:none;stroke-width:2.16;stroke:#ffd17f"/><text x="484.834" y="442.67" text-anchor="middle" fill="#FFD17F" font-size="64%" dominant-baseline="central">Header N</text><path d="M513.18 471.016h113.386v-56.693H513.18Z" style="fill:#116f11;stroke-width:2.16;stroke:#7fff7f"/><text x="569.873" y="442.67" text-anchor="middle" fill="#7FFF7F" font-size="64%" dominant-baseline="central">Block N</text><path style="fill:#fff" d="m241.054 471.016 4.32 11.52h-8.64z"/><path d="M31.29 471.016v28.347h209.764v-22.587" style="fill:none;stroke-width:2.16;stroke-linejoin:round;stroke:#fff"/><path style="fill:#fff" d="m513.18 471.016 4.32 11.52h-8.64z"/><path d="M445.149 442.67v56.693h68.031v-22.587" style="fill:none;stroke-width:2.16;stroke-linejoin:round;stroke:#fff"/></svg>