<svg xmlns="http://www.w3.org/2000/svg" class="pikchr" viewBox="0 0 458.972 409.364"><path style="fill:#7f7f7f" d="m285 208-11 5v-9z"/><path d="M2 208h277" style="fill:none;stroke-width:2.16;stroke:#7f7f7f"/><text x="302" y="218" text-anchor="middle" fill="#FFF" dominant-baseline="central">Re</text><path style="fill:#7f7f7f" d="m30 10 4 11h-8z"/><path d="M30 407V16" style="fill:none;stroke-width:2.16;stroke:#7f7f7f"/><text x="47" y="20" text-anchor="middle" fill="#FFF" dominant-baseline="central">Im</text><path style="fill:#ff7f7f" d="m257 38-10 16-8-11z"/><path d="M30 208 250 43" style="fill:none;stroke-width:3.24;stroke:#ff7f7f"/><circle cx="257" cy="38" r="4.32" style="fill:#ff7f7f;stroke-width:2.16;stroke:#ff7f7f"/><path style="fill:#ffff7f" d="m257 378-18-5 8-10z"/><path d="m30 208 220 165" style="fill:none;stroke-width:3.24;stroke:#ffff7f"/><circle cx="257" cy="378" r="4.32" style="fill:#ffff7f;stroke-width:2.16;stroke:#ffff7f"/><path d="M257 208V38M30 38h227M257 208v170M30 378h227" style="fill:none;stroke-width:1.4472;stroke:#fff;stroke-dasharray:7.2,7.2"/><text x="19" y="223" text-anchor="middle" font-style="italic" fill="#FFF" dominant-baseline="central">0</text><text x="246" y="223" text-anchor="middle" font-style="italic" fill="#FFF" dominant-baseline="central">a</text><text x="19" y="38" text-anchor="middle" font-style="italic" fill="#FFF" dominant-baseline="central">b</text><text x="16" y="378" text-anchor="middle" font-style="italic" fill="#FFF" dominant-baseline="central">-b</text><text x="329" y="17" text-anchor="middle" font-style="italic" fill="#FF7F7F" font-size="156.25%" dominant-baseline="central">Z = a + bi</text><text x="309" y="378" text-anchor="middle" fill="#FFFF7F" font-size="156.25%" dominant-baseline="central">conj(Z)</text><text x="285" y="75" fill="#7F7F7F" dominant-baseline="central">a: real part</text><text x="285" y="95" fill="#7F7F7F" dominant-baseline="central">b: imaginary part</text><text x="285" y="115" fill="#7F7F7F" dominant-baseline="central">i: imaginary number</text><text x="143" y="113" text-anchor="middle" fill="#FFF" transform="rotate(-36.87 143 123)" dominant-baseline="central">abs</text><path style="fill:#fff" d="m143 208-6-10 9-2zM121 140l9 8-8 4z"/><path d="m142 203-2-15q-2-16-10-29l-7-14" style="fill:none;stroke-width:2.16;stroke:#fff"/><text x="168" y="172" text-anchor="middle" fill="#FFF" dominant-baseline="central">phase</text></svg>