<svg xmlns="http://www.w3.org/2000/svg" class="pikchr" viewBox="0 0 665.158 379.945"><path d="M39.376 167.391h113.386v-72H39.376Z" style="fill:none;stroke-width:2.16;stroke:#ffd17f"/><text x="96.069" y="121.311" text-anchor="middle" fill="#FFD17F" dominant-baseline="central">Header</text><text x="96.069" y="141.471" text-anchor="middle" fill="#FFD17F" dominant-baseline="central">16 bytes</text><path d="M152.762 167.391h396.85v-72h-396.85Z" style="fill:#116f11;stroke-width:2.16;stroke:#7fff7f"/><text x="351.187" y="121.311" text-anchor="middle" fill="#7FFF7F" dominant-baseline="central">Requested memory</text><text x="351.187" y="141.471" text-anchor="middle" fill="#7FFF7F" dominant-baseline="central">20 bytes</text><path d="M549.612 167.391h113.386v-72H549.612Z" style="fill:none;stroke-width:2.16;stroke:#ff7fff"/><text x="606.305" y="121.311" text-anchor="middle" fill="#FF7FFF" dominant-baseline="central">Padding</text><text x="606.305" y="141.471" text-anchor="middle" fill="#FF7FFF" dominant-baseline="central">12 bytes</text><path style="fill:#ff7f7f" d="m152.762 95.391 2.442-12.058 7.327 4.58z"/><path d="m155.815 90.507 25.293-40.47h28.347" style="fill:none;stroke-width:2.16;stroke-linejoin:round;stroke:#ff7f7f"/><text x="325.922" y="50.037" text-anchor="middle" fill="#FF7F7F" dominant-baseline="central">The address you are given</text><path d="M39.376 84.053 67.722 27.36h566.93l28.346 56.693" style="fill:none;stroke-width:2.16;stroke-linejoin:round;stroke:#7f7f7f"/><text x="351.187" y="12.24" text-anchor="middle" fill="#7F7F7F" dominant-baseline="central">Total allocated memory **</text><path d="M152.762 201.407H407.88v-28.346H152.762Z" style="fill:none;stroke-width:1.4472;stroke:#565656"/><text x="280.321" y="187.234" text-anchor="middle" fill="#565656" dominant-baseline="central">16-byte block</text><path d="M407.88 201.407h255.118v-28.346H407.88Z" style="fill:none;stroke-width:1.4472;stroke:#565656"/><text x="535.439" y="187.234" text-anchor="middle" fill="#565656" dominant-baseline="central">16-byte block</text><path style="fill:#7f7f7f" d="m96.069 167.391 9.016 8.372-7.728 3.864z"/><path d="m98.645 172.543 54.117 108.234h56.693" style="fill:none;stroke-width:2.16;stroke-linejoin:round;stroke:#7f7f7f"/><path d="M214.733 337.47h272.908v-90.72H214.733Z" style="fill:none;stroke-width:1.4472;stroke:#7f7f7f"/><text x="217.974" y="261.87" fill="#7F7F7F" dominant-baseline="central">size</text><text x="217.974" y="282.03" fill="#7F7F7F" dominant-baseline="central">special marker</text><text x="217.974" y="302.19" fill="#7F7F7F" dominant-baseline="central">checksum</text><text x="217.974" y="322.35" fill="#7F7F7F" dominant-baseline="central">pointers to next/previous block</text><text x="328.118" y="367.705" text-anchor="middle" fill="#FFF" dominant-baseline="central">**  The size of the header and the padding are totally implementation defined</text></svg>