<svg xmlns="http://www.w3.org/2000/svg" class="pikchr" viewBox="0 0 478.83 166.496"><path d="M12 65h57V29H12Z" style="fill:none;stroke-width:2.16;stroke:#fff"/><text x="40" y="47" text-anchor="middle" fill="#FFF" dominant-baseline="central">char a</text><path d="M69 65h57V29H69Z" style="fill:none;stroke-width:2.16;stroke:#fff"/><text x="97" y="47" text-anchor="middle" fill="#FFF" dominant-baseline="central">char e</text><path d="M126 65h56V29h-56Z" style="fill:none;stroke-width:2.16;stroke:#fff"/><text x="154" y="47" text-anchor="middle" fill="#FFF" dominant-baseline="central">char f</text><path d="M182 65h57V29h-57Z" style="fill:#2c2c2c;stroke-width:2.16;stroke:#fff"/><text x="211" y="47" text-anchor="middle" fill="#FFF" dominant-baseline="central">padding</text><path d="M239 65h227V29H239Z" style="fill:none;stroke-width:2.16;stroke:#fff"/><text x="352" y="47" text-anchor="middle" fill="#FFF" dominant-baseline="central">int b</text><path d="M12 101h227V65H12Z" style="fill:none;stroke-width:2.16;stroke:#fff"/><text x="126" y="83" text-anchor="middle" fill="#FFF" dominant-baseline="central">float c</text><path d="M239 101h227V65H239Z" style="fill:#2c2c2c;stroke-width:2.16;stroke:#fff"/><text x="352" y="83" text-anchor="middle" fill="#FFF" dominant-baseline="central">padding</text><path d="M12 137h454v-36H12Z" style="fill:none;stroke-width:2.16;stroke:#fff"/><text x="239" y="119" text-anchor="middle" fill="#FFF" dominant-baseline="central">double d</text><text x="12" y="12" text-anchor="middle" fill="#FFF" dominant-baseline="central">0</text><text x="69" y="12" text-anchor="middle" fill="#FFF" dominant-baseline="central">1</text><text x="126" y="12" text-anchor="middle" fill="#FFF" dominant-baseline="central">2</text><text x="239" y="12" text-anchor="middle" fill="#FFF" dominant-baseline="central">4</text><text x="466" y="12" text-anchor="middle" fill="#FFF" dominant-baseline="central">8</text><text x="12" y="154" text-anchor="middle" fill="#FFF" dominant-baseline="central">16</text><text x="466" y="154" text-anchor="middle" fill="#FFF" dominant-baseline="central">24</text></svg>