<svg xmlns="http://www.w3.org/2000/svg" class="pikchr" viewBox="0 0 522.72 429.3"><path d="M2 326h43v-43H2Z" style="fill:#7f0000;stroke-width:2.16;stroke:#fff"/><text x="23" y="294" text-anchor="middle" fill="#FFF" dominant-baseline="central">0</text><text x="23" y="311" text-anchor="middle" fill="#FFF" font-size="64%" dominant-baseline="central">7</text><path d="M117 326h43v-43h-43Z" style="fill:#7f0000;stroke-width:2.16;stroke:#fff"/><text x="138" y="294" text-anchor="middle" fill="#FFF" dominant-baseline="central">3</text><text x="138" y="311" text-anchor="middle" fill="#FFF" font-size="64%" dominant-baseline="central">8</text><path d="M232 326h43v-43h-43Z" style="fill:#7f0000;stroke-width:2.16;stroke:#fff"/><text x="254" y="294" text-anchor="middle" fill="#FFF" dominant-baseline="central">1</text><text x="254" y="311" text-anchor="middle" fill="#FFF" font-size="64%" dominant-baseline="central">9</text><path d="M59 232h43v-43H59Z" style="fill:#7f3f7f;stroke-width:2.16;stroke:#fff"/><text x="81" y="201" text-anchor="middle" fill="#FFF" dominant-baseline="central">7</text><text x="81" y="219" text-anchor="middle" fill="#FFF" font-size="80%" dominant-baseline="central">3</text><path d="M246 232h44v-43h-44Z" style="fill:#7f3f7f;stroke-width:2.16;stroke:#fff"/><text x="268" y="201" text-anchor="middle" fill="#FFF" dominant-baseline="central">4</text><text x="268" y="217" text-anchor="middle" fill="#FFF" font-size="64%" dominant-baseline="central">4</text><path d="M362 232h43v-43h-43Z" style="fill:#7f3f7f;stroke-width:2.16;stroke:#fff"/><text x="383" y="201" text-anchor="middle" fill="#FFF" dominant-baseline="central">5</text><text x="383" y="217" text-anchor="middle" fill="#FFF" font-size="64%" dominant-baseline="central">5</text><path d="M477 232h43v-43h-43Z" style="fill:#7f3f7f;stroke-width:2.16;stroke:#fff"/><text x="498" y="201" text-anchor="middle" fill="#FFF" dominant-baseline="central">2</text><text x="498" y="217" text-anchor="middle" fill="#FFF" font-size="64%" dominant-baseline="central">6</text><path d="M153 139h43V95h-43Z" style="fill:#7f5200;stroke-width:2.16;stroke:#fff"/><text x="174" y="107" text-anchor="middle" fill="#FFF" dominant-baseline="central">8</text><text x="174" y="125" text-anchor="middle" fill="#FFF" font-size="80%" dominant-baseline="central">1</text><path d="M419 139h43V95h-43Z" style="fill:#7f5200;stroke-width:2.16;stroke:#fff"/><text x="441" y="107" text-anchor="middle" fill="#FFF" dominant-baseline="central">6</text><text x="441" y="125" text-anchor="middle" fill="#FFF" font-size="80%" dominant-baseline="central">2</text><path d="M286 45h43V2h-43Z" style="fill:#3f7f3f;stroke-width:2.16;stroke:#fff"/><text x="308" y="13" text-anchor="middle" fill="#FFF" dominant-baseline="central">9</text><text x="308" y="32" text-anchor="middle" fill="#FFF" font-size="80%" dominant-baseline="central">0</text><path style="fill:#fff" d="m329 23 12-4v9z"/><path d="M335 23h45" style="fill:none;stroke-width:2.16;stroke:#fff"/><text x="354" y="12" text-anchor="middle" fill="#FFF" dominant-baseline="central">Root</text><path d="m45 283 14-51M117 283l-15-51M254 283l14-51M102 189l51-50M246 189l-50-50M405 189l14-50M477 189l-15-50M196 95l90-50M419 95l-90-50" style="fill:none;stroke-width:2.16;stroke:#fff"/><path d="M45 427h43v-44H45Z" style="fill:#3f7f3f;stroke-width:2.16;stroke:#fff"/><text x="66" y="395" text-anchor="middle" fill="#FFF" dominant-baseline="central">9</text><text x="66" y="411" text-anchor="middle" fill="#FFF" font-size="64%" dominant-baseline="central">0</text><path d="M88 427h43v-44H88Z" style="fill:#7f5200;stroke-width:2.16;stroke:#fff"/><text x="110" y="395" text-anchor="middle" fill="#FFF" dominant-baseline="central">8</text><text x="110" y="411" text-anchor="middle" fill="#FFF" font-size="64%" dominant-baseline="central">1</text><path d="M131 427h43v-44h-43Z" style="fill:#7f5200;stroke-width:2.16;stroke:#fff"/><text x="153" y="395" text-anchor="middle" fill="#FFF" dominant-baseline="central">6</text><text x="153" y="411" text-anchor="middle" fill="#FFF" font-size="64%" dominant-baseline="central">2</text><path d="M174 427h44v-44h-44Z" style="fill:#7f3f7f;stroke-width:2.16;stroke:#fff"/><text x="196" y="395" text-anchor="middle" fill="#FFF" dominant-baseline="central">7</text><text x="196" y="411" text-anchor="middle" fill="#FFF" font-size="64%" dominant-baseline="central">3</text><path d="M218 427h43v-44h-43Z" style="fill:#7f3f7f;stroke-width:2.16;stroke:#fff"/><text x="239" y="395" text-anchor="middle" fill="#FFF" dominant-baseline="central">4</text><text x="239" y="411" text-anchor="middle" fill="#FFF" font-size="64%" dominant-baseline="central">4</text><path d="M261 427h43v-44h-43Z" style="fill:#7f3f7f;stroke-width:2.16;stroke:#fff"/><text x="282" y="395" text-anchor="middle" fill="#FFF" dominant-baseline="central">5</text><text x="282" y="411" text-anchor="middle" fill="#FFF" font-size="64%" dominant-baseline="central">5</text><path d="M304 427h43v-44h-43Z" style="fill:#7f3f7f;stroke-width:2.16;stroke:#fff"/><text x="326" y="395" text-anchor="middle" fill="#FFF" dominant-baseline="central">2</text><text x="326" y="411" text-anchor="middle" fill="#FFF" font-size="64%" dominant-baseline="central">6</text><path d="M347 427h43v-44h-43Z" style="fill:#7f0000;stroke-width:2.16;stroke:#fff"/><text x="369" y="395" text-anchor="middle" fill="#FFF" dominant-baseline="central">0</text><text x="369" y="411" text-anchor="middle" fill="#FFF" font-size="64%" dominant-baseline="central">7</text><path d="M390 427h44v-44h-44Z" style="fill:#7f0000;stroke-width:2.16;stroke:#fff"/><text x="412" y="395" text-anchor="middle" fill="#FFF" dominant-baseline="central">3</text><text x="412" y="411" text-anchor="middle" fill="#FFF" font-size="64%" dominant-baseline="central">8</text><path d="M434 427h43v-44h-43Z" style="fill:#7f0000;stroke-width:2.16;stroke:#fff"/><text x="455" y="395" text-anchor="middle" fill="#FFF" dominant-baseline="central">1</text><text x="455" y="411" text-anchor="middle" fill="#FFF" font-size="64%" dominant-baseline="central">9</text></svg>