<svg xmlns="http://www.w3.org/2000/svg" xmlns:xlink="http://www.w3.org/1999/xlink" width="600" height="480"><desc>Produced by GNUPLOT 5.4 patchlevel 2</desc><path fill="none" d="M0 0h600v480H0z"/><defs><path id="d" stroke="currentColor" stroke-width=".222" d="M-1-1h2v2h-2z"/><path id="b" stroke="currentColor" stroke-width=".222" d="m0-1.33-1.33 2h2.66z"/><path id="f" stroke="currentColor" stroke-width=".222" d="M0 1.33 1.265.411.782-1.067l-1.564-.009-.483 1.487z"/><use xlink:href="#b" id="c" stroke="currentColor" transform="rotate(180)"/><use xlink:href="#d" id="e" stroke="currentColor" transform="rotate(45)"/><circle id="a" cx="0" cy="0" r="1" stroke="currentColor" stroke-width=".222"/></defs><path fill="none" stroke="gray" stroke-dasharray="2,4" stroke-width=".5" d="M72.53 422.4h502.29" class="gridline" color="gray"/><g fill="none" stroke="currentColor" color="#000"><path stroke="#FFF" d="M72.53 422.4h9m493.29 0h-9"/><text fill="#FFF" stroke="none" font-family="Arial" font-size="12" text-anchor="end" transform="translate(64.14 426.3)"><tspan>-3</tspan></text></g><path fill="none" stroke="gray" stroke-dasharray="2,4" stroke-width=".5" d="M72.53 381.96h502.29" class="gridline" color="gray"/><g fill="none" stroke="currentColor" color="#000"><path stroke="#FFF" d="M72.53 381.96h9m493.29 0h-9"/><text fill="#FFF" stroke="none" font-family="Arial" font-size="12" text-anchor="end" transform="translate(64.14 385.86)"><tspan>-2.5</tspan></text></g><path fill="none" stroke="gray" stroke-dasharray="2,4" stroke-width=".5" d="M72.53 341.52h502.29" class="gridline" color="gray"/><g fill="none" stroke="currentColor" color="#000"><path stroke="#FFF" d="M72.53 341.52h9m493.29 0h-9"/><text fill="#FFF" stroke="none" font-family="Arial" font-size="12" text-anchor="end" transform="translate(64.14 345.42)"><tspan>-2</tspan></text></g><path fill="none" stroke="gray" stroke-dasharray="2,4" stroke-width=".5" d="M72.53 301.08h502.29" class="gridline" color="gray"/><g fill="none" stroke="currentColor" color="#000"><path stroke="#FFF" d="M72.53 301.08h9m493.29 0h-9"/><text fill="#FFF" stroke="none" font-family="Arial" font-size="12" text-anchor="end" transform="translate(64.14 304.98)"><tspan>-1.5</tspan></text></g><path fill="none" stroke="gray" stroke-dasharray="2,4" stroke-width=".5" d="M72.53 260.64h502.29" class="gridline" color="gray"/><g fill="none" stroke="currentColor" color="#000"><path stroke="#FFF" d="M72.53 260.64h9m493.29 0h-9"/><text fill="#FFF" stroke="none" font-family="Arial" font-size="12" text-anchor="end" transform="translate(64.14 264.54)"><tspan>-1</tspan></text></g><path fill="none" stroke="gray" stroke-dasharray="2,4" stroke-width=".5" d="M72.53 220.2h502.29" class="gridline" color="gray"/><g fill="none" stroke="currentColor" color="#000"><path stroke="#FFF" d="M72.53 220.2h9m493.29 0h-9"/><text fill="#FFF" stroke="none" font-family="Arial" font-size="12" text-anchor="end" transform="translate(64.14 224.1)"><tspan>-0.5</tspan></text></g><path fill="none" stroke="gray" stroke-dasharray="2,4" stroke-width=".5" d="M72.53 179.77h502.29" class="gridline" color="gray"/><g fill="none" stroke="currentColor" color="#000"><path stroke="#FFF" d="M72.53 179.77h9m493.29 0h-9"/><text fill="#FFF" stroke="none" font-family="Arial" font-size="12" text-anchor="end" transform="translate(64.14 183.67)"><tspan> 0</tspan></text></g><path fill="none" stroke="gray" stroke-dasharray="2,4" stroke-width=".5" d="M72.53 139.33h502.29" class="gridline" color="gray"/><g fill="none" stroke="currentColor" color="#000"><path stroke="#FFF" d="M72.53 139.33h9m493.29 0h-9"/><text fill="#FFF" stroke="none" font-family="Arial" font-size="12" text-anchor="end" transform="translate(64.14 143.23)"><tspan> 0.5</tspan></text></g><path fill="none" stroke="gray" stroke-dasharray="2,4" stroke-width=".5" d="M72.53 98.89h502.29" class="gridline" color="gray"/><g fill="none" stroke="currentColor" color="#000"><path stroke="#FFF" d="M72.53 98.89h9m493.29 0h-9"/><text fill="#FFF" stroke="none" font-family="Arial" font-size="12" text-anchor="end" transform="translate(64.14 102.79)"><tspan> 1</tspan></text></g><path fill="none" stroke="gray" stroke-dasharray="2,4" stroke-width=".5" d="M72.53 58.45h502.29" class="gridline" color="gray"/><g fill="none" stroke="currentColor" color="#000"><path stroke="#FFF" d="M72.53 58.45h9m493.29 0h-9"/><text fill="#FFF" stroke="none" font-family="Arial" font-size="12" text-anchor="end" transform="translate(64.14 62.35)"><tspan> 1.5</tspan></text></g><path fill="none" stroke="gray" stroke-dasharray="2,4" stroke-width=".5" d="M72.53 18.01h502.29" class="gridline" color="gray"/><g fill="none" stroke="currentColor" color="#000"><path stroke="#FFF" d="M72.53 18.01h9m493.29 0h-9"/><text fill="#FFF" stroke="none" font-family="Arial" font-size="12" text-anchor="end" transform="translate(64.14 21.91)"><tspan> 2</tspan></text></g><path fill="none" stroke="gray" stroke-dasharray="2,4" stroke-width=".5" d="M72.53 422.4V18.01" class="gridline" color="gray"/><g fill="none" stroke="currentColor" color="#000"><path stroke="#FFF" d="M72.53 422.4v-9m0-395.39v9"/><text fill="#FFF" stroke="none" font-family="Arial" font-size="12" text-anchor="middle" transform="translate(72.53 444.3)"><tspan> 0</tspan></text></g><path fill="none" stroke="gray" stroke-dasharray="2,4" stroke-width=".5" d="M172.99 422.4V18.01" class="gridline" color="gray"/><g fill="none" stroke="currentColor" color="#000"><path stroke="#FFF" d="M172.99 422.4v-9m0-395.39v9"/><text fill="#FFF" stroke="none" font-family="Arial" font-size="12" text-anchor="middle" transform="translate(172.99 444.3)"><tspan> 1</tspan></text></g><path fill="none" stroke="gray" stroke-dasharray="2,4" stroke-width=".5" d="M273.45 422.4V18.01" class="gridline" color="gray"/><g fill="none" stroke="currentColor" color="#000"><path stroke="#FFF" d="M273.45 422.4v-9m0-395.39v9"/><text fill="#FFF" stroke="none" font-family="Arial" font-size="12" text-anchor="middle" transform="translate(273.45 444.3)"><tspan> 2</tspan></text></g><path fill="none" stroke="gray" stroke-dasharray="2,4" stroke-width=".5" d="M373.9 422.4V18.01" class="gridline" color="gray"/><g fill="none" stroke="currentColor" color="#000"><path stroke="#FFF" d="M373.9 422.4v-9m0-395.39v9"/><text fill="#FFF" stroke="none" font-family="Arial" font-size="12" text-anchor="middle" transform="translate(373.9 444.3)"><tspan> 3</tspan></text></g><path fill="none" stroke="gray" stroke-dasharray="2,4" stroke-width=".5" d="M474.36 422.4V45.01m0-18v-9" class="gridline" color="gray"/><g fill="none" stroke="currentColor" color="#000"><path stroke="#FFF" d="M474.36 422.4v-9m0-395.39v9"/><text fill="#FFF" stroke="none" font-family="Arial" font-size="12" text-anchor="middle" transform="translate(474.36 444.3)"><tspan> 4</tspan></text></g><path fill="none" stroke="gray" stroke-dasharray="2,4" stroke-width=".5" d="M574.82 422.4V18.01" class="gridline" color="gray"/><g fill="none" stroke="currentColor" color="#000"><path stroke="#FFF" d="M574.82 422.4v-9m0-395.39v9"/><text fill="#FFF" stroke="none" font-family="Arial" font-size="12" text-anchor="middle" transform="translate(574.82 444.3)"><tspan> 5</tspan></text></g><path fill="none" stroke="#FFF" d="M72.53 179.77h502.29M72.53 422.4V18.01M72.53 18.01V422.4h502.29V18.01z" color="#000"/><text fill="#FFF" stroke="none" color="#000" font-family="Arial" font-size="12" text-anchor="middle" transform="rotate(-90 119.695 100.515)"><tspan>x</tspan></text><text fill="#FFF" stroke="none" color="#000" font-family="Arial" font-size="12" text-anchor="middle" transform="translate(323.67 471.3)"><tspan>y</tspan></text><text fill="#FFF" stroke="none" stroke-width="2" color="#000" font-family="Arial" font-size="12" text-anchor="end" transform="translate(507.09 39.91)">log(x)</text><path fill="none" stroke="violet" stroke-width="2" d="M515.48 36.01h42.56M77.6 421.24l5.08-56.06 5.07-32.79 5.07-23.27 5.08-18.05 5.07-14.74 5.08-12.47 5.07-10.8 5.07-9.53 5.08-8.52 5.07-7.7 5.07-7.04 5.08-6.48 5.07-5.99 5.07-5.58 5.08-5.22 5.07-4.9 5.08-4.63 5.07-4.37 5.07-4.15 5.08-3.94 5.07-3.77 5.07-3.59 5.08-3.44 5.07-3.3 5.07-3.18 5.08-3.05 5.07-2.94 5.08-2.84 5.07-2.74 5.07-2.65 5.08-2.57 5.07-2.49 5.07-2.41 5.08-2.35 5.07-2.28 5.07-2.21 5.08-2.16 5.07-2.1 5.08-2.05 5.07-1.99 5.07-1.95 5.08-1.91 5.07-1.86 5.07-1.81 5.08-1.78 5.07-1.74 5.07-1.7 5.08-1.67 5.07-1.63 5.08-1.61 5.07-1.57 5.07-1.54 5.08-1.51 5.07-1.48 5.07-1.46 5.08-1.43 5.07-1.41 5.07-1.38 5.08-1.36 5.07-1.34 5.08-1.31 5.07-1.3 5.07-1.27 5.08-1.25 5.07-1.24 5.07-1.22 5.08-1.19 5.07-1.18 5.07-1.17 5.08-1.15 5.07-1.13 5.08-1.11 5.07-1.1 5.07-1.09 5.08-1.07 5.07-1.06 5.07-1.04 5.08-1.03 5.07-1.02 5.07-1 5.08-.99 5.07-.99 5.08-.96 5.07-.96 5.07-.95 5.08-.93 5.07-.93 5.07-.91 5.08-.9 5.07-.9 5.07-.88 5.08-.88 5.07-.86 5.08-.86 5.07-.84 5.07-.84 5.08-.83 5.07-.82" color="#000"/><path fill="none" stroke="#FFF" d="M72.53 18.01V422.4h502.29V18.01z" color="#000"/></svg>