<svg xmlns="http://www.w3.org/2000/svg" class="pikchr" viewBox="0 0 1315.27 389.8"><path style="fill:#ffff7f" d="m1248.41 211.512-11.52 4.32v-8.64z"/><path d="M197.209 211.512H1242.65" style="fill:none;stroke-width:2.16;stroke:#ffff7f"/><text x="1275.14" y="221.592" text-anchor="middle" fill="#FFF" dominant-baseline="central">Time</text><path style="fill:#ffff7f" d="m211.609 38.712 4.32 11.52h-8.64z"/><path d="M211.609 355.512V44.472" style="fill:none;stroke-width:2.16;stroke:#ffff7f"/><text x="260.627" y="48.792" text-anchor="middle" fill="#FFF" dominant-baseline="central">Amplitude</text><path d="m211.609 211.512 18-17.813q18-17.813 36-34.519 18-16.705 36-31.265 18-14.559 36-26.067 18-11.508 36-19.249 18-7.74 36-11.234 18-3.492 36-2.52 18 .973 36 6.35 18 5.378 36 14.826t36 22.38q18 12.931 36 28.541 18 15.611 36 32.93t36 35.269q18 17.951 36 35.417 18 17.467 36 33.363t36 29.233q18 13.338 36 23.287 18 9.95 36 15.892 18 5.943 36 7.51 18 1.567 36-1.339 18-2.907 36-10.106t36-18.244q18.001-11.044 36.001-25.247 18-14.203 36-30.681t36-34.207q18-17.729 36-35.607 18-17.877 36-34.792l18-16.914" style="fill:none;stroke-width:3.24;stroke:#7fff7f"/><path style="fill:#7fff7f" d="m553.609 112.401 5.092-11.201 6.109 6.11z"/><path d="m557.682 108.328 52.62-52.62" style="fill:none;stroke-width:2.16;stroke:#7fff7f"/><text x="610.302" y="34.918" text-anchor="middle" fill="#7FFF7F" font-size="156.25%" dominant-baseline="central">Analog Signal</text><path style="fill:#ff7f7f" d="m646.444 188.356 5.091-11.2 6.11 6.109z"/><path d="m650.517 184.283 52.62-52.62" style="fill:none;stroke-width:2.16;stroke:#ff7f7f"/><text x="703.137" y="110.873" text-anchor="middle" fill="#FF7F7F" font-size="156.25%" dominant-baseline="central">Sampled</text><path d="M211.609 211.512" style="fill:none;stroke-width:.969624;stroke:#7fffff;stroke-dasharray:7.2,7.2"/><circle cx="211.609" cy="211.512" r="3.24" style="fill:#ff7f7f;stroke-width:2.16;stroke:#ff7f7f"/><path d="M247.609 211.512v-35.626" style="fill:none;stroke-width:.969624;stroke:#7fffff;stroke-dasharray:7.2,7.2"/><circle cx="247.609" cy="175.886" r="3.24" style="fill:#ff7f7f;stroke-width:2.16;stroke:#ff7f7f"/><text x="247.609" y="160.766" text-anchor="middle" fill="#FFF" dominant-baseline="central">a1</text><path d="M283.609 211.512v-69.037" style="fill:none;stroke-width:.969624;stroke:#7fffff;stroke-dasharray:7.2,7.2"/><circle cx="283.609" cy="142.475" r="3.24" style="fill:#ff7f7f;stroke-width:2.16;stroke:#ff7f7f"/><path d="M319.609 211.512v-98.156" style="fill:none;stroke-width:.969624;stroke:#7fffff;stroke-dasharray:7.2,7.2"/><circle cx="319.609" cy="113.356" r="3.24" style="fill:#ff7f7f;stroke-width:2.16;stroke:#ff7f7f"/><path d="M355.609 211.512V90.34" style="fill:none;stroke-width:.969624;stroke:#7fffff;stroke-dasharray:7.2,7.2"/><circle cx="355.609" cy="90.34" r="3.24" style="fill:#ff7f7f;stroke-width:2.16;stroke:#ff7f7f"/><path d="M391.609 211.512V74.858" style="fill:none;stroke-width:.969624;stroke:#7fffff;stroke-dasharray:7.2,7.2"/><circle cx="391.609" cy="74.858" r="3.24" style="fill:#ff7f7f;stroke-width:2.16;stroke:#ff7f7f"/><path d="M427.609 211.512V67.872" style="fill:none;stroke-width:.969624;stroke:#7fffff;stroke-dasharray:7.2,7.2"/><circle cx="427.609" cy="67.873" r="3.24" style="fill:#ff7f7f;stroke-width:2.16;stroke:#ff7f7f"/><path d="M463.609 211.512V69.818" style="fill:none;stroke-width:.969624;stroke:#7fffff;stroke-dasharray:7.2,7.2"/><circle cx="463.609" cy="69.818" r="3.24" style="fill:#ff7f7f;stroke-width:2.16;stroke:#ff7f7f"/><path d="M499.609 211.512V80.573" style="fill:none;stroke-width:.969624;stroke:#7fffff;stroke-dasharray:7.2,7.2"/><circle cx="499.609" cy="80.573" r="3.24" style="fill:#ff7f7f;stroke-width:2.16;stroke:#ff7f7f"/><path d="M535.609 211.512V99.469" style="fill:none;stroke-width:.969624;stroke:#7fffff;stroke-dasharray:7.2,7.2"/><circle cx="535.609" cy="99.469" r="3.24" style="fill:#ff7f7f;stroke-width:2.16;stroke:#ff7f7f"/><path d="M571.609 211.512v-86.18" style="fill:none;stroke-width:.969624;stroke:#7fffff;stroke-dasharray:7.2,7.2"/><circle cx="571.609" cy="125.332" r="3.24" style="fill:#ff7f7f;stroke-width:2.16;stroke:#ff7f7f"/><path d="M607.609 211.512v-54.959" style="fill:none;stroke-width:.969624;stroke:#7fffff;stroke-dasharray:7.2,7.2"/><circle cx="607.609" cy="156.553" r="3.24" style="fill:#ff7f7f;stroke-width:2.16;stroke:#ff7f7f"/><path d="M643.609 211.512v-20.321" style="fill:none;stroke-width:.969624;stroke:#7fffff;stroke-dasharray:7.2,7.2"/><circle cx="643.609" cy="191.191" r="3.24" style="fill:#ff7f7f;stroke-width:2.16;stroke:#ff7f7f"/><path d="M679.609 211.512v15.58" style="fill:none;stroke-width:.969624;stroke:#7fffff;stroke-dasharray:7.2,7.2"/><circle cx="679.609" cy="227.092" r="3.24" style="fill:#ff7f7f;stroke-width:2.16;stroke:#ff7f7f"/><path d="M715.609 211.512v50.513" style="fill:none;stroke-width:.969624;stroke:#7fffff;stroke-dasharray:7.2,7.2"/><circle cx="715.609" cy="262.025" r="3.24" style="fill:#ff7f7f;stroke-width:2.16;stroke:#ff7f7f"/><path d="M751.609 211.512v82.305" style="fill:none;stroke-width:.969624;stroke:#7fffff;stroke-dasharray:7.2,7.2"/><circle cx="751.609" cy="293.817" r="3.24" style="fill:#ff7f7f;stroke-width:2.16;stroke:#ff7f7f"/><path d="M787.609 211.512v108.98" style="fill:none;stroke-width:.969624;stroke:#7fffff;stroke-dasharray:7.2,7.2"/><circle cx="787.609" cy="320.492" r="3.24" style="fill:#ff7f7f;stroke-width:2.16;stroke:#ff7f7f"/><path d="M823.609 211.512v128.879" style="fill:none;stroke-width:.969624;stroke:#7fffff;stroke-dasharray:7.2,7.2"/><circle cx="823.609" cy="340.391" r="3.24" style="fill:#ff7f7f;stroke-width:2.16;stroke:#ff7f7f"/><path d="M859.609 211.512v140.764" style="fill:none;stroke-width:.969624;stroke:#7fffff;stroke-dasharray:7.2,7.2"/><circle cx="859.609" cy="352.276" r="3.24" style="fill:#ff7f7f;stroke-width:2.16;stroke:#ff7f7f"/><path d="M895.609 211.512V355.41" style="fill:none;stroke-width:.969624;stroke:#7fffff;stroke-dasharray:7.2,7.2"/><circle cx="895.609" cy="355.41" r="3.24" style="fill:#ff7f7f;stroke-width:2.16;stroke:#ff7f7f"/><path d="M931.609 211.512v138.085" style="fill:none;stroke-width:.969624;stroke:#7fffff;stroke-dasharray:7.2,7.2"/><circle cx="931.609" cy="349.597" r="3.24" style="fill:#ff7f7f;stroke-width:2.16;stroke:#ff7f7f"/><path d="M967.609 211.512v123.687" style="fill:none;stroke-width:.969624;stroke:#7fffff;stroke-dasharray:7.2,7.2"/><circle cx="967.609" cy="335.199" r="3.24" style="fill:#ff7f7f;stroke-width:2.16;stroke:#ff7f7f"/><path d="M1003.61 211.512V313.11" style="fill:none;stroke-width:.969624;stroke:#7fffff;stroke-dasharray:7.2,7.2"/><circle cx="1003.61" cy="313.11" r="3.24" style="fill:#ff7f7f;stroke-width:2.16;stroke:#ff7f7f"/><path d="M1039.61 211.512v73.192" style="fill:none;stroke-width:.969624;stroke:#7fffff;stroke-dasharray:7.2,7.2"/><circle cx="1039.61" cy="284.704" r="3.24" style="fill:#ff7f7f;stroke-width:2.16;stroke:#ff7f7f"/><path d="M1075.61 211.512v40.236" style="fill:none;stroke-width:.969624;stroke:#7fffff;stroke-dasharray:7.2,7.2"/><circle cx="1075.61" cy="251.748" r="3.24" style="fill:#ff7f7f;stroke-width:2.16;stroke:#ff7f7f"/><path d="M1111.61 211.512v4.778" style="fill:none;stroke-width:.969624;stroke:#7fffff;stroke-dasharray:7.2,7.2"/><circle cx="1111.61" cy="216.29" r="3.24" style="fill:#ff7f7f;stroke-width:2.16;stroke:#ff7f7f"/><path d="M1147.61 211.512v-30.977" style="fill:none;stroke-width:.969624;stroke:#7fffff;stroke-dasharray:7.2,7.2"/><circle cx="1147.61" cy="180.535" r="3.24" style="fill:#ff7f7f;stroke-width:2.16;stroke:#ff7f7f"/><path d="M1183.61 211.512v-64.806" style="fill:none;stroke-width:.969624;stroke:#7fffff;stroke-dasharray:7.2,7.2"/><circle cx="1183.61" cy="146.706" r="3.24" style="fill:#ff7f7f;stroke-width:2.16;stroke:#ff7f7f"/><path d="M211.609 355.512h-11.338M211.609 341.112h-11.338M211.609 326.712h-11.338M211.609 312.312h-11.338M211.609 297.912h-11.338M211.609 283.512h-17.007M211.609 269.112h-11.338M211.609 254.712h-11.338M211.609 240.312h-11.338M211.609 225.912h-11.338M211.609 67.512h-11.338M211.609 81.912h-11.338M211.609 96.312h-11.338M211.609 110.712h-11.338M211.609 125.112h-11.338M211.609 139.512h-17.007M211.609 153.912h-11.338M211.609 168.312h-11.338M211.609 182.712h-11.338M211.609 197.112h-11.338" style="fill:none;stroke-width:1.4472;stroke:#fff"/><text x="247.609" y="221.592" text-anchor="middle" fill="#FFF" dominant-baseline="central">t1</text><text x="283.609" y="221.592" text-anchor="middle" fill="#FFF" dominant-baseline="central">t2</text><text x="110.809" y="67.512" text-anchor="middle" fill="#7F7F7F" dominant-baseline="central">1111 1111 1111 1111</text><text x="110.809" y="81.912" text-anchor="middle" fill="#7F7F7F" dominant-baseline="central">1111 1111 1111 1110</text><text x="110.809" y="96.312" text-anchor="middle" fill="#7F7F7F" dominant-baseline="central">1111 1111 1111 1101</text><text x="110.809" y="110.712" text-anchor="middle" fill="#7F7F7F" dominant-baseline="central">1111 1111 1111 1100</text><text x="110.809" y="312.312" text-anchor="middle" fill="#7F7F7F" dominant-baseline="central">0000 0000 0000 0011</text><text x="110.809" y="326.712" text-anchor="middle" fill="#7F7F7F" dominant-baseline="central">0000 0000 0000 0010</text><text x="110.809" y="341.112" text-anchor="middle" fill="#7F7F7F" dominant-baseline="central">0000 0000 0000 0001</text><text x="110.809" y="355.512" text-anchor="middle" fill="#7F7F7F" dominant-baseline="central">0000 0000 0000 0000</text><text x="110.809" y="198.912" text-anchor="middle" fill="#FFF" font-size="125%" dominant-baseline="central">PCM</text><text x="110.809" y="219.576" text-anchor="middle" fill="#FFF" font-size="80%" dominant-baseline="central">Encoded Signal</text><path d="M27.581 370.632h166.457V52.392H27.581Z" style="fill:none;stroke-width:2.16;stroke:#fff"/><text x="110.809" y="39.792" text-anchor="middle" fill="#FFF" font-size="125%" dominant-baseline="central">ADC</text></svg>