<svg xmlns="http://www.w3.org/2000/svg" class="pikchr" viewBox="0 0 478.131 1392.13"><path d="M73.026 144.176h85.04v-86.4l-21.6-21.6h-63.44Z" style="fill:none;stroke-width:2.16;stroke:#ff7f7f"/><path d="M136.466 36.176v21.6h21.6" style="fill:none;stroke-width:2.16;stroke:#ff7f7f"/><text x="115.546" y="80.096" text-anchor="middle" fill="#FF7F7F" dominant-baseline="central">Information</text><text x="115.546" y="100.256" text-anchor="middle" fill="#FF7F7F" dominant-baseline="central">Source</text><path style="fill:#ffff7f" d="m115.546 208.976-4.32-11.52h8.64z"/><path d="M115.546 144.176v59.04" style="fill:none;stroke-width:2.16;stroke:#ffff7f"/><text x="115.546" y="168.505" text-anchor="middle" fill="#FFFF7F" font-size="64%" transform="rotate(90 115.546 176.576)" dominant-baseline="central">bitstream</text><path d="M73.026 254.33h85.04v-45.354h-85.04Z" style="fill:none;stroke-width:2.16;stroke:#7fff7f"/><text x="115.546" y="221.573" text-anchor="middle" fill="#7FFF7F" dominant-baseline="central">Format</text><text x="115.546" y="241.733" text-anchor="middle" fill="#7FFF7F" dominant-baseline="central">ADC</text><path style="fill:#ffff7f" d="m115.546 319.13-4.32-11.52h8.64z"/><path d="M115.546 254.33v59.04" style="fill:none;stroke-width:2.16;stroke:#ffff7f"/><text x="115.546" y="278.659" text-anchor="middle" fill="#FFFF7F" font-size="64%" transform="rotate(90 115.546 286.73)" dominant-baseline="central">bitstream</text><path d="M73.026 364.484h85.04V319.13h-85.04Z" style="fill:none;stroke-width:2.16;stroke:#ff7fff"/><text x="115.546" y="331.727" text-anchor="middle" fill="#FF7FFF" dominant-baseline="central">Source</text><text x="115.546" y="351.887" text-anchor="middle" fill="#FF7FFF" dominant-baseline="central">Encode</text><path style="fill:#ffff7f" d="m115.546 429.284-4.32-11.52h8.64z"/><path d="M115.546 364.484v59.04" style="fill:none;stroke-width:2.16;stroke:#ffff7f"/><text x="115.546" y="388.813" text-anchor="middle" fill="#FFFF7F" font-size="64%" transform="rotate(90 115.546 396.884)" dominant-baseline="central">bitstream</text><path d="M73.026 474.639h85.04v-45.355h-85.04Z" style="fill:none;stroke-width:2.16;stroke:#ff7fff"/><text x="115.546" y="451.962" text-anchor="middle" fill="#FF7FFF" dominant-baseline="central">Encrypt</text><path style="fill:#ffff7f" d="m115.546 539.439-4.32-11.52h8.64z"/><path d="M115.546 474.639v59.04" style="fill:none;stroke-width:2.16;stroke:#ffff7f"/><text x="115.546" y="498.968" text-anchor="middle" fill="#FFFF7F" font-size="64%" transform="rotate(90 115.546 507.039)" dominant-baseline="central">bitstream</text><path d="M73.026 584.793h85.04v-45.354h-85.04Z" style="fill:none;stroke-width:2.16;stroke:#ff7fff"/><text x="115.546" y="552.036" text-anchor="middle" fill="#FF7FFF" dominant-baseline="central">Channel</text><text x="115.546" y="572.196" text-anchor="middle" fill="#FF7FFF" dominant-baseline="central">Encode</text><path style="fill:#ffff7f" d="m115.546 649.593-4.32-11.52h8.64z"/><path d="M115.546 584.793v59.04" style="fill:none;stroke-width:2.16;stroke:#ffff7f"/><text x="115.546" y="609.122" text-anchor="middle" fill="#FFFF7F" font-size="64%" transform="rotate(90 115.546 617.193)" dominant-baseline="central">bitstream</text><path d="M73.026 694.947h85.04v-45.354h-85.04Z" style="fill:none;stroke-width:2.16;stroke:#ff7fff"/><text x="115.546" y="672.27" text-anchor="middle" fill="#FF7FFF" dominant-baseline="central">Multiplex</text><path style="fill:#ffff7f" d="m115.546 759.747-4.32-11.52h8.64z"/><path d="M115.546 694.947v59.04" style="fill:none;stroke-width:2.16;stroke:#ffff7f"/><text x="115.546" y="719.276" text-anchor="middle" fill="#FFFF7F" font-size="64%" transform="rotate(90 115.546 727.347)" dominant-baseline="central">bitstream</text><path d="M73.026 805.102h85.04v-45.355h-85.04Z" style="fill:none;stroke-width:2.16;stroke:#7fff7f"/><text x="115.546" y="772.345" text-anchor="middle" fill="#7FFF7F" dominant-baseline="central">Pulse</text><text x="115.546" y="792.505" text-anchor="middle" fill="#7FFF7F" dominant-baseline="central">Modulate</text><path style="fill:#7fffff" d="m115.546 869.902-4.32-11.52h8.64z"/><path d="M115.546 805.102v59.04" style="fill:none;stroke-width:2.16;stroke:#7fffff"/><text x="115.546" y="829.431" text-anchor="middle" fill="#7FFFFF" font-size="64%" transform="rotate(90 115.546 837.502)" dominant-baseline="central">baseband</text><text x="115.546" y="845.573" text-anchor="middle" fill="#7FFFFF" font-size="64%" transform="rotate(90 115.546 837.502)" dominant-baseline="central">waveform</text><path d="M73.026 915.256h85.04v-45.354h-85.04Z" style="fill:none;stroke-width:2.16;stroke:#7fff7f"/><text x="115.546" y="882.499" text-anchor="middle" fill="#7FFF7F" dominant-baseline="central">Bandpass</text><text x="115.546" y="902.659" text-anchor="middle" fill="#7FFF7F" dominant-baseline="central">Modulate</text><path style="fill:#7fffff" d="m115.546 980.056-4.32-11.52h8.64z"/><path d="M115.546 915.256v59.04" style="fill:none;stroke-width:2.16;stroke:#7fffff"/><text x="115.546" y="939.585" text-anchor="middle" fill="#7FFFFF" font-size="64%" transform="rotate(90 115.546 947.656)" dominant-baseline="central">baseband</text><text x="115.546" y="955.727" text-anchor="middle" fill="#7FFFFF" font-size="64%" transform="rotate(90 115.546 947.656)" dominant-baseline="central">waveform</text><path d="M73.026 1025.41h85.04v-45.354h-85.04Z" style="fill:none;stroke-width:2.16;stroke:#ff7fff"/><text x="115.546" y="992.653" text-anchor="middle" fill="#FF7FFF" dominant-baseline="central">Frequency</text><text x="115.546" y="1012.81" text-anchor="middle" fill="#FF7FFF" dominant-baseline="central">Spread</text><path style="fill:#7fffff" d="m115.546 1090.21-4.32-11.52h8.64z"/><path d="M115.546 1025.41v59.04" style="fill:none;stroke-width:2.16;stroke:#7fffff"/><text x="115.546" y="1049.74" text-anchor="middle" fill="#7FFFFF" font-size="64%" transform="rotate(90 115.546 1057.81)" dominant-baseline="central">baseband</text><text x="115.546" y="1065.88" text-anchor="middle" fill="#7FFFFF" font-size="64%" transform="rotate(90 115.546 1057.81)" dominant-baseline="central">waveform</text><path d="M73.026 1135.56h85.04v-45.35h-85.04Z" style="fill:none;stroke-width:2.16;stroke:#ff7fff"/><text x="115.546" y="1102.81" text-anchor="middle" fill="#FF7FFF" dominant-baseline="central">Multiple</text><text x="115.546" y="1122.97" text-anchor="middle" fill="#FF7FFF" dominant-baseline="central">Access</text><path style="fill:#fff" d="m115.546 1207.56-4.32-11.52h8.64z"/><path d="M115.546 1135.56v66.24" style="fill:none;stroke-width:2.16;stroke:#fff"/><path d="M79.546 1243.56h72a18 18 0 0 0 18-18 18 18 0 0 0-18-18h-72a18 18 0 0 0-18 18 18 18 0 0 0 18 18Z" style="fill:none;stroke-width:2.16;stroke:#7f7fff"/><text x="115.546" y="1225.56" text-anchor="middle" fill="#7F7FFF" dominant-baseline="central">XMT</text><path d="M144.783 1212.84v-28.35l8.504-17.01h-17.008l8.504 17.01M86.31 1212.84v-28.35l8.503-17.01H77.805l8.504 17.01" style="fill:none;stroke-width:.969624;stroke-linejoin:round;stroke:#7f7fff"/><path style="fill:#7f7fff" d="m339.625 1225.56-7.719 2.9v-5.79z"/><path d="M169.546 1225.56h166.219" style="fill:none;stroke-width:1.4472;stroke:#7f7fff;stroke-dasharray:7.2,7.2"/><text x="254.585" y="1214.4" text-anchor="middle" fill="#7F7FFF" dominant-baseline="central">CHANNEL</text><path d="M357.625 1243.56h72a18 18 0 0 0 18-18 18 18 0 0 0-18-18h-72a18 18 0 0 0-18 18 18 18 0 0 0 18 18Z" style="fill:none;stroke-width:2.16;stroke:#7f7fff"/><text x="393.625" y="1225.56" text-anchor="middle" fill="#7F7FFF" dominant-baseline="central">RCV</text><path d="M422.861 1212.84v-28.35l8.504-17.01h-17.008l8.504 17.01M364.388 1212.84v-28.35l8.504-17.01h-17.008l8.504 17.01" style="fill:none;stroke-width:.969624;stroke-linejoin:round;stroke:#7f7fff"/><path style="fill:#fff" d="m393.625 1135.56 4.32 11.52h-8.64z"/><path d="M393.625 1207.56v-66.24" style="fill:none;stroke-width:2.16;stroke:#fff"/><path d="M351.105 1135.56h85.039v-45.35h-85.039Z" style="fill:none;stroke-width:2.16;stroke:#ff7fff"/><text x="393.625" y="1102.81" text-anchor="middle" fill="#FF7FFF" dominant-baseline="central">Multiple</text><text x="393.625" y="1122.97" text-anchor="middle" fill="#FF7FFF" dominant-baseline="central">Access</text><path style="fill:#7fffff" d="m393.625 1025.41 4.32 11.52h-8.64z"/><path d="M393.625 1090.21v-59.04" style="fill:none;stroke-width:2.16;stroke:#7fffff"/><text x="393.625" y="1049.74" text-anchor="middle" fill="#7FFFFF" font-size="64%" transform="rotate(-90 393.625 1057.81)" dominant-baseline="central">baseband</text><text x="393.625" y="1065.88" text-anchor="middle" fill="#7FFFFF" font-size="64%" transform="rotate(-90 393.625 1057.81)" dominant-baseline="central">waveform</text><path d="M351.105 1025.41h85.039v-45.354h-85.039Z" style="fill:none;stroke-width:2.16;stroke:#ff7fff"/><text x="393.625" y="992.653" text-anchor="middle" fill="#FF7FFF" dominant-baseline="central">Frequency</text><text x="393.625" y="1012.81" text-anchor="middle" fill="#FF7FFF" dominant-baseline="central">Despread</text><path style="fill:#7fffff" d="m393.625 915.256 4.32 11.52h-8.64z"/><path d="M393.625 980.056v-59.04" style="fill:none;stroke-width:2.16;stroke:#7fffff"/><text x="393.625" y="939.585" text-anchor="middle" fill="#7FFFFF" font-size="64%" transform="rotate(-90 393.625 947.656)" dominant-baseline="central">baseband</text><text x="393.625" y="955.727" text-anchor="middle" fill="#7FFFFF" font-size="64%" transform="rotate(-90 393.625 947.656)" dominant-baseline="central">waveform</text><path d="M351.105 915.256h85.039v-45.354h-85.039Z" style="fill:none;stroke-width:2.16;stroke:#7fff7f"/><text x="393.625" y="882.499" text-anchor="middle" fill="#7FFF7F" dominant-baseline="central">Demodulate</text><text x="393.625" y="902.659" text-anchor="middle" fill="#7FFF7F" dominant-baseline="central">And Sample</text><path style="fill:#7fffff" d="m393.625 805.102 4.32 11.52h-8.64z"/><path d="M393.625 869.902v-59.04" style="fill:none;stroke-width:2.16;stroke:#7fffff"/><text x="393.625" y="829.431" text-anchor="middle" fill="#7FFFFF" font-size="64%" transform="rotate(-90 393.625 837.502)" dominant-baseline="central">baseband</text><text x="393.625" y="845.573" text-anchor="middle" fill="#7FFFFF" font-size="64%" transform="rotate(-90 393.625 837.502)" dominant-baseline="central">waveform</text><path d="M351.105 805.102h85.039v-45.355h-85.039Z" style="fill:none;stroke-width:2.16;stroke:#7fff7f"/><text x="393.625" y="782.425" text-anchor="middle" fill="#7FFF7F" dominant-baseline="central">Detect</text><path style="fill:#ffff7f" d="m393.625 694.947 4.32 11.52h-8.64z"/><path d="M393.625 759.747v-59.04" style="fill:none;stroke-width:2.16;stroke:#ffff7f"/><text x="393.625" y="719.276" text-anchor="middle" fill="#FFFF7F" font-size="64%" transform="rotate(-90 393.625 727.347)" dominant-baseline="central">bitstream</text><path d="M351.105 694.947h85.039v-45.354h-85.039Z" style="fill:none;stroke-width:2.16;stroke:#ff7fff"/><text x="393.625" y="672.27" text-anchor="middle" fill="#FF7FFF" dominant-baseline="central">Demultiplex</text><path style="fill:#ffff7f" d="m393.625 584.793 4.32 11.52h-8.64z"/><path d="M393.625 649.593v-59.04" style="fill:none;stroke-width:2.16;stroke:#ffff7f"/><text x="393.625" y="609.122" text-anchor="middle" fill="#FFFF7F" font-size="64%" transform="rotate(-90 393.625 617.193)" dominant-baseline="central">bitstream</text><path d="M351.105 584.793h85.039v-45.354h-85.039Z" style="fill:none;stroke-width:2.16;stroke:#ff7fff"/><text x="393.625" y="552.036" text-anchor="middle" fill="#FF7FFF" dominant-baseline="central">Channel</text><text x="393.625" y="572.196" text-anchor="middle" fill="#FF7FFF" dominant-baseline="central">Decode</text><path style="fill:#ffff7f" d="m393.625 474.639 4.32 11.52h-8.64z"/><path d="M393.625 539.439v-59.04" style="fill:none;stroke-width:2.16;stroke:#ffff7f"/><text x="393.625" y="498.968" text-anchor="middle" fill="#FFFF7F" font-size="64%" transform="rotate(-90 393.625 507.039)" dominant-baseline="central">bitstream</text><path d="M351.105 474.639h85.039v-45.355h-85.039Z" style="fill:none;stroke-width:2.16;stroke:#ff7fff"/><text x="393.625" y="451.962" text-anchor="middle" fill="#FF7FFF" dominant-baseline="central">Decrypt</text><path style="fill:#ffff7f" d="m393.625 364.484 4.32 11.52h-8.64z"/><path d="M393.625 429.284v-59.04" style="fill:none;stroke-width:2.16;stroke:#ffff7f"/><text x="393.625" y="388.813" text-anchor="middle" fill="#FFFF7F" font-size="64%" transform="rotate(-90 393.625 396.884)" dominant-baseline="central">bitstream</text><path d="M351.105 364.484h85.039V319.13h-85.039Z" style="fill:none;stroke-width:2.16;stroke:#ff7fff"/><text x="393.625" y="331.727" text-anchor="middle" fill="#FF7FFF" dominant-baseline="central">Source</text><text x="393.625" y="351.887" text-anchor="middle" fill="#FF7FFF" dominant-baseline="central">Decode</text><path style="fill:#ffff7f" d="m393.625 254.33 4.32 11.52h-8.64z"/><path d="M393.625 319.13v-59.04" style="fill:none;stroke-width:2.16;stroke:#ffff7f"/><text x="393.625" y="278.659" text-anchor="middle" fill="#FFFF7F" font-size="64%" transform="rotate(-90 393.625 286.73)" dominant-baseline="central">bitstream</text><path d="M351.105 254.33h85.039v-45.354h-85.039Z" style="fill:none;stroke-width:2.16;stroke:#7fff7f"/><text x="393.625" y="221.573" text-anchor="middle" fill="#7FFF7F" dominant-baseline="central">Format</text><text x="393.625" y="241.733" text-anchor="middle" fill="#7FFF7F" dominant-baseline="central">DAC</text><path style="fill:#ffff7f" d="m393.625 144.176 4.32 11.52h-8.64z"/><path d="M393.625 208.976v-59.04" style="fill:none;stroke-width:2.16;stroke:#ffff7f"/><text x="393.625" y="168.505" text-anchor="middle" fill="#FFFF7F" font-size="64%" transform="rotate(-90 393.625 176.576)" dominant-baseline="central">bitstream</text><path d="M351.105 144.176h85.039v-86.4l-21.6-21.6h-63.439Z" style="fill:none;stroke-width:2.16;stroke:#ff7f7f"/><path d="M414.544 36.176v21.6h21.6" style="fill:none;stroke-width:2.16;stroke:#ff7f7f"/><text x="393.625" y="80.096" text-anchor="middle" fill="#FF7F7F" dominant-baseline="central">Information</text><text x="393.625" y="100.256" text-anchor="middle" fill="#FF7F7F" dominant-baseline="central">Sink</text><path style="fill:#fff" d="m98.538 286.73-5.171 1.939v-3.878z"/><path d="M30.506 286.73h65.446" style="fill:none;stroke-width:.969624;stroke:#fff"/><text x="64.522" y="279.552" text-anchor="middle" fill="#FFF" font-size="64%" dominant-baseline="central">Message</text><text x="64.522" y="293.908" text-anchor="middle" fill="#FFF" font-size="64%" dominant-baseline="central">Symbols</text><path style="fill:#fff" d="m98.538 617.193-5.171 1.939v-3.878z"/><path d="M30.506 617.193h65.446" style="fill:none;stroke-width:.969624;stroke:#fff"/><text x="64.522" y="610.015" text-anchor="middle" fill="#FFF" font-size="64%" dominant-baseline="central">Channel</text><text x="64.522" y="624.371" text-anchor="middle" fill="#FFF" font-size="64%" dominant-baseline="central">Symbols</text><path d="M101.514 1361.63h85.04v-45.36h-85.04Z" style="fill:none;stroke-width:2.16;stroke:#ff7fff"/><text x="144.034" y="1328.87" text-anchor="middle" fill="#FF7FFF" dominant-baseline="central">Optional</text><text x="144.034" y="1349.03" text-anchor="middle" fill="#FF7FFF" dominant-baseline="central">Component</text><path d="M197.892 1361.63h85.04v-45.36h-85.04Z" style="fill:none;stroke-width:2.16;stroke:#7fff7f"/><text x="240.412" y="1328.87" text-anchor="middle" fill="#7FFF7F" dominant-baseline="central">Essential</text><text x="240.412" y="1349.03" text-anchor="middle" fill="#7FFF7F" dominant-baseline="central">Component</text><path d="M312.27 1356.95h72a18 18 0 0 0 18-18 18 18 0 0 0-18-18h-72a18 18 0 0 0-18 18 18 18 0 0 0 18 18Z" style="fill:none;stroke-width:2.16;stroke:#7f7fff"/><text x="348.27" y="1338.95" text-anchor="middle" fill="#7F7FFF" dominant-baseline="central">RF Head</text><path d="M377.507 1326.22v-28.34l8.504-17.01h-17.008l8.504 17.01M319.033 1326.22v-28.34l8.504-17.01H310.53l8.503 17.01" style="fill:none;stroke-width:.969624;stroke-linejoin:round;stroke:#7f7fff"/></svg>