<svg xmlns="http://www.w3.org/2000/svg" class="pikchr" viewBox="0 0 1103.21 325.44"><path style="fill:#ffff7f" d="m1053.36 179.28-11.52 4.32v-8.64z"/><path d="M2.16 179.28H1047.6" style="fill:none;stroke-width:2.16;stroke:#ffff7f"/><text x="1080.09" y="189.36" text-anchor="middle" fill="#FFF" dominant-baseline="central">Time</text><path style="fill:#ffff7f" d="M16.56 6.48 20.88 18h-8.64z"/><path d="M16.56 323.28V12.24" style="fill:none;stroke-width:2.16;stroke:#ffff7f"/><text x="65.578" y="16.56" text-anchor="middle" fill="#FFF" dominant-baseline="central">Amplitude</text><path d="m16.56 179.28 18-17.813q18-17.813 36-34.519 18-16.705 36-31.265 18-14.559 36-26.067 18-11.508 36-19.249 18-7.74 36-11.233 18-3.493 36-2.52 18 .972 36 6.35 18 5.377 36 14.825t36 22.38q18 12.931 36 28.541 18 15.611 36 32.93t36 35.269q18 17.951 36 35.417 18 17.467 36 33.363t36 29.233q18 13.338 36 23.287t36 15.892q18 5.943 36 7.51 18 1.567 36-1.339 18-2.907 36-10.106t36-18.244q18-11.044 36-25.247t36-30.681q18-16.478 36-34.207t36-35.607q18-17.877 36-34.792l18-16.914" style="fill:none;stroke-width:3.24;stroke:#7fff7f"/><path style="fill:#7fff7f" d="m394.56 108.71 5.091-11.2 6.11 6.109z"/><path d="m398.633 104.637 52.62-52.62" style="fill:none;stroke-width:2.16;stroke:#7fff7f"/><text x="451.253" y="31.227" text-anchor="middle" fill="#7FFF7F" font-size="156.25%" dominant-baseline="central">Analog Signal</text><path d="M16.56 316.08h1008M16.56 277.2h1008M16.56 238.32h1008M16.56 199.44h1008M16.56 160.56h1008M16.56 121.68h1008M16.56 82.8h1008M16.56 43.92h1008M16.56 323.28v-288M52.56 323.28v-288M88.56 323.28v-288M124.56 323.28v-288M160.56 323.28v-288M196.56 323.28v-288M232.56 323.28v-288M268.56 323.28v-288M304.56 323.28v-288M340.56 323.28v-288M376.56 323.28v-288M412.56 323.28v-288M448.56 323.28v-288M484.56 323.28v-288M520.56 323.28v-288M556.56 323.28v-288M592.56 323.28v-288M628.56 323.28v-288M664.56 323.28v-288M700.56 323.28v-288M736.56 323.28v-288M772.56 323.28v-288M808.56 323.28v-288M844.56 323.28v-288M880.56 323.28v-288M916.56 323.28v-288M952.56 323.28v-288M988.56 323.28v-288M1024.56 323.28v-288" style="fill:none;stroke-width:.969624;stroke:#7f7f7f;stroke-dasharray:2.1,7.2"/><path d="M16.56 179.28" style="fill:none;stroke-width:4.86;stroke:#ff7f7f"/><path d="M16.56 179.28h36v-18.72" style="fill:none;stroke-width:4.86;stroke-linejoin:round;stroke:#ff7f7f"/><circle cx="52.56" cy="160.56" r="6.48" style="fill:#ff7f7f;stroke-width:2.16;stroke:#ff7f7f"/><path d="M52.56 160.56h36v-38.88" style="fill:none;stroke-width:4.86;stroke-linejoin:round;stroke:#ff7f7f"/><circle cx="88.56" cy="121.68" r="6.48" style="fill:#ff7f7f;stroke-width:2.16;stroke:#ff7f7f"/><path d="M88.56 121.68h36V82.8" style="fill:none;stroke-width:4.86;stroke-linejoin:round;stroke:#ff7f7f"/><circle cx="124.56" cy="82.8" r="6.48" style="fill:#ff7f7f;stroke-width:2.16;stroke:#ff7f7f"/><path d="M124.56 82.8h36V43.92" style="fill:none;stroke-width:4.86;stroke-linejoin:round;stroke:#ff7f7f"/><circle cx="160.56" cy="43.92" r="6.48" style="fill:#ff7f7f;stroke-width:2.16;stroke:#ff7f7f"/><path d="M160.56 43.92h36" style="fill:none;stroke-width:4.86;stroke-linejoin:round;stroke:#ff7f7f"/><circle cx="196.56" cy="43.92" r="6.48" style="fill:#ff7f7f;stroke-width:2.16;stroke:#ff7f7f"/><path d="M196.56 43.92h36" style="fill:none;stroke-width:4.86;stroke-linejoin:round;stroke:#ff7f7f"/><circle cx="232.56" cy="43.92" r="6.48" style="fill:#ff7f7f;stroke-width:2.16;stroke:#ff7f7f"/><path d="M232.56 43.92h36" style="fill:none;stroke-width:4.86;stroke-linejoin:round;stroke:#ff7f7f"/><circle cx="268.56" cy="43.92" r="6.48" style="fill:#ff7f7f;stroke-width:2.16;stroke:#ff7f7f"/><path d="M268.56 43.92h36" style="fill:none;stroke-width:4.86;stroke-linejoin:round;stroke:#ff7f7f"/><circle cx="304.56" cy="43.92" r="6.48" style="fill:#ff7f7f;stroke-width:2.16;stroke:#ff7f7f"/><path d="M304.56 43.92h36V82.8" style="fill:none;stroke-width:4.86;stroke-linejoin:round;stroke:#ff7f7f"/><circle cx="340.56" cy="82.8" r="6.48" style="fill:#ff7f7f;stroke-width:2.16;stroke:#ff7f7f"/><path d="M340.56 82.8h36" style="fill:none;stroke-width:4.86;stroke-linejoin:round;stroke:#ff7f7f"/><circle cx="376.56" cy="82.8" r="6.48" style="fill:#ff7f7f;stroke-width:2.16;stroke:#ff7f7f"/><path d="M376.56 82.8h36v38.88" style="fill:none;stroke-width:4.86;stroke-linejoin:round;stroke:#ff7f7f"/><circle cx="412.56" cy="121.68" r="6.48" style="fill:#ff7f7f;stroke-width:2.16;stroke:#ff7f7f"/><path d="M412.56 121.68h36v38.88" style="fill:none;stroke-width:4.86;stroke-linejoin:round;stroke:#ff7f7f"/><circle cx="448.56" cy="160.56" r="6.48" style="fill:#ff7f7f;stroke-width:2.16;stroke:#ff7f7f"/><path d="M448.56 160.56h36v38.88" style="fill:none;stroke-width:4.86;stroke-linejoin:round;stroke:#ff7f7f"/><circle cx="484.56" cy="199.44" r="6.48" style="fill:#ff7f7f;stroke-width:2.16;stroke:#ff7f7f"/><path d="M484.56 199.44h36v38.88" style="fill:none;stroke-width:4.86;stroke-linejoin:round;stroke:#ff7f7f"/><circle cx="520.56" cy="238.32" r="6.48" style="fill:#ff7f7f;stroke-width:2.16;stroke:#ff7f7f"/><path d="M520.56 238.32h36v38.88" style="fill:none;stroke-width:4.86;stroke-linejoin:round;stroke:#ff7f7f"/><circle cx="556.56" cy="277.2" r="6.48" style="fill:#ff7f7f;stroke-width:2.16;stroke:#ff7f7f"/><path d="M556.56 277.2h36" style="fill:none;stroke-width:4.86;stroke-linejoin:round;stroke:#ff7f7f"/><circle cx="592.56" cy="277.2" r="6.48" style="fill:#ff7f7f;stroke-width:2.16;stroke:#ff7f7f"/><path d="M592.56 277.2h36v38.88" style="fill:none;stroke-width:4.86;stroke-linejoin:round;stroke:#ff7f7f"/><circle cx="628.56" cy="316.08" r="6.48" style="fill:#ff7f7f;stroke-width:2.16;stroke:#ff7f7f"/><path d="M628.56 316.08h36" style="fill:none;stroke-width:4.86;stroke-linejoin:round;stroke:#ff7f7f"/><circle cx="664.56" cy="316.08" r="6.48" style="fill:#ff7f7f;stroke-width:2.16;stroke:#ff7f7f"/><path d="M664.56 316.08h36" style="fill:none;stroke-width:4.86;stroke-linejoin:round;stroke:#ff7f7f"/><circle cx="700.56" cy="316.08" r="6.48" style="fill:#ff7f7f;stroke-width:2.16;stroke:#ff7f7f"/><path d="M700.56 316.08h36" style="fill:none;stroke-width:4.86;stroke-linejoin:round;stroke:#ff7f7f"/><circle cx="736.56" cy="316.08" r="6.48" style="fill:#ff7f7f;stroke-width:2.16;stroke:#ff7f7f"/><path d="M736.56 316.08h36" style="fill:none;stroke-width:4.86;stroke-linejoin:round;stroke:#ff7f7f"/><circle cx="772.56" cy="316.08" r="6.48" style="fill:#ff7f7f;stroke-width:2.16;stroke:#ff7f7f"/><path d="M772.56 316.08h36V277.2" style="fill:none;stroke-width:4.86;stroke-linejoin:round;stroke:#ff7f7f"/><circle cx="808.56" cy="277.2" r="6.48" style="fill:#ff7f7f;stroke-width:2.16;stroke:#ff7f7f"/><path d="M808.56 277.2h36v-38.88" style="fill:none;stroke-width:4.86;stroke-linejoin:round;stroke:#ff7f7f"/><circle cx="844.56" cy="238.32" r="6.48" style="fill:#ff7f7f;stroke-width:2.16;stroke:#ff7f7f"/><path d="M844.56 238.32h36v-38.88" style="fill:none;stroke-width:4.86;stroke-linejoin:round;stroke:#ff7f7f"/><circle cx="880.56" cy="199.44" r="6.48" style="fill:#ff7f7f;stroke-width:2.16;stroke:#ff7f7f"/><path d="M880.56 199.44h36" style="fill:none;stroke-width:4.86;stroke-linejoin:round;stroke:#ff7f7f"/><circle cx="916.56" cy="199.44" r="6.48" style="fill:#ff7f7f;stroke-width:2.16;stroke:#ff7f7f"/><path d="M916.56 199.44h36v-38.88" style="fill:none;stroke-width:4.86;stroke-linejoin:round;stroke:#ff7f7f"/><circle cx="952.56" cy="160.56" r="6.48" style="fill:#ff7f7f;stroke-width:2.16;stroke:#ff7f7f"/><path d="M952.56 160.56h36v-38.88" style="fill:none;stroke-width:4.86;stroke-linejoin:round;stroke:#ff7f7f"/><circle cx="988.56" cy="121.68" r="6.48" style="fill:#ff7f7f;stroke-width:2.16;stroke:#ff7f7f"/></svg>