<svg xmlns="http://www.w3.org/2000/svg" class="pikchr" viewBox="0 0 478.131 1392.13"><path d="M73 144h85V57l-22-21H73Z" style="fill:none;stroke-width:2.16;stroke:#ff7f7f"/><path d="M136 36v21h22" style="fill:none;stroke-width:2.16;stroke:#ff7f7f"/><text x="115" y="80" text-anchor="middle" fill="#FF7F7F" dominant-baseline="central">Information</text><text x="115" y="100" text-anchor="middle" fill="#FF7F7F" dominant-baseline="central">Source</text><path style="fill:#ffff7f" d="m115 208-4-11h8z"/><path d="M115 144v59" style="fill:none;stroke-width:2.16;stroke:#ffff7f"/><text x="115" y="168" text-anchor="middle" fill="#FFFF7F" font-size="64%" transform="rotate(90 115 176)" dominant-baseline="central">bitstream</text><path d="M73 254h85v-46H73Z" style="fill:none;stroke-width:2.16;stroke:#7fff7f"/><text x="115" y="221" text-anchor="middle" fill="#7FFF7F" dominant-baseline="central">Format</text><text x="115" y="241" text-anchor="middle" fill="#7FFF7F" dominant-baseline="central">ADC</text><path style="fill:#ffff7f" d="m115 319-4-12h8z"/><path d="M115 254v59" style="fill:none;stroke-width:2.16;stroke:#ffff7f"/><text x="115" y="278" text-anchor="middle" fill="#FFFF7F" font-size="64%" transform="rotate(90 115 286)" dominant-baseline="central">bitstream</text><path d="M73 364h85v-45H73Z" style="fill:none;stroke-width:2.16;stroke:#ff7fff"/><text x="115" y="331" text-anchor="middle" fill="#FF7FFF" dominant-baseline="central">Source</text><text x="115" y="351" text-anchor="middle" fill="#FF7FFF" dominant-baseline="central">Encode</text><path style="fill:#ffff7f" d="m115 429-4-12h8z"/><path d="M115 364v59" style="fill:none;stroke-width:2.16;stroke:#ffff7f"/><text x="115" y="388" text-anchor="middle" fill="#FFFF7F" font-size="64%" transform="rotate(90 115 396)" dominant-baseline="central">bitstream</text><path d="M73 474h85v-45H73Z" style="fill:none;stroke-width:2.16;stroke:#ff7fff"/><text x="115" y="451" text-anchor="middle" fill="#FF7FFF" dominant-baseline="central">Encrypt</text><path style="fill:#ffff7f" d="m115 539-4-12h8z"/><path d="M115 474v59" style="fill:none;stroke-width:2.16;stroke:#ffff7f"/><text x="115" y="498" text-anchor="middle" fill="#FFFF7F" font-size="64%" transform="rotate(90 115 507)" dominant-baseline="central">bitstream</text><path d="M73 584h85v-45H73Z" style="fill:none;stroke-width:2.16;stroke:#ff7fff"/><text x="115" y="552" text-anchor="middle" fill="#FF7FFF" dominant-baseline="central">Channel</text><text x="115" y="572" text-anchor="middle" fill="#FF7FFF" dominant-baseline="central">Encode</text><path style="fill:#ffff7f" d="m115 649-4-11h8z"/><path d="M115 584v59" style="fill:none;stroke-width:2.16;stroke:#ffff7f"/><text x="115" y="609" text-anchor="middle" fill="#FFFF7F" font-size="64%" transform="rotate(90 115 617)" dominant-baseline="central">bitstream</text><path d="M73 694h85v-45H73Z" style="fill:none;stroke-width:2.16;stroke:#ff7fff"/><text x="115" y="672" text-anchor="middle" fill="#FF7FFF" dominant-baseline="central">Multiplex</text><path style="fill:#ffff7f" d="m115 759-4-11h8z"/><path d="M115 694v59" style="fill:none;stroke-width:2.16;stroke:#ffff7f"/><text x="115" y="719" text-anchor="middle" fill="#FFFF7F" font-size="64%" transform="rotate(90 115 727)" dominant-baseline="central">bitstream</text><path d="M73 805h85v-46H73Z" style="fill:none;stroke-width:2.16;stroke:#7fff7f"/><text x="115" y="772" text-anchor="middle" fill="#7FFF7F" dominant-baseline="central">Pulse</text><text x="115" y="792" text-anchor="middle" fill="#7FFF7F" dominant-baseline="central">Modulate</text><path style="fill:#7fffff" d="m115 869-4-11h8z"/><path d="M115 805v59" style="fill:none;stroke-width:2.16;stroke:#7fffff"/><text x="115" y="829" text-anchor="middle" fill="#7FFFFF" font-size="64%" transform="rotate(90 115 837)" dominant-baseline="central">baseband</text><text x="115" y="845" text-anchor="middle" fill="#7FFFFF" font-size="64%" transform="rotate(90 115 837)" dominant-baseline="central">waveform</text><path d="M73 915h85v-46H73Z" style="fill:none;stroke-width:2.16;stroke:#7fff7f"/><text x="115" y="882" text-anchor="middle" fill="#7FFF7F" dominant-baseline="central">Bandpass</text><text x="115" y="902" text-anchor="middle" fill="#7FFF7F" dominant-baseline="central">Modulate</text><path style="fill:#7fffff" d="m115 980-4-12h8z"/><path d="M115 915v59" style="fill:none;stroke-width:2.16;stroke:#7fffff"/><text x="115" y="939" text-anchor="middle" fill="#7FFFFF" font-size="64%" transform="rotate(90 115 947)" dominant-baseline="central">baseband</text><text x="115" y="955" text-anchor="middle" fill="#7FFFFF" font-size="64%" transform="rotate(90 115 947)" dominant-baseline="central">waveform</text><path d="M73 1025h85v-45H73Z" style="fill:none;stroke-width:2.16;stroke:#ff7fff"/><text x="115" y="992" text-anchor="middle" fill="#FF7FFF" dominant-baseline="central">Frequency</text><text x="115" y="1012" text-anchor="middle" fill="#FF7FFF" dominant-baseline="central">Spread</text><path style="fill:#7fffff" d="m115 1090-4-12h8z"/><path d="M115 1025v59" style="fill:none;stroke-width:2.16;stroke:#7fffff"/><text x="115" y="1049" text-anchor="middle" fill="#7FFFFF" font-size="64%" transform="rotate(90 115 1057)" dominant-baseline="central">baseband</text><text x="115" y="1065" text-anchor="middle" fill="#7FFFFF" font-size="64%" transform="rotate(90 115 1057)" dominant-baseline="central">waveform</text><path d="M73 1135h85v-45H73Z" style="fill:none;stroke-width:2.16;stroke:#ff7fff"/><text x="115" y="1102" text-anchor="middle" fill="#FF7FFF" dominant-baseline="central">Multiple</text><text x="115" y="1122" text-anchor="middle" fill="#FF7FFF" dominant-baseline="central">Access</text><path style="fill:#fff" d="m115 1207-4-11h8z"/><path d="M115 1135v66" style="fill:none;stroke-width:2.16;stroke:#fff"/><path d="M79 1243h72a18 18 0 0 0 18-18 18 18 0 0 0-18-18H79a18 18 0 0 0-18 18 18 18 0 0 0 18 18Z" style="fill:none;stroke-width:2.16;stroke:#7f7fff"/><text x="115" y="1225" text-anchor="middle" fill="#7F7FFF" dominant-baseline="central">XMT</text><path d="M144 1212v-28l9-17h-17l8 17M86 1212v-28l8-17H77l9 17" style="fill:none;stroke-width:.969624;stroke-linejoin:round;stroke:#7f7fff"/><path style="fill:#7f7fff" d="m339 1225-8 3v-6z"/><path d="M169 1225h166" style="fill:none;stroke-width:1.4472;stroke:#7f7fff;stroke-dasharray:7.2,7.2"/><text x="254" y="1214" text-anchor="middle" fill="#7F7FFF" dominant-baseline="central">CHANNEL</text><path d="M357 1243h72a18 18 0 0 0 18-18 18 18 0 0 0-18-18h-72a18 18 0 0 0-18 18 18 18 0 0 0 18 18Z" style="fill:none;stroke-width:2.16;stroke:#7f7fff"/><text x="393" y="1225" text-anchor="middle" fill="#7F7FFF" dominant-baseline="central">RCV</text><path d="M422 1212v-28l9-17h-17l8 17M364 1212v-28l8-17h-17l9 17" style="fill:none;stroke-width:.969624;stroke-linejoin:round;stroke:#7f7fff"/><path style="fill:#fff" d="m393 1135 4 12h-8z"/><path d="M393 1207v-66" style="fill:none;stroke-width:2.16;stroke:#fff"/><path d="M351 1135h85v-45h-85Z" style="fill:none;stroke-width:2.16;stroke:#ff7fff"/><text x="393" y="1102" text-anchor="middle" fill="#FF7FFF" dominant-baseline="central">Multiple</text><text x="393" y="1122" text-anchor="middle" fill="#FF7FFF" dominant-baseline="central">Access</text><path style="fill:#7fffff" d="m393 1025 4 11h-8z"/><path d="M393 1090v-59" style="fill:none;stroke-width:2.16;stroke:#7fffff"/><text x="393" y="1049" text-anchor="middle" fill="#7FFFFF" font-size="64%" transform="rotate(-90 393 1057)" dominant-baseline="central">baseband</text><text x="393" y="1065" text-anchor="middle" fill="#7FFFFF" font-size="64%" transform="rotate(-90 393 1057)" dominant-baseline="central">waveform</text><path d="M351 1025h85v-45h-85Z" style="fill:none;stroke-width:2.16;stroke:#ff7fff"/><text x="393" y="992" text-anchor="middle" fill="#FF7FFF" dominant-baseline="central">Frequency</text><text x="393" y="1012" text-anchor="middle" fill="#FF7FFF" dominant-baseline="central">Despread</text><path style="fill:#7fffff" d="m393 915 4 11h-8z"/><path d="M393 980v-59" style="fill:none;stroke-width:2.16;stroke:#7fffff"/><text x="393" y="939" text-anchor="middle" fill="#7FFFFF" font-size="64%" transform="rotate(-90 393 947)" dominant-baseline="central">baseband</text><text x="393" y="955" text-anchor="middle" fill="#7FFFFF" font-size="64%" transform="rotate(-90 393 947)" dominant-baseline="central">waveform</text><path d="M351 915h85v-46h-85Z" style="fill:none;stroke-width:2.16;stroke:#7fff7f"/><text x="393" y="882" text-anchor="middle" fill="#7FFF7F" dominant-baseline="central">Demodulate</text><text x="393" y="902" text-anchor="middle" fill="#7FFF7F" dominant-baseline="central">And Sample</text><path style="fill:#7fffff" d="m393 805 4 11h-8z"/><path d="M393 869v-59" style="fill:none;stroke-width:2.16;stroke:#7fffff"/><text x="393" y="829" text-anchor="middle" fill="#7FFFFF" font-size="64%" transform="rotate(-90 393 837)" dominant-baseline="central">baseband</text><text x="393" y="845" text-anchor="middle" fill="#7FFFFF" font-size="64%" transform="rotate(-90 393 837)" dominant-baseline="central">waveform</text><path d="M351 805h85v-46h-85Z" style="fill:none;stroke-width:2.16;stroke:#7fff7f"/><text x="393" y="782" text-anchor="middle" fill="#7FFF7F" dominant-baseline="central">Detect</text><path style="fill:#ffff7f" d="m393 694 4 12h-8z"/><path d="M393 759v-59" style="fill:none;stroke-width:2.16;stroke:#ffff7f"/><text x="393" y="719" text-anchor="middle" fill="#FFFF7F" font-size="64%" transform="rotate(-90 393 727)" dominant-baseline="central">bitstream</text><path d="M351 694h85v-45h-85Z" style="fill:none;stroke-width:2.16;stroke:#ff7fff"/><text x="393" y="672" text-anchor="middle" fill="#FF7FFF" dominant-baseline="central">Demultiplex</text><path style="fill:#ffff7f" d="m393 584 4 12h-8z"/><path d="M393 649v-59" style="fill:none;stroke-width:2.16;stroke:#ffff7f"/><text x="393" y="609" text-anchor="middle" fill="#FFFF7F" font-size="64%" transform="rotate(-90 393 617)" dominant-baseline="central">bitstream</text><path d="M351 584h85v-45h-85Z" style="fill:none;stroke-width:2.16;stroke:#ff7fff"/><text x="393" y="552" text-anchor="middle" fill="#FF7FFF" dominant-baseline="central">Channel</text><text x="393" y="572" text-anchor="middle" fill="#FF7FFF" dominant-baseline="central">Decode</text><path style="fill:#ffff7f" d="m393 474 4 12h-8z"/><path d="M393 539v-59" style="fill:none;stroke-width:2.16;stroke:#ffff7f"/><text x="393" y="498" text-anchor="middle" fill="#FFFF7F" font-size="64%" transform="rotate(-90 393 507)" dominant-baseline="central">bitstream</text><path d="M351 474h85v-45h-85Z" style="fill:none;stroke-width:2.16;stroke:#ff7fff"/><text x="393" y="451" text-anchor="middle" fill="#FF7FFF" dominant-baseline="central">Decrypt</text><path style="fill:#ffff7f" d="m393 364 4 12h-8z"/><path d="M393 429v-59" style="fill:none;stroke-width:2.16;stroke:#ffff7f"/><text x="393" y="388" text-anchor="middle" fill="#FFFF7F" font-size="64%" transform="rotate(-90 393 396)" dominant-baseline="central">bitstream</text><path d="M351 364h85v-45h-85Z" style="fill:none;stroke-width:2.16;stroke:#ff7fff"/><text x="393" y="331" text-anchor="middle" fill="#FF7FFF" dominant-baseline="central">Source</text><text x="393" y="351" text-anchor="middle" fill="#FF7FFF" dominant-baseline="central">Decode</text><path style="fill:#ffff7f" d="m393 254 4 11h-8z"/><path d="M393 319v-59" style="fill:none;stroke-width:2.16;stroke:#ffff7f"/><text x="393" y="278" text-anchor="middle" fill="#FFFF7F" font-size="64%" transform="rotate(-90 393 286)" dominant-baseline="central">bitstream</text><path d="M351 254h85v-46h-85Z" style="fill:none;stroke-width:2.16;stroke:#7fff7f"/><text x="393" y="221" text-anchor="middle" fill="#7FFF7F" dominant-baseline="central">Format</text><text x="393" y="241" text-anchor="middle" fill="#7FFF7F" dominant-baseline="central">DAC</text><path style="fill:#ffff7f" d="m393 144 4 11h-8z"/><path d="M393 208v-59" style="fill:none;stroke-width:2.16;stroke:#ffff7f"/><text x="393" y="168" text-anchor="middle" fill="#FFFF7F" font-size="64%" transform="rotate(-90 393 176)" dominant-baseline="central">bitstream</text><path d="M351 144h85V57l-22-21h-63Z" style="fill:none;stroke-width:2.16;stroke:#ff7f7f"/><path d="M414 36v21h22" style="fill:none;stroke-width:2.16;stroke:#ff7f7f"/><text x="393" y="80" text-anchor="middle" fill="#FF7F7F" dominant-baseline="central">Information</text><text x="393" y="100" text-anchor="middle" fill="#FF7F7F" dominant-baseline="central">Sink</text><path style="fill:#fff" d="m98 286-5 2v-4z"/><path d="M30 286h65" style="fill:none;stroke-width:.969624;stroke:#fff"/><text x="64" y="279" text-anchor="middle" fill="#FFF" font-size="64%" dominant-baseline="central">Message</text><text x="64" y="293" text-anchor="middle" fill="#FFF" font-size="64%" dominant-baseline="central">Symbols</text><path style="fill:#fff" d="m98 617-5 2v-4z"/><path d="M30 617h65" style="fill:none;stroke-width:.969624;stroke:#fff"/><text x="64" y="610" text-anchor="middle" fill="#FFF" font-size="64%" dominant-baseline="central">Channel</text><text x="64" y="624" text-anchor="middle" fill="#FFF" font-size="64%" dominant-baseline="central">Symbols</text><path d="M101 1361h85v-45h-85Z" style="fill:none;stroke-width:2.16;stroke:#ff7fff"/><text x="144" y="1328" text-anchor="middle" fill="#FF7FFF" dominant-baseline="central">Optional</text><text x="144" y="1349" text-anchor="middle" fill="#FF7FFF" dominant-baseline="central">Component</text><path d="M197 1361h85v-45h-85Z" style="fill:none;stroke-width:2.16;stroke:#7fff7f"/><text x="240" y="1328" text-anchor="middle" fill="#7FFF7F" dominant-baseline="central">Essential</text><text x="240" y="1349" text-anchor="middle" fill="#7FFF7F" dominant-baseline="central">Component</text><path d="M312 1356h72a18 18 0 0 0 18-18 18 18 0 0 0-18-18h-72a18 18 0 0 0-18 18 18 18 0 0 0 18 18Z" style="fill:none;stroke-width:2.16;stroke:#7f7fff"/><text x="348" y="1338" text-anchor="middle" fill="#7F7FFF" dominant-baseline="central">RF Head</text><path d="M377 1326v-29l9-17h-17l8 17M319 1326v-29l8-17h-17l9 17" style="fill:none;stroke-width:.969624;stroke-linejoin:round;stroke:#7f7fff"/></svg>