<svg xmlns="http://www.w3.org/2000/svg" class="pikchr" viewBox="0 0 437.799 656.073"><path d="M90.034 127.168h85.039v-86.4l-21.6-21.6H90.034Z" style="fill:none;stroke-width:2.16;stroke:#ff7f7f"/><path d="M153.473 19.168v21.6h21.6" style="fill:none;stroke-width:2.16;stroke:#ff7f7f"/><text x="132.554" y="53.008" text-anchor="middle" fill="#FF7F7F" dominant-baseline="central">Analog</text><text x="132.554" y="73.168" text-anchor="middle" fill="#FF7F7F" dominant-baseline="central">Message</text><text x="132.554" y="93.328" text-anchor="middle" fill="#FF7F7F" dominant-baseline="central">Signal</text><path style="fill:#ffff7f" d="m132.554 191.968-4.32-11.52h8.64z"/><path d="M132.554 127.168v59.04" style="fill:none;stroke-width:2.16;stroke:#ffff7f"/><text x="132.554" y="151.497" text-anchor="middle" fill="#FFFF7F" font-size="64%" transform="rotate(90 132.554 159.568)" dominant-baseline="central">bitstream</text><path d="M90.034 237.322h85.039v-45.354H90.034Z" style="fill:none;stroke-width:2.16;stroke:#7fff7f"/><text x="132.554" y="204.565" text-anchor="middle" fill="#7FFF7F" dominant-baseline="central">Low Pass</text><text x="132.554" y="224.725" text-anchor="middle" fill="#7FFF7F" dominant-baseline="central">Filter</text><path style="fill:#ffff7f" d="m132.554 302.122-4.32-11.52h8.64z"/><path d="M132.554 237.322v59.04" style="fill:none;stroke-width:2.16;stroke:#ffff7f"/><text x="132.554" y="261.651" text-anchor="middle" fill="#FFFF7F" font-size="64%" transform="rotate(90 132.554 269.722)" dominant-baseline="central">bitstream</text><path d="M90.034 347.477h85.039v-45.355H90.034Z" style="fill:none;stroke-width:2.16;stroke:#7fff7f"/><text x="132.554" y="324.799" text-anchor="middle" fill="#7FFF7F" dominant-baseline="central">Sampler</text><path style="fill:#ffff7f" d="m132.554 412.277-4.32-11.52h8.64z"/><path d="M132.554 347.477v59.04" style="fill:none;stroke-width:2.16;stroke:#ffff7f"/><text x="132.554" y="371.805" text-anchor="middle" fill="#FFFF7F" font-size="64%" transform="rotate(90 132.554 379.877)" dominant-baseline="central">bitstream</text><path d="M90.034 457.631h85.039v-45.354H90.034Z" style="fill:none;stroke-width:2.16;stroke:#7fff7f"/><text x="132.554" y="434.954" text-anchor="middle" fill="#7FFF7F" dominant-baseline="central">Quantizer</text><path style="fill:#ffff7f" d="m132.554 522.431-4.32-11.52h8.64z"/><path d="M132.554 457.631v59.04" style="fill:none;stroke-width:2.16;stroke:#ffff7f"/><text x="132.554" y="481.96" text-anchor="middle" fill="#FFFF7F" font-size="64%" transform="rotate(90 132.554 490.031)" dominant-baseline="central">bitstream</text><path d="M90.034 567.785h85.039v-45.354H90.034Z" style="fill:none;stroke-width:2.16;stroke:#ff7fff"/><text x="132.554" y="545.108" text-anchor="middle" fill="#FF7FFF" dominant-baseline="central">Encoder</text><path style="fill:#ffff7f" d="m132.554 632.585-4.32-11.52h8.64z"/><path d="M132.554 567.785v59.04" style="fill:none;stroke-width:2.16;stroke:#ffff7f"/><text x="132.554" y="592.114" text-anchor="middle" fill="#FFFF7F" font-size="64%" transform="rotate(90 132.554 600.185)" dominant-baseline="central">bitstream</text><text x="180.743" y="204.565" fill="#FFF" dominant-baseline="central">eliminate high frequency</text><text x="180.743" y="224.725" fill="#FFF" dominant-baseline="central">present in the input signal</text><text x="180.743" y="314.719" fill="#FFF" dominant-baseline="central">collect instantaneous values</text><text x="180.743" y="334.879" fill="#FFF" dominant-baseline="central">of message signal</text><text x="180.743" y="424.874" fill="#FFF" dominant-baseline="central">reduce the excessive bits</text><text x="180.743" y="445.034" fill="#FFF" dominant-baseline="central">and confining the data</text><text x="180.743" y="545.108" fill="#FFF" dominant-baseline="central">digitization of analog signal</text><path d="M132.554 159.568H19.168" style="fill:none;stroke-width:.969624;stroke:#ffff7f"/><text x="75.861" y="146.241" text-anchor="middle" fill="#FFFF7F" font-size="125%" dominant-baseline="central">x(t)</text><path d="M132.554 269.722H19.168" style="fill:none;stroke-width:.969624;stroke:#ffff7f"/><text x="75.861" y="256.395" text-anchor="middle" fill="#FFFF7F" font-size="125%" dominant-baseline="central">x(t)</text><path d="M132.554 379.877H19.168" style="fill:none;stroke-width:.969624;stroke:#ffff7f"/><text x="75.861" y="366.549" text-anchor="middle" fill="#FFFF7F" font-size="125%" dominant-baseline="central">{xn}</text><text x="75.861" y="390.684" text-anchor="middle" fill="#FFFF7F" dominant-baseline="central">flat-top PAM</text><path d="M132.554 490.031H19.168" style="fill:none;stroke-width:.969624;stroke:#ffff7f"/><text x="75.861" y="476.704" text-anchor="middle" fill="#FFFF7F" font-size="125%" dominant-baseline="central">{x̂n}</text><path d="M132.554 600.185H19.168" style="fill:none;stroke-width:.969624;stroke:#ffff7f"/><text x="75.861" y="589.378" text-anchor="middle" fill="#FFFF7F" dominant-baseline="central">010101010...</text></svg>