<svg xmlns="http://www.w3.org/2000/svg" class="pikchr" viewBox="0 0 745.648 501.868"><path style="fill:#ffff7f" d="m739 261-8 3v-6z"/><path d="M2 261h733" style="fill:none;stroke-width:1.4472;stroke:#ffff7f"/><path style="fill:#ffff7f" d="m399 6 2 8h-5z"/><path d="M399 499V10" style="fill:none;stroke-width:1.4472;stroke:#ffff7f"/><path d="M399 488H172M172 261v227" style="fill:none;stroke-width:1.4472;stroke:#fff;stroke-dasharray:2.1,7.2"/><path d="M172 488h56v-57" style="fill:none;stroke-width:3.24;stroke-linejoin:round;stroke:#ff7f7f"/><path d="M399 431H228M228 261v170" style="fill:none;stroke-width:1.4472;stroke:#fff;stroke-dasharray:2.1,7.2"/><path d="M228 431h57v-57" style="fill:none;stroke-width:3.24;stroke-linejoin:round;stroke:#ff7f7f"/><path d="M399 374H285M285 261v113" style="fill:none;stroke-width:1.4472;stroke:#fff;stroke-dasharray:2.1,7.2"/><path d="M285 374h57v-56" style="fill:none;stroke-width:3.24;stroke-linejoin:round;stroke:#ff7f7f"/><path d="M399 318h-57M342 261v57" style="fill:none;stroke-width:1.4472;stroke:#fff;stroke-dasharray:2.1,7.2"/><path d="M342 318h57v-57" style="fill:none;stroke-width:3.24;stroke-linejoin:round;stroke:#ff7f7f"/><path d="M399 261v-57" style="fill:none;stroke-width:3.24;stroke:#ff7f7f"/><path d="M399 261v-57" style="fill:none;stroke-width:1.4472;stroke:#fff;stroke-dasharray:2.1,7.2"/><path d="M399 204h56v-56" style="fill:none;stroke-width:3.24;stroke-linejoin:round;stroke:#ff7f7f"/><path d="M399 148h56M455 261V148" style="fill:none;stroke-width:1.4472;stroke:#fff;stroke-dasharray:2.1,7.2"/><path d="M455 148h57V91" style="fill:none;stroke-width:3.24;stroke-linejoin:round;stroke:#ff7f7f"/><path d="M399 91h113M512 261V91" style="fill:none;stroke-width:1.4472;stroke:#fff;stroke-dasharray:2.1,7.2"/><path d="M512 91h57V34" style="fill:none;stroke-width:3.24;stroke-linejoin:round;stroke:#ff7f7f"/><path d="M569 34h170M172 488H2" style="fill:none;stroke-width:3.24;stroke:#ff7f7f"/><path d="M399 34h170M569 261V34" style="fill:none;stroke-width:1.4472;stroke:#fff;stroke-dasharray:2.1,7.2"/><text x="377" y="34" text-anchor="middle" fill="#FFF" dominant-baseline="central">x̂8</text><text x="377" y="91" text-anchor="middle" fill="#FFF" dominant-baseline="central">x̂7</text><text x="377" y="148" text-anchor="middle" fill="#FFF" dominant-baseline="central">x̂6</text><text x="377" y="204" text-anchor="middle" fill="#FFF" dominant-baseline="central">x̂5</text><text x="420" y="318" text-anchor="middle" fill="#FFF" dominant-baseline="central">x̂4</text><text x="420" y="374" text-anchor="middle" fill="#FFF" dominant-baseline="central">x̂3</text><text x="420" y="431" text-anchor="middle" fill="#FFF" dominant-baseline="central">x̂2</text><text x="420" y="488" text-anchor="middle" fill="#FFF" dominant-baseline="central">x̂1</text><text x="228" y="246" text-anchor="middle" fill="#FFF" dominant-baseline="central">a1</text><text x="285" y="246" text-anchor="middle" fill="#FFF" dominant-baseline="central">a2</text><text x="342" y="246" text-anchor="middle" fill="#FFF" dominant-baseline="central">a3</text><text x="414" y="276" text-anchor="middle" fill="#FFF" dominant-baseline="central">a4</text><text x="455" y="276" text-anchor="middle" fill="#FFF" dominant-baseline="central">a5</text><text x="512" y="276" text-anchor="middle" fill="#FFF" dominant-baseline="central">a6</text><text x="569" y="276" text-anchor="middle" fill="#FFF" dominant-baseline="central">a7</text></svg>