<svg xmlns="http://www.w3.org/2000/svg" class="pikchr" viewBox="0 0 1315.27 389.8"><path style="fill:#ffff7f" d="m1248 211-12 4v-8z"/><path d="M197 211h1045" style="fill:none;stroke-width:2.16;stroke:#ffff7f"/><text x="1275" y="221" text-anchor="middle" fill="#FFF" dominant-baseline="central">Time</text><path style="fill:#ffff7f" d="m211 38 4 12h-8z"/><path d="M211 355V44" style="fill:none;stroke-width:2.16;stroke:#ffff7f"/><text x="260" y="48" text-anchor="middle" fill="#FFF" dominant-baseline="central">Amplitude</text><path d="m211 211 18-18q18-18 36-34 18-17 36-32 18-14 36-26 18-11 36-19t36-11q18-4 36-3t36 7q18 5 36 15 18 9 36 22t36 28q18 16 36 33l36 36q18 18 36 35 18 18 36 33 18 16 36 30 18 13 36 23t36 16q18 6 36 7 18 2 36-1t36-10q18-7 36-18t36-26q18-14 36-30l36-34 36-36q18-18 36-35l18-17" style="fill:none;stroke-width:3.24;stroke:#7fff7f"/><path style="fill:#7fff7f" d="m553 112 5-11 6 6z"/><path d="m557 108 53-53" style="fill:none;stroke-width:2.16;stroke:#7fff7f"/><text x="610" y="34" text-anchor="middle" fill="#7FFF7F" font-size="156.25%" dominant-baseline="central">Analog Signal</text><path style="fill:#ff7f7f" d="m646 188 5-11 6 6z"/><path d="m650 184 53-53" style="fill:none;stroke-width:2.16;stroke:#ff7f7f"/><text x="703" y="110" text-anchor="middle" fill="#FF7F7F" font-size="156.25%" dominant-baseline="central">Sampled</text><path d="M211 211" style="fill:none;stroke-width:.969624;stroke:#7fffff;stroke-dasharray:7.2,7.2"/><circle cx="211" cy="211" r="3.24" style="fill:#ff7f7f;stroke-width:2.16;stroke:#ff7f7f"/><path d="M247 211v-36" style="fill:none;stroke-width:.969624;stroke:#7fffff;stroke-dasharray:7.2,7.2"/><circle cx="247" cy="175" r="3.24" style="fill:#ff7f7f;stroke-width:2.16;stroke:#ff7f7f"/><text x="247" y="160" text-anchor="middle" fill="#FFF" dominant-baseline="central">a1</text><path d="M283 211v-69" style="fill:none;stroke-width:.969624;stroke:#7fffff;stroke-dasharray:7.2,7.2"/><circle cx="283" cy="142" r="3.24" style="fill:#ff7f7f;stroke-width:2.16;stroke:#ff7f7f"/><path d="M319 211v-98" style="fill:none;stroke-width:.969624;stroke:#7fffff;stroke-dasharray:7.2,7.2"/><circle cx="319" cy="113" r="3.24" style="fill:#ff7f7f;stroke-width:2.16;stroke:#ff7f7f"/><path d="M355 211V90" style="fill:none;stroke-width:.969624;stroke:#7fffff;stroke-dasharray:7.2,7.2"/><circle cx="355" cy="90" r="3.24" style="fill:#ff7f7f;stroke-width:2.16;stroke:#ff7f7f"/><path d="M391 211V74" style="fill:none;stroke-width:.969624;stroke:#7fffff;stroke-dasharray:7.2,7.2"/><circle cx="391" cy="74" r="3.24" style="fill:#ff7f7f;stroke-width:2.16;stroke:#ff7f7f"/><path d="M427 211V67" style="fill:none;stroke-width:.969624;stroke:#7fffff;stroke-dasharray:7.2,7.2"/><circle cx="427" cy="67" r="3.24" style="fill:#ff7f7f;stroke-width:2.16;stroke:#ff7f7f"/><path d="M463 211V69" style="fill:none;stroke-width:.969624;stroke:#7fffff;stroke-dasharray:7.2,7.2"/><circle cx="463" cy="69" r="3.24" style="fill:#ff7f7f;stroke-width:2.16;stroke:#ff7f7f"/><path d="M499 211V80" style="fill:none;stroke-width:.969624;stroke:#7fffff;stroke-dasharray:7.2,7.2"/><circle cx="499" cy="80" r="3.24" style="fill:#ff7f7f;stroke-width:2.16;stroke:#ff7f7f"/><path d="M535 211V99" style="fill:none;stroke-width:.969624;stroke:#7fffff;stroke-dasharray:7.2,7.2"/><circle cx="535" cy="99" r="3.24" style="fill:#ff7f7f;stroke-width:2.16;stroke:#ff7f7f"/><path d="M571 211v-86" style="fill:none;stroke-width:.969624;stroke:#7fffff;stroke-dasharray:7.2,7.2"/><circle cx="571" cy="125" r="3.24" style="fill:#ff7f7f;stroke-width:2.16;stroke:#ff7f7f"/><path d="M607 211v-55" style="fill:none;stroke-width:.969624;stroke:#7fffff;stroke-dasharray:7.2,7.2"/><circle cx="607" cy="156" r="3.24" style="fill:#ff7f7f;stroke-width:2.16;stroke:#ff7f7f"/><path d="M643 211v-20" style="fill:none;stroke-width:.969624;stroke:#7fffff;stroke-dasharray:7.2,7.2"/><circle cx="643" cy="191" r="3.24" style="fill:#ff7f7f;stroke-width:2.16;stroke:#ff7f7f"/><path d="M679 211v16" style="fill:none;stroke-width:.969624;stroke:#7fffff;stroke-dasharray:7.2,7.2"/><circle cx="679" cy="227" r="3.24" style="fill:#ff7f7f;stroke-width:2.16;stroke:#ff7f7f"/><path d="M715 211v51" style="fill:none;stroke-width:.969624;stroke:#7fffff;stroke-dasharray:7.2,7.2"/><circle cx="715" cy="262" r="3.24" style="fill:#ff7f7f;stroke-width:2.16;stroke:#ff7f7f"/><path d="M751 211v82" style="fill:none;stroke-width:.969624;stroke:#7fffff;stroke-dasharray:7.2,7.2"/><circle cx="751" cy="293" r="3.24" style="fill:#ff7f7f;stroke-width:2.16;stroke:#ff7f7f"/><path d="M787 211v109" style="fill:none;stroke-width:.969624;stroke:#7fffff;stroke-dasharray:7.2,7.2"/><circle cx="787" cy="320" r="3.24" style="fill:#ff7f7f;stroke-width:2.16;stroke:#ff7f7f"/><path d="M823 211v129" style="fill:none;stroke-width:.969624;stroke:#7fffff;stroke-dasharray:7.2,7.2"/><circle cx="823" cy="340" r="3.24" style="fill:#ff7f7f;stroke-width:2.16;stroke:#ff7f7f"/><path d="M859 211v141" style="fill:none;stroke-width:.969624;stroke:#7fffff;stroke-dasharray:7.2,7.2"/><circle cx="859" cy="352" r="3.24" style="fill:#ff7f7f;stroke-width:2.16;stroke:#ff7f7f"/><path d="M895 211v144" style="fill:none;stroke-width:.969624;stroke:#7fffff;stroke-dasharray:7.2,7.2"/><circle cx="895" cy="355" r="3.24" style="fill:#ff7f7f;stroke-width:2.16;stroke:#ff7f7f"/><path d="M931 211v138" style="fill:none;stroke-width:.969624;stroke:#7fffff;stroke-dasharray:7.2,7.2"/><circle cx="931" cy="349" r="3.24" style="fill:#ff7f7f;stroke-width:2.16;stroke:#ff7f7f"/><path d="M967 211v124" style="fill:none;stroke-width:.969624;stroke:#7fffff;stroke-dasharray:7.2,7.2"/><circle cx="967" cy="335" r="3.24" style="fill:#ff7f7f;stroke-width:2.16;stroke:#ff7f7f"/><path d="M1003 211v102" style="fill:none;stroke-width:.969624;stroke:#7fffff;stroke-dasharray:7.2,7.2"/><circle cx="1003" cy="313" r="3.24" style="fill:#ff7f7f;stroke-width:2.16;stroke:#ff7f7f"/><path d="M1039 211v73" style="fill:none;stroke-width:.969624;stroke:#7fffff;stroke-dasharray:7.2,7.2"/><circle cx="1039" cy="284" r="3.24" style="fill:#ff7f7f;stroke-width:2.16;stroke:#ff7f7f"/><path d="M1075 211v40" style="fill:none;stroke-width:.969624;stroke:#7fffff;stroke-dasharray:7.2,7.2"/><circle cx="1075" cy="251" r="3.24" style="fill:#ff7f7f;stroke-width:2.16;stroke:#ff7f7f"/><path d="M1111 211v5" style="fill:none;stroke-width:.969624;stroke:#7fffff;stroke-dasharray:7.2,7.2"/><circle cx="1111" cy="216" r="3.24" style="fill:#ff7f7f;stroke-width:2.16;stroke:#ff7f7f"/><path d="M1147 211v-31" style="fill:none;stroke-width:.969624;stroke:#7fffff;stroke-dasharray:7.2,7.2"/><circle cx="1147" cy="180" r="3.24" style="fill:#ff7f7f;stroke-width:2.16;stroke:#ff7f7f"/><path d="M1183 211v-65" style="fill:none;stroke-width:.969624;stroke:#7fffff;stroke-dasharray:7.2,7.2"/><circle cx="1183" cy="146" r="3.24" style="fill:#ff7f7f;stroke-width:2.16;stroke:#ff7f7f"/><path d="M211 355h-11M211 341h-11M211 326h-11M211 312h-11M211 297h-11M211 283h-17M211 269h-11M211 254h-11M211 240h-11M211 225h-11M211 67h-11M211 81h-11M211 96h-11M211 110h-11M211 125h-11M211 139h-17M211 153h-11M211 168h-11M211 182h-11M211 197h-11" style="fill:none;stroke-width:1.4472;stroke:#fff"/><text x="247" y="221" text-anchor="middle" fill="#FFF" dominant-baseline="central">t1</text><text x="283" y="221" text-anchor="middle" fill="#FFF" dominant-baseline="central">t2</text><text x="110" y="67" text-anchor="middle" fill="#7F7F7F" dominant-baseline="central">1111 1111 1111 1111</text><text x="110" y="81" text-anchor="middle" fill="#7F7F7F" dominant-baseline="central">1111 1111 1111 1110</text><text x="110" y="96" text-anchor="middle" fill="#7F7F7F" dominant-baseline="central">1111 1111 1111 1101</text><text x="110" y="110" text-anchor="middle" fill="#7F7F7F" dominant-baseline="central">1111 1111 1111 1100</text><text x="110" y="312" text-anchor="middle" fill="#7F7F7F" dominant-baseline="central">0000 0000 0000 0011</text><text x="110" y="326" text-anchor="middle" fill="#7F7F7F" dominant-baseline="central">0000 0000 0000 0010</text><text x="110" y="341" text-anchor="middle" fill="#7F7F7F" dominant-baseline="central">0000 0000 0000 0001</text><text x="110" y="355" text-anchor="middle" fill="#7F7F7F" dominant-baseline="central">0000 0000 0000 0000</text><text x="110" y="198" text-anchor="middle" fill="#FFF" font-size="125%" dominant-baseline="central">PCM</text><text x="110" y="219" text-anchor="middle" fill="#FFF" font-size="80%" dominant-baseline="central">Encoded Signal</text><path d="M27 370h167V52H27Z" style="fill:none;stroke-width:2.16;stroke:#fff"/><text x="110" y="39" text-anchor="middle" fill="#FFF" font-size="125%" dominant-baseline="central">ADC</text></svg>