<svg xmlns="http://www.w3.org/2000/svg" class="pikchr" viewBox="0 0 1248.54 356.4"><path style="fill:#fff" d="m1198.68 200.16-17.28 6.48v-12.96z"/><path d="M104.285 200.16H1190.04" style="fill:none;stroke-width:3.24;stroke:#fff"/><text x="1225.41" y="200.16" text-anchor="middle" fill="#FFF" dominant-baseline="central">Time</text><path style="fill:#fff" d="m118.685 27.36 6.48 17.28h-12.96z"/><path d="M118.685 344.16V36" style="fill:none;stroke-width:3.24;stroke:#fff"/><text x="167.702" y="27.36" text-anchor="middle" fill="#FFF" dominant-baseline="central">Amplitude</text><path d="m118.685 200.16 18-17.813q18-17.813 36-34.519 18-16.705 36-31.265 18-14.559 36-26.067 18-11.508 36-19.249 18-7.74 36-11.233 18-3.493 36-2.52 18 .972 36 6.35 18 5.377 36 14.825 18 9.449 36 22.38t36 28.541q18 15.611 36 32.93t36 35.269q18 17.951 36 35.417 18 17.467 36 33.363t36 29.233q18 13.338 36 23.287t36 15.892q18 5.943 36 7.51 18 1.567 36-1.339 18-2.907 36-10.106t36-18.244q18-11.044 36-25.247t36-30.681q18-16.478 35.995-34.207 18-17.729 36-35.607 18-17.877 36-34.792l18-16.914" style="fill:none;stroke-width:2.16;stroke:#fff"/><path d="M118.685 200.16" style="fill:none;stroke-width:1.4472;stroke:#ff7f7f"/><circle cx="118.685" cy="200.16" r="2.16" style="fill:#ff7f7f;stroke-width:2.16;stroke:#ff7f7f"/><path d="M154.685 200.16v-35.626" style="fill:none;stroke-width:1.4472;stroke:#ff7f7f"/><circle cx="154.685" cy="164.534" r="2.16" style="fill:#ff7f7f;stroke-width:2.16;stroke:#ff7f7f"/><text x="170.64" y="164.534" text-anchor="middle" fill="#FFF" dominant-baseline="central">a1</text><path d="M190.685 200.16v-69.037" style="fill:none;stroke-width:1.4472;stroke:#ff7f7f"/><circle cx="190.685" cy="131.123" r="2.16" style="fill:#ff7f7f;stroke-width:2.16;stroke:#ff7f7f"/><path d="M226.685 200.16v-98.156" style="fill:none;stroke-width:1.4472;stroke:#ff7f7f"/><circle cx="226.685" cy="102.004" r="2.16" style="fill:#ff7f7f;stroke-width:2.16;stroke:#ff7f7f"/><path d="M262.685 200.16V78.988" style="fill:none;stroke-width:1.4472;stroke:#ff7f7f"/><circle cx="262.685" cy="78.988" r="2.16" style="fill:#ff7f7f;stroke-width:2.16;stroke:#ff7f7f"/><path d="M298.685 200.16V63.506" style="fill:none;stroke-width:1.4472;stroke:#ff7f7f"/><circle cx="298.685" cy="63.506" r="2.16" style="fill:#ff7f7f;stroke-width:2.16;stroke:#ff7f7f"/><path d="M334.685 200.16V56.52" style="fill:none;stroke-width:1.4472;stroke:#ff7f7f"/><circle cx="334.685" cy="56.521" r="2.16" style="fill:#ff7f7f;stroke-width:2.16;stroke:#ff7f7f"/><path d="M370.685 200.16V58.466" style="fill:none;stroke-width:1.4472;stroke:#ff7f7f"/><circle cx="370.685" cy="58.466" r="2.16" style="fill:#ff7f7f;stroke-width:2.16;stroke:#ff7f7f"/><path d="M406.685 200.16V69.221" style="fill:none;stroke-width:1.4472;stroke:#ff7f7f"/><circle cx="406.685" cy="69.221" r="2.16" style="fill:#ff7f7f;stroke-width:2.16;stroke:#ff7f7f"/><path d="M442.685 200.16V88.118" style="fill:none;stroke-width:1.4472;stroke:#ff7f7f"/><circle cx="442.685" cy="88.118" r="2.16" style="fill:#ff7f7f;stroke-width:2.16;stroke:#ff7f7f"/><path d="M478.685 200.16v-86.18" style="fill:none;stroke-width:1.4472;stroke:#ff7f7f"/><circle cx="478.685" cy="113.98" r="2.16" style="fill:#ff7f7f;stroke-width:2.16;stroke:#ff7f7f"/><path d="M514.685 200.16v-54.959" style="fill:none;stroke-width:1.4472;stroke:#ff7f7f"/><circle cx="514.685" cy="145.201" r="2.16" style="fill:#ff7f7f;stroke-width:2.16;stroke:#ff7f7f"/><path d="M550.685 200.16v-20.321" style="fill:none;stroke-width:1.4472;stroke:#ff7f7f"/><circle cx="550.685" cy="179.839" r="2.16" style="fill:#ff7f7f;stroke-width:2.16;stroke:#ff7f7f"/><path d="M586.685 200.16v15.58" style="fill:none;stroke-width:1.4472;stroke:#ff7f7f"/><circle cx="586.685" cy="215.74" r="2.16" style="fill:#ff7f7f;stroke-width:2.16;stroke:#ff7f7f"/><path d="M622.685 200.16v50.513" style="fill:none;stroke-width:1.4472;stroke:#ff7f7f"/><circle cx="622.685" cy="250.673" r="2.16" style="fill:#ff7f7f;stroke-width:2.16;stroke:#ff7f7f"/><path d="M658.685 200.16v82.305" style="fill:none;stroke-width:1.4472;stroke:#ff7f7f"/><circle cx="658.685" cy="282.465" r="2.16" style="fill:#ff7f7f;stroke-width:2.16;stroke:#ff7f7f"/><path d="M694.685 200.16v108.98" style="fill:none;stroke-width:1.4472;stroke:#ff7f7f"/><circle cx="694.685" cy="309.14" r="2.16" style="fill:#ff7f7f;stroke-width:2.16;stroke:#ff7f7f"/><path d="M730.685 200.16v128.878" style="fill:none;stroke-width:1.4472;stroke:#ff7f7f"/><circle cx="730.685" cy="329.038" r="2.16" style="fill:#ff7f7f;stroke-width:2.16;stroke:#ff7f7f"/><path d="M766.685 200.16v140.764" style="fill:none;stroke-width:1.4472;stroke:#ff7f7f"/><circle cx="766.685" cy="340.924" r="2.16" style="fill:#ff7f7f;stroke-width:2.16;stroke:#ff7f7f"/><path d="M802.685 200.16v143.898" style="fill:none;stroke-width:1.4472;stroke:#ff7f7f"/><circle cx="802.685" cy="344.058" r="2.16" style="fill:#ff7f7f;stroke-width:2.16;stroke:#ff7f7f"/><path d="M838.685 200.16v138.085" style="fill:none;stroke-width:1.4472;stroke:#ff7f7f"/><circle cx="838.685" cy="338.245" r="2.16" style="fill:#ff7f7f;stroke-width:2.16;stroke:#ff7f7f"/><path d="M874.685 200.16v123.687" style="fill:none;stroke-width:1.4472;stroke:#ff7f7f"/><circle cx="874.685" cy="323.847" r="2.16" style="fill:#ff7f7f;stroke-width:2.16;stroke:#ff7f7f"/><path d="M910.685 200.16v101.598" style="fill:none;stroke-width:1.4472;stroke:#ff7f7f"/><circle cx="910.685" cy="301.758" r="2.16" style="fill:#ff7f7f;stroke-width:2.16;stroke:#ff7f7f"/><path d="M946.685 200.16v73.192" style="fill:none;stroke-width:1.4472;stroke:#ff7f7f"/><circle cx="946.685" cy="273.352" r="2.16" style="fill:#ff7f7f;stroke-width:2.16;stroke:#ff7f7f"/><path d="M982.685 200.16v40.236" style="fill:none;stroke-width:1.4472;stroke:#ff7f7f"/><circle cx="982.685" cy="240.396" r="2.16" style="fill:#ff7f7f;stroke-width:2.16;stroke:#ff7f7f"/><path d="M1018.68 200.16v4.778" style="fill:none;stroke-width:1.4472;stroke:#ff7f7f"/><circle cx="1018.68" cy="204.938" r="2.16" style="fill:#ff7f7f;stroke-width:2.16;stroke:#ff7f7f"/><path d="M1054.68 200.16v-30.977" style="fill:none;stroke-width:1.4472;stroke:#ff7f7f"/><circle cx="1054.68" cy="169.183" r="2.16" style="fill:#ff7f7f;stroke-width:2.16;stroke:#ff7f7f"/><path d="M1090.68 200.16v-64.806" style="fill:none;stroke-width:1.4472;stroke:#ff7f7f"/><circle cx="1090.68" cy="135.354" r="2.16" style="fill:#ff7f7f;stroke-width:2.16;stroke:#ff7f7f"/><path d="M118.685 344.16h-11.339M118.685 329.76h-11.339M118.685 315.36h-11.339M118.685 300.96h-11.339M118.685 286.56h-11.339M118.685 272.16h-17.008M118.685 257.76h-11.339M118.685 243.36h-11.339M118.685 228.96h-11.339M118.685 214.56h-11.339M118.685 56.16h-11.339M118.685 70.56h-11.339M118.685 84.96h-11.339M118.685 99.36h-11.339M118.685 113.76h-11.339M118.685 128.16h-17.008M118.685 142.56h-11.339M118.685 156.96h-11.339M118.685 171.36h-11.339M118.685 185.76h-11.339" style="fill:none;stroke-width:1.4472;stroke:#fff"/><text x="46.685" y="56.16" text-anchor="middle" fill="#FFF" dominant-baseline="central">1111 1111</text><text x="46.685" y="70.56" text-anchor="middle" fill="#FFF" dominant-baseline="central">1111 1110</text><text x="46.685" y="329.76" text-anchor="middle" fill="#FFF" dominant-baseline="central">0000 0001</text><text x="46.685" y="344.16" text-anchor="middle" fill="#FFF" dominant-baseline="central">0000 0000</text><text x="154.685" y="210.24" text-anchor="middle" fill="#FFF" dominant-baseline="central">t1</text><text x="190.685" y="210.24" text-anchor="middle" fill="#FFF" dominant-baseline="central">t2</text><text x="46.685" y="14.76" text-anchor="middle" fill="#FFF" font-size="125%" dominant-baseline="central">PCM</text><text x="46.685" y="33.811" text-anchor="middle" fill="#FFF" font-size="64%" dominant-baseline="central">Encoded Signal</text></svg>