<svg xmlns='http://www.w3.org/2000/svg' class="pikchr" viewBox="0 0 745.648 501.868">
<polygon points="739,261 731,264 731,258" style="fill:rgb(255,255,127)"/>
<path d="M2,261L735,261"  style="fill:none;stroke-width:1.4472;stroke:rgb(255,255,127);" />
<polygon points="399,6 401,14 396,14" style="fill:rgb(255,255,127)"/>
<path d="M399,499L399,10"  style="fill:none;stroke-width:1.4472;stroke:rgb(255,255,127);" />
<path d="M399,488L172,488"  style="fill:none;stroke-width:1.4472;stroke:rgb(255,255,255);stroke-dasharray:2.1,7.2;" />
<path d="M172,261L172,488"  style="fill:none;stroke-width:1.4472;stroke:rgb(255,255,255);stroke-dasharray:2.1,7.2;" />
<path d="M172,488L228,488L228,431"  style="fill:none;stroke-width:3.24;stroke-linejoin:round;stroke:rgb(255,127,127);" />
<path d="M399,431L228,431"  style="fill:none;stroke-width:1.4472;stroke:rgb(255,255,255);stroke-dasharray:2.1,7.2;" />
<path d="M228,261L228,431"  style="fill:none;stroke-width:1.4472;stroke:rgb(255,255,255);stroke-dasharray:2.1,7.2;" />
<path d="M228,431L285,431L285,374"  style="fill:none;stroke-width:3.24;stroke-linejoin:round;stroke:rgb(255,127,127);" />
<path d="M399,374L285,374"  style="fill:none;stroke-width:1.4472;stroke:rgb(255,255,255);stroke-dasharray:2.1,7.2;" />
<path d="M285,261L285,374"  style="fill:none;stroke-width:1.4472;stroke:rgb(255,255,255);stroke-dasharray:2.1,7.2;" />
<path d="M285,374L342,374L342,318"  style="fill:none;stroke-width:3.24;stroke-linejoin:round;stroke:rgb(255,127,127);" />
<path d="M399,318L342,318"  style="fill:none;stroke-width:1.4472;stroke:rgb(255,255,255);stroke-dasharray:2.1,7.2;" />
<path d="M342,261L342,318"  style="fill:none;stroke-width:1.4472;stroke:rgb(255,255,255);stroke-dasharray:2.1,7.2;" />
<path d="M342,318L399,318L399,261"  style="fill:none;stroke-width:3.24;stroke-linejoin:round;stroke:rgb(255,127,127);" />
<path d="M399,261L399,204"  style="fill:none;stroke-width:3.24;stroke:rgb(255,127,127);" />
<path d="M399,204L399,204"  style="fill:none;stroke-width:1.4472;stroke:rgb(255,255,255);stroke-dasharray:2.1,7.2;" />
<path d="M399,261L399,204"  style="fill:none;stroke-width:1.4472;stroke:rgb(255,255,255);stroke-dasharray:2.1,7.2;" />
<path d="M399,204L455,204L455,148"  style="fill:none;stroke-width:3.24;stroke-linejoin:round;stroke:rgb(255,127,127);" />
<path d="M399,148L455,148"  style="fill:none;stroke-width:1.4472;stroke:rgb(255,255,255);stroke-dasharray:2.1,7.2;" />
<path d="M455,261L455,148"  style="fill:none;stroke-width:1.4472;stroke:rgb(255,255,255);stroke-dasharray:2.1,7.2;" />
<path d="M455,148L512,148L512,91"  style="fill:none;stroke-width:3.24;stroke-linejoin:round;stroke:rgb(255,127,127);" />
<path d="M399,91L512,91"  style="fill:none;stroke-width:1.4472;stroke:rgb(255,255,255);stroke-dasharray:2.1,7.2;" />
<path d="M512,261L512,91"  style="fill:none;stroke-width:1.4472;stroke:rgb(255,255,255);stroke-dasharray:2.1,7.2;" />
<path d="M512,91L569,91L569,34"  style="fill:none;stroke-width:3.24;stroke-linejoin:round;stroke:rgb(255,127,127);" />
<path d="M569,34L739,34"  style="fill:none;stroke-width:3.24;stroke:rgb(255,127,127);" />
<path d="M172,488L2,488"  style="fill:none;stroke-width:3.24;stroke:rgb(255,127,127);" />
<path d="M399,34L569,34"  style="fill:none;stroke-width:1.4472;stroke:rgb(255,255,255);stroke-dasharray:2.1,7.2;" />
<path d="M569,261L569,34"  style="fill:none;stroke-width:1.4472;stroke:rgb(255,255,255);stroke-dasharray:2.1,7.2;" />
<text x="377" y="34" text-anchor="middle" fill="rgb(255,255,255)" dominant-baseline="central">x̂8</text>
<text x="377" y="91" text-anchor="middle" fill="rgb(255,255,255)" dominant-baseline="central">x̂7</text>
<text x="377" y="148" text-anchor="middle" fill="rgb(255,255,255)" dominant-baseline="central">x̂6</text>
<text x="377" y="204" text-anchor="middle" fill="rgb(255,255,255)" dominant-baseline="central">x̂5</text>
<text x="420" y="318" text-anchor="middle" fill="rgb(255,255,255)" dominant-baseline="central">x̂4</text>
<text x="420" y="374" text-anchor="middle" fill="rgb(255,255,255)" dominant-baseline="central">x̂3</text>
<text x="420" y="431" text-anchor="middle" fill="rgb(255,255,255)" dominant-baseline="central">x̂2</text>
<text x="420" y="488" text-anchor="middle" fill="rgb(255,255,255)" dominant-baseline="central">x̂1</text>
<text x="228" y="246" text-anchor="middle" fill="rgb(255,255,255)" dominant-baseline="central">a1</text>
<text x="285" y="246" text-anchor="middle" fill="rgb(255,255,255)" dominant-baseline="central">a2</text>
<text x="342" y="246" text-anchor="middle" fill="rgb(255,255,255)" dominant-baseline="central">a3</text>
<text x="414" y="276" text-anchor="middle" fill="rgb(255,255,255)" dominant-baseline="central">a4</text>
<text x="455" y="276" text-anchor="middle" fill="rgb(255,255,255)" dominant-baseline="central">a5</text>
<text x="512" y="276" text-anchor="middle" fill="rgb(255,255,255)" dominant-baseline="central">a6</text>
<text x="569" y="276" text-anchor="middle" fill="rgb(255,255,255)" dominant-baseline="central">a7</text>
</svg>

