<svg xmlns="http://www.w3.org/2000/svg" class="pikchr" viewBox="0 0 1865.33 384.922"><path style="fill:#fff" d="m106.826 72.176-11.52 4.32v-8.64z"/><path d="M34.827 72.176h66.239" style="fill:none;stroke-width:2.16;stroke:#fff"/><path d="M106.826 108.176h108v-72h-108Z" style="fill:none;stroke-width:2.16;stroke:#7fff7f"/><text x="160.826" y="72.176" text-anchor="middle" fill="#7FFF7F" dominant-baseline="central">Format</text><path style="fill:#fff" d="m286.826 72.176-11.52 4.32v-8.64z"/><path d="M214.826 72.176h66.24" style="fill:none;stroke-width:2.16;stroke:#fff"/><path d="M286.826 108.176h108v-72h-108Z" style="fill:none;stroke-width:2.16;stroke:#7f7f7f"/><text x="340.826" y="62.096" text-anchor="middle" fill="#7F7F7F" dominant-baseline="central">Source</text><text x="340.826" y="82.256" text-anchor="middle" fill="#7F7F7F" dominant-baseline="central">Encode</text><path style="fill:#fff" d="m466.826 72.176-11.52 4.32v-8.64z"/><path d="M394.826 72.176h66.24" style="fill:none;stroke-width:2.16;stroke:#fff"/><path d="M466.826 108.176h108v-72h-108Z" style="fill:none;stroke-width:2.16;stroke:#7f7f7f"/><text x="520.826" y="72.176" text-anchor="middle" fill="#7F7F7F" dominant-baseline="central">Encrypt</text><path style="fill:#fff" d="m646.826 72.176-11.52 4.32v-8.64z"/><path d="M574.826 72.176h66.24" style="fill:none;stroke-width:2.16;stroke:#fff"/><path d="M646.826 108.176h108v-72h-108Z" style="fill:none;stroke-width:2.16;stroke:#7f7f7f"/><text x="700.826" y="62.096" text-anchor="middle" fill="#7F7F7F" dominant-baseline="central">Channel</text><text x="700.826" y="82.256" text-anchor="middle" fill="#7F7F7F" dominant-baseline="central">Encode</text><path style="fill:#fff" d="m826.826 72.176-11.52 4.32v-8.64z"/><path d="M754.826 72.176h66.24" style="fill:none;stroke-width:2.16;stroke:#fff"/><path d="M826.826 108.176h108v-72h-108Z" style="fill:none;stroke-width:2.16;stroke:#7f7f7f"/><text x="880.826" y="72.176" text-anchor="middle" fill="#7F7F7F" dominant-baseline="central">Multiplex</text><path style="fill:#fff" d="m1006.83 72.176-11.524 4.32v-8.64z"/><path d="M934.826 72.176h66.244" style="fill:none;stroke-width:2.16;stroke:#fff"/><path d="M1006.83 108.176h108v-72h-108Z" style="fill:none;stroke-width:2.16;stroke:#7fff7f"/><text x="1060.83" y="62.096" text-anchor="middle" fill="#7FFF7F" dominant-baseline="central">Pulse</text><text x="1060.83" y="82.256" text-anchor="middle" fill="#7FFF7F" dominant-baseline="central">Modulate</text><path style="fill:#fff" d="m1186.83 72.176-11.52 4.32v-8.64z"/><path d="M1114.83 72.176h66.24" style="fill:none;stroke-width:2.16;stroke:#fff"/><path d="M1186.83 108.176h108v-72h-108Z" style="fill:none;stroke-width:2.16;stroke:#7fff7f"/><text x="1240.83" y="62.096" text-anchor="middle" fill="#7FFF7F" dominant-baseline="central">Bandpass</text><text x="1240.83" y="82.256" text-anchor="middle" fill="#7FFF7F" dominant-baseline="central">Modulate</text><path style="fill:#fff" d="m1366.83 72.176-11.52 4.32v-8.64z"/><path d="M1294.83 72.176h66.24" style="fill:none;stroke-width:2.16;stroke:#fff"/><path d="M1366.83 108.176h108v-72h-108Z" style="fill:none;stroke-width:2.16;stroke:#7f7f7f"/><text x="1420.83" y="62.096" text-anchor="middle" fill="#7F7F7F" dominant-baseline="central">Frequency</text><text x="1420.83" y="82.256" text-anchor="middle" fill="#7F7F7F" dominant-baseline="central">Spread</text><path style="fill:#fff" d="m1546.83 72.176-11.52 4.32v-8.64z"/><path d="M1474.83 72.176h66.24" style="fill:none;stroke-width:2.16;stroke:#fff"/><path d="M1546.83 108.176h108v-72h-108Z" style="fill:none;stroke-width:2.16;stroke:#7f7f7f"/><text x="1600.83" y="62.096" text-anchor="middle" fill="#7F7F7F" dominant-baseline="central">Multiple</text><text x="1600.83" y="82.256" text-anchor="middle" fill="#7F7F7F" dominant-baseline="central">Access</text><path style="fill:#fff" d="m1726.83 72.176-11.52 4.32v-8.64z"/><path d="M1654.83 72.176h66.24M1726.83 108.176h108v-72h-108Z" style="fill:none;stroke-width:2.16;stroke:#fff"/><text x="1780.83" y="72.176" text-anchor="middle" fill="#FFF" dominant-baseline="central">XMT</text><path style="fill:#fff" d="m1780.83 180.176-4.32-11.52h8.64z"/><path d="M1780.83 108.176v66.24" style="fill:none;stroke-width:2.16;stroke:#fff"/><text x="1780.83" y="195.296" text-anchor="middle" fill="#FFF" dominant-baseline="central">CHANNEL</text><path style="fill:#fff" d="m1780.83 282.416-4.32-11.52h8.64z"/><path d="M1780.83 210.416v66.24M1726.83 354.416h108v-72h-108Z" style="fill:none;stroke-width:2.16;stroke:#fff"/><text x="1780.83" y="318.416" text-anchor="middle" fill="#FFF" dominant-baseline="central">RCV</text><path style="fill:#fff" d="m1654.83 318.416 11.52-4.32v8.64z"/><path d="M1726.83 318.416h-66.24" style="fill:none;stroke-width:2.16;stroke:#fff"/><path d="M1546.83 354.416h108v-72h-108Z" style="fill:none;stroke-width:2.16;stroke:#7f7f7f"/><text x="1600.83" y="308.336" text-anchor="middle" fill="#7F7F7F" dominant-baseline="central">Multiple</text><text x="1600.83" y="328.496" text-anchor="middle" fill="#7F7F7F" dominant-baseline="central">Access</text><path style="fill:#fff" d="m1474.83 318.416 11.52-4.32v8.64z"/><path d="M1546.83 318.416h-66.24" style="fill:none;stroke-width:2.16;stroke:#fff"/><path d="M1366.83 354.416h108v-72h-108Z" style="fill:none;stroke-width:2.16;stroke:#7f7f7f"/><text x="1420.83" y="308.336" text-anchor="middle" fill="#7F7F7F" dominant-baseline="central">Frequency</text><text x="1420.83" y="328.496" text-anchor="middle" fill="#7F7F7F" dominant-baseline="central">Despread</text><path style="fill:#fff" d="m1294.83 318.416 11.52-4.32v8.64z"/><path d="M1366.83 318.416h-66.24" style="fill:none;stroke-width:2.16;stroke:#fff"/><path d="M1186.83 354.416h108v-72h-108Z" style="fill:none;stroke-width:2.16;stroke:#7fff7f"/><text x="1240.83" y="308.336" text-anchor="middle" fill="#7FFF7F" dominant-baseline="central">Demodulate</text><text x="1240.83" y="328.496" text-anchor="middle" fill="#7FFF7F" dominant-baseline="central">And Sample</text><path style="fill:#fff" d="m1114.83 318.416 11.52-4.32v8.64z"/><path d="M1186.83 318.416h-66.24" style="fill:none;stroke-width:2.16;stroke:#fff"/><path d="M1006.83 354.416h108v-72h-108Z" style="fill:none;stroke-width:2.16;stroke:#7fff7f"/><text x="1060.83" y="318.416" text-anchor="middle" fill="#7FFF7F" dominant-baseline="central">Detect</text><path style="fill:#fff" d="m934.826 318.416 11.52-4.32v8.64z"/><path d="M1006.83 318.416h-66.244" style="fill:none;stroke-width:2.16;stroke:#fff"/><path d="M826.826 354.416h108v-72h-108Z" style="fill:none;stroke-width:2.16;stroke:#7f7f7f"/><text x="880.826" y="318.416" text-anchor="middle" fill="#7F7F7F" dominant-baseline="central">Demultiplex</text><path style="fill:#fff" d="m754.826 318.416 11.52-4.32v8.64z"/><path d="M826.826 318.416h-66.24" style="fill:none;stroke-width:2.16;stroke:#fff"/><path d="M646.826 354.416h108v-72h-108Z" style="fill:none;stroke-width:2.16;stroke:#7f7f7f"/><text x="700.826" y="308.336" text-anchor="middle" fill="#7F7F7F" dominant-baseline="central">Channel</text><text x="700.826" y="328.496" text-anchor="middle" fill="#7F7F7F" dominant-baseline="central">Decode</text><path style="fill:#fff" d="m574.826 318.416 11.52-4.32v8.64z"/><path d="M646.826 318.416h-66.24" style="fill:none;stroke-width:2.16;stroke:#fff"/><path d="M466.826 354.416h108v-72h-108Z" style="fill:none;stroke-width:2.16;stroke:#7f7f7f"/><text x="520.826" y="318.416" text-anchor="middle" fill="#7F7F7F" dominant-baseline="central">Decrypt</text><path style="fill:#fff" d="m394.826 318.416 11.52-4.32v8.64z"/><path d="M466.826 318.416h-66.24" style="fill:none;stroke-width:2.16;stroke:#fff"/><path d="M286.826 354.416h108v-72h-108Z" style="fill:none;stroke-width:2.16;stroke:#7f7f7f"/><text x="340.826" y="308.336" text-anchor="middle" fill="#7F7F7F" dominant-baseline="central">Source</text><text x="340.826" y="328.496" text-anchor="middle" fill="#7F7F7F" dominant-baseline="central">Decode</text><path style="fill:#fff" d="m214.826 318.416 11.52-4.32v8.64z"/><path d="M286.826 318.416h-66.24" style="fill:none;stroke-width:2.16;stroke:#fff"/><path d="M106.826 354.416h108v-72h-108Z" style="fill:none;stroke-width:2.16;stroke:#7fff7f"/><text x="160.826" y="318.416" text-anchor="middle" fill="#7FFF7F" dominant-baseline="central">Format</text><path style="fill:#fff" d="m34.827 318.416 11.52-4.32v8.64z"/><path d="M106.826 318.416h-66.24" style="fill:none;stroke-width:2.16;stroke:#fff"/></svg>