<svg xmlns="http://www.w3.org/2000/svg" class="pikchr" viewBox="0 0 1103.21 325.44"><path style="fill:#ffff7f" d="m1053 179-12 4v-9z"/><path d="M2 179h1045" style="fill:none;stroke-width:2.16;stroke:#ffff7f"/><text x="1080" y="189" text-anchor="middle" fill="#FFF" dominant-baseline="central">Time</text><path style="fill:#ffff7f" d="m16 6 4 11h-8z"/><path d="M16 323V12" style="fill:none;stroke-width:2.16;stroke:#ffff7f"/><text x="65" y="16" text-anchor="middle" fill="#FFF" dominant-baseline="central">Amplitude</text><path d="m16 179 18-18q18-18 36-35 18-16 36-31 18-14 36-26 18-11 36-19t36-11q18-4 36-3t36 6q18 6 36 15 18 10 36 23t36 28q18 16 36 33t36 35l36 36q18 17 36 33t36 29q18 14 36 24t36 16q18 6 36 7 18 2 36-1t36-10q18-8 36-19t36-25q18-14 36-31 18-16 36-34 18-17 36-35t36-35l18-17" style="fill:none;stroke-width:3.24;stroke:#7fff7f"/><path style="fill:#7fff7f" d="m394 108 5-11 6 6z"/><path d="m398 104 53-52" style="fill:none;stroke-width:2.16;stroke:#7fff7f"/><text x="451" y="31" text-anchor="middle" fill="#7FFF7F" font-size="156.25%" dominant-baseline="central">Analog Signal</text><path d="M16 316h1008M16 277h1008M16 238h1008M16 199h1008M16 160h1008M16 121h1008M16 82h1008M16 43h1008M16 323V35M52 323V35M88 323V35M124 323V35M160 323V35M196 323V35M232 323V35M268 323V35M304 323V35M340 323V35M376 323V35M412 323V35M448 323V35M484 323V35M520 323V35M556 323V35M592 323V35M628 323V35M664 323V35M700 323V35M736 323V35M772 323V35M808 323V35M844 323V35M880 323V35M916 323V35M952 323V35M988 323V35M1024 323V35" style="fill:none;stroke-width:.969624;stroke:#7f7f7f;stroke-dasharray:2.1,7.2"/><path d="M16 179" style="fill:none;stroke-width:4.86;stroke:#ff7f7f"/><path d="M16 179h36v-19" style="fill:none;stroke-width:4.86;stroke-linejoin:round;stroke:#ff7f7f"/><circle cx="52" cy="160" r="6.48" style="fill:#ff7f7f;stroke-width:2.16;stroke:#ff7f7f"/><path d="M52 160h36v-39" style="fill:none;stroke-width:4.86;stroke-linejoin:round;stroke:#ff7f7f"/><circle cx="88" cy="121" r="6.48" style="fill:#ff7f7f;stroke-width:2.16;stroke:#ff7f7f"/><path d="M88 121h36V82" style="fill:none;stroke-width:4.86;stroke-linejoin:round;stroke:#ff7f7f"/><circle cx="124" cy="82" r="6.48" style="fill:#ff7f7f;stroke-width:2.16;stroke:#ff7f7f"/><path d="M124 82h36V43" style="fill:none;stroke-width:4.86;stroke-linejoin:round;stroke:#ff7f7f"/><circle cx="160" cy="43" r="6.48" style="fill:#ff7f7f;stroke-width:2.16;stroke:#ff7f7f"/><path d="M160 43h36" style="fill:none;stroke-width:4.86;stroke-linejoin:round;stroke:#ff7f7f"/><circle cx="196" cy="43" r="6.48" style="fill:#ff7f7f;stroke-width:2.16;stroke:#ff7f7f"/><path d="M196 43h36" style="fill:none;stroke-width:4.86;stroke-linejoin:round;stroke:#ff7f7f"/><circle cx="232" cy="43" r="6.48" style="fill:#ff7f7f;stroke-width:2.16;stroke:#ff7f7f"/><path d="M232 43h36" style="fill:none;stroke-width:4.86;stroke-linejoin:round;stroke:#ff7f7f"/><circle cx="268" cy="43" r="6.48" style="fill:#ff7f7f;stroke-width:2.16;stroke:#ff7f7f"/><path d="M268 43h36" style="fill:none;stroke-width:4.86;stroke-linejoin:round;stroke:#ff7f7f"/><circle cx="304" cy="43" r="6.48" style="fill:#ff7f7f;stroke-width:2.16;stroke:#ff7f7f"/><path d="M304 43h36v39" style="fill:none;stroke-width:4.86;stroke-linejoin:round;stroke:#ff7f7f"/><circle cx="340" cy="82" r="6.48" style="fill:#ff7f7f;stroke-width:2.16;stroke:#ff7f7f"/><path d="M340 82h36" style="fill:none;stroke-width:4.86;stroke-linejoin:round;stroke:#ff7f7f"/><circle cx="376" cy="82" r="6.48" style="fill:#ff7f7f;stroke-width:2.16;stroke:#ff7f7f"/><path d="M376 82h36v39" style="fill:none;stroke-width:4.86;stroke-linejoin:round;stroke:#ff7f7f"/><circle cx="412" cy="121" r="6.48" style="fill:#ff7f7f;stroke-width:2.16;stroke:#ff7f7f"/><path d="M412 121h36v39" style="fill:none;stroke-width:4.86;stroke-linejoin:round;stroke:#ff7f7f"/><circle cx="448" cy="160" r="6.48" style="fill:#ff7f7f;stroke-width:2.16;stroke:#ff7f7f"/><path d="M448 160h36v39" style="fill:none;stroke-width:4.86;stroke-linejoin:round;stroke:#ff7f7f"/><circle cx="484" cy="199" r="6.48" style="fill:#ff7f7f;stroke-width:2.16;stroke:#ff7f7f"/><path d="M484 199h36v39" style="fill:none;stroke-width:4.86;stroke-linejoin:round;stroke:#ff7f7f"/><circle cx="520" cy="238" r="6.48" style="fill:#ff7f7f;stroke-width:2.16;stroke:#ff7f7f"/><path d="M520 238h36v39" style="fill:none;stroke-width:4.86;stroke-linejoin:round;stroke:#ff7f7f"/><circle cx="556" cy="277" r="6.48" style="fill:#ff7f7f;stroke-width:2.16;stroke:#ff7f7f"/><path d="M556 277h36" style="fill:none;stroke-width:4.86;stroke-linejoin:round;stroke:#ff7f7f"/><circle cx="592" cy="277" r="6.48" style="fill:#ff7f7f;stroke-width:2.16;stroke:#ff7f7f"/><path d="M592 277h36v39" style="fill:none;stroke-width:4.86;stroke-linejoin:round;stroke:#ff7f7f"/><circle cx="628" cy="316" r="6.48" style="fill:#ff7f7f;stroke-width:2.16;stroke:#ff7f7f"/><path d="M628 316h36" style="fill:none;stroke-width:4.86;stroke-linejoin:round;stroke:#ff7f7f"/><circle cx="664" cy="316" r="6.48" style="fill:#ff7f7f;stroke-width:2.16;stroke:#ff7f7f"/><path d="M664 316h36" style="fill:none;stroke-width:4.86;stroke-linejoin:round;stroke:#ff7f7f"/><circle cx="700" cy="316" r="6.48" style="fill:#ff7f7f;stroke-width:2.16;stroke:#ff7f7f"/><path d="M700 316h36" style="fill:none;stroke-width:4.86;stroke-linejoin:round;stroke:#ff7f7f"/><circle cx="736" cy="316" r="6.48" style="fill:#ff7f7f;stroke-width:2.16;stroke:#ff7f7f"/><path d="M736 316h36" style="fill:none;stroke-width:4.86;stroke-linejoin:round;stroke:#ff7f7f"/><circle cx="772" cy="316" r="6.48" style="fill:#ff7f7f;stroke-width:2.16;stroke:#ff7f7f"/><path d="M772 316h36v-39" style="fill:none;stroke-width:4.86;stroke-linejoin:round;stroke:#ff7f7f"/><circle cx="808" cy="277" r="6.48" style="fill:#ff7f7f;stroke-width:2.16;stroke:#ff7f7f"/><path d="M808 277h36v-39" style="fill:none;stroke-width:4.86;stroke-linejoin:round;stroke:#ff7f7f"/><circle cx="844" cy="238" r="6.48" style="fill:#ff7f7f;stroke-width:2.16;stroke:#ff7f7f"/><path d="M844 238h36v-39" style="fill:none;stroke-width:4.86;stroke-linejoin:round;stroke:#ff7f7f"/><circle cx="880" cy="199" r="6.48" style="fill:#ff7f7f;stroke-width:2.16;stroke:#ff7f7f"/><path d="M880 199h36" style="fill:none;stroke-width:4.86;stroke-linejoin:round;stroke:#ff7f7f"/><circle cx="916" cy="199" r="6.48" style="fill:#ff7f7f;stroke-width:2.16;stroke:#ff7f7f"/><path d="M916 199h36v-39" style="fill:none;stroke-width:4.86;stroke-linejoin:round;stroke:#ff7f7f"/><circle cx="952" cy="160" r="6.48" style="fill:#ff7f7f;stroke-width:2.16;stroke:#ff7f7f"/><path d="M952 160h36v-39" style="fill:none;stroke-width:4.86;stroke-linejoin:round;stroke:#ff7f7f"/><circle cx="988" cy="121" r="6.48" style="fill:#ff7f7f;stroke-width:2.16;stroke:#ff7f7f"/></svg>