<svg width="1200" height="800" xmlns="http://www.w3.org/2000/svg" xmlns:xlink="http://www.w3.org/1999/xlink"><path fill="none" d="M0 0h1200v800H0z"/><defs><path id="d" stroke-width=".222" stroke="currentColor" d="M-1-1h2v2h-2z"/><path id="b" stroke-width=".222" stroke="currentColor" d="m0-1.33-1.33 2h2.66z"/><path id="f" stroke-width=".222" stroke="currentColor" d="M0 1.33 1.265.411.782-1.067l-1.564-.009-.483 1.487z"/><use xlink:href="#b" id="c" stroke="currentColor" transform="rotate(180)"/><use xlink:href="#d" id="e" stroke="currentColor" transform="rotate(45)"/><circle id="a" stroke-width=".222" stroke="currentColor" cx="0" cy="0" r="1"/></defs><path stroke="gray" stroke-dasharray="2,4" class="gridline" d="M72.53 742.4h1102.29" fill="none" color="gray" stroke-width=".5"/><g fill="none" color="#000" stroke="currentColor"><path stroke="#FFF" d="M72.53 742.4h9m1093.29 0h-9"/><text transform="translate(64.14 746.3)" stroke="none" fill="#FFF" font-family="Arial" font-size="12" text-anchor="end"><tspan> 0.1</tspan></text></g><path stroke="#FFF" d="M72.53 673.32h4.5m1097.79 0h-4.5M72.53 632.92h4.5m1097.79 0h-4.5M72.53 604.25h4.5m1097.79 0h-4.5M72.53 582.01h4.5m1097.79 0h-4.5M72.53 563.84h4.5m1097.79 0h-4.5M72.53 548.48h4.5m1097.79 0h-4.5M72.53 535.17h4.5m1097.79 0h-4.5M72.53 523.44h4.5m1097.79 0h-4.5" fill="none" color="#000"/><path stroke="gray" stroke-dasharray="2,4" class="gridline" d="M72.53 512.94h1102.29" fill="none" color="gray" stroke-width=".5"/><g fill="none" color="#000" stroke="currentColor"><path stroke="#FFF" d="M72.53 512.94h9m1093.29 0h-9"/><text transform="translate(64.14 516.84)" stroke="none" fill="#FFF" font-family="Arial" font-size="12" text-anchor="end"><tspan> 1</tspan></text></g><path stroke="#FFF" d="M72.53 443.86h4.5m1097.79 0h-4.5M72.53 403.45h4.5m1097.79 0h-4.5M72.53 374.79h4.5m1097.79 0h-4.5M72.53 352.55h4.5m1097.79 0h-4.5M72.53 334.38h4.5m1097.79 0h-4.5M72.53 319.02h4.5m1097.79 0h-4.5M72.53 305.71h4.5m1097.79 0h-4.5M72.53 293.97h4.5m1097.79 0h-4.5" fill="none" color="#000"/><path stroke="gray" stroke-dasharray="2,4" class="gridline" d="M72.53 283.47h1102.29" fill="none" color="gray" stroke-width=".5"/><g fill="none" color="#000" stroke="currentColor"><path stroke="#FFF" d="M72.53 283.47h9m1093.29 0h-9"/><text transform="translate(64.14 287.37)" stroke="none" fill="#FFF" font-family="Arial" font-size="12" text-anchor="end"><tspan> 10</tspan></text></g><path stroke="#FFF" d="M72.53 214.4h4.5m1097.79 0h-4.5M72.53 173.99h4.5m1097.79 0h-4.5M72.53 145.32h4.5m1097.79 0h-4.5M72.53 123.09h4.5m1097.79 0h-4.5M72.53 104.92h4.5m1097.79 0h-4.5M72.53 89.55h4.5m1097.79 0h-4.5M72.53 76.25h4.5m1097.79 0h-4.5M72.53 64.51h4.5m1097.79 0h-4.5" fill="none" color="#000"/><path stroke="gray" stroke-dasharray="2,4" class="gridline" d="M72.53 54.01h1102.29" fill="none" color="gray" stroke-width=".5"/><g fill="none" color="#000" stroke="currentColor"><path stroke="#FFF" d="M72.53 54.01h9m1093.29 0h-9"/><text transform="translate(64.14 57.91)" stroke="none" fill="#FFF" font-family="Arial" font-size="12" text-anchor="end"><tspan> 100</tspan></text></g><path stroke="gray" stroke-dasharray="2,4" class="gridline" d="M72.53 742.4V54.01" fill="none" color="gray" stroke-width=".5"/><g fill="none" color="#000" stroke="currentColor"><path stroke="#FFF" d="M72.53 742.4v-9m0-679.39v9"/><text transform="translate(72.53 764.3)" stroke="none" fill="#FFF" font-family="Arial" font-size="12" text-anchor="middle"><tspan> 0</tspan></text></g><path stroke="gray" stroke-dasharray="2,4" class="gridline" d="M182.76 742.4V54.01" fill="none" color="gray" stroke-width=".5"/><g fill="none" color="#000" stroke="currentColor"><path stroke="#FFF" d="M182.76 742.4v-9m0-679.39v9"/><text transform="translate(182.76 764.3)" stroke="none" fill="#FFF" font-family="Arial" font-size="12" text-anchor="middle"><tspan> 50</tspan></text></g><path stroke="gray" stroke-dasharray="2,4" class="gridline" d="M292.99 742.4V54.01" fill="none" color="gray" stroke-width=".5"/><g fill="none" color="#000" stroke="currentColor"><path stroke="#FFF" d="M292.99 742.4v-9m0-679.39v9"/><text transform="translate(292.99 764.3)" stroke="none" fill="#FFF" font-family="Arial" font-size="12" text-anchor="middle"><tspan> 100</tspan></text></g><path stroke="gray" stroke-dasharray="2,4" class="gridline" d="M403.22 742.4V54.01" fill="none" color="gray" stroke-width=".5"/><g fill="none" color="#000" stroke="currentColor"><path stroke="#FFF" d="M403.22 742.4v-9m0-679.39v9"/><text transform="translate(403.22 764.3)" stroke="none" fill="#FFF" font-family="Arial" font-size="12" text-anchor="middle"><tspan> 150</tspan></text></g><path stroke="gray" stroke-dasharray="2,4" class="gridline" d="M513.45 742.4V54.01" fill="none" color="gray" stroke-width=".5"/><g fill="none" color="#000" stroke="currentColor"><path stroke="#FFF" d="M513.45 742.4v-9m0-679.39v9"/><text transform="translate(513.45 764.3)" stroke="none" fill="#FFF" font-family="Arial" font-size="12" text-anchor="middle"><tspan> 200</tspan></text></g><path stroke="gray" stroke-dasharray="2,4" class="gridline" d="M623.68 742.4V54.01" fill="none" color="gray" stroke-width=".5"/><g fill="none" color="#000" stroke="currentColor"><path stroke="#FFF" d="M623.68 742.4v-9m0-679.39v9"/><text transform="translate(623.68 764.3)" stroke="none" fill="#FFF" font-family="Arial" font-size="12" text-anchor="middle"><tspan> 250</tspan></text></g><path stroke="gray" stroke-dasharray="2,4" class="gridline" d="M733.9 742.4V54.01" fill="none" color="gray" stroke-width=".5"/><g fill="none" color="#000" stroke="currentColor"><path stroke="#FFF" d="M733.9 742.4v-9m0-679.39v9"/><text transform="translate(733.9 764.3)" stroke="none" fill="#FFF" font-family="Arial" font-size="12" text-anchor="middle"><tspan> 300</tspan></text></g><path stroke="gray" stroke-dasharray="2,4" class="gridline" d="M844.13 742.4V54.01" fill="none" color="gray" stroke-width=".5"/><g fill="none" color="#000" stroke="currentColor"><path stroke="#FFF" d="M844.13 742.4v-9m0-679.39v9"/><text transform="translate(844.13 764.3)" stroke="none" fill="#FFF" font-family="Arial" font-size="12" text-anchor="middle"><tspan> 350</tspan></text></g><path stroke="gray" stroke-dasharray="2,4" class="gridline" d="M954.36 742.4V54.01" fill="none" color="gray" stroke-width=".5"/><g fill="none" color="#000" stroke="currentColor"><path stroke="#FFF" d="M954.36 742.4v-9m0-679.39v9"/><text transform="translate(954.36 764.3)" stroke="none" fill="#FFF" font-family="Arial" font-size="12" text-anchor="middle"><tspan> 400</tspan></text></g><path stroke="gray" stroke-dasharray="2,4" class="gridline" d="M1064.59 742.4V54.01" fill="none" color="gray" stroke-width=".5"/><g fill="none" color="#000" stroke="currentColor"><path stroke="#FFF" d="M1064.59 742.4v-9m0-679.39v9"/><text transform="translate(1064.59 764.3)" stroke="none" fill="#FFF" font-family="Arial" font-size="12" text-anchor="middle"><tspan> 450</tspan></text></g><path stroke="gray" stroke-dasharray="2,4" class="gridline" d="M1174.82 742.4V54.01" fill="none" color="gray" stroke-width=".5"/><g fill="none" color="#000" stroke="currentColor"><path stroke="#FFF" d="M1174.82 742.4v-9m0-679.39v9"/><text transform="translate(1174.82 764.3)" stroke="none" fill="#FFF" font-family="Arial" font-size="12" text-anchor="middle"><tspan> 500</tspan></text></g><path stroke="#FFF" d="M72.53 742.4V54.01M72.53 54.01V742.4h1102.29V54.01H72.53Z" fill="none" color="#000"/><text transform="rotate(-90 208.695 189.515)" stroke="none" fill="#FFF" font-family="Arial" font-size="12" text-anchor="middle" color="#000"><tspan>Input values and Score</tspan></text><text transform="translate(623.67 791.3)" stroke="none" fill="#FFF" font-family="Arial" font-size="12" text-anchor="middle" color="#000"><tspan>Best of generation</tspan></text><text transform="translate(1107.09 75.91)" stroke="none" fill="#FFF" font-family="Arial" font-size="12" text-anchor="end" color="#000" stroke-width="2"><tspan>Score</tspan></text><path stroke="orange" d="M1115.48 72.01h42.56M74.73 187.11l44.1 159.09H339.28l44.1 30.83H603.83l44.1 318.7H1174.82" fill="none" color="#000" stroke-width="2"/><text transform="translate(1107.09 93.91)" stroke="none" fill="#FFF" font-family="Arial" font-size="12" text-anchor="end" color="#000" stroke-width="2"><tspan>X</tspan><tspan font-size="9.6" dy="3.6">1</tspan></text><path stroke="#0FF" d="M1115.48 90.01h42.56M74.73 171.14h264.55l44.1-11.84H603.83l44.1 6.03H1174.82" fill="none" color="#000" stroke-width="2"/><text transform="translate(1107.09 111.91)" stroke="none" fill="#FFF" font-family="Arial" font-size="12" text-anchor="end" color="#000" stroke-width="2"><tspan>X</tspan><tspan font-size="9.6" dy="3.6">2</tspan></text><path stroke="#0F0" d="M1115.48 108.01h42.56M74.73 228.65l44.1-19.63H603.83l44.1-5.43H1174.82" fill="none" color="#000" stroke-width="2"/><path stroke="#FFF" d="M72.53 54.01V742.4h1102.29V54.01H72.53Z" fill="none" color="#000"/><text transform="translate(623.67 30.91)" stroke="none" fill="#FFF" font-family="Arial" font-size="12" text-anchor="middle" color="#000"><tspan>Optimization progress</tspan></text></svg>