<svg xmlns='http://www.w3.org/2000/svg' class="pikchr" viewBox="0 0 675.916 276.231">
<path d="M120,98L149,98L149,70L120,70Z"  style="fill:none;stroke-width:2.16;stroke:rgb(255,127,127);" />
<path d="M120,126L149,126L149,98L120,98Z"  style="fill:none;stroke-width:2.16;stroke:rgb(127,255,127);" />
<path d="M120,155L149,155L149,126L120,126Z"  style="fill:none;stroke-width:2.16;stroke:rgb(127,127,255);" />
<path d="M276,155L390,155L390,126L276,126Z"  style="fill:none;stroke-width:2.16;stroke:rgb(255,209,127);" />
<text x="333" y="141" text-anchor="middle" fill="rgb(255,209,127)" dominant-baseline="central">X.Z.A</text>
<path d="M276,121L390,121L390,92L276,92Z"  style="fill:none;stroke-width:2.16;stroke:rgb(255,127,127);" />
<text x="333" y="107" text-anchor="middle" fill="rgb(255,127,127)" dominant-baseline="central">X.Z.B</text>
<path d="M276,87L390,87L390,58L276,58Z"  style="fill:none;stroke-width:2.16;stroke:rgb(255,209,127);" />
<text x="333" y="73" text-anchor="middle" fill="rgb(255,209,127)" dominant-baseline="central">X.Z.C</text>
<path d="M503,87L617,87L617,58L503,58Z"  style="fill:none;stroke-width:2.16;stroke:rgb(255,209,127);" />
<text x="560" y="73" text-anchor="middle" fill="rgb(255,209,127)" dominant-baseline="central">X.W.A</text>
<path d="M503,121L617,121L617,92L503,92Z"  style="fill:none;stroke-width:2.16;stroke:rgb(255,127,127);" />
<text x="560" y="107" text-anchor="middle" fill="rgb(255,127,127)" dominant-baseline="central">X.W.B</text>
<path d="M503,155L617,155L617,126L503,126Z"  style="fill:none;stroke-width:2.16;stroke:rgb(255,209,127);" />
<text x="560" y="141" text-anchor="middle" fill="rgb(255,209,127)" dominant-baseline="central">X.W.C</text>
<polygon points="207,84 195,88 195,80" style="fill:rgb(255,255,255)"/>
<path d="M135,84L201,84"  style="fill:none;stroke-width:2.16;stroke:rgb(255,255,255);" />
<text x="171" y="72" text-anchor="middle" fill="rgb(255,255,255)" dominant-baseline="central">R</text>
<polygon points="63,112 74,108 74,117" style="fill:rgb(255,255,255)"/>
<path d="M135,112L68,112"  style="fill:none;stroke-width:2.16;stroke:rgb(255,255,255);" />
<text x="99" y="101" text-anchor="middle" fill="rgb(255,255,255)" dominant-baseline="central">G</text>
<polygon points="135,213 130,201 139,201" style="fill:rgb(255,255,255)"/>
<path d="M135,141L135,207"  style="fill:none;stroke-width:2.16;stroke:rgb(255,255,255);" />
<text x="135" y="177" text-anchor="start" fill="rgb(255,255,255)" dominant-baseline="central"> B</text>
<polygon points="276,141 265,145 265,136" style="fill:rgb(255,127,255)"/>
<path d="M149,141L271,141"  style="fill:none;stroke-width:2.16;stroke:rgb(255,127,255);" />
<polygon points="276,73 267,81 264,73" style="fill:rgb(255,127,255)"/>
<path d="M149,126L271,75"  style="fill:none;stroke-width:2.16;stroke:rgb(255,127,255);" />
<polygon points="390,107 401,102 401,111" style="fill:rgb(255,255,255)"/>
<path d="M390,73L418,73L418,107L396,107"  style="fill:none;stroke-width:2.16;stroke-linejoin:round;stroke:rgb(255,255,255);" />
<path d="M333,73L560,141"  style="fill:none;stroke-width:0.969624;stroke:rgb(255,255,255);stroke-dasharray:2.1,7.2;" />
<polygon points="390,126 399,119 402,127" style="fill:rgb(127,127,255)"/>
<polygon points="503,87 494,95 491,86" style="fill:rgb(127,127,255)"/>
<path d="M395,124L498,89"  style="fill:none;stroke-width:2.16;stroke:rgb(127,127,255);" />
</svg>

