<svg xmlns="http://www.w3.org/2000/svg" class="pikchr" viewBox="0 0 675.916 276.231"><path d="M121 98.538h28.346V70.192H121Z" style="fill:none;stroke-width:2.16;stroke:#ff7f7f"/><path d="M121 126.884h28.346V98.538H121Z" style="fill:none;stroke-width:2.16;stroke:#7fff7f"/><path d="M121 155.231h28.346v-28.347H121Z" style="fill:none;stroke-width:2.16;stroke:#7f7fff"/><path d="M276.905 155.231h113.386v-28.347H276.905Z" style="fill:none;stroke-width:2.16;stroke:#ffd17f"/><text x="333.598" y="141.058" text-anchor="middle" fill="#FFD17F" dominant-baseline="central">X.Z.A</text><path d="M276.905 121.215h113.386V92.869H276.905Z" style="fill:none;stroke-width:2.16;stroke:#ff7f7f"/><text x="333.598" y="107.042" text-anchor="middle" fill="#FF7F7F" dominant-baseline="central">X.Z.B</text><path d="M276.905 87.2h113.386V58.852H276.905Z" style="fill:none;stroke-width:2.16;stroke:#ffd17f"/><text x="333.598" y="73.026" text-anchor="middle" fill="#FFD17F" dominant-baseline="central">X.Z.C</text><path d="M503.677 87.2h113.386V58.852H503.677Z" style="fill:none;stroke-width:2.16;stroke:#ffd17f"/><text x="560.37" y="73.026" text-anchor="middle" fill="#FFD17F" dominant-baseline="central">X.W.A</text><path d="M503.677 121.215h113.386V92.869H503.677Z" style="fill:none;stroke-width:2.16;stroke:#ff7f7f"/><text x="560.37" y="107.042" text-anchor="middle" fill="#FF7F7F" dominant-baseline="central">X.W.B</text><path d="M503.677 155.231h113.386v-28.347H503.677Z" style="fill:none;stroke-width:2.16;stroke:#ffd17f"/><text x="560.37" y="141.058" text-anchor="middle" fill="#FFD17F" dominant-baseline="central">X.W.C</text><path style="fill:#fff" d="m207.173 84.365-11.52 4.32v-8.64z"/><path d="M135.173 84.365h66.24" style="fill:none;stroke-width:2.16;stroke:#fff"/><text x="171.173" y="72.665" text-anchor="middle" fill="#FFF" dominant-baseline="central">R</text><path style="fill:#fff" d="m63.173 112.711 11.52-4.32v8.64z"/><path d="M135.173 112.711h-66.24" style="fill:none;stroke-width:2.16;stroke:#fff"/><text x="99.173" y="101.011" text-anchor="middle" fill="#FFF" dominant-baseline="central">G</text><path style="fill:#fff" d="m135.173 213.058-4.32-11.52h8.64z"/><path d="M135.173 141.058v66.24" style="fill:none;stroke-width:2.16;stroke:#fff"/><text x="135.173" y="177.058" fill="#FFF" dominant-baseline="central"> B</text><path style="fill:#ff7fff" d="m276.905 141.058-11.52 4.32v-8.64z"/><path d="M149.346 141.058h121.799" style="fill:none;stroke-width:2.16;stroke:#ff7fff"/><path style="fill:#ff7fff" d="m276.905 73.026-8.932 8.46-3.361-7.959z"/><path d="m149.346 126.884 122.253-51.617" style="fill:none;stroke-width:2.16;stroke:#ff7fff"/><path style="fill:#fff" d="m390.291 107.042 11.52-4.32v8.64z"/><path d="M390.291 73.026h28.346v34.016h-22.586" style="fill:none;stroke-width:2.16;stroke-linejoin:round;stroke:#fff"/><path d="m333.598 73.026 226.772 68.032" style="fill:none;stroke-width:.969624;stroke:#fff;stroke-dasharray:2.1,7.2"/><path style="fill:#7f7fff" d="m390.291 126.884 9.446-7.883 2.854 8.155zM503.677 87.2l-9.446 7.882-2.855-8.154z"/><path d="m395.728 124.982 102.512-35.88" style="fill:none;stroke-width:2.16;stroke:#7f7fff"/></svg>