<svg xmlns="http://www.w3.org/2000/svg" class="pikchr" viewBox="0 0 480.514 258.202"><path style="fill:#fff" d="m174.506 71.456-11.52 4.32v-8.64z"/><path d="M30.506 71.456h138.24" style="fill:none;stroke-width:2.16;stroke:#fff"/><text x="102.506" y="59.756" text-anchor="middle" fill="#FFF" dominant-baseline="central">Markdown</text><text x="102.506" y="83.156" text-anchor="middle" fill="#FFF" dominant-baseline="central">Source</text><path d="M189.506 106.736h97.181a15 15 0 0 0 15-15v-40.56a15 15 0 0 0-15-15h-97.181a15 15 0 0 0-15 15v40.56a15 15 0 0 0 15 15Z" style="fill:none;stroke-width:2.16;stroke:#fff"/><text x="238.097" y="51.296" text-anchor="middle" fill="#FFF" dominant-baseline="central">Markdown</text><text x="238.097" y="71.456" text-anchor="middle" fill="#FFF" dominant-baseline="central">Formatter</text><text x="238.097" y="91.616" text-anchor="middle" fill="#FFF" dominant-baseline="central">(markdown.c)</text><path style="fill:#fff" d="m445.687 71.456-11.52 4.32v-8.64z"/><path d="M301.687 71.456h138.24" style="fill:none;stroke-width:2.16;stroke:#fff"/><text x="373.687" y="59.756" text-anchor="middle" fill="#FFF" dominant-baseline="central">HTML+SVG</text><text x="373.687" y="83.156" text-anchor="middle" fill="#FFF" dominant-baseline="central">Output</text><path style="fill:#fff" d="m238.097 106.736 4.32 11.52h-8.64zM238.097 157.136l-4.32-11.52h8.64z"/><path d="M238.097 112.496v38.88M204.482 227.696h67.229a15 15 0 0 0 15-15v-40.56a15 15 0 0 0-15-15h-67.229a15 15 0 0 0-15 15v40.56a15 15 0 0 0 15 15Z" style="fill:none;stroke-width:2.16;stroke:#fff"/><text x="238.097" y="172.256" text-anchor="middle" fill="#FFF" dominant-baseline="central">Pikchr</text><text x="238.097" y="192.416" text-anchor="middle" fill="#FFF" dominant-baseline="central">Formatter</text><text x="238.097" y="212.576" text-anchor="middle" fill="#FFF" dominant-baseline="central">(pikchr.c)</text></svg>