<svg xmlns="http://www.w3.org/2000/svg" class="pikchr" viewBox="0 0 457.863 401.17"><path d="m118 282 227-170v170Z" style="fill:#7f3f7f;stroke-width:.969624;stroke-linejoin:round;stroke:#fff;stroke-dasharray:7.2,7.2"/><text x="232" y="184" text-anchor="middle" fill="#FFF" font-size="125%" transform="rotate(-36.87 232 197)" dominant-baseline="central">☕☕</text><text x="345" y="197" fill="#FFF" font-size="125%" dominant-baseline="central"> ✍</text><text x="232" y="294" text-anchor="middle" fill="#FFF" font-size="125%" dominant-baseline="central">🍕</text><circle cx="118" cy="282" r="2.16" style="fill:#ff7f7f;stroke-width:2.16;stroke:#ff7f7f"/><circle cx="345" cy="112" r="2.16" style="fill:#7f7fff;stroke-width:2.16;stroke:#7f7fff"/><circle cx="345" cy="282" r="2.16" style="fill:#7fff7f;stroke-width:2.16;stroke:#7fff7f"/><path d="M70 342h317a11 11 0 0 0 12-12V70a11 11 0 0 0-12-12H70a11 11 0 0 0-12 12v260a11 11 0 0 0 12 12Z" style="fill:none;stroke-width:1.4472;stroke:#ff7f7f"/><text x="164" y="92" text-anchor="middle" fill="#FFF" dominant-baseline="central">🔵🔴🟠🟡🟢🟣🟤</text><text x="164" y="112" text-anchor="middle" fill="#FFF" dominant-baseline="central">🟦🟥🟧🟨🟩🟪🟫</text><text x="164" y="132" text-anchor="middle" fill="#FFF" dominant-baseline="central">🛑🔶🔷🔸🔹🔺🔻</text></svg>