<svg xmlns='http://www.w3.org/2000/svg' class="pikchr" viewBox="0 0 609.12 609.12">
<path d="M304,304L304,16"  style="fill:none;stroke-width:2.16;stroke:rgb(255,127,255);" />
<path d="M304,304L592,304"  style="fill:none;stroke-width:2.16;stroke:rgb(255,127,255);" />
<path d="M592,304Q592,16 304,16"  style="fill:none;stroke-width:2.16;stroke:rgb(255,127,127);" />
<path d="M304,16Q16,16 16,304"  style="fill:none;stroke-width:2.16;stroke:rgb(127,255,127);" />
<path d="M16,304Q16,592 304,592"  style="fill:none;stroke-width:2.16;stroke:rgb(255,209,127);" />
<path d="M304,592Q592,592 592,304"  style="fill:none;stroke-width:2.16;stroke:rgb(127,127,255);" />
<path d="M304,174 L 324,178 Q 344,181 362,190 Q 380,199 395,214 Q 409,228 418,246 Q 427,264 430,284 L 434,304"  style="fill:none;stroke-width:2.16;stroke:rgb(255,127,127);" />
<path d="M304,189 L 322,192 Q 340,194 356,203 Q 372,211 385,224 Q 397,236 405,252 Q 414,268 416,286 L 419,304"  style="fill:none;stroke-width:2.16;stroke:rgb(255,255,255);" />
<polygon points="405,304 399,293 407,292" style="fill:rgb(127,255,127)"/>
<path d="M304,203 L 320,206 Q 335,208 349,215 Q 363,223 374,234 Q 386,245 393,259 Q 400,273 402,286 L 404,298"  style="fill:none;stroke-width:2.16;stroke:rgb(127,255,127);stroke-dasharray:7.2,7.2;" />
<polygon points="365,243 372,247 368,251" style="fill:rgb(255,255,255)"/>
<polygon points="390,304 387,297 393,296" style="fill:rgb(255,255,255)"/>
<path d="M368,246 L 371,250 Q 374,253 378,259 Q 381,265 384,271 Q 386,277 388,284 Q 389,291 390,295 L 390,300"  style="fill:none;stroke-width:1.4472;stroke:rgb(255,255,255);" />
<path d="M412,117 L 422,123 Q 431,129 440,136 Q 449,144 457,152 Q 465,160 472,168 Q 479,177 485,187 L 491,196"  style="fill:none;stroke-width:2.16;stroke:rgb(255,255,255);" />
<path d="M304,23 L 347,30 Q 391,37 430,57 Q 469,77 500,108 Q 531,139 551,178 Q 571,217 578,261 L 585,304"  style="fill:none;stroke-width:2.16;stroke:rgb(255,127,127);stroke-dasharray:2.16,7.2;" />
<path d="M585,304 L 578,347 Q 571,391 551,430 Q 531,469 500,500 Q 469,531 430,551 Q 391,571 347,578 L 304,585"  style="fill:none;stroke-width:2.16;stroke:rgb(127,127,255);stroke-dasharray:2.16,7.2;" />
<path d="M304,585 L 261,578 Q 217,571 178,551 Q 139,531 108,500 Q 77,469 57,430 Q 37,391 30,347 L 23,304"  style="fill:none;stroke-width:2.16;stroke:rgb(255,209,127);stroke-dasharray:2.16,7.2;" />
<path d="M23,304 L 30,261 Q 37,217 57,178 Q 77,139 108,108 Q 139,77 178,57 Q 217,37 261,30 L 304,23"  style="fill:none;stroke-width:2.16;stroke:rgb(127,255,127);stroke-dasharray:2.16,7.2;" />
</svg>

