<svg xmlns="http://www.w3.org/2000/svg" class="pikchr" viewBox="0 0 1160.64 296.64"><path d="M2 290h36M38 290q36 0 36-36M74 254v-72M74 182q0-36 36-36M110 146h72M182 146q36 0 36 36M218 182v72M218 254q0 36 36 36M254 290h36" style="fill:none;stroke-width:2.16;stroke:#7f7fff"/><path d="M290 290h36M326 290q36 0 36-36M362 254v-72M362 182q0-36 36-36M398 146h72M470 146q36 0 36 36M506 182v72M506 254q0 36 36 36M542 290h36" style="fill:none;stroke-width:2.16;stroke:#7fff7f"/><path d="M578 290h36M614 290q36 0 36-36M650 254v-72M650 182q0-36 36-36M686 146h72M758 146q36 0 36 36M794 182v72M794 254q0 36 36 36M830 290h36" style="fill:none;stroke-width:2.16;stroke:#ff7f7f"/><path d="M866 290h36M902 290q36 0 36-36M938 254v-72M938 182q0-36 36-36M974 146h72M1046 146q36 0 36 36M1082 182v72M1082 254q0 36 36 36M1118 290h36" style="fill:none;stroke-width:2.16;stroke:#ffd17f"/><path style="fill:#ff7fff" d="m1154 290-13 1 3-8z"/><path d="m2 290 288-72q288-72 573-1l285 71" style="fill:none;stroke-width:2.16;stroke:#ff7fff"/><path style="fill:#ff7fff" d="M1154 290h-13l3-8z"/><path d="m2 290 288-108q288-108 573-1l285 107" style="fill:none;stroke-width:2.16;stroke:#ff7fff"/><path style="fill:#ff7fff" d="m1154 290-13-2 4-7z"/><path d="m2 290 288-144q288-144 573-2l286 143" style="fill:none;stroke-width:2.16;stroke:#ff7fff"/></svg>