<svg xmlns='http://www.w3.org/2000/svg' class="pikchr" viewBox="0 0 621.023 328.105">
<path d="M58,249L115,249L115,79L58,79Z"  style="fill:none;stroke-width:2.16;stroke:rgb(255,255,255);" />
<polygon points="187,79 176,83 176,74" style="fill:rgb(255,127,127)"/>
<path d="M115,79L181,79"  style="fill:none;stroke-width:2.16;stroke:rgb(255,127,127);" />
<text x="151" y="70" text-anchor="middle" fill="rgb(255,127,127)" font-size="64%" dominant-baseline="central">0</text>
<polygon points="187,135 176,140 176,131" style="fill:rgb(255,209,127)"/>
<path d="M115,135L181,135"  style="fill:none;stroke-width:2.16;stroke:rgb(255,209,127);" />
<text x="151" y="127" text-anchor="middle" fill="rgb(255,209,127)" font-size="64%" dominant-baseline="central">1/3</text>
<polygon points="187,192 176,196 176,188" style="fill:rgb(127,127,255)"/>
<path d="M115,192L181,192"  style="fill:none;stroke-width:2.16;stroke:rgb(127,127,255);" />
<text x="151" y="184" text-anchor="middle" fill="rgb(127,127,255)" font-size="64%" dominant-baseline="central">2/3</text>
<polygon points="187,249 176,253 176,244" style="fill:rgb(127,255,127)"/>
<path d="M115,249L181,249"  style="fill:none;stroke-width:2.16;stroke:rgb(127,255,127);" />
<text x="151" y="241" text-anchor="middle" fill="rgb(127,255,127)" font-size="64%" dominant-baseline="central">1</text>
<circle cx="257" cy="249" r="2.16" style="fill:rgb(255,255,255);stroke-width:2.16;stroke:rgb(255,255,255);" />
<text x="257" y="259" text-anchor="end" fill="rgb(255,255,255)" dominant-baseline="central">P1</text>
<circle cx="313" cy="79" r="2.16" style="fill:rgb(255,255,255);stroke-width:2.16;stroke:rgb(255,255,255);" />
<text x="313" y="68" text-anchor="end" fill="rgb(255,255,255)" dominant-baseline="central">P2</text>
<circle cx="540" cy="249" r="2.16" style="fill:rgb(255,255,255);stroke-width:2.16;stroke:rgb(255,255,255);" />
<text x="540" y="259" text-anchor="start" fill="rgb(255,255,255)" dominant-baseline="central">P3</text>
<circle cx="342" cy="79" r="2.16" style="fill:rgb(255,255,255);stroke-width:2.16;stroke:rgb(255,255,255);" />
<text x="342" y="68" text-anchor="start" fill="rgb(255,255,255)" dominant-baseline="central">P4</text>
<path d="M257,249L313,79"  style="fill:none;stroke-width:2.16;stroke:rgb(255,255,255);" />
<path d="M540,249L342,79"  style="fill:none;stroke-width:2.16;stroke:rgb(255,255,255);" />
<polygon points="474,192 463,196 463,188" style="fill:rgb(127,127,255)"/>
<path d="M276,192L468,192"  style="fill:none;stroke-width:2.16;stroke:rgb(127,127,255);" />
<polygon points="408,135 396,140 396,131" style="fill:rgb(255,209,127)"/>
<path d="M295,135L402,135"  style="fill:none;stroke-width:2.16;stroke:rgb(255,209,127);" />
</svg>

