<svg xmlns="http://www.w3.org/2000/svg" class="pikchr" viewBox="0 0 2913.12 1547.28"><path d="M30 789h692a28 28 0 0 0 28-29V371a28 28 0 0 0-28-29H30a28 28 0 0 0-28 29v389a28 28 0 0 0 28 29Z" style="fill:#070706"/><path d="M254 637h86a28 28 0 0 0 29-28v-87a28 28 0 0 0-29-29h-86a28 28 0 0 0-29 29v87a28 28 0 0 0 29 28Z" style="fill:#7f7f7e"/><path d="M271 619a23 23 0 0 0 24-23v-61a23 23 0 0 0-24-24 23 23 0 0 0-24 24v61a23 23 0 0 0 24 23Z" style="fill:#292929"/><path d="M265 539h29v-28h-29Z" style="fill:#292929"/><text x="297" y="449" text-anchor="middle" fill="#A8A7A6" font-size="300%" dominant-baseline="central">VPN Client</text><text x="297" y="729" text-anchor="middle" fill="#FCFCFC" font-size="300%" dominant-baseline="central">Workstation</text><path d="M30 1545h533a28 28 0 0 0 29-29v-389a28 28 0 0 0-29-29H30a28 28 0 0 0-28 29v389a28 28 0 0 0 28 29ZM676 1545h57a28 28 0 0 0 29-29v-389a28 28 0 0 0-29-29h-57a28 28 0 0 0-29 29v389a28 28 0 0 0 29 29Z" style="fill:#070706"/><path d="M254 1393h86a28 28 0 0 0 29-28v-87a28 28 0 0 0-29-29h-86a28 28 0 0 0-29 29v87a28 28 0 0 0 29 28Z" style="fill:#7f7f7e"/><path d="M271 1375a23 23 0 0 0 24-23v-61a23 23 0 0 0-24-24 23 23 0 0 0-24 24v61a23 23 0 0 0 24 23Z" style="fill:#292929"/><path d="M265 1296h29v-29h-29Z" style="fill:#292929"/><text x="297" y="1205" text-anchor="middle" fill="#A8A7A6" font-size="300%" dominant-baseline="central">VPN Client</text><text x="297" y="1485" text-anchor="middle" fill="#FCFCFC" font-size="300%" dominant-baseline="central">Workstation</text><path d="M1089 1275h806a28 28 0 0 0 29-29V547a28 28 0 0 0-29-28h-806a28 28 0 0 0-29 28v699a28 28 0 0 0 29 29Z" style="fill:#070706"/><path d="M1449 983h86a28 28 0 0 0 29-29v-86a28 28 0 0 0-29-29h-86a28 28 0 0 0-29 29v86a28 28 0 0 0 29 29Z" style="fill:#7f7f7e"/><path d="M1466 965a23 23 0 0 0 24-24v-60a23 23 0 0 0-24-24 23 23 0 0 0-24 24v60a23 23 0 0 0 24 24Z" style="fill:#292929"/><path d="M1460 885h29v-29h-29Z" style="fill:#292929"/><text x="1492" y="794" text-anchor="middle" fill="#A8A7A6" font-size="300%" dominant-baseline="central">VPN Hub</text><text x="1492" y="1187" text-anchor="middle" fill="#FCFCFC" font-size="300%" dominant-baseline="central">Server</text><path d="M2349 1134h533a28 28 0 0 0 28-29V717a28 28 0 0 0-28-29h-533a28 28 0 0 0-29 29v388a28 28 0 0 0 29 29ZM2179 1134h58a28 28 0 0 0 28-29V717a28 28 0 0 0-28-29h-58a28 28 0 0 0-29 29v388a28 28 0 0 0 29 29Z" style="fill:#070706"/><path d="M2572 983h86a28 28 0 0 0 29-29v-86a28 28 0 0 0-29-29h-86a28 28 0 0 0-29 29v86a28 28 0 0 0 29 29Z" style="fill:#7f7f7e"/><path d="M2589 965a23 23 0 0 0 24-24v-60a23 23 0 0 0-24-24 23 23 0 0 0-23 24v60a23 23 0 0 0 23 24Z" style="fill:#292929"/><path d="M2584 885h28v-29h-28Z" style="fill:#292929"/><text x="2615" y="794" text-anchor="middle" fill="#A8A7A6" font-size="300%" dominant-baseline="central">VPN Client</text><text x="2615" y="1074" text-anchor="middle" fill="#FCFCFC" font-size="300%" dominant-baseline="central">EC2 VM</text><path d="M703 789h109V342H703Z" style="fill:#495c7f"/><path d="m703 516 109 26v46l-109 26Z" style="fill:#1f3151"/><text x="758" y="270" text-anchor="middle" font-weight="bold" fill="#7FACFF" font-size="300%" dominant-baseline="central">Windows Firewall</text><circle cx="758" cy="182" r="36" style="fill:none;stroke-width:7.2;stroke:#7fb3ff"/><path d="M742 182h32l-16-16 16 16-16 16 16-16" style="fill:none;stroke-width:7.2;stroke-linejoin:round;stroke:#7facff"/><path d="M703 1545h109v-447H703Z" style="fill:#495c7f"/><path d="m703 1272 109 26v46l-109 26Z" style="fill:#1f3151"/><text x="758" y="1026" text-anchor="middle" font-weight="bold" fill="#7FACFF" font-size="300%" dominant-baseline="central">Office Firewall</text><circle cx="758" cy="938" r="36" style="fill:none;stroke-width:7.2;stroke:#7fb3ff"/><path d="M742 938h32l-16-16 16 16-16 16 16-16" style="fill:none;stroke-width:7.2;stroke-linejoin:round;stroke:#7facff"/><path d="M2100 1134h109V688h-109Z" style="fill:#495c7f"/><path d="m2209 862-109 26v46l109 26Z" style="fill:#1f3151"/><text x="2154" y="555" text-anchor="middle" font-weight="bold" fill="#7FACFF" font-size="300%" dominant-baseline="central">AWS</text><text x="2154" y="616" text-anchor="middle" font-weight="bold" fill="#7FACFF" font-size="300%" dominant-baseline="central">Security Group</text><circle cx="2154" cy="467" r="36" style="fill:none;stroke-width:7.2;stroke:#7fb3ff"/><path d="M2170 467h-31l15 16-15-16 15-16-15 16" style="fill:none;stroke-width:7.2;stroke-linejoin:round;stroke:#7facff"/><circle cx="369" cy="565" r="7.2" style="fill:#ff9d7f;stroke-width:2.16;stroke:#ff9d7f"/><circle cx="369" cy="1321" r="7.2" style="fill:#ff9d7f;stroke-width:2.16;stroke:#ff9d7f"/><circle cx="2543" cy="911" r="7.2" style="fill:#ff9d7f;stroke-width:2.16;stroke:#ff9d7f"/><path d="M369 565h432q144 0 248 100l123 118q104 99 174 99h70" style="fill:none;stroke-width:5.76;stroke:#ff9d7f"/><path d="m1416 882-22-21 22 21-22 22 22-22" style="fill:none;stroke-width:5.76;stroke-linejoin:round;stroke:#ff9d7f"/><path d="M369 1321h432q144 0 238-108l143-164q94-109 164-109h70" style="fill:none;stroke-width:5.76;stroke:#ff9d7f"/><path d="m1416 940-22-22 22 22-22 21 22-21" style="fill:none;stroke-width:5.76;stroke-linejoin:round;stroke:#ff9d7f"/><path d="M2543 911h-975" style="fill:none;stroke-width:5.76;stroke:#ff9d7f"/><path d="m1568 911 22-22-22 22 22 22-22-22" style="fill:none;stroke-width:5.76;stroke-linejoin:round;stroke:#ff9d7f"/></svg>