<svg xmlns="http://www.w3.org/2000/svg" class="pikchr" viewBox="0 0 709.472 344.477"><circle cx="61" cy="172" r="2.16" style="fill:#7f7fff;stroke-width:2.16;stroke:#7f7fff"/><path d="M72 285h147a11 11 0 0 0 12-11V70a11 11 0 0 0-12-12H72a11 11 0 0 0-11 12v204a11 11 0 0 0 11 11Z" style="fill:none;stroke-width:2.16;stroke:#ff7f7f"/><path d="M75 277h141a5 5 0 0 0 6-6V73a5 5 0 0 0-6-6H75a5 5 0 0 0-6 6v198a5 5 0 0 0 6 6Z" style="fill:none;stroke-width:2.16;stroke:#fff"/><text x="146" y="172" text-anchor="middle" fill="#FFF" dominant-baseline="central">text1</text><path d="M78 268h136V75H78Z" style="fill:none;stroke-width:2.16;stroke:#fff"/><circle cx="270" cy="172" r="2.16" style="fill:#7f7fff;stroke-width:2.16;stroke:#7f7fff"/><path d="M282 200h90a11 11 0 0 0 12-11v-34a11 11 0 0 0-12-12h-90a11 11 0 0 0-12 12v34a11 11 0 0 0 12 11Z" style="fill:none;stroke-width:2.16;stroke:#7f7fff"/><path d="M284 192h85a5 5 0 0 0 6-6v-28a5 5 0 0 0-6-6h-85a5 5 0 0 0-5 6v28a5 5 0 0 0 5 6Z" style="fill:none;stroke-width:2.16;stroke:#fff"/><text x="327" y="172" text-anchor="middle" fill="#FFF" dominant-baseline="central">text2</text><path d="M287 183h80v-23h-80Z" style="fill:none;stroke-width:2.16;stroke:#fff"/><circle cx="423" cy="172" r="2.16" style="fill:#7f7fff;stroke-width:2.16;stroke:#7f7fff"/><path d="M435 285h204a11 11 0 0 0 11-11V70a11 11 0 0 0-11-12H435a11 11 0 0 0-12 12v204a11 11 0 0 0 12 11Z" style="fill:none;stroke-width:2.16;stroke:#ffff7f"/><path d="M438 277h198a5 5 0 0 0 6-6V73a5 5 0 0 0-6-6H438a5 5 0 0 0-6 6v198a5 5 0 0 0 6 6Z" style="fill:none;stroke-width:2.16;stroke:#fff"/><text x="537" y="172" text-anchor="middle" fill="#FFF" dominant-baseline="central">text3</text><path d="M440 268h193V75H440Z" style="fill:none;stroke-width:2.16;stroke:#fff"/></svg>