<svg xmlns="http://www.w3.org/2000/svg" class="pikchr" viewBox="0 0 514.556 225.422"><path d="M143.892 24.837h226.772V2.16H143.892Z" style="fill:none;stroke-width:2.16;stroke:#fff"/><text x="257.278" y="13.499" text-anchor="middle" fill="#FFF" dominant-baseline="central">1</text><path d="M30.506 155.231h113.386v-34.016H30.507Z" style="fill:none;stroke-width:2.16;stroke:#7fff7f"/><text x="87.199" y="138.223" text-anchor="middle" fill="#7FFF7F" dominant-baseline="central">2</text><path style="fill:#fff" d="m200.585 138.223-11.52 4.32v-8.64z"/><path d="M143.892 138.223h50.933" style="fill:none;stroke-width:2.16;stroke:#fff"/><text x="172.239" y="126.523" text-anchor="middle" fill="#FFF" dominant-baseline="central">3</text><path d="M200.585 166.569h226.772v-56.692H200.585Z" style="fill:none;stroke-width:2.16;stroke:#7f7fff"/><text x="313.971" y="138.223" text-anchor="middle" fill="#7F7FFF" dominant-baseline="central">4</text><path style="fill:#fff" d="m484.05 194.916-11.201-5.091 6.11-6.11z"/><path d="m427.357 138.223 52.62 52.62" style="fill:none;stroke-width:2.16;stroke:#fff"/><text x="455.703" y="154.869" text-anchor="middle" fill="#FFF" dominant-baseline="central">5</text><circle cx="30.506" cy="152.396" r="2.16" style="fill:#ff7f7f;stroke-width:2.16;stroke:#ff7f7f"/><text x="30.506" y="152.396" text-anchor="end" fill="#FF7F7F" dominant-baseline="central">w </text><circle cx="257.278" cy="152.396" r="2.16" style="fill:#ff7f7f;stroke-width:2.16;stroke:#ff7f7f"/><text x="257.278" y="162.476" text-anchor="middle" fill="#FF7F7F" dominant-baseline="central">c</text><circle cx="484.05" cy="152.396" r="2.16" style="fill:#ff7f7f;stroke-width:2.16;stroke:#ff7f7f"/><text x="484.05" y="152.396" fill="#FF7F7F" dominant-baseline="central"> e</text><circle cx="257.278" cy="109.877" r="2.16" style="fill:#ff7f7f;stroke-width:2.16;stroke:#ff7f7f"/><text x="257.278" y="99.796" text-anchor="middle" fill="#FF7F7F" dominant-baseline="central">n</text><circle cx="257.278" cy="194.916" r="2.16" style="fill:#ff7f7f;stroke-width:2.16;stroke:#ff7f7f"/><text x="257.278" y="204.996" text-anchor="middle" fill="#FF7F7F" dominant-baseline="central">s</text><circle cx="30.506" cy="194.916" r="2.16" style="fill:#ff7f7f;stroke-width:2.16;stroke:#ff7f7f"/><text x="30.506" y="204.996" text-anchor="middle" fill="#FF7F7F" dominant-baseline="central">sw</text><circle cx="30.506" cy="109.877" r="2.16" style="fill:#ff7f7f;stroke-width:2.16;stroke:#ff7f7f"/><text x="30.506" y="99.796" text-anchor="middle" fill="#FF7F7F" dominant-baseline="central">nw</text><circle cx="484.05" cy="194.916" r="2.16" style="fill:#ff7f7f;stroke-width:2.16;stroke:#ff7f7f"/><text x="484.05" y="204.996" text-anchor="middle" fill="#FF7F7F" dominant-baseline="central">se</text><circle cx="484.05" cy="109.877" r="2.16" style="fill:#ff7f7f;stroke-width:2.16;stroke:#ff7f7f"/><text x="484.05" y="99.796" text-anchor="middle" fill="#FF7F7F" dominant-baseline="central">ne</text><path d="M2.16 223.262h510.236V81.53H2.16Z" style="fill:none;stroke-width:.969624;stroke:#ffd17f;stroke-dasharray:2.1,7.2"/></svg>