<svg xmlns='http://www.w3.org/2000/svg' class="pikchr" viewBox="0 0 514.556 225.422">
<path d="M143,24L370,24L370,2L143,2Z"  style="fill:none;stroke-width:2.16;stroke:rgb(255,255,255);" />
<text x="257" y="13" text-anchor="middle" fill="rgb(255,255,255)" dominant-baseline="central">1</text>
<path d="M30,155L143,155L143,121L30,121Z"  style="fill:none;stroke-width:2.16;stroke:rgb(127,255,127);" />
<text x="87" y="138" text-anchor="middle" fill="rgb(127,255,127)" dominant-baseline="central">2</text>
<polygon points="200,138 189,142 189,133" style="fill:rgb(255,255,255)"/>
<path d="M143,138L194,138"  style="fill:none;stroke-width:2.16;stroke:rgb(255,255,255);" />
<text x="172" y="126" text-anchor="middle" fill="rgb(255,255,255)" dominant-baseline="central">3</text>
<path d="M200,166L427,166L427,109L200,109Z"  style="fill:none;stroke-width:2.16;stroke:rgb(127,127,255);" />
<text x="313" y="138" text-anchor="middle" fill="rgb(127,127,255)" dominant-baseline="central">4</text>
<polygon points="484,194 472,189 478,183" style="fill:rgb(255,255,255)"/>
<path d="M427,138L479,190"  style="fill:none;stroke-width:2.16;stroke:rgb(255,255,255);" />
<text x="455" y="154" text-anchor="middle" fill="rgb(255,255,255)" dominant-baseline="central">5</text>
<circle cx="30" cy="152" r="2.16" style="fill:rgb(255,127,127);stroke-width:2.16;stroke:rgb(255,127,127);" />
<text x="30" y="152" text-anchor="end" fill="rgb(255,127,127)" dominant-baseline="central">w </text>
<circle cx="257" cy="152" r="2.16" style="fill:rgb(255,127,127);stroke-width:2.16;stroke:rgb(255,127,127);" />
<text x="257" y="162" text-anchor="middle" fill="rgb(255,127,127)" dominant-baseline="central">c</text>
<circle cx="484" cy="152" r="2.16" style="fill:rgb(255,127,127);stroke-width:2.16;stroke:rgb(255,127,127);" />
<text x="484" y="152" text-anchor="start" fill="rgb(255,127,127)" dominant-baseline="central"> e</text>
<circle cx="257" cy="109" r="2.16" style="fill:rgb(255,127,127);stroke-width:2.16;stroke:rgb(255,127,127);" />
<text x="257" y="99" text-anchor="middle" fill="rgb(255,127,127)" dominant-baseline="central">n</text>
<circle cx="257" cy="194" r="2.16" style="fill:rgb(255,127,127);stroke-width:2.16;stroke:rgb(255,127,127);" />
<text x="257" y="204" text-anchor="middle" fill="rgb(255,127,127)" dominant-baseline="central">s</text>
<circle cx="30" cy="194" r="2.16" style="fill:rgb(255,127,127);stroke-width:2.16;stroke:rgb(255,127,127);" />
<text x="30" y="204" text-anchor="middle" fill="rgb(255,127,127)" dominant-baseline="central">sw</text>
<circle cx="30" cy="109" r="2.16" style="fill:rgb(255,127,127);stroke-width:2.16;stroke:rgb(255,127,127);" />
<text x="30" y="99" text-anchor="middle" fill="rgb(255,127,127)" dominant-baseline="central">nw</text>
<circle cx="484" cy="194" r="2.16" style="fill:rgb(255,127,127);stroke-width:2.16;stroke:rgb(255,127,127);" />
<text x="484" y="204" text-anchor="middle" fill="rgb(255,127,127)" dominant-baseline="central">se</text>
<circle cx="484" cy="109" r="2.16" style="fill:rgb(255,127,127);stroke-width:2.16;stroke:rgb(255,127,127);" />
<text x="484" y="99" text-anchor="middle" fill="rgb(255,127,127)" dominant-baseline="central">ne</text>
<path d="M2,223L512,223L512,81L2,81Z"  style="fill:none;stroke-width:0.969624;stroke:rgb(255,209,127);stroke-dasharray:2.1,7.2;" />
</svg>

