<svg xmlns='http://www.w3.org/2000/svg' class="pikchr" viewBox="0 0 2913.12 1547.28">
<path d="M30,789L722,789A28 28 0 0 0 750 760L750,371A28 28 0 0 0 722 342L30,342A28 28 0 0 0 2 371L2,760A28 28 0 0 0 30 789Z"  style="fill:rgb(7,7,6);" />
<path d="M254,637L340,637A28 28 0 0 0 369 609L369,522A28 28 0 0 0 340 493L254,493A28 28 0 0 0 225 522L225,609A28 28 0 0 0 254 637Z"  style="fill:rgb(127,127,126);" />
<path d="M271,619A23 23 0 0 0 295 596L295,535A23 23 0 0 0 271 511A23 23 0 0 0 247 535L247,596A23 23 0 0 0 271 619Z"  style="fill:rgb(41,41,41);" />
<path d="M265,539L294,539L294,511L265,511Z"  style="fill:rgb(41,41,41);" />
<text x="297" y="449" text-anchor="middle" fill="rgb(168,167,166)" font-size="300%" dominant-baseline="central">VPN Client</text>
<text x="297" y="729" text-anchor="middle" fill="rgb(252,252,252)" font-size="300%" dominant-baseline="central">Workstation</text>
<path d="M30,1545L563,1545A28 28 0 0 0 592 1516L592,1127A28 28 0 0 0 563 1098L30,1098A28 28 0 0 0 2 1127L2,1516A28 28 0 0 0 30 1545Z"  style="fill:rgb(7,7,6);" />
<path d="M676,1545L733,1545A28 28 0 0 0 762 1516L762,1127A28 28 0 0 0 733 1098L676,1098A28 28 0 0 0 647 1127L647,1516A28 28 0 0 0 676 1545Z"  style="fill:rgb(7,7,6);" />
<path d="M254,1393L340,1393A28 28 0 0 0 369 1365L369,1278A28 28 0 0 0 340 1249L254,1249A28 28 0 0 0 225 1278L225,1365A28 28 0 0 0 254 1393Z"  style="fill:rgb(127,127,126);" />
<path d="M271,1375A23 23 0 0 0 295 1352L295,1291A23 23 0 0 0 271 1267A23 23 0 0 0 247 1291L247,1352A23 23 0 0 0 271 1375Z"  style="fill:rgb(41,41,41);" />
<path d="M265,1296L294,1296L294,1267L265,1267Z"  style="fill:rgb(41,41,41);" />
<text x="297" y="1205" text-anchor="middle" fill="rgb(168,167,166)" font-size="300%" dominant-baseline="central">VPN Client</text>
<text x="297" y="1485" text-anchor="middle" fill="rgb(252,252,252)" font-size="300%" dominant-baseline="central">Workstation</text>
<path d="M1089,1275L1895,1275A28 28 0 0 0 1924 1246L1924,547A28 28 0 0 0 1895 519L1089,519A28 28 0 0 0 1060 547L1060,1246A28 28 0 0 0 1089 1275Z"  style="fill:rgb(7,7,6);" />
<path d="M1449,983L1535,983A28 28 0 0 0 1564 954L1564,868A28 28 0 0 0 1535 839L1449,839A28 28 0 0 0 1420 868L1420,954A28 28 0 0 0 1449 983Z"  style="fill:rgb(127,127,126);" />
<path d="M1466,965A23 23 0 0 0 1490 941L1490,881A23 23 0 0 0 1466 857A23 23 0 0 0 1442 881L1442,941A23 23 0 0 0 1466 965Z"  style="fill:rgb(41,41,41);" />
<path d="M1460,885L1489,885L1489,856L1460,856Z"  style="fill:rgb(41,41,41);" />
<text x="1492" y="794" text-anchor="middle" fill="rgb(168,167,166)" font-size="300%" dominant-baseline="central">VPN Hub</text>
<text x="1492" y="1187" text-anchor="middle" fill="rgb(252,252,252)" font-size="300%" dominant-baseline="central">Server</text>
<path d="M2349,1134L2882,1134A28 28 0 0 0 2910 1105L2910,717A28 28 0 0 0 2882 688L2349,688A28 28 0 0 0 2320 717L2320,1105A28 28 0 0 0 2349 1134Z"  style="fill:rgb(7,7,6);" />
<path d="M2179,1134L2237,1134A28 28 0 0 0 2265 1105L2265,717A28 28 0 0 0 2237 688L2179,688A28 28 0 0 0 2150 717L2150,1105A28 28 0 0 0 2179 1134Z"  style="fill:rgb(7,7,6);" />
<path d="M2572,983L2658,983A28 28 0 0 0 2687 954L2687,868A28 28 0 0 0 2658 839L2572,839A28 28 0 0 0 2543 868L2543,954A28 28 0 0 0 2572 983Z"  style="fill:rgb(127,127,126);" />
<path d="M2589,965A23 23 0 0 0 2613 941L2613,881A23 23 0 0 0 2589 857A23 23 0 0 0 2566 881L2566,941A23 23 0 0 0 2589 965Z"  style="fill:rgb(41,41,41);" />
<path d="M2584,885L2612,885L2612,856L2584,856Z"  style="fill:rgb(41,41,41);" />
<text x="2615" y="794" text-anchor="middle" fill="rgb(168,167,166)" font-size="300%" dominant-baseline="central">VPN Client</text>
<text x="2615" y="1074" text-anchor="middle" fill="rgb(252,252,252)" font-size="300%" dominant-baseline="central">EC2 VM</text>
<path d="M703,789L812,789L812,342L703,342Z"  style="fill:rgb(73,92,127);" />
<path d="M703,516L812,542L812,588L703,614Z"  style="fill:rgb(31,49,81);" />
<text x="758" y="270" text-anchor="middle" font-weight="bold" fill="rgb(127,172,255)" font-size="300%" dominant-baseline="central">Windows Firewall</text>
<circle cx="758" cy="182" r="36"  style="fill:none;stroke-width:7.2;stroke:rgb(127,179,255);" />
<path d="M742,182L774,182L758,166L774,182L758,198L774,182"  style="fill:none;stroke-width:7.2;stroke-linejoin:round;stroke:rgb(127,172,255);" />
<path d="M703,1545L812,1545L812,1098L703,1098Z"  style="fill:rgb(73,92,127);" />
<path d="M703,1272L812,1298L812,1344L703,1370Z"  style="fill:rgb(31,49,81);" />
<text x="758" y="1026" text-anchor="middle" font-weight="bold" fill="rgb(127,172,255)" font-size="300%" dominant-baseline="central">Office Firewall</text>
<circle cx="758" cy="938" r="36"  style="fill:none;stroke-width:7.2;stroke:rgb(127,179,255);" />
<path d="M742,938L774,938L758,922L774,938L758,954L774,938"  style="fill:none;stroke-width:7.2;stroke-linejoin:round;stroke:rgb(127,172,255);" />
<path d="M2100,1134L2209,1134L2209,688L2100,688Z"  style="fill:rgb(73,92,127);" />
<path d="M2209,862L2100,888L2100,934L2209,960Z"  style="fill:rgb(31,49,81);" />
<text x="2154" y="555" text-anchor="middle" font-weight="bold" fill="rgb(127,172,255)" font-size="300%" dominant-baseline="central">AWS</text>
<text x="2154" y="616" text-anchor="middle" font-weight="bold" fill="rgb(127,172,255)" font-size="300%" dominant-baseline="central">Security Group</text>
<text x="2154" y="676" text-anchor="middle" font-weight="bold" fill="rgb(127,172,255)" font-size="300%" dominant-baseline="central"></text>
<circle cx="2154" cy="467" r="36"  style="fill:none;stroke-width:7.2;stroke:rgb(127,179,255);" />
<path d="M2170,467L2139,467L2154,483L2139,467L2154,451L2139,467"  style="fill:none;stroke-width:7.2;stroke-linejoin:round;stroke:rgb(127,172,255);" />
<circle cx="369" cy="565" r="7.2" style="fill:rgb(255,157,127);stroke-width:2.16;stroke:rgb(255,157,127);" />
<circle cx="369" cy="1321" r="7.2" style="fill:rgb(255,157,127);stroke-width:2.16;stroke:rgb(255,157,127);" />
<circle cx="2543" cy="911" r="7.2" style="fill:rgb(255,157,127);stroke-width:2.16;stroke:rgb(255,157,127);" />
<path d="M369,565 L 801,565 Q 945,565 1049,665 L 1172,783 Q 1276,882 1346,882 L 1416,882"  style="fill:none;stroke-width:5.76;stroke:rgb(255,157,127);" />
<path d="M1416,882L1394,861L1416,882L1394,904L1416,882"  style="fill:none;stroke-width:5.76;stroke-linejoin:round;stroke:rgb(255,157,127);" />
<path d="M369,1321 L 801,1321 Q 945,1321 1039,1213 L 1182,1049 Q 1276,940 1346,940 L 1416,940"  style="fill:none;stroke-width:5.76;stroke:rgb(255,157,127);" />
<path d="M1416,940L1394,918L1416,940L1394,961L1416,940"  style="fill:none;stroke-width:5.76;stroke-linejoin:round;stroke:rgb(255,157,127);" />
<path d="M2543,911L1568,911"  style="fill:none;stroke-width:5.76;stroke:rgb(255,157,127);" />
<path d="M1568,911L1590,889L1568,911L1590,933L1568,911"  style="fill:none;stroke-width:5.76;stroke-linejoin:round;stroke:rgb(255,157,127);" />
</svg>

