<svg xmlns="http://www.w3.org/2000/svg" class="pikchr" viewBox="0 0 609.12 609.12"><path d="M304 304V16M304 304h288" style="fill:none;stroke-width:2.16;stroke:#ff7fff"/><path d="M592 304q0-288-288-288" style="fill:none;stroke-width:2.16;stroke:#ff7f7f"/><path d="M304 16Q16 16 16 304" style="fill:none;stroke-width:2.16;stroke:#7fff7f"/><path d="M16 304q0 288 288 288" style="fill:none;stroke-width:2.16;stroke:#ffd17f"/><path d="M304 592q288 0 288-288" style="fill:none;stroke-width:2.16;stroke:#7f7fff"/><path d="m304 174 20 4q20 3 38 12t33 24q14 14 23 32t12 38l4 20" style="fill:none;stroke-width:2.16;stroke:#ff7f7f"/><path d="m304 189 18 3q18 2 34 11 16 8 29 21 12 12 20 28 9 16 11 34l3 18" style="fill:none;stroke-width:2.16;stroke:#fff"/><path style="fill:#7fff7f" d="m405 304-6-11 8-1z"/><path d="m304 203 16 3q15 2 29 9 14 8 25 19 12 11 19 25t9 27l2 12" style="fill:none;stroke-width:2.16;stroke:#7fff7f;stroke-dasharray:7.2,7.2"/><path style="fill:#fff" d="m365 243 7 4-4 4zM390 304l-3-7 6-1z"/><path d="m368 246 3 4q3 3 7 9l6 12q2 6 4 13 1 7 2 11v5" style="fill:none;stroke-width:1.4472;stroke:#fff"/><path d="m412 117 10 6q9 6 18 13 9 8 17 16t15 16q7 9 13 19l6 9" style="fill:none;stroke-width:2.16;stroke:#fff"/></svg>