<svg xmlns="http://www.w3.org/2000/svg" class="pikchr" viewBox="0 0 709.472 344.477"><circle cx="61.013" cy="172.239" r="2.16" style="fill:#7f7fff;stroke-width:2.16;stroke:#7f7fff"/><path d="M72.352 285.625h147.401a11.339 11.339 0 0 0 11.339-11.339V70.192a11.339 11.339 0 0 0-11.339-11.34H72.352a11.339 11.339 0 0 0-11.34 11.34v204.094a11.339 11.339 0 0 0 11.34 11.339Z" style="fill:none;stroke-width:2.16;stroke:#ff7f7f"/><path d="M75.186 277.121h141.732a5.67 5.67 0 0 0 5.67-5.67V73.026a5.67 5.67 0 0 0-5.67-5.67H75.186a5.67 5.67 0 0 0-5.67 5.67v198.425a5.67 5.67 0 0 0 5.67 5.67Z" style="fill:none;stroke-width:2.16;stroke:#fff"/><text x="146.052" y="172.239" text-anchor="middle" fill="#FFF" dominant-baseline="central">text1</text><path d="M78.02 268.617h136.064V75.861H78.021Z" style="fill:none;stroke-width:2.16;stroke:#fff"/><circle cx="270.777" cy="172.239" r="2.16" style="fill:#7f7fff;stroke-width:2.16;stroke:#7f7fff"/><path d="M282.115 200.585h90.709a11.339 11.339 0 0 0 11.339-11.338v-34.016a11.339 11.339 0 0 0-11.339-11.339h-90.709a11.339 11.339 0 0 0-11.338 11.339v34.016a11.339 11.339 0 0 0 11.338 11.338Z" style="fill:none;stroke-width:2.16;stroke:#7f7fff"/><path d="M284.95 192.081h85.039a5.67 5.67 0 0 0 5.67-5.669v-28.346a5.67 5.67 0 0 0-5.67-5.67H284.95a5.67 5.67 0 0 0-5.669 5.67v28.346a5.67 5.67 0 0 0 5.669 5.669Z" style="fill:none;stroke-width:2.16;stroke:#fff"/><text x="327.47" y="172.239" text-anchor="middle" fill="#FFF" dominant-baseline="central">text2</text><path d="M287.785 183.577h79.37V160.9h-79.37Z" style="fill:none;stroke-width:2.16;stroke:#fff"/><circle cx="423.848" cy="172.239" r="2.16" style="fill:#7f7fff;stroke-width:2.16;stroke:#7f7fff"/><path d="M435.186 285.625h204.095a11.339 11.339 0 0 0 11.338-11.339V70.192a11.339 11.339 0 0 0-11.338-11.34H435.186a11.339 11.339 0 0 0-11.338 11.34v204.094a11.339 11.339 0 0 0 11.338 11.339Z" style="fill:none;stroke-width:2.16;stroke:#ffff7f"/><path d="M438.021 277.121h198.425a5.67 5.67 0 0 0 5.669-5.67V73.026a5.67 5.67 0 0 0-5.669-5.67H438.021a5.67 5.67 0 0 0-5.67 5.67v198.425a5.67 5.67 0 0 0 5.67 5.67Z" style="fill:none;stroke-width:2.16;stroke:#fff"/><text x="537.233" y="172.239" text-anchor="middle" fill="#FFF" dominant-baseline="central">text3</text><path d="M440.855 268.617h192.756V75.861H440.855Z" style="fill:none;stroke-width:2.16;stroke:#fff"/></svg>