<svg xmlns="http://www.w3.org/2000/svg" class="pikchr" viewBox="0 0 1160.64 296.64"><path d="M2.16 290.16h36M38.16 290.16q36 0 36-36M74.16 254.16v-72M74.16 182.16q0-36 36-36M110.16 146.16h72M182.16 146.16q36 0 36 36M218.16 182.16v72M218.16 254.16q0 36 36 36M254.16 290.16h36" style="fill:none;stroke-width:2.16;stroke:#7f7fff"/><path d="M290.16 290.16h36M326.16 290.16q36 0 36-36M362.16 254.16v-72M362.16 182.16q0-36 36-36M398.16 146.16h72M470.16 146.16q36 0 36 36M506.16 182.16v72M506.16 254.16q0 36 36 36M542.16 290.16h36" style="fill:none;stroke-width:2.16;stroke:#7fff7f"/><path d="M578.16 290.16h36M614.16 290.16q36 0 36-36M650.16 254.16v-72M650.16 182.16q0-36 36-36M686.16 146.16h72M758.16 146.16q36 0 36 36M794.16 182.16v72M794.16 254.16q0 36 36 36M830.16 290.16h36" style="fill:none;stroke-width:2.16;stroke:#ff7f7f"/><path d="M866.16 290.16h36M902.16 290.16q36 0 36-36M938.16 254.16v-72M938.16 182.16q0-36 36-36M974.16 146.16h72M1046.16 146.16q36 0 36 36M1082.16 182.16v72M1082.16 254.16q0 36 36 36M1118.16 290.16h36" style="fill:none;stroke-width:2.16;stroke:#ffd17f"/><path style="fill:#ff7fff" d="m1154.16 290.16-12.22 1.397 2.09-8.382z"/><path d="m2.16 290.16 288-72q288-72 573.206-.699l285.204 71.302" style="fill:none;stroke-width:2.16;stroke:#ff7fff"/><path style="fill:#ff7fff" d="M1154.16 290.16h-12.3l3.03-8.09z"/><path d="m2.16 290.16 288-108q288-108 573.303-1.011l285.307 106.989" style="fill:none;stroke-width:2.16;stroke:#ff7fff"/><path style="fill:#ff7fff" d="m1154.16 290.16-12.24-1.288 3.87-7.728z"/><path d="m2.16 290.16 288-144q288-144 573.424-1.288l285.426 142.712" style="fill:none;stroke-width:2.16;stroke:#ff7fff"/></svg>