<svg xmlns="http://www.w3.org/2000/svg" class="pikchr" viewBox="0 0 609.12 609.12"><path d="M304.56 304.56v-288M304.56 304.56h288" style="fill:none;stroke-width:2.16;stroke:#ff7fff"/><path d="M592.56 304.56q0-288-288-288" style="fill:none;stroke-width:2.16;stroke:#ff7f7f"/><path d="M304.56 16.56q-288 0-288 288" style="fill:none;stroke-width:2.16;stroke:#7fff7f"/><path d="M16.56 304.56q0 288 288 288" style="fill:none;stroke-width:2.16;stroke:#ffd17f"/><path d="M304.56 592.56q288 0 288-288" style="fill:none;stroke-width:2.16;stroke:#7f7fff"/><path d="m304.56 174.96 20.024 3.172q20.025 3.171 38.089 12.375t32.4 23.54q14.336 14.336 23.54 32.4 9.204 18.064 12.375 38.089l3.172 20.024" style="fill:none;stroke-width:2.16;stroke:#ff7f7f"/><path d="m304.56 189.36 17.799 2.819q17.8 2.819 33.857 11.001 16.057 8.181 28.8 20.924 12.743 12.743 20.924 28.8 8.182 16.057 11.001 33.857l2.819 17.799" style="fill:none;stroke-width:2.16;stroke:#fff"/><path style="fill:#7fff7f" d="m405.36 304.56-6.069-10.702 8.534-1.352z"/><path d="m304.56 203.76 15.574 2.467q15.575 2.467 29.625 9.625 14.05 7.159 25.2 18.309 11.15 11.15 18.309 25.2 7.158 14.05 9.175 26.78l2.016 12.73" style="fill:none;stroke-width:2.16;stroke:#7fff7f;stroke-dasharray:7.2,7.2"/><path style="fill:#fff" d="m365.654 243.466 7.214 3.989-4.402 3.76zM390.96 304.56l-3.491-7.468 5.771-.454z"/><path d="m368.16 246.401 3.15 3.687q3.149 3.687 6.691 9.467 3.542 5.78 6.136 12.043 2.594 6.263 4.177 12.854 1.582 6.592 1.963 11.426l.38 4.835" style="fill:none;stroke-width:1.4472;stroke:#fff"/><path d="m412.56 117.499 9.481 6.156q9.481 6.157 18.266 13.272 8.785 7.114 16.779 15.107 7.993 7.994 15.107 16.779 7.115 8.785 13.272 18.266l6.156 9.481" style="fill:none;stroke-width:2.16;stroke:#fff"/></svg>