<svg xmlns="http://www.w3.org/2000/svg" class="pikchr" viewBox="0 0 457.863 401.17"><path d="m118.867 282.304 226.771-170.079v170.079Z" style="fill:#7f3f7f;stroke-width:.969624;stroke-linejoin:round;stroke:#fff;stroke-dasharray:7.2,7.2"/><text x="232.253" y="184.664" text-anchor="middle" fill="#FFF" font-size="125%" transform="rotate(-36.87 232.253 197.264)" dominant-baseline="central">☕☕</text><text x="345.638" y="197.264" fill="#FFF" font-size="125%" dominant-baseline="central"> ✍</text><text x="232.253" y="294.904" text-anchor="middle" fill="#FFF" font-size="125%" dominant-baseline="central">🍕</text><circle cx="118.867" cy="282.304" r="2.16" style="fill:#ff7f7f;stroke-width:2.16;stroke:#ff7f7f"/><circle cx="345.638" cy="112.225" r="2.16" style="fill:#7f7fff;stroke-width:2.16;stroke:#7f7fff"/><circle cx="345.638" cy="282.304" r="2.16" style="fill:#7fff7f;stroke-width:2.16;stroke:#7fff7f"/><path d="M70.192 342.317h317.48a11.339 11.339 0 0 0 11.338-11.338V70.192a11.339 11.339 0 0 0-11.338-11.34H70.192a11.339 11.339 0 0 0-11.34 11.34v260.787a11.339 11.339 0 0 0 11.34 11.338Z" style="fill:none;stroke-width:1.4472;stroke:#ff7f7f"/><text x="164.947" y="92.065" text-anchor="middle" fill="#FFF" dominant-baseline="central">🔵🔴🟠🟡🟢🟣🟤</text><text x="164.947" y="112.225" text-anchor="middle" fill="#FFF" dominant-baseline="central">🟦🟥🟧🟨🟩🟪🟫</text><text x="164.947" y="132.385" text-anchor="middle" fill="#FFF" dominant-baseline="central">🛑🔶🔷🔸🔹🔺🔻</text></svg>