<svg xmlns="http://www.w3.org/2000/svg" class="pikchr" viewBox="0 0 514.556 225.422"><path d="M143 24h227V2H143Z" style="fill:none;stroke-width:2.16;stroke:#fff"/><text x="257" y="13" text-anchor="middle" fill="#FFF" dominant-baseline="central">1</text><path d="M30 155h113v-34H30Z" style="fill:none;stroke-width:2.16;stroke:#7fff7f"/><text x="87" y="138" text-anchor="middle" fill="#7FFF7F" dominant-baseline="central">2</text><path style="fill:#fff" d="m200 138-11 4v-9z"/><path d="M143 138h51" style="fill:none;stroke-width:2.16;stroke:#fff"/><text x="172" y="126" text-anchor="middle" fill="#FFF" dominant-baseline="central">3</text><path d="M200 166h227v-57H200Z" style="fill:none;stroke-width:2.16;stroke:#7f7fff"/><text x="313" y="138" text-anchor="middle" fill="#7F7FFF" dominant-baseline="central">4</text><path style="fill:#fff" d="m484 194-12-5 6-6z"/><path d="m427 138 52 52" style="fill:none;stroke-width:2.16;stroke:#fff"/><text x="455" y="154" text-anchor="middle" fill="#FFF" dominant-baseline="central">5</text><circle cx="30" cy="152" r="2.16" style="fill:#ff7f7f;stroke-width:2.16;stroke:#ff7f7f"/><text x="30" y="152" text-anchor="end" fill="#FF7F7F" dominant-baseline="central">w </text><circle cx="257" cy="152" r="2.16" style="fill:#ff7f7f;stroke-width:2.16;stroke:#ff7f7f"/><text x="257" y="162" text-anchor="middle" fill="#FF7F7F" dominant-baseline="central">c</text><circle cx="484" cy="152" r="2.16" style="fill:#ff7f7f;stroke-width:2.16;stroke:#ff7f7f"/><text x="484" y="152" fill="#FF7F7F" dominant-baseline="central"> e</text><circle cx="257" cy="109" r="2.16" style="fill:#ff7f7f;stroke-width:2.16;stroke:#ff7f7f"/><text x="257" y="99" text-anchor="middle" fill="#FF7F7F" dominant-baseline="central">n</text><circle cx="257" cy="194" r="2.16" style="fill:#ff7f7f;stroke-width:2.16;stroke:#ff7f7f"/><text x="257" y="204" text-anchor="middle" fill="#FF7F7F" dominant-baseline="central">s</text><circle cx="30" cy="194" r="2.16" style="fill:#ff7f7f;stroke-width:2.16;stroke:#ff7f7f"/><text x="30" y="204" text-anchor="middle" fill="#FF7F7F" dominant-baseline="central">sw</text><circle cx="30" cy="109" r="2.16" style="fill:#ff7f7f;stroke-width:2.16;stroke:#ff7f7f"/><text x="30" y="99" text-anchor="middle" fill="#FF7F7F" dominant-baseline="central">nw</text><circle cx="484" cy="194" r="2.16" style="fill:#ff7f7f;stroke-width:2.16;stroke:#ff7f7f"/><text x="484" y="204" text-anchor="middle" fill="#FF7F7F" dominant-baseline="central">se</text><circle cx="484" cy="109" r="2.16" style="fill:#ff7f7f;stroke-width:2.16;stroke:#ff7f7f"/><text x="484" y="99" text-anchor="middle" fill="#FF7F7F" dominant-baseline="central">ne</text><path d="M2 223h510V81H2Z" style="fill:none;stroke-width:.969624;stroke:#ffd17f;stroke-dasharray:2.1,7.2"/></svg>