<svg xmlns="http://www.w3.org/2000/svg" class="pikchr" viewBox="0 0 423.821 195.84"><path style="fill:#fff" d="m146.16 37.44-11.52 4.32v-8.64z"/><path d="M2.16 37.44H140.4" style="fill:none;stroke-width:2.16;stroke:#fff"/><text x="74.16" y="25.74" text-anchor="middle" fill="#FFF" dominant-baseline="central">Markdown</text><text x="74.16" y="49.14" text-anchor="middle" fill="#FFF" dominant-baseline="central">Source</text><path d="M161.16 72.72h97.181a15 15 0 0 0 15-15V17.16a15 15 0 0 0-15-15H161.16a15 15 0 0 0-15 15v40.56a15 15 0 0 0 15 15Z" style="fill:none;stroke-width:2.16;stroke:#fff"/><text x="209.75" y="17.28" text-anchor="middle" fill="#FFF" dominant-baseline="central">Markdown</text><text x="209.75" y="37.44" text-anchor="middle" fill="#FFF" dominant-baseline="central">Formatter</text><text x="209.75" y="57.6" text-anchor="middle" fill="#FFF" dominant-baseline="central">(markdown.c)</text><path style="fill:#fff" d="m417.341 37.44-11.52 4.32v-8.64z"/><path d="M273.341 37.44h138.24" style="fill:none;stroke-width:2.16;stroke:#fff"/><text x="345.341" y="25.74" text-anchor="middle" fill="#FFF" dominant-baseline="central">HTML+SVG</text><text x="345.341" y="49.14" text-anchor="middle" fill="#FFF" dominant-baseline="central">Output</text><path style="fill:#fff" d="m209.75 72.72 4.32 11.52h-8.64zM209.75 123.12l-4.32-11.52h8.64z"/><path d="M209.75 78.48v38.88M176.136 193.68h67.229a15 15 0 0 0 15-15v-40.56a15 15 0 0 0-15-15h-67.229a15 15 0 0 0-15 15v40.56a15 15 0 0 0 15 15Z" style="fill:none;stroke-width:2.16;stroke:#fff"/><text x="209.75" y="138.24" text-anchor="middle" fill="#FFF" dominant-baseline="central">Pikchr</text><text x="209.75" y="158.4" text-anchor="middle" fill="#FFF" dominant-baseline="central">Formatter</text><text x="209.75" y="178.56" text-anchor="middle" fill="#FFF" dominant-baseline="central">(pikchr.c)</text></svg>