<svg xmlns="http://www.w3.org/2000/svg" class="pikchr" viewBox="0 0 621.023 328.105"><path d="M58.853 249.092h56.693V79.012H58.853Z" style="fill:none;stroke-width:2.16;stroke:#fff"/><path style="fill:#ff7f7f" d="m187.546 79.013-11.52 4.32v-8.64z"/><path d="M115.546 79.013h66.24" style="fill:none;stroke-width:2.16;stroke:#ff7f7f"/><text x="151.546" y="70.942" text-anchor="middle" fill="#FF7F7F" font-size="64%" dominant-baseline="central">0</text><path style="fill:#ffd17f" d="m187.546 135.706-11.52 4.32v-8.64z"/><path d="M115.546 135.706h66.24" style="fill:none;stroke-width:2.16;stroke:#ffd17f"/><text x="151.546" y="127.635" text-anchor="middle" fill="#FFD17F" font-size="64%" dominant-baseline="central">1/3</text><path style="fill:#7f7fff" d="m187.546 192.399-11.52 4.32v-8.64z"/><path d="M115.546 192.399h66.24" style="fill:none;stroke-width:2.16;stroke:#7f7fff"/><text x="151.546" y="184.328" text-anchor="middle" fill="#7F7FFF" font-size="64%" dominant-baseline="central">2/3</text><path style="fill:#7fff7f" d="m187.546 249.092-11.52 4.32v-8.64z"/><path d="M115.546 249.092h66.24" style="fill:none;stroke-width:2.16;stroke:#7fff7f"/><text x="151.546" y="241.02" text-anchor="middle" fill="#7FFF7F" font-size="64%" dominant-baseline="central">1</text><circle cx="257.278" cy="249.092" r="2.16" style="fill:#fff;stroke-width:2.16;stroke:#fff"/><text x="257.278" y="259.172" text-anchor="end" fill="#FFF" dominant-baseline="central">P1</text><circle cx="313.971" cy="79.013" r="2.16" style="fill:#fff;stroke-width:2.16;stroke:#fff"/><text x="313.971" y="68.933" text-anchor="end" fill="#FFF" dominant-baseline="central">P2</text><circle cx="540.743" cy="249.092" r="2.16" style="fill:#fff;stroke-width:2.16;stroke:#fff"/><text x="540.743" y="259.172" fill="#FFF" dominant-baseline="central">P3</text><circle cx="342.317" cy="79.013" r="2.16" style="fill:#fff;stroke-width:2.16;stroke:#fff"/><text x="342.317" y="68.933" fill="#FFF" dominant-baseline="central">P4</text><path d="m257.278 249.092 56.693-170.08M540.743 249.092 342.317 79.012" style="fill:none;stroke-width:2.16;stroke:#fff"/><path style="fill:#7f7fff" d="m474.601 192.399-11.52 4.32v-8.64z"/><path d="M276.176 192.399h192.665" style="fill:none;stroke-width:2.16;stroke:#7f7fff"/><path style="fill:#ffd17f" d="m408.459 135.706-11.52 4.32v-8.64z"/><path d="M295.073 135.706h107.626" style="fill:none;stroke-width:2.16;stroke:#ffd17f"/></svg>