<svg xmlns="http://www.w3.org/2000/svg" class="pikchr" viewBox="0 0 466.504 354.24"><circle cx="174.96" cy="179.28" r="144" style="fill:none;stroke-width:2.16;stroke:#7f7f7f"/><path style="fill:#7f7f7f" d="M174.96 6.48 179.28 18h-8.64z"/><path d="M174.96 352.08V12.24" style="fill:none;stroke-width:2.16;stroke:#7f7f7f"/><path style="fill:#7f7f7f" d="m347.76 179.28-11.52 4.32v-8.64z"/><path d="M2.16 179.28H342" style="fill:none;stroke-width:2.16;stroke:#7f7f7f"/><path style="fill:#ff7fff" d="m299.668 107.28-7.817 9.501-4.32-7.482z"/><path d="m174.96 179.28 119.719-69.12" style="fill:none;stroke-width:2.16;stroke:#ff7fff"/><text x="376.333" y="107.28" text-anchor="middle" fill="#FF7FFF" dominant-baseline="central">30⁰ = 60 from N</text><path style="fill:#ff7fff" d="m310.276 130.029-9.348 8-2.955-8.119z"/><path d="m174.96 179.28 129.903-47.281" style="fill:none;stroke-width:2.16;stroke:#ff7fff"/><text x="386.941" y="130.029" text-anchor="middle" fill="#FF7FFF" dominant-baseline="central">20⁰ = 70 from N</text><path style="fill:#ff7fff" d="m316.772 154.275-10.595 6.254-1.5-8.508z"/><path d="m174.96 179.28 136.14-24.005" style="fill:none;stroke-width:2.16;stroke:#ff7fff"/><text x="393.438" y="154.275" text-anchor="middle" fill="#FF7FFF" dominant-baseline="central">10⁰ = 80 from N</text><path style="fill:#7fff7f" d="m199.965 37.468 1.012 5.43-3.819-.674z"/><path d="m174.96 179.28 24.556-139.266" style="fill:none;stroke-width:.969624;stroke:#7fff7f"/><text x="221.969" y="27.388" text-anchor="end" fill="#7FFF7F" dominant-baseline="central">10⁰</text><path style="fill:#7fff7f" d="m224.211 43.964.053 5.523-3.644-1.327z"/><path d="m174.96 179.28 48.367-132.886" style="fill:none;stroke-width:.969624;stroke:#7fff7f"/><text x="246.214" y="33.884" text-anchor="end" fill="#7FFF7F" dominant-baseline="central">20⁰</text><path style="fill:#7fff7f" d="m246.96 54.572-.906 5.448-3.359-1.939z"/><path d="m174.96 179.28 70.707-122.468" style="fill:none;stroke-width:.969624;stroke:#7fff7f"/><text x="268.963" y="44.492" text-anchor="end" fill="#7FFF7F" dominant-baseline="central">30⁰</text><path style="fill:#7fff7f" d="m267.521 68.97-1.838 5.208-2.971-2.493z"/><path d="m174.96 179.28 90.899-108.33" style="fill:none;stroke-width:.969624;stroke:#7fff7f"/><text x="289.525" y="58.89" text-anchor="end" fill="#7FFF7F" dominant-baseline="central">40⁰</text><path style="fill:#7fff7f" d="m285.27 86.719-2.715 4.81-2.493-2.972z"/><path d="m174.96 179.28 108.33-90.9" style="fill:none;stroke-width:.969624;stroke:#7fff7f"/><text x="307.274" y="76.639" text-anchor="end" fill="#7FFF7F" dominant-baseline="central">50⁰</text></svg>