<svg xmlns="http://www.w3.org/2000/svg" class="pikchr" viewBox="0 0 2913.12 1547.28"><path d="M30.96 789.12h691.2a28.8 28.8 0 0 0 28.8-28.8v-388.8a28.8 28.8 0 0 0-28.8-28.8H30.96a28.8 28.8 0 0 0-28.8 28.8v388.8a28.8 28.8 0 0 0 28.8 28.8Z" style="fill:#070706"/><path d="M254.16 637.92h86.4a28.8 28.8 0 0 0 28.8-28.8v-86.4a28.8 28.8 0 0 0-28.8-28.8h-86.4a28.8 28.8 0 0 0-28.8 28.8v86.4a28.8 28.8 0 0 0 28.8 28.8Z" style="fill:#7f7f7e"/><path d="M271.44 619.92a23.76 23.76 0 0 0 23.76-23.76v-60.48a23.76 23.76 0 0 0-23.76-23.76 23.76 23.76 0 0 0-23.76 23.76v60.48a23.76 23.76 0 0 0 23.76 23.76Z" style="fill:#292929"/><path d="M265.68 540h28.8v-28.8h-28.8Z" style="fill:#292929"/><text x="297.36" y="449.28" text-anchor="middle" fill="#A8A7A6" font-size="300%" dominant-baseline="central">VPN Client</text><text x="297.36" y="729.36" text-anchor="middle" fill="#FCFCFC" font-size="300%" dominant-baseline="central">Workstation</text><path d="M30.96 1545.12h532.8a28.8 28.8 0 0 0 28.8-28.8v-388.8a28.8 28.8 0 0 0-28.8-28.8H30.96a28.8 28.8 0 0 0-28.8 28.8v388.8a28.8 28.8 0 0 0 28.8 28.8ZM676.08 1545.12h57.6a28.8 28.8 0 0 0 28.8-28.8v-388.8a28.8 28.8 0 0 0-28.8-28.8h-57.6a28.8 28.8 0 0 0-28.8 28.8v388.8a28.8 28.8 0 0 0 28.8 28.8Z" style="fill:#070706"/><path d="M254.16 1393.92h86.4a28.8 28.8 0 0 0 28.8-28.8v-86.4a28.8 28.8 0 0 0-28.8-28.8h-86.4a28.8 28.8 0 0 0-28.8 28.8v86.4a28.8 28.8 0 0 0 28.8 28.8Z" style="fill:#7f7f7e"/><path d="M271.44 1375.92a23.76 23.76 0 0 0 23.76-23.76v-60.48a23.76 23.76 0 0 0-23.76-23.76 23.76 23.76 0 0 0-23.76 23.76v60.48a23.76 23.76 0 0 0 23.76 23.76Z" style="fill:#292929"/><path d="M265.68 1296h28.8v-28.8h-28.8Z" style="fill:#292929"/><text x="297.36" y="1205.28" text-anchor="middle" fill="#A8A7A6" font-size="300%" dominant-baseline="central">VPN Client</text><text x="297.36" y="1485.36" text-anchor="middle" fill="#FCFCFC" font-size="300%" dominant-baseline="central">Workstation</text><path d="M1089.36 1275.12h806.4a28.8 28.8 0 0 0 28.8-28.8v-698.4a28.8 28.8 0 0 0-28.8-28.8h-806.4a28.8 28.8 0 0 0-28.8 28.8v698.4a28.8 28.8 0 0 0 28.8 28.8Z" style="fill:#070706"/><path d="M1449.36 983.52h86.4a28.8 28.8 0 0 0 28.8-28.8v-86.4a28.8 28.8 0 0 0-28.8-28.8h-86.4a28.8 28.8 0 0 0-28.8 28.8v86.4a28.8 28.8 0 0 0 28.8 28.8Z" style="fill:#7f7f7e"/><path d="M1466.64 965.52a23.76 23.76 0 0 0 23.76-23.76v-60.48a23.76 23.76 0 0 0-23.76-23.76 23.76 23.76 0 0 0-23.76 23.76v60.48a23.76 23.76 0 0 0 23.76 23.76Z" style="fill:#292929"/><path d="M1460.88 885.6h28.8v-28.8h-28.8Z" style="fill:#292929"/><text x="1492.56" y="794.88" text-anchor="middle" fill="#A8A7A6" font-size="300%" dominant-baseline="central">VPN Hub</text><text x="1492.56" y="1187.28" text-anchor="middle" fill="#FCFCFC" font-size="300%" dominant-baseline="central">Server</text><path d="M2349.36 1134.72h532.8a28.8 28.8 0 0 0 28.8-28.8v-388.8a28.8 28.8 0 0 0-28.8-28.8h-532.8a28.8 28.8 0 0 0-28.8 28.8v388.8a28.8 28.8 0 0 0 28.8 28.8ZM2179.44 1134.72h57.6a28.8 28.8 0 0 0 28.8-28.8v-388.8a28.8 28.8 0 0 0-28.8-28.8h-57.6a28.8 28.8 0 0 0-28.8 28.8v388.8a28.8 28.8 0 0 0 28.8 28.8Z" style="fill:#070706"/><path d="M2572.56 983.52h86.4a28.8 28.8 0 0 0 28.8-28.8v-86.4a28.8 28.8 0 0 0-28.8-28.8h-86.4a28.8 28.8 0 0 0-28.8 28.8v86.4a28.8 28.8 0 0 0 28.8 28.8Z" style="fill:#7f7f7e"/><path d="M2589.84 965.52a23.76 23.76 0 0 0 23.76-23.76v-60.48a23.76 23.76 0 0 0-23.76-23.76 23.76 23.76 0 0 0-23.76 23.76v60.48a23.76 23.76 0 0 0 23.76 23.76Z" style="fill:#292929"/><path d="M2584.08 885.6h28.8v-28.8h-28.8Z" style="fill:#292929"/><text x="2615.76" y="794.88" text-anchor="middle" fill="#A8A7A6" font-size="300%" dominant-baseline="central">VPN Client</text><text x="2615.76" y="1074.96" text-anchor="middle" fill="#FCFCFC" font-size="300%" dominant-baseline="central">EC2 VM</text><path d="M703.44 789.12h109.44v-446.4H703.44Z" style="fill:#495c7f"/><path d="m703.44 516.96 109.44 25.92v46.08l-109.44 25.92Z" style="fill:#1f3151"/><text x="758.16" y="270.72" text-anchor="middle" font-weight="bold" fill="#7FACFF" font-size="300%" dominant-baseline="central">Windows Firewall</text><circle cx="758.16" cy="182.16" r="36" style="fill:none;stroke-width:7.2;stroke:#7fb3ff"/><path d="M742.32 182.16H774l-15.84-15.84L774 182.16 758.16 198 774 182.16" style="fill:none;stroke-width:7.2;stroke-linejoin:round;stroke:#7facff"/><path d="M703.44 1545.12h109.44v-446.4H703.44Z" style="fill:#495c7f"/><path d="m703.44 1272.96 109.44 25.92v46.08l-109.44 25.92Z" style="fill:#1f3151"/><text x="758.16" y="1026.72" text-anchor="middle" font-weight="bold" fill="#7FACFF" font-size="300%" dominant-baseline="central">Office Firewall</text><circle cx="758.16" cy="938.16" r="36" style="fill:none;stroke-width:7.2;stroke:#7fb3ff"/><path d="M742.32 938.16H774l-15.84-15.84L774 938.16 758.16 954 774 938.16" style="fill:none;stroke-width:7.2;stroke-linejoin:round;stroke:#7facff"/><path d="M2100.24 1134.72h109.44v-446.4h-109.44Z" style="fill:#495c7f"/><path d="m2209.68 862.56-109.44 25.92v46.08l109.44 25.92Z" style="fill:#1f3151"/><text x="2154.96" y="555.84" text-anchor="middle" font-weight="bold" fill="#7FACFF" font-size="300%" dominant-baseline="central">AWS</text><text x="2154.96" y="616.32" text-anchor="middle" font-weight="bold" fill="#7FACFF" font-size="300%" dominant-baseline="central">Security Group</text><circle cx="2154.96" cy="467.28" r="36" style="fill:none;stroke-width:7.2;stroke:#7fb3ff"/><path d="M2170.8 467.28h-31.68l15.84 15.84-15.84-15.84 15.84-15.84-15.84 15.84" style="fill:none;stroke-width:7.2;stroke-linejoin:round;stroke:#7facff"/><circle cx="369.36" cy="565.92" r="7.2" style="fill:#ff9d7f;stroke-width:2.16;stroke:#ff9d7f"/><circle cx="369.36" cy="1321.92" r="7.2" style="fill:#ff9d7f;stroke-width:2.16;stroke:#ff9d7f"/><circle cx="2543.76" cy="911.52" r="7.2" style="fill:#ff9d7f;stroke-width:2.16;stroke:#ff9d7f"/><path d="M369.36 565.92h432q144 0 248.06 99.536l123.08 117.728q104.06 99.536 173.9 99.536h69.84" style="fill:none;stroke-width:5.76;stroke:#ff9d7f"/><path d="m1416.24 882.72-21.6-21.6 21.6 21.6-21.6 21.6 21.6-21.6" style="fill:none;stroke-width:5.76;stroke-linejoin:round;stroke:#ff9d7f"/><path d="M369.36 1321.92h432q144 0 238.39-108.75l142.42-164.1q94.39-108.75 164.23-108.75h69.84" style="fill:none;stroke-width:5.76;stroke:#ff9d7f"/><path d="m1416.24 940.32-21.6-21.6 21.6 21.6-21.6 21.6 21.6-21.6" style="fill:none;stroke-width:5.76;stroke-linejoin:round;stroke:#ff9d7f"/><path d="M2543.76 911.52h-974.88" style="fill:none;stroke-width:5.76;stroke:#ff9d7f"/><path d="m1568.88 911.52 21.6-21.6-21.6 21.6 21.6 21.6-21.6-21.6" style="fill:none;stroke-width:5.76;stroke-linejoin:round;stroke:#ff9d7f"/></svg>