<svg xmlns="http://www.w3.org/2000/svg" class="pikchr" viewBox="0 0 621.023 328.105"><path d="M58 249h57V79H58Z" style="fill:none;stroke-width:2.16;stroke:#fff"/><path style="fill:#ff7f7f" d="m187 79-11 4v-9z"/><path d="M115 79h66" style="fill:none;stroke-width:2.16;stroke:#ff7f7f"/><text x="151" y="70" text-anchor="middle" fill="#FF7F7F" font-size="64%" dominant-baseline="central">0</text><path style="fill:#ffd17f" d="m187 135-11 5v-9z"/><path d="M115 135h66" style="fill:none;stroke-width:2.16;stroke:#ffd17f"/><text x="151" y="127" text-anchor="middle" fill="#FFD17F" font-size="64%" dominant-baseline="central">1/3</text><path style="fill:#7f7fff" d="m187 192-11 4v-8z"/><path d="M115 192h66" style="fill:none;stroke-width:2.16;stroke:#7f7fff"/><text x="151" y="184" text-anchor="middle" fill="#7F7FFF" font-size="64%" dominant-baseline="central">2/3</text><path style="fill:#7fff7f" d="m187 249-11 4v-9z"/><path d="M115 249h66" style="fill:none;stroke-width:2.16;stroke:#7fff7f"/><text x="151" y="241" text-anchor="middle" fill="#7FFF7F" font-size="64%" dominant-baseline="central">1</text><circle cx="257" cy="249" r="2.16" style="fill:#fff;stroke-width:2.16;stroke:#fff"/><text x="257" y="259" text-anchor="end" fill="#FFF" dominant-baseline="central">P1</text><circle cx="313" cy="79" r="2.16" style="fill:#fff;stroke-width:2.16;stroke:#fff"/><text x="313" y="68" text-anchor="end" fill="#FFF" dominant-baseline="central">P2</text><circle cx="540" cy="249" r="2.16" style="fill:#fff;stroke-width:2.16;stroke:#fff"/><text x="540" y="259" fill="#FFF" dominant-baseline="central">P3</text><circle cx="342" cy="79" r="2.16" style="fill:#fff;stroke-width:2.16;stroke:#fff"/><text x="342" y="68" fill="#FFF" dominant-baseline="central">P4</text><path d="m257 249 56-170M540 249 342 79" style="fill:none;stroke-width:2.16;stroke:#fff"/><path style="fill:#7f7fff" d="m474 192-11 4v-8z"/><path d="M276 192h192" style="fill:none;stroke-width:2.16;stroke:#7f7fff"/><path style="fill:#ffd17f" d="m408 135-12 5v-9z"/><path d="M295 135h107" style="fill:none;stroke-width:2.16;stroke:#ffd17f"/></svg>