<svg xmlns="http://www.w3.org/2000/svg" class="pikchr" viewBox="0 0 466.504 354.24"><circle cx="174" cy="179" r="144" style="fill:none;stroke-width:2.16;stroke:#7f7f7f"/><path style="fill:#7f7f7f" d="m174 6 5 12h-9z"/><path d="M174 352V12" style="fill:none;stroke-width:2.16;stroke:#7f7f7f"/><path style="fill:#7f7f7f" d="m347 179-11 4v-9z"/><path d="M2 179h340" style="fill:none;stroke-width:2.16;stroke:#7f7f7f"/><path style="fill:#ff7fff" d="m299 107-8 9-4-7z"/><path d="m174 179 120-69" style="fill:none;stroke-width:2.16;stroke:#ff7fff"/><text x="376" y="107" text-anchor="middle" fill="#FF7FFF" dominant-baseline="central">30⁰ = 60 from N</text><path style="fill:#ff7fff" d="m310 130-10 8-3-9z"/><path d="m174 179 130-48" style="fill:none;stroke-width:2.16;stroke:#ff7fff"/><text x="386" y="130" text-anchor="middle" fill="#FF7FFF" dominant-baseline="central">20⁰ = 70 from N</text><path style="fill:#ff7fff" d="m316 154-10 6-2-8z"/><path d="m174 179 137-24" style="fill:none;stroke-width:2.16;stroke:#ff7fff"/><text x="393" y="154" text-anchor="middle" fill="#FF7FFF" dominant-baseline="central">10⁰ = 80 from N</text><path style="fill:#7fff7f" d="m199 37 1 5h-3z"/><path d="m174 179 25-139" style="fill:none;stroke-width:.969624;stroke:#7fff7f"/><text x="221" y="27" text-anchor="end" fill="#7FFF7F" dominant-baseline="central">10⁰</text><path style="fill:#7fff7f" d="M224 43v6l-4-1z"/><path d="m174 179 49-133" style="fill:none;stroke-width:.969624;stroke:#7fff7f"/><text x="246" y="33" text-anchor="end" fill="#7FFF7F" dominant-baseline="central">20⁰</text><path style="fill:#7fff7f" d="M246 54v6l-4-2z"/><path d="m174 179 71-123" style="fill:none;stroke-width:.969624;stroke:#7fff7f"/><text x="268" y="44" text-anchor="end" fill="#7FFF7F" dominant-baseline="central">30⁰</text><path style="fill:#7fff7f" d="m267 68-2 6-3-3z"/><path d="m174 179 91-109" style="fill:none;stroke-width:.969624;stroke:#7fff7f"/><text x="289" y="58" text-anchor="end" fill="#7FFF7F" dominant-baseline="central">40⁰</text><path style="fill:#7fff7f" d="m285 86-3 5-2-3z"/><path d="m174 179 109-91" style="fill:none;stroke-width:.969624;stroke:#7fff7f"/><text x="307" y="76" text-anchor="end" fill="#7FFF7F" dominant-baseline="central">50⁰</text><path style="fill:#ff7f7f" d="m30 179 26-10v19z"/><path d="M174 179H43" style="fill:none;stroke-width:4.86;stroke:#ff7f7f"/><text x="102" y="165" text-anchor="middle" fill="#FF7F7F" dominant-baseline="central">Pi</text></svg>