<svg xmlns='http://www.w3.org/2000/svg' class="pikchr" viewBox="0 0 709.472 344.477">
<circle cx="61" cy="172" r="2.16" style="fill:rgb(127,127,255);stroke-width:2.16;stroke:rgb(127,127,255);" />
<path d="M72,285L219,285A11 11 0 0 0 231 274L231,70A11 11 0 0 0 219 58L72,58A11 11 0 0 0 61 70L61,274A11 11 0 0 0 72 285Z"  style="fill:none;stroke-width:2.16;stroke:rgb(255,127,127);" />
<path d="M75,277L216,277A5 5 0 0 0 222 271L222,73A5 5 0 0 0 216 67L75,67A5 5 0 0 0 69 73L69,271A5 5 0 0 0 75 277Z"  style="fill:none;stroke-width:2.16;stroke:rgb(255,255,255);" />
<text x="146" y="172" text-anchor="middle" fill="rgb(255,255,255)" dominant-baseline="central">text1</text>
<path d="M78,268L214,268L214,75L78,75Z"  style="fill:none;stroke-width:2.16;stroke:rgb(255,255,255);" />
<circle cx="270" cy="172" r="2.16" style="fill:rgb(127,127,255);stroke-width:2.16;stroke:rgb(127,127,255);" />
<path d="M282,200L372,200A11 11 0 0 0 384 189L384,155A11 11 0 0 0 372 143L282,143A11 11 0 0 0 270 155L270,189A11 11 0 0 0 282 200Z"  style="fill:none;stroke-width:2.16;stroke:rgb(127,127,255);" />
<path d="M284,192L369,192A5 5 0 0 0 375 186L375,158A5 5 0 0 0 369 152L284,152A5 5 0 0 0 279 158L279,186A5 5 0 0 0 284 192Z"  style="fill:none;stroke-width:2.16;stroke:rgb(255,255,255);" />
<text x="327" y="172" text-anchor="middle" fill="rgb(255,255,255)" dominant-baseline="central">text2</text>
<path d="M287,183L367,183L367,160L287,160Z"  style="fill:none;stroke-width:2.16;stroke:rgb(255,255,255);" />
<circle cx="423" cy="172" r="2.16" style="fill:rgb(127,127,255);stroke-width:2.16;stroke:rgb(127,127,255);" />
<path d="M435,285L639,285A11 11 0 0 0 650 274L650,70A11 11 0 0 0 639 58L435,58A11 11 0 0 0 423 70L423,274A11 11 0 0 0 435 285Z"  style="fill:none;stroke-width:2.16;stroke:rgb(255,255,127);" />
<path d="M438,277L636,277A5 5 0 0 0 642 271L642,73A5 5 0 0 0 636 67L438,67A5 5 0 0 0 432 73L432,271A5 5 0 0 0 438 277Z"  style="fill:none;stroke-width:2.16;stroke:rgb(255,255,255);" />
<text x="537" y="172" text-anchor="middle" fill="rgb(255,255,255)" dominant-baseline="central">text3</text>
<path d="M440,268L633,268L633,75L440,75Z"  style="fill:none;stroke-width:2.16;stroke:rgb(255,255,255);" />
</svg>

