<svg xmlns="http://www.w3.org/2000/svg" class="pikchr" viewBox="0 0 675.916 276.231"><path d="M120 98h29V70h-29Z" style="fill:none;stroke-width:2.16;stroke:#ff7f7f"/><path d="M120 126h29V98h-29Z" style="fill:none;stroke-width:2.16;stroke:#7fff7f"/><path d="M120 155h29v-29h-29Z" style="fill:none;stroke-width:2.16;stroke:#7f7fff"/><path d="M276 155h114v-29H276Z" style="fill:none;stroke-width:2.16;stroke:#ffd17f"/><text x="333" y="141" text-anchor="middle" fill="#FFD17F" dominant-baseline="central">X.Z.A</text><path d="M276 121h114V92H276Z" style="fill:none;stroke-width:2.16;stroke:#ff7f7f"/><text x="333" y="107" text-anchor="middle" fill="#FF7F7F" dominant-baseline="central">X.Z.B</text><path d="M276 87h114V58H276Z" style="fill:none;stroke-width:2.16;stroke:#ffd17f"/><text x="333" y="73" text-anchor="middle" fill="#FFD17F" dominant-baseline="central">X.Z.C</text><path d="M503 87h114V58H503Z" style="fill:none;stroke-width:2.16;stroke:#ffd17f"/><text x="560" y="73" text-anchor="middle" fill="#FFD17F" dominant-baseline="central">X.W.A</text><path d="M503 121h114V92H503Z" style="fill:none;stroke-width:2.16;stroke:#ff7f7f"/><text x="560" y="107" text-anchor="middle" fill="#FF7F7F" dominant-baseline="central">X.W.B</text><path d="M503 155h114v-29H503Z" style="fill:none;stroke-width:2.16;stroke:#ffd17f"/><text x="560" y="141" text-anchor="middle" fill="#FFD17F" dominant-baseline="central">X.W.C</text><path style="fill:#fff" d="m207 84-12 4v-8z"/><path d="M135 84h66" style="fill:none;stroke-width:2.16;stroke:#fff"/><text x="171" y="72" text-anchor="middle" fill="#FFF" dominant-baseline="central">R</text><path style="fill:#fff" d="m63 112 11-4v9z"/><path d="M135 112H68" style="fill:none;stroke-width:2.16;stroke:#fff"/><text x="99" y="101" text-anchor="middle" fill="#FFF" dominant-baseline="central">G</text><path style="fill:#fff" d="m135 213-5-12h9z"/><path d="M135 141v66" style="fill:none;stroke-width:2.16;stroke:#fff"/><text x="135" y="177" fill="#FFF" dominant-baseline="central"> B</text><path style="fill:#ff7fff" d="m276 141-11 4v-9z"/><path d="M149 141h122" style="fill:none;stroke-width:2.16;stroke:#ff7fff"/><path style="fill:#ff7fff" d="m276 73-9 8-3-8z"/><path d="m149 126 122-51" style="fill:none;stroke-width:2.16;stroke:#ff7fff"/><path style="fill:#fff" d="m390 107 11-5v9z"/><path d="M390 73h28v34h-22" style="fill:none;stroke-width:2.16;stroke-linejoin:round;stroke:#fff"/><path d="m333 73 227 68" style="fill:none;stroke-width:.969624;stroke:#fff;stroke-dasharray:2.1,7.2"/><path style="fill:#7f7fff" d="m390 126 9-7 3 8zM503 87l-9 8-3-9z"/><path d="m395 124 103-35" style="fill:none;stroke-width:2.16;stroke:#7f7fff"/></svg>