<svg xmlns="http://www.w3.org/2000/svg" class="pikchr" viewBox="0 0 344.477 551.123"><path d="M136.239 166.853h72v-86.4l-21.6-21.6h-50.4Z" style="fill:none;stroke-width:2.16;stroke:#fff"/><path d="M186.639 58.853v21.6h21.6" style="fill:none;stroke-width:2.16;stroke:#fff"/><text x="172.239" y="102.773" text-anchor="middle" fill="#FFF" dominant-baseline="central">Data</text><text x="172.239" y="122.933" text-anchor="middle" fill="#FFF" dominant-baseline="central">Sources</text><path style="fill:#fff" d="m172.239 202.853-4.32-11.52h8.64z"/><path d="M172.239 166.853v30.24M58.853 248.207h226.772v-45.354H58.853Z" style="fill:none;stroke-width:2.16;stroke:#fff"/><text x="172.239" y="225.53" text-anchor="middle" fill="#FFF" dominant-baseline="central">Forwarder</text><path style="fill:#fff" d="m172.239 284.207-4.32-11.52h8.64z"/><path d="M172.239 248.207v30.24M58.853 329.562h226.772v-45.355H58.853Z" style="fill:none;stroke-width:2.16;stroke:#fff"/><text x="172.239" y="306.884" text-anchor="middle" fill="#FFF" dominant-baseline="central">Indexer</text><path style="fill:#fff" d="m172.239 365.562-4.32-11.52h8.64z"/><path d="M172.239 329.562v30.24M58.853 410.916h226.772v-45.354H58.853Z" style="fill:none;stroke-width:2.16;stroke:#fff"/><text x="172.239" y="378.159" text-anchor="middle" fill="#FFF" dominant-baseline="central">Search head</text><text x="172.239" y="398.319" text-anchor="middle" fill="#FFF" dominant-baseline="central">http://host:8000</text><path style="fill:#fff" d="m172.239 446.916-4.32-11.52h8.64z"/><path d="M172.239 410.916v30.24M58.853 492.27h226.772v-45.354H58.853Z" style="fill:none;stroke-width:2.16;stroke:#fff"/><text x="172.239" y="469.593" text-anchor="middle" fill="#FFF" dominant-baseline="central">User</text></svg>