<svg xmlns="http://www.w3.org/2000/svg" class="pikchr" viewBox="0 0 423.829 496.131"><path d="M58.853 98.538h283.464V58.853H58.853Z" style="fill:none;stroke-width:2.16;stroke:#fff"/><text x="200.585" y="78.695" text-anchor="middle" fill="#FFF" dominant-baseline="central">Endpoint malware alert</text><path style="fill:#fff" d="m200.585 134.538-4.32-11.52h8.64z"/><path d="M200.585 98.538v30.24M58.853 174.223h283.464v-39.685H58.853Z" style="fill:none;stroke-width:2.16;stroke:#fff"/><text x="200.585" y="154.38" text-anchor="middle" fill="#FFF" dominant-baseline="central">Retrieve malware file hash</text><path style="fill:#fff" d="m200.585 210.223-4.32-11.52h8.64z"/><path d="M200.585 174.223v30.24" style="fill:none;stroke-width:2.16;stroke:#fff"/><path d="M58.853 249.908h283.464v-39.685H58.853Z" style="fill:#7f7f00;stroke-width:2.16;stroke:#fff"/><text x="200.585" y="230.066" text-anchor="middle" fill="#FFF" dominant-baseline="central">Compare hash to known malware</text><path style="fill:#fff" d="m200.585 321.908-4.32-11.52h8.64z"/><path d="M200.585 249.908v66.24" style="fill:none;stroke-width:2.16;stroke:#fff"/><text x="200.585" y="285.908" fill="#FFF" dominant-baseline="central"> known hash yes/no</text><path d="M58.853 361.593h283.464v-39.685H58.853Z" style="fill:none;stroke-width:2.16;stroke:#fff"/><text x="200.585" y="341.751" text-anchor="middle" fill="#FFF" dominant-baseline="central">Sandbox affected device</text><path style="fill:#fff" d="m200.585 397.593-4.32-11.52h8.64z"/><path d="M200.585 361.593v30.24" style="fill:none;stroke-width:2.16;stroke:#fff"/><path d="M58.853 437.278h283.464v-39.685H58.853Z" style="fill:#3f7f3f;stroke-width:2.16;stroke:#fff"/><text x="200.585" y="417.436" text-anchor="middle" fill="#FFF" dominant-baseline="central">Remove malware</text></svg>