<svg xmlns="http://www.w3.org/2000/svg" class="pikchr" viewBox="0 0 423.829 496.131"><path d="M58 98h284V58H58Z" style="fill:none;stroke-width:2.16;stroke:#fff"/><text x="200" y="78" text-anchor="middle" fill="#FFF" dominant-baseline="central">Endpoint malware alert</text><path style="fill:#fff" d="m200 134-4-11h8z"/><path d="M200 98v30M58 174h284v-40H58Z" style="fill:none;stroke-width:2.16;stroke:#fff"/><text x="200" y="154" text-anchor="middle" fill="#FFF" dominant-baseline="central">Retrieve malware file hash</text><path style="fill:#fff" d="m200 210-4-12h8z"/><path d="M200 174v30" style="fill:none;stroke-width:2.16;stroke:#fff"/><path d="M58 249h284v-39H58Z" style="fill:#7f7f00;stroke-width:2.16;stroke:#fff"/><text x="200" y="230" text-anchor="middle" fill="#FFF" dominant-baseline="central">Compare hash to known malware</text><path style="fill:#fff" d="m200 321-4-11h8z"/><path d="M200 249v67" style="fill:none;stroke-width:2.16;stroke:#fff"/><text x="200" y="285" fill="#FFF" dominant-baseline="central"> known hash yes/no</text><path d="M58 361h284v-40H58Z" style="fill:none;stroke-width:2.16;stroke:#fff"/><text x="200" y="341" text-anchor="middle" fill="#FFF" dominant-baseline="central">Sandbox affected device</text><path style="fill:#fff" d="m200 397-4-11h8z"/><path d="M200 361v30" style="fill:none;stroke-width:2.16;stroke:#fff"/><path d="M58 437h284v-40H58Z" style="fill:#3f7f3f;stroke-width:2.16;stroke:#fff"/><text x="200" y="417" text-anchor="middle" fill="#FFF" dominant-baseline="central">Remove malware</text></svg>