<svg xmlns="http://www.w3.org/2000/svg" class="pikchr" viewBox="0 0 344.477 551.123"><path d="M136 166h72V80l-22-22h-50Z" style="fill:none;stroke-width:2.16;stroke:#fff"/><path d="M186 58v22h22" style="fill:none;stroke-width:2.16;stroke:#fff"/><text x="172" y="102" text-anchor="middle" fill="#FFF" dominant-baseline="central">Data</text><text x="172" y="122" text-anchor="middle" fill="#FFF" dominant-baseline="central">Sources</text><path style="fill:#fff" d="m172 202-5-11h9z"/><path d="M172 166v31M58 248h227v-46H58Z" style="fill:none;stroke-width:2.16;stroke:#fff"/><text x="172" y="225" text-anchor="middle" fill="#FFF" dominant-baseline="central">Forwarder</text><path style="fill:#fff" d="m172 284-5-12h9z"/><path d="M172 248v30M58 329h227v-45H58Z" style="fill:none;stroke-width:2.16;stroke:#fff"/><text x="172" y="306" text-anchor="middle" fill="#FFF" dominant-baseline="central">Indexer</text><path style="fill:#fff" d="m172 365-5-11h9z"/><path d="M172 329v30M58 410h227v-45H58Z" style="fill:none;stroke-width:2.16;stroke:#fff"/><text x="172" y="378" text-anchor="middle" fill="#FFF" dominant-baseline="central">Search head</text><text x="172" y="398" text-anchor="middle" fill="#FFF" dominant-baseline="central">http://host:8000</text><path style="fill:#fff" d="m172 446-5-11h9z"/><path d="M172 410v31M58 492h227v-46H58Z" style="fill:none;stroke-width:2.16;stroke:#fff"/><text x="172" y="469" text-anchor="middle" fill="#FFF" dominant-baseline="central">User</text></svg>