<svg xmlns="http://www.w3.org/2000/svg" class="pikchr" viewBox="0 0 231.092 437.737"><path d="M79.546 110.16h72v-86.4l-21.6-21.6h-50.4Z" style="fill:none;stroke-width:2.16;stroke:#fff"/><path d="M129.946 2.16v21.6h21.6" style="fill:none;stroke-width:2.16;stroke:#fff"/><text x="115.546" y="46.08" text-anchor="middle" fill="#FFF" dominant-baseline="central">Data</text><text x="115.546" y="66.24" text-anchor="middle" fill="#FFF" dominant-baseline="central">Sources</text><path style="fill:#fff" d="m115.546 146.16-4.32-11.52h8.64z"/><path d="M115.546 110.16v30.24M2.16 191.514h226.772V146.16H2.16Z" style="fill:none;stroke-width:2.16;stroke:#fff"/><text x="115.546" y="168.837" text-anchor="middle" fill="#FFF" dominant-baseline="central">Forwarder</text><path style="fill:#fff" d="m115.546 227.514-4.32-11.52h8.64z"/><path d="M115.546 191.514v30.24M2.16 272.869h226.772v-45.355H2.16Z" style="fill:none;stroke-width:2.16;stroke:#fff"/><text x="115.546" y="250.191" text-anchor="middle" fill="#FFF" dominant-baseline="central">Indexer</text><path style="fill:#fff" d="m115.546 308.869-4.32-11.52h8.64z"/><path d="M115.546 272.869v30.24M2.16 354.223h226.772v-45.354H2.16Z" style="fill:none;stroke-width:2.16;stroke:#fff"/><text x="115.546" y="321.466" text-anchor="middle" fill="#FFF" dominant-baseline="central">Search head</text><text x="115.546" y="341.626" text-anchor="middle" fill="#FFF" dominant-baseline="central">http://host:8000</text><path style="fill:#fff" d="m115.546 390.223-4.32-11.52h8.64z"/><path d="M115.546 354.223v30.24M2.16 435.577h226.772v-45.354H2.16Z" style="fill:none;stroke-width:2.16;stroke:#fff"/><text x="115.546" y="412.9" text-anchor="middle" fill="#FFF" dominant-baseline="central">User</text></svg>