<svg xmlns="http://www.w3.org/2000/svg" class="pikchr" viewBox="0 0 813.328 385.427"><path d="M13.499 254.132h204.094a11.339 11.339 0 0 0 11.339-11.339V38.699a11.339 11.339 0 0 0-11.339-11.339H13.499A11.339 11.339 0 0 0 2.16 38.699v204.094a11.339 11.339 0 0 0 11.339 11.339Z" style="fill:#046704;stroke-width:2.16;stroke:#7fff7f"/><path d="M228.932 140.746h36" style="fill:none;stroke-width:2.16;stroke:#c87fff"/><path d="M276.27 154.919h147.402a11.339 11.339 0 0 0 11.338-11.339v-5.669a11.339 11.339 0 0 0-11.338-11.338H276.27a11.339 11.339 0 0 0-11.338 11.338v5.669a11.339 11.339 0 0 0 11.338 11.339Z" style="fill:#5f225f;stroke-width:2.16;stroke:#c87fff"/><text x="349.971" y="140.746" text-anchor="middle" fill="#C87FFF" dominant-baseline="central">ssh tunnel</text><path d="M435.01 140.746h36" style="fill:none;stroke-width:2.16;stroke:#c87fff"/><path d="M482.349 254.132h317.48a11.339 11.339 0 0 0 11.339-11.339V38.699a11.339 11.339 0 0 0-11.339-11.339h-317.48a11.339 11.339 0 0 0-11.339 11.339v204.094a11.339 11.339 0 0 0 11.339 11.339Z" style="fill:#194452;stroke-width:2.16;stroke:#7f7fff"/><text x="115.546" y="12.24" text-anchor="middle" fill="#7FFF7F" dominant-baseline="central">Client</text><text x="641.089" y="12.24" text-anchor="middle" fill="#7F7FFF" dominant-baseline="central">Server</text><path d="M120.932 176.746h108v-72h-108Z" style="fill:none;stroke-width:2.16;stroke:#7fff7f"/><text x="174.932" y="130.666" text-anchor="middle" fill="#7FFF7F" dominant-baseline="central">SSH</text><text x="174.932" y="150.826" text-anchor="middle" fill="#7FFF7F" dominant-baseline="central">client</text><path d="M471.01 176.746h108v-72h-108Z" style="fill:none;stroke-width:2.16;stroke:#7f7fff"/><text x="525.01" y="130.666" text-anchor="middle" fill="#7F7FFF" dominant-baseline="central">SSH</text><text x="525.01" y="150.826" text-anchor="middle" fill="#7F7FFF" dominant-baseline="central">server</text><path style="fill:#7f7fff" d="m579.01 140.746 11.52-4.32v8.64zM651.01 140.746l-11.52 4.32v-8.64z"/><path d="M584.77 140.746h60.48" style="fill:none;stroke-width:2.16;stroke:#7f7fff"/><path d="M651.01 176.746h108v-72h-108Z" style="fill:none;stroke-width:2.16;stroke:#ffff7f"/><text x="705.01" y="130.666" text-anchor="middle" fill="#FFFF7F" dominant-baseline="central">Web</text><text x="705.01" y="150.826" text-anchor="middle" fill="#FFFF7F" dominant-baseline="central">Server</text><text x="174.932" y="191.866" text-anchor="middle" fill="#7FFF7F" dominant-baseline="central">listen on</text><text x="174.932" y="212.026" text-anchor="middle" fill="#7FFF7F" dominant-baseline="central">localhost:8080</text><text x="705.01" y="191.866" text-anchor="middle" fill="#FFFF7F" dominant-baseline="central">listen on</text><text x="705.01" y="212.026" text-anchor="middle" fill="#FFFF7F" dominant-baseline="central">localhost:80</text><text x="154.337" y="310.825" fill="#FFF" font-size="156.25%" dominant-baseline="central">ssh -L</text><text x="312.465" y="310.825" text-anchor="middle" fill="#7FFF7F" font-size="156.25%" dominant-baseline="central">localhost:8080</text><text x="465.56" y="310.825" text-anchor="middle" fill="#FFFF7F" font-size="156.25%" dominant-baseline="central">:localhost:80</text><text x="628.102" y="310.825" text-anchor="middle" fill="#7F7FFF" font-size="156.25%" dominant-baseline="central">user@server</text><text x="259.274" y="367.517" text-anchor="middle" fill="#FFF" font-size="156.25%" dominant-baseline="central">curl localhost:8080</text></svg>