<svg xmlns='http://www.w3.org/2000/svg' class="pikchr" viewBox="0 0 813.328 432.049">
<path d="M13,265L217,265A11 11 0 0 0 228 254L228,50A11 11 0 0 0 217 38L13,38A11 11 0 0 0 2 50L2,254A11 11 0 0 0 13 265Z"  style="fill:none;stroke-width:3.24;stroke:rgb(255,255,255);" />
<polygon points="228,152 240,147 240,156" style="fill:rgb(200,127,255)"/>
<path d="M234,152L264,152"  style="fill:none;stroke-width:2.16;stroke:rgb(200,127,255);" />
<path d="M276,166L423,166A11 11 0 0 0 435 154L435,149A11 11 0 0 0 423 137L276,137A11 11 0 0 0 264 149L264,154A11 11 0 0 0 276 166Z"  style="fill:rgb(95,34,95);stroke-width:2.16;stroke:rgb(200,127,255);" />
<text x="349" y="152" text-anchor="middle" fill="rgb(200,127,255)" dominant-baseline="central">ssh tunnel</text>
<polygon points="471,152 459,156 459,147" style="fill:rgb(200,127,255)"/>
<path d="M435,152L465,152"  style="fill:none;stroke-width:2.16;stroke:rgb(200,127,255);" />
<path d="M482,265L799,265A11 11 0 0 0 811 254L811,50A11 11 0 0 0 799 38L482,38A11 11 0 0 0 471 50L471,254A11 11 0 0 0 482 265Z"  style="fill:none;stroke-width:3.24;stroke:rgb(255,255,255);" />
<text x="115" y="17" text-anchor="middle" fill="rgb(255,255,255)" font-size="156.25%" dominant-baseline="central">Client</text>
<text x="641" y="17" text-anchor="middle" fill="rgb(255,255,255)" font-size="156.25%" dominant-baseline="central">Server</text>
<path d="M120,188L228,188L228,116L120,116Z"  style="fill:none;stroke-width:2.16;stroke:rgb(127,255,127);" />
<text x="174" y="152" text-anchor="middle" fill="rgb(127,255,127)" dominant-baseline="central">SSH</text>
<path d="M471,188L579,188L579,116L471,116Z"  style="fill:none;stroke-width:2.16;stroke:rgb(127,127,255);" />
<text x="525" y="152" text-anchor="middle" fill="rgb(127,127,255)" dominant-baseline="central">SSH</text>
<polygon points="579,152 590,147 590,156" style="fill:rgb(127,127,255)"/>
<polygon points="651,152 639,156 639,147" style="fill:rgb(127,127,255)"/>
<path d="M584,152L645,152"  style="fill:none;stroke-width:2.16;stroke:rgb(127,127,255);" />
<path d="M651,188L759,188L759,116L651,116Z"  style="fill:none;stroke-width:2.16;stroke:rgb(255,255,127);" />
<text x="705" y="142" text-anchor="middle" fill="rgb(255,255,127)" dominant-baseline="central">Web</text>
<text x="705" y="162" text-anchor="middle" fill="rgb(255,255,127)" dominant-baseline="central">Server</text>
<text x="174" y="203" text-anchor="middle" fill="rgb(127,255,127)" dominant-baseline="central">listen on</text>
<text x="174" y="223" text-anchor="middle" fill="rgb(127,255,127)" dominant-baseline="central">localhost:8080</text>
<text x="705" y="203" text-anchor="middle" fill="rgb(255,255,127)" dominant-baseline="central">listen on</text>
<text x="705" y="223" text-anchor="middle" fill="rgb(255,255,127)" dominant-baseline="central">localhost:80</text>
<path d="M109,342L206,342L206,301L109,301Z"  style="fill:none;stroke-width:1.4472;stroke:rgb(255,255,255);" />
<text x="158" y="322" text-anchor="middle" fill="rgb(255,255,255)" font-size="156.25%" dominant-baseline="central">ssh -L </text>
<path d="M206,342L380,342L380,301L206,301Z"  style="fill:none;stroke-width:1.4472;stroke:rgb(127,255,127);" />
<text x="293" y="322" text-anchor="middle" fill="rgb(127,255,127)" font-size="156.25%" dominant-baseline="central">localhost:8080</text>
<path d="M380,342L401,342L401,301L380,301Z"  style="fill:none;stroke-width:1.4472;stroke:rgb(255,255,255);" />
<text x="391" y="322" text-anchor="middle" fill="rgb(255,255,255)" font-size="156.25%" dominant-baseline="central">:</text>
<path d="M401,342L547,342L547,301L401,301Z"  style="fill:none;stroke-width:1.4472;stroke:rgb(255,255,127);" />
<text x="474" y="322" text-anchor="middle" fill="rgb(255,255,127)" font-size="156.25%" dominant-baseline="central">localhost:80</text>
<path d="M547,342L725,342L725,301L547,301Z"  style="fill:none;stroke-width:1.4472;stroke:rgb(127,127,255);" />
<text x="636" y="322" text-anchor="middle" fill="rgb(127,127,255)" font-size="156.25%" dominant-baseline="central">user@server</text>
<path d="M109,429L181,429L181,388L109,388Z"  style="fill:none;stroke-width:1.4472;stroke:rgb(255,255,255);" />
<text x="145" y="409" text-anchor="middle" fill="rgb(255,255,255)" font-size="156.25%" dominant-baseline="central">curl </text>
<path d="M181,429L355,429L355,388L181,388Z"  style="fill:none;stroke-width:1.4472;stroke:rgb(127,255,127);" />
<text x="268" y="409" text-anchor="middle" fill="rgb(127,255,127)" font-size="156.25%" dominant-baseline="central">localhost:8080</text>
</svg>

