<svg xmlns="http://www.w3.org/2000/svg" class="pikchr" viewBox="0 0 841.674 460.394"><path d="M13.499 265.472h204.094a11.339 11.339 0 0 0 11.339-11.339V50.039A11.339 11.339 0 0 0 217.593 38.7H13.499A11.339 11.339 0 0 0 2.16 50.039v204.094a11.339 11.339 0 0 0 11.339 11.339Z" style="fill:none;stroke-width:3.24;stroke:#fff"/><path style="fill:#c87fff" d="m228.932 152.086 11.52-4.32v8.64z"/><path d="M234.692 152.086h30.24" style="fill:none;stroke-width:2.16;stroke:#c87fff"/><path d="M276.27 166.259h147.402a11.339 11.339 0 0 0 11.338-11.339v-5.669a11.339 11.339 0 0 0-11.338-11.338H276.27a11.339 11.339 0 0 0-11.338 11.338v5.669a11.339 11.339 0 0 0 11.338 11.339Z" style="fill:#5f225f;stroke-width:2.16;stroke:#c87fff"/><text x="349.971" y="152.086" text-anchor="middle" fill="#C87FFF" dominant-baseline="central">ssh tunnel</text><path style="fill:#c87fff" d="m471.01 152.086-11.52 4.32v-8.64z"/><path d="M435.01 152.086h30.24" style="fill:none;stroke-width:2.16;stroke:#c87fff"/><path d="M471.01 188.086h162v-72h-162Z" style="fill:none;stroke-width:2.16;stroke:#7f7fff"/><text x="552.01" y="142.006" text-anchor="middle" fill="#7F7FFF" dominant-baseline="central">BASTION</text><text x="552.01" y="162.166" text-anchor="middle" fill="#7F7FFF" dominant-baseline="central">SSH</text><path d="M510.695 265.472h317.481a11.339 11.339 0 0 0 11.338-11.339V50.039A11.339 11.339 0 0 0 828.176 38.7H510.695a11.339 11.339 0 0 0-11.338 11.339v204.094a11.339 11.339 0 0 0 11.338 11.339Z" style="fill:none;stroke-width:3.24;stroke:#ff7f7f"/><text x="115.546" y="17.91" text-anchor="middle" fill="#FFF" font-size="156.25%" dominant-baseline="central">Client</text><text x="669.436" y="17.91" text-anchor="middle" fill="#FF7F7F" font-size="156.25%" dominant-baseline="central">Private Network</text><path d="M120.932 188.086h108v-72h-108Z" style="fill:none;stroke-width:2.16;stroke:#7fff7f"/><text x="174.932" y="152.086" text-anchor="middle" fill="#7FFF7F" dominant-baseline="central">SSH</text><path style="fill:#7f7fff" d="m633.01 152.086 11.52-4.32v8.64zM705.01 152.086l-11.52 4.32v-8.64z"/><path d="M638.77 152.086h60.48" style="fill:none;stroke-width:2.16;stroke:#7f7fff"/><path d="M705.01 188.086h108v-72h-108Z" style="fill:none;stroke-width:2.16;stroke:#ffff7f"/><text x="759.01" y="142.006" text-anchor="middle" fill="#FFFF7F" dominant-baseline="central">Web</text><text x="759.01" y="162.166" text-anchor="middle" fill="#FFFF7F" dominant-baseline="central">Server</text><text x="759.01" y="69.466" text-anchor="middle" fill="#FFFF7F" dominant-baseline="central">&apos;Remote&apos;</text><text x="759.01" y="95.296" text-anchor="middle" fill="#FFFF7F" font-size="156.25%" dominant-baseline="central">server</text><text x="174.932" y="203.206" text-anchor="middle" fill="#7FFF7F" dominant-baseline="central">listen on</text><text x="174.932" y="223.366" text-anchor="middle" fill="#7FFF7F" dominant-baseline="central">localhost:8080</text><text x="759.01" y="203.206" text-anchor="middle" fill="#FFFF7F" dominant-baseline="central">listen on</text><text x="759.01" y="223.366" text-anchor="middle" fill="#FFFF7F" dominant-baseline="central">0.0.0.0:80</text><path d="M109.877 342.955h97.02v-41.58h-97.02Z" style="fill:none;stroke-width:1.4472;stroke:#fff"/><text x="158.387" y="322.165" text-anchor="middle" fill="#FFF" font-size="156.25%" dominant-baseline="central">ssh -L </text><path d="M206.897 342.955h173.961v-41.58H206.897Z" style="fill:none;stroke-width:1.4472;stroke:#7fff7f"/><text x="293.877" y="322.165" text-anchor="middle" fill="#7FFF7F" font-size="156.25%" dominant-baseline="central">localhost:8080</text><path d="M380.858 342.955h20.52v-41.58h-20.52Z" style="fill:none;stroke-width:1.4472;stroke:#fff"/><text x="391.118" y="322.165" text-anchor="middle" fill="#FFF" font-size="156.25%" dominant-baseline="central">:</text><path d="M401.378 342.955h116.127v-41.58H401.378Z" style="fill:none;stroke-width:1.4472;stroke:#ffff7f"/><text x="459.441" y="322.165" text-anchor="middle" fill="#FFFF7F" font-size="156.25%" dominant-baseline="central">server:80</text><path d="M517.505 342.955h191.34v-41.58h-191.34Z" style="fill:none;stroke-width:1.4472;stroke:#7f7fff"/><text x="613.175" y="322.165" text-anchor="middle" fill="#7F7FFF" font-size="156.25%" dominant-baseline="central">user@bastion</text><path d="M109.877 429.889h71.64v-41.58h-71.64Z" style="fill:none;stroke-width:1.4472;stroke:#fff"/><text x="145.697" y="409.099" text-anchor="middle" fill="#FFF" font-size="156.25%" dominant-baseline="central">curl </text><path d="M181.517 429.889h173.961v-41.58H181.517Z" style="fill:none;stroke-width:1.4472;stroke:#7fff7f"/><text x="268.497" y="409.099" text-anchor="middle" fill="#7FFF7F" font-size="156.25%" dominant-baseline="central">localhost:8080</text><text x="357.625" y="22.225" text-anchor="middle" fill="#7F7F7F" dominant-baseline="central">Has public</text><text x="357.625" y="42.385" text-anchor="middle" fill="#7F7F7F" dominant-baseline="central">and private</text><text x="357.625" y="62.545" text-anchor="middle" fill="#7F7F7F" dominant-baseline="central">interface</text><path style="fill:#7f7f7f" d="m471.01 116.086-12.025-2.602 4.676-7.265z"/><path d="m411.308 77.665 54.859 35.304" style="fill:none;stroke-width:2.16;stroke:#7f7f7f"/><text x="489.158" y="407.834" text-anchor="middle" fill="#7F7F7F" dominant-baseline="central">Tells SSHd server</text><text x="489.158" y="427.994" text-anchor="middle" fill="#7F7F7F" dominant-baseline="central">where to forward</text><text x="489.158" y="448.154" text-anchor="middle" fill="#7F7F7F" dominant-baseline="central">traffic to</text><path style="fill:#7f7f7f" d="m459.441 342.955 9.616 7.675-7.418 4.43z"/><path d="M489.158 392.714 462.394 347.9" style="fill:none;stroke-width:2.16;stroke:#7f7f7f"/></svg>