<svg xmlns="http://www.w3.org/2000/svg" class="pikchr" viewBox="0 0 813.328 432.049"><path d="M13 265h204a11 11 0 0 0 11-11V50a11 11 0 0 0-11-12H13A11 11 0 0 0 2 50v204a11 11 0 0 0 11 11Z" style="fill:none;stroke-width:3.24;stroke:#fff"/><path style="fill:#c87fff" d="m228 152 12-5v9z"/><path d="M234 152h30" style="fill:none;stroke-width:2.16;stroke:#c87fff"/><path d="M276 166h147a11 11 0 0 0 12-12v-5a11 11 0 0 0-12-12H276a11 11 0 0 0-12 12v5a11 11 0 0 0 12 12Z" style="fill:#5f225f;stroke-width:2.16;stroke:#c87fff"/><text x="349" y="152" text-anchor="middle" fill="#C87FFF" dominant-baseline="central">ssh tunnel</text><path style="fill:#c87fff" d="m471 152-12 4v-9z"/><path d="M435 152h30" style="fill:none;stroke-width:2.16;stroke:#c87fff"/><path d="M482 265h317a11 11 0 0 0 12-11V50a11 11 0 0 0-12-12H482a11 11 0 0 0-11 12v204a11 11 0 0 0 11 11Z" style="fill:none;stroke-width:3.24;stroke:#fff"/><text x="115" y="17" text-anchor="middle" fill="#FFF" font-size="156.25%" dominant-baseline="central">Client</text><text x="641" y="17" text-anchor="middle" fill="#FFF" font-size="156.25%" dominant-baseline="central">Server</text><path d="M120 188h108v-72H120Z" style="fill:none;stroke-width:2.16;stroke:#7fff7f"/><text x="174" y="152" text-anchor="middle" fill="#7FFF7F" dominant-baseline="central">SSH</text><path d="M471 188h108v-72H471Z" style="fill:none;stroke-width:2.16;stroke:#7f7fff"/><text x="525" y="152" text-anchor="middle" fill="#7F7FFF" dominant-baseline="central">SSH</text><path style="fill:#7f7fff" d="m579 152 11-5v9zM651 152l-12 4v-9z"/><path d="M584 152h61" style="fill:none;stroke-width:2.16;stroke:#7f7fff"/><path d="M651 188h108v-72H651Z" style="fill:none;stroke-width:2.16;stroke:#ffff7f"/><text x="705" y="142" text-anchor="middle" fill="#FFFF7F" dominant-baseline="central">Web</text><text x="705" y="162" text-anchor="middle" fill="#FFFF7F" dominant-baseline="central">Server</text><text x="174" y="203" text-anchor="middle" fill="#7FFF7F" dominant-baseline="central">listen on</text><text x="174" y="223" text-anchor="middle" fill="#7FFF7F" dominant-baseline="central">localhost:8080</text><text x="705" y="203" text-anchor="middle" fill="#FFFF7F" dominant-baseline="central">listen on</text><text x="705" y="223" text-anchor="middle" fill="#FFFF7F" dominant-baseline="central">localhost:80</text><path d="M109 342h97v-41h-97Z" style="fill:none;stroke-width:1.4472;stroke:#fff"/><text x="158" y="322" text-anchor="middle" fill="#FFF" font-size="156.25%" dominant-baseline="central">ssh -L </text><path d="M206 342h174v-41H206Z" style="fill:none;stroke-width:1.4472;stroke:#7fff7f"/><text x="293" y="322" text-anchor="middle" fill="#7FFF7F" font-size="156.25%" dominant-baseline="central">localhost:8080</text><path d="M380 342h21v-41h-21Z" style="fill:none;stroke-width:1.4472;stroke:#fff"/><text x="391" y="322" text-anchor="middle" fill="#FFF" font-size="156.25%" dominant-baseline="central">:</text><path d="M401 342h146v-41H401Z" style="fill:none;stroke-width:1.4472;stroke:#ffff7f"/><text x="474" y="322" text-anchor="middle" fill="#FFFF7F" font-size="156.25%" dominant-baseline="central">localhost:80</text><path d="M547 342h178v-41H547Z" style="fill:none;stroke-width:1.4472;stroke:#7f7fff"/><text x="636" y="322" text-anchor="middle" fill="#7F7FFF" font-size="156.25%" dominant-baseline="central">user@server</text><path d="M109 429h72v-41h-72Z" style="fill:none;stroke-width:1.4472;stroke:#fff"/><text x="145" y="409" text-anchor="middle" fill="#FFF" font-size="156.25%" dominant-baseline="central">curl </text><path d="M181 429h174v-41H181Z" style="fill:none;stroke-width:1.4472;stroke:#7fff7f"/><text x="268" y="409" text-anchor="middle" fill="#7FFF7F" font-size="156.25%" dominant-baseline="central">localhost:8080</text></svg>