<svg xmlns="http://www.w3.org/2000/svg" class="pikchr" viewBox="0 0 841.674 460.394"><path d="M13 265h204a11 11 0 0 0 11-11V50a11 11 0 0 0-11-12H13A11 11 0 0 0 2 50v204a11 11 0 0 0 11 11Z" style="fill:none;stroke-width:3.24;stroke:#fff"/><path style="fill:#c87fff" d="m228 152 12-5v9z"/><path d="M234 152h30" style="fill:none;stroke-width:2.16;stroke:#c87fff"/><path d="M276 166h147a11 11 0 0 0 12-12v-5a11 11 0 0 0-12-12H276a11 11 0 0 0-12 12v5a11 11 0 0 0 12 12Z" style="fill:#5f225f;stroke-width:2.16;stroke:#c87fff"/><text x="349" y="152" text-anchor="middle" fill="#C87FFF" dominant-baseline="central">ssh tunnel</text><path style="fill:#c87fff" d="m471 152-12 4v-9z"/><path d="M435 152h30" style="fill:none;stroke-width:2.16;stroke:#c87fff"/><path d="M471 188h162v-72H471Z" style="fill:none;stroke-width:2.16;stroke:#7f7fff"/><text x="552" y="142" text-anchor="middle" fill="#7F7FFF" dominant-baseline="central">BASTION</text><text x="552" y="162" text-anchor="middle" fill="#7F7FFF" dominant-baseline="central">SSH</text><path d="M510 265h318a11 11 0 0 0 11-11V50a11 11 0 0 0-11-12H510a11 11 0 0 0-11 12v204a11 11 0 0 0 11 11Z" style="fill:none;stroke-width:3.24;stroke:#ff7f7f"/><text x="115" y="17" text-anchor="middle" fill="#FFF" font-size="156.25%" dominant-baseline="central">Client</text><text x="669" y="17" text-anchor="middle" fill="#FF7F7F" font-size="156.25%" dominant-baseline="central">Private Network</text><path d="M120 188h108v-72H120Z" style="fill:none;stroke-width:2.16;stroke:#7fff7f"/><text x="174" y="152" text-anchor="middle" fill="#7FFF7F" dominant-baseline="central">SSH</text><path style="fill:#7f7fff" d="m633 152 11-5v9zM705 152l-12 4v-9z"/><path d="M638 152h61" style="fill:none;stroke-width:2.16;stroke:#7f7fff"/><path d="M705 188h108v-72H705Z" style="fill:none;stroke-width:2.16;stroke:#ffff7f"/><text x="759" y="142" text-anchor="middle" fill="#FFFF7F" dominant-baseline="central">Web</text><text x="759" y="162" text-anchor="middle" fill="#FFFF7F" dominant-baseline="central">Server</text><text x="759" y="69" text-anchor="middle" fill="#FFFF7F" dominant-baseline="central">&apos;Remote&apos;</text><text x="759" y="95" text-anchor="middle" fill="#FFFF7F" font-size="156.25%" dominant-baseline="central">server</text><text x="174" y="203" text-anchor="middle" fill="#7FFF7F" dominant-baseline="central">listen on</text><text x="174" y="223" text-anchor="middle" fill="#7FFF7F" dominant-baseline="central">localhost:8080</text><text x="759" y="203" text-anchor="middle" fill="#FFFF7F" dominant-baseline="central">listen on</text><text x="759" y="223" text-anchor="middle" fill="#FFFF7F" dominant-baseline="central">0.0.0.0:80</text><path d="M109 342h97v-41h-97Z" style="fill:none;stroke-width:1.4472;stroke:#fff"/><text x="158" y="322" text-anchor="middle" fill="#FFF" font-size="156.25%" dominant-baseline="central">ssh -L </text><path d="M206 342h174v-41H206Z" style="fill:none;stroke-width:1.4472;stroke:#7fff7f"/><text x="293" y="322" text-anchor="middle" fill="#7FFF7F" font-size="156.25%" dominant-baseline="central">localhost:8080</text><path d="M380 342h21v-41h-21Z" style="fill:none;stroke-width:1.4472;stroke:#fff"/><text x="391" y="322" text-anchor="middle" fill="#FFF" font-size="156.25%" dominant-baseline="central">:</text><path d="M401 342h116v-41H401Z" style="fill:none;stroke-width:1.4472;stroke:#ffff7f"/><text x="459" y="322" text-anchor="middle" fill="#FFFF7F" font-size="156.25%" dominant-baseline="central">server:80</text><path d="M517 342h191v-41H517Z" style="fill:none;stroke-width:1.4472;stroke:#7f7fff"/><text x="613" y="322" text-anchor="middle" fill="#7F7FFF" font-size="156.25%" dominant-baseline="central">user@bastion</text><path d="M109 429h72v-41h-72Z" style="fill:none;stroke-width:1.4472;stroke:#fff"/><text x="145" y="409" text-anchor="middle" fill="#FFF" font-size="156.25%" dominant-baseline="central">curl </text><path d="M181 429h174v-41H181Z" style="fill:none;stroke-width:1.4472;stroke:#7fff7f"/><text x="268" y="409" text-anchor="middle" fill="#7FFF7F" font-size="156.25%" dominant-baseline="central">localhost:8080</text><text x="357" y="22" text-anchor="middle" fill="#7F7F7F" dominant-baseline="central">Has public</text><text x="357" y="42" text-anchor="middle" fill="#7F7F7F" dominant-baseline="central">and private</text><text x="357" y="62" text-anchor="middle" fill="#7F7F7F" dominant-baseline="central">interface</text><path style="fill:#7f7f7f" d="m471 116-13-3 5-7z"/><path d="m411 77 55 35" style="fill:none;stroke-width:2.16;stroke:#7f7f7f"/><text x="489" y="407" text-anchor="middle" fill="#7F7F7F" dominant-baseline="central">Tells SSHd server</text><text x="489" y="427" text-anchor="middle" fill="#7F7F7F" dominant-baseline="central">where to forward</text><text x="489" y="448" text-anchor="middle" fill="#7F7F7F" dominant-baseline="central">traffic to</text><path style="fill:#7f7f7f" d="m459 342 10 8-8 5z"/><path d="m489 392-27-45" style="fill:none;stroke-width:2.16;stroke:#7f7f7f"/></svg>