<svg xmlns="http://www.w3.org/2000/svg" xmlns:xlink="http://www.w3.org/1999/xlink" width="189.673" height="188.865" viewBox="0 0 142.255 141.649"><defs><symbol overflow="visible" id="c"><path style="stroke:none" d="M8.672-5.234c0-1.97-1.281-3.188-2.953-3.188-2.563 0-5.14 2.75-5.14 5.516C.578-1.031 1.812.25 3.546.25c2.515 0 5.125-2.61 5.125-5.484ZM3.625-.031c-.984 0-2.016-.703-2.016-2.578 0-1.079.391-2.86 1.36-4.063.875-1.047 1.89-1.484 2.687-1.484 1.047 0 2.063.765 2.063 2.484 0 1.063-.453 2.734-1.25 3.86C5.594-.579 4.5-.032 3.625-.032Zm0 0"/></symbol><symbol overflow="visible" id="d"><path style="stroke:none" d="M2.031-1.328c-.422.703-.828.953-1.39.984C.5-.328.406-.328.406-.125c0 .078.063.125.14.125.22 0 .75-.031.97-.031.343 0 .734.031 1.062.031.078 0 .219 0 .219-.234 0-.094-.094-.11-.172-.11-.266-.031-.5-.125-.5-.406 0-.172.078-.297.234-.563l.907-1.515h3.046c.016.11.016.203.016.312.047.313.188 1.563.188 1.782 0 .359-.61.39-.797.39-.14 0-.266 0-.266.219 0 .125.11.125.172.125.203 0 .453-.031.656-.031h.672C7.687-.031 8.22 0 8.22 0c.094 0 .219 0 .219-.234 0-.11-.11-.11-.282-.11-.656 0-.672-.11-.703-.469L6.72-8.265c-.032-.25-.078-.265-.203-.265s-.188.015-.297.203ZM3.47-3.172l2.406-4.015.406 4.015Zm0 0"/></symbol><symbol overflow="visible" id="e"><path style="stroke:none" d="M4.375-7.344c.11-.453.156-.468.625-.468h1.547c1.36 0 1.36 1.14 1.36 1.25 0 .968-.97 2.203-2.548 2.203H3.641Zm2.016 3.078c1.312-.234 2.484-1.156 2.484-2.25 0-.937-.813-1.64-2.172-1.64H2.875c-.234 0-.344 0-.344.219 0 .125.11.125.297.125.719 0 .719.093.719.218 0 .032 0 .094-.047.282L1.89-.891c-.109.422-.14.547-.968.547-.235 0-.344 0-.344.219C.578 0 .641 0 .891 0h4.093C6.813 0 8.22-1.39 8.22-2.594c0-.984-.86-1.578-1.828-1.672ZM4.703-.344H3.078c-.156 0-.187 0-.25-.015-.14-.016-.156-.032-.156-.125 0-.094.031-.157.047-.266l.844-3.375h2.25c1.406 0 1.406 1.313 1.406 1.406 0 1.156-1.032 2.375-2.516 2.375Zm0 0"/></symbol><symbol overflow="visible" id="f"><path style="stroke:none" d="M5.313-2.984a2.344 2.344 0 0 0-2.329-2.329A2.344 2.344 0 0 0 .656-2.983c0 1.265 1.047 2.312 2.328 2.312 1.266 0 2.329-1.031 2.329-2.312Zm0 0"/></symbol><clipPath id="a"><path d="M0 0h142v141.648H0Zm0 0"/></clipPath><clipPath id="b"><path d="M0 10h131v131.648H0Zm0 0"/></clipPath></defs><path style="stroke:none;fill-rule:nonzero;fill:#fff;fill-opacity:1" d="M.7 140.95V.7h140.859v140.25Zm0 0"/><g clip-path="url(#a)"><path style="fill:none;stroke-width:.3985;stroke-linecap:butt;stroke-linejoin:miter;stroke:#00adef;stroke-opacity:1;stroke-miterlimit:10" d="M-62.239-62.238v140.25h140.86v-140.25Zm0 0" transform="matrix(1 0 0 -1 62.938 78.711)"/></g><g clip-path="url(#b)"><path style="fill:none;stroke-width:.79701;stroke-linecap:butt;stroke-linejoin:miter;stroke:#00adef;stroke-opacity:1;stroke-miterlimit:10" d="M56.695 0c0 31.313-25.383 56.695-56.696 56.695-31.312 0-56.69-25.382-56.69-56.695 0-31.312 25.378-56.695 56.69-56.695 31.313 0 56.696 25.383 56.696 56.695Zm0 0" transform="matrix(1 0 0 -1 62.938 78.711)"/></g><path style="fill:none;stroke-width:.3985;stroke-linecap:butt;stroke-linejoin:miter;stroke:#00adef;stroke-opacity:1;stroke-dasharray:2.98883,2.98883;stroke-miterlimit:10" d="M0 0v56.695" transform="matrix(1 0 0 -1 62.938 78.711)"/><path style="fill:none;stroke-width:.3985;stroke-linecap:butt;stroke-linejoin:miter;stroke:#00adef;stroke-opacity:1;stroke-dasharray:.3985,1.99255;stroke-miterlimit:10" d="M0 0h56.695" transform="matrix(1 0 0 -1 62.938 78.711)"/><use xlink:href="#c" x="58.302" y="90.981" style="fill:#00adef;fill-opacity:1"/><use xlink:href="#d" x="123.732" y="82.796" style="fill:#00adef;fill-opacity:1"/><use xlink:href="#e" x="58.19" y="17.917" style="fill:#00adef;fill-opacity:1"/><path style="fill:none;stroke-width:.79701;stroke-linecap:butt;stroke-linejoin:miter;stroke:#00adef;stroke-opacity:1;stroke-dasharray:2.98883,1.99255,.3985,1.99255,.3985,1.99255;stroke-miterlimit:10" d="M51.023 0c0 28.18-22.844 51.023-51.024 51.023" transform="matrix(1 0 0 -1 62.938 78.711)"/><use xlink:href="#f" x="59.949" y="81.368" style="fill:#00adef;fill-opacity:1"/></svg>