<svg xmlns="http://www.w3.org/2000/svg" width="192.435" height="190.841" viewBox="0 0 144.326 143.131"><defs><clipPath id="a"><path d="M0 108h144.324v35.133H0Zm0 0"/></clipPath><clipPath id="b"><path d="M0 74h144.324v52H0Zm0 0"/></clipPath><clipPath id="c"><path d="M0 34h144.324v75H0Zm0 0"/></clipPath><clipPath id="d"><path d="M0 122h144.324v21.133H0Zm0 0"/></clipPath><clipPath id="e"><path d="M0 115h144.324v28.133H0Zm0 0"/></clipPath></defs><path d="M0-.002h141.734M0 28.346h141.734M0 56.694h141.734M0 85.04h141.734M0 113.39h141.734M0 141.725h141.734M0-.002v141.735M28.348-.002v141.735M56.695-.002v141.735M85.04-.002v141.735M113.387-.002v141.735M141.723-.002v141.735" style="fill:none;stroke-width:.3985;stroke-linecap:butt;stroke-linejoin:miter;stroke:#bfbfbf;stroke-opacity:1;stroke-miterlimit:10" transform="matrix(1 0 0 -1 1.297 142.432)"/><g clip-path="url(#a)"><path d="m0-.002 141.734 28.348" style="fill:none;stroke-width:.3985;stroke-linecap:butt;stroke-linejoin:miter;stroke:#000;stroke-opacity:1;stroke-miterlimit:10" transform="matrix(1 0 0 -1 1.297 142.432)"/></g><g clip-path="url(#b)"><path d="m0 28.346 141.734 28.348" style="fill:none;stroke-width:.79701;stroke-linecap:butt;stroke-linejoin:miter;stroke:#000;stroke-opacity:1;stroke-miterlimit:10" transform="matrix(1 0 0 -1 1.297 142.432)"/></g><g clip-path="url(#c)"><path d="M0 56.694 141.734 85.04" style="fill:none;stroke-width:1.59404;stroke-linecap:butt;stroke-linejoin:miter;stroke:#000;stroke-opacity:1;stroke-miterlimit:10" transform="matrix(1 0 0 -1 1.297 142.432)"/></g><g clip-path="url(#d)"><path d="m0-.002 141.277 14.13" style="fill:none;stroke-width:.3985;stroke-linecap:butt;stroke-linejoin:miter;stroke:#000;stroke-opacity:1;stroke-miterlimit:10" transform="matrix(1 0 0 -1 1.297 142.432)"/></g><path d="M-1.196 1.595C-1.095.996.001.098.298.001 0-.099-1.098-.998-1.196-1.593" style="fill:none;stroke-width:.31879;stroke-linecap:round;stroke-linejoin:round;stroke:#000;stroke-opacity:1;stroke-miterlimit:10" transform="matrix(.995 -.09947 -.09947 -.995 142.575 128.304)"/><g clip-path="url(#e)"><path d="m0-.002 139.766 20.965" style="fill:none;stroke-width:.3985;stroke-linecap:butt;stroke-linejoin:miter;stroke:#000;stroke-opacity:1;stroke-miterlimit:10" transform="matrix(1 0 0 -1 1.297 142.432)"/></g><path d="m143.031 121.172-3.39-1.102 1.422 1.399-.95 1.754" style="stroke:none;fill-rule:nonzero;fill:#000;fill-opacity:1"/></svg>