<svg xmlns="http://www.w3.org/2000/svg" xmlns:xlink="http://www.w3.org/1999/xlink" width="305.549" height="167.037" viewBox="0 0 229.162 125.278"><defs><symbol overflow="visible" id="a"><path style="stroke:none" d="M5.484-2.563c0-1.53-1.171-2.765-2.562-2.765C1.5-5.328.359-4.062.359-2.562.36-1.032 1.547.124 2.922.124c1.406 0 2.562-1.172 2.562-2.688ZM2.922-.14c-.438 0-.969-.187-1.313-.78-.328-.532-.343-1.235-.343-1.75 0-.454 0-1.173.375-1.72.328-.515.859-.703 1.28-.703.454 0 .97.219 1.282.688.375.547.375 1.297.375 1.734 0 .422 0 1.172-.312 1.735-.329.562-.891.796-1.344.796Zm0 0"/></symbol><symbol overflow="visible" id="b"><path style="stroke:none" d="M2-2.781c0-1.156.469-2.25 1.39-2.25.094 0 .126 0 .172.015-.093.047-.28.11-.28.438 0 .344.265.484.452.484.25 0 .485-.156.485-.484 0-.36-.328-.688-.844-.688-1.016 0-1.36 1.094-1.422 1.329h-.016v-1.329L.329-5.14v.344c.813 0 .922.094.922.672v3.234c0 .547-.14.547-.922.547V0c.344-.031 1-.031 1.36-.031.328 0 1.171 0 1.437.031v-.344h-.234C2.016-.344 2-.484 2-.906Zm0 0"/></symbol><symbol overflow="visible" id="c"><path style="stroke:none" d="M2.078-7.36a.59.59 0 0 0-.578-.593.577.577 0 0 0-.578.578c0 .36.281.578.578.578.36 0 .578-.297.578-.562ZM.438-5.14v.343c.75 0 .859.078.859.656v3.25c0 .547-.125.547-.906.547V0c.343-.031.906-.031 1.265-.031.125 0 .813 0 1.219.031v-.344c-.766 0-.813-.062-.813-.531v-4.39Zm0 0"/></symbol><symbol overflow="visible" id="d"><path style="stroke:none" d="M1.422-2.156c.562.36 1.047.36 1.172.36 1.078 0 1.875-.813 1.875-1.735 0-.313-.094-.766-.469-1.156.453-.47 1.016-.47 1.078-.47.047 0 .11 0 .156.016-.125.047-.171.172-.171.297 0 .172.109.313.296.313.11 0 .313-.063.313-.328a.556.556 0 0 0-.578-.547c-.625 0-1.094.39-1.25.562a2.067 2.067 0 0 0-1.235-.422c-1.078 0-1.875.813-1.875 1.735 0 .672.407 1.11.532 1.219-.141.187-.36.53-.36 1 0 .687.422.984.516 1.046C.875-.109.328.328.328.938c0 .828 1.125 1.515 2.594 1.515 1.422 0 2.594-.64 2.594-1.531 0-.297-.079-1-.797-1.375-.61-.313-1.203-.313-2.235-.313-.734 0-.812 0-1.03-.218a.982.982 0 0 1-.22-.61c0-.203.063-.406.188-.562Zm1.187.11c-1.062 0-1.062-1.204-1.062-1.485 0-.203 0-.703.203-1.016.234-.36.594-.469.844-.469 1.047 0 1.047 1.204 1.047 1.485 0 .203 0 .703-.204 1.015a.97.97 0 0 1-.828.47Zm.313 4.25C1.782 2.203.906 1.608.906.936c0-.093.031-.562.485-.875.265-.171.359-.171 1.203-.171.984 0 2.344 0 2.344 1.046 0 .704-.907 1.266-2.016 1.266Zm0 0"/></symbol><symbol overflow="visible" id="e"><path style="stroke:none" d="M5.313-2.906c0-1.11 0-1.438-.266-1.828-.344-.47-.906-.532-1.313-.532-1.171 0-1.625.985-1.718 1.22v-1.22L.375-5.14v.344c.813 0 .922.094.922.672v3.234c0 .547-.14.547-.922.547V0c.313-.031.969-.031 1.297-.031.344 0 1 0 1.297.031v-.344c-.75 0-.906 0-.906-.547v-2.218c0-1.25.828-1.922 1.578-1.922.734 0 .906.61.906 1.343V-.89c0 .547-.14.547-.906.547V0c.296-.031.953-.031 1.28-.031.345 0 1 0 1.313.031v-.344c-.609 0-.906 0-.921-.36Zm0 0"/></symbol><symbol overflow="visible" id="f"><path style="stroke:none" d="M5.313-2.906c0-1.11 0-1.438-.266-1.828-.344-.47-.906-.532-1.313-.532-1.03 0-1.515.766-1.671 1.141h-.016v-4.172l-1.672.14v.345c.813 0 .922.078.922.671v6.25c0 .547-.14.547-.922.547V0c.313-.031.969-.031 1.297-.031.344 0 1 0 1.297.031v-.344c-.75 0-.906 0-.906-.547v-2.218c0-1.25.828-1.922 1.578-1.922.734 0 .906.61.906 1.343V-.89c0 .547-.14.547-.906.547V0c.296-.031.953-.031 1.28-.031.345 0 1 0 1.313.031v-.344c-.609 0-.906 0-.921-.36Zm0 0"/></symbol><symbol overflow="visible" id="g"><path style="stroke:none" d="M2.016-4.813h1.671v-.343H2.016v-2.188H1.75c-.016 1.11-.453 2.266-1.531 2.297v.234h1.015v3.329C1.234-.156 2.11.125 2.75.125c.75 0 1.14-.75 1.14-1.61v-.671h-.25v.656c0 .86-.359 1.36-.812 1.36-.812 0-.812-1.11-.812-1.313Zm0 0"/></symbol><symbol overflow="visible" id="h"><path style="stroke:none" d="m2-8.297-1.672.14v.345c.813 0 .922.078.922.671V0h.25c.047-.094.39-.688.438-.781.28.453.78.906 1.546.906 1.375 0 2.594-1.172 2.594-2.703 0-1.516-1.125-2.688-2.453-2.688-.656 0-1.219.297-1.625.797Zm.016 4.469c0-.219 0-.235.14-.422.281-.438.813-.781 1.39-.781.36 0 1.61.14 1.61 2.437 0 .797-.11 1.297-.406 1.735a1.566 1.566 0 0 1-1.313.734c-.64 0-1.062-.406-1.265-.734-.156-.25-.156-.297-.156-.5Zm0 0"/></symbol><symbol overflow="visible" id="i"><path style="stroke:none" d="M4.578-2.766c.266 0 .281 0 .281-.234 0-1.203-.64-2.328-2.093-2.328-1.36 0-2.407 1.234-2.407 2.703 0 1.578 1.22 2.75 2.547 2.75 1.422 0 1.953-1.297 1.953-1.547 0-.078-.046-.125-.125-.125-.093 0-.125.063-.14.125-.313 1-1.11 1.281-1.625 1.281-.5 0-1.703-.343-1.703-2.406v-.219ZM1.281-3c.094-1.875 1.14-2.094 1.485-2.094 1.28 0 1.343 1.688 1.359 2.094Zm0 0"/></symbol><symbol overflow="visible" id="j"><path style="stroke:none" d="m2.063-8.297-1.672.14v.345c.812 0 .906.078.906.671v6.25c0 .547-.125.547-.906.547V0c.343-.031.921-.031 1.28-.031.36 0 .954 0 1.298.031v-.344c-.766 0-.906 0-.906-.547Zm0 0"/></symbol><symbol overflow="visible" id="k"><path style="stroke:none" d="M7.234-4.016c.266-.75.782-.78.985-.796v-.344c-.297.031-.516.031-.875.031-.344 0-.375 0-1.016-.031v.343c.531.032.672.36.672.579 0 .015 0 .093-.047.218L5.86-.89 4.656-4.266c-.047-.14-.047-.171-.047-.203 0-.343.438-.343.688-.343v-.344c-.344.031-.828.031-1.172.031-.39 0-.406 0-1.078-.031v.343c.453 0 .61.032.75.188.047.078.203.469.281.703L3.062-1 1.907-4.25c-.047-.156-.047-.188-.047-.234 0-.329.454-.329.688-.329v-.343c-.297.031-.89.031-1.219.031-.344 0-.36 0-1.11-.031v.343c.61 0 .72.063.86.438l1.5 4.281c.047.125.094.219.219.219.11 0 .172-.047.234-.234L4.22-3.516 5.422-.109c.047.187.11.234.219.234.125 0 .171-.094.218-.219Zm0 0"/></symbol><symbol overflow="visible" id="l"><path style="stroke:none" d="M2.063-4.813h1.343v-.343H2.031v-1.39c0-1.079.547-1.626 1.047-1.626.094 0 .266.016.406.094-.046.015-.343.125-.343.469 0 .265.187.468.468.468a.468.468 0 0 0 .485-.484c0-.438-.438-.797-1.016-.797-.828 0-1.781.656-1.781 1.875v1.39H.375v.345h.922v3.921c0 .547-.125.547-.906.547V0c.343-.031 1-.031 1.359-.031.313 0 1.172 0 1.438.031v-.344h-.235c-.875 0-.89-.14-.89-.562Zm0 0"/></symbol><symbol overflow="visible" id="m"><path style="stroke:none" d="M4.61-3.188c0-.656 0-1.124-.516-1.593a2.242 2.242 0 0 0-1.485-.547c-.984 0-1.734.64-1.734 1.422 0 .344.219.515.5.515s.484-.203.484-.5c0-.484-.421-.484-.609-.484.281-.5.86-.719 1.328-.719.547 0 1.266.453 1.266 1.532v.484C1.438-3.047.53-2.047.53-1.125c0 .953 1.094 1.25 1.828 1.25.782 0 1.329-.484 1.547-1.063.047.563.422 1 .938 1 .25 0 .937-.171.937-1.125v-.671h-.265v.671c0 .688-.282.782-.454.782-.453 0-.453-.64-.453-.813Zm-.766 1.5c0 1.172-.875 1.563-1.39 1.563-.595 0-1.079-.422-1.079-1 0-1.578 2.031-1.719 2.469-1.75Zm0 0"/></symbol><symbol overflow="visible" id="n"><path style="stroke:none" d="M4.875-4.016c.11-.265.313-.78 1.078-.796v-.344c-.344.031-.516.031-.89.031-.25 0-.422 0-.97-.031v.343c.5.032.563.391.563.516 0 .11-.031.172-.093.313L3.343-.891 2.017-4.266c-.063-.171-.079-.171-.079-.234 0-.313.454-.313.672-.313v-.343c-.296.031-.921.031-1.25.031-.39 0-.421 0-1.14-.031v.343c.672 0 .781.063.922.422L2.859-.109c.063.171.079.234.22.234.093 0 .155-.031.25-.234Zm0 0"/></symbol></defs><path style="fill-rule:nonzero;fill:#f2f2ff;fill-opacity:1;stroke-width:.3985;stroke-linecap:butt;stroke-linejoin:miter;stroke:#b2b2ff;stroke-opacity:1;stroke-miterlimit:10" d="M-109.98-61.94V61.94h227.766V-61.94Zm0 0" transform="matrix(1 0 0 -1 110.679 62.639)"/><path style="fill:none;stroke-width:.19925;stroke-linecap:butt;stroke-linejoin:miter;stroke:gray;stroke-opacity:1;stroke-miterlimit:10" d="M-56.695-56.693H56.692M-56.695-28.345H56.692M-56.695-.002H56.692M-56.695 28.346H56.692M-56.695 56.682H56.692M-56.695-56.693V56.694m28.348-113.387V56.694M.001-56.693V56.694M28.348-56.693V56.694M56.684-56.693V56.694" transform="matrix(1 0 0 -1 110.679 62.639)"/><g style="fill:#000;fill-opacity:1"><use xlink:href="#a" x="96.047" y="65.444"/><use xlink:href="#b" x="101.9" y="65.444"/><use xlink:href="#c" x="106.453" y="65.444"/><use xlink:href="#d" x="109.705" y="65.444"/><use xlink:href="#c" x="115.558" y="65.444"/><use xlink:href="#e" x="118.81" y="65.444"/></g><g style="fill:#000;fill-opacity:1"><use xlink:href="#b" x="161.86" y="65.628"/><use xlink:href="#c" x="166.413" y="65.628"/><use xlink:href="#d" x="169.664" y="65.628"/><use xlink:href="#f" x="175.518" y="65.628"/></g><use xlink:href="#g" x="181.698" y="65.628" style="fill:#000;fill-opacity:1"/><use xlink:href="#h" x="161.86" y="112.619" style="fill:#000;fill-opacity:1"/><g style="fill:#000;fill-opacity:1"><use xlink:href="#i" x="168.686" y="112.619"/><use xlink:href="#j" x="173.889" y="112.619"/><use xlink:href="#a" x="177.141" y="112.619"/></g><use xlink:href="#k" x="182.672" y="112.619" style="fill:#000;fill-opacity:1"/><g style="fill:#000;fill-opacity:1"><use xlink:href="#b" x="195.024" y="112.619"/><use xlink:href="#c" x="199.576" y="112.619"/><use xlink:href="#d" x="202.828" y="112.619"/><use xlink:href="#f" x="208.681" y="112.619"/></g><use xlink:href="#g" x="214.862" y="112.619" style="fill:#000;fill-opacity:1"/><use xlink:href="#h" x="96.047" y="112.619" style="fill:#000;fill-opacity:1"/><g style="fill:#000;fill-opacity:1"><use xlink:href="#i" x="102.873" y="112.619"/><use xlink:href="#j" x="108.076" y="112.619"/><use xlink:href="#a" x="111.328" y="112.619"/></g><use xlink:href="#k" x="116.859" y="112.619" style="fill:#000;fill-opacity:1"/><use xlink:href="#h" x="9.748" y="112.619" style="fill:#000;fill-opacity:1"/><g style="fill:#000;fill-opacity:1"><use xlink:href="#i" x="16.574" y="112.619"/><use xlink:href="#j" x="21.777" y="112.619"/><use xlink:href="#a" x="25.029" y="112.619"/></g><use xlink:href="#k" x="30.56" y="112.619" style="fill:#000;fill-opacity:1"/><g style="fill:#000;fill-opacity:1"><use xlink:href="#j" x="42.912" y="112.619"/><use xlink:href="#i" x="46.164" y="112.619"/><use xlink:href="#l" x="51.366" y="112.619"/><use xlink:href="#g" x="54.943" y="112.619"/></g><g style="fill:#000;fill-opacity:1"><use xlink:href="#j" x="42.915" y="66.79"/><use xlink:href="#i" x="46.167" y="66.79"/><use xlink:href="#l" x="51.37" y="66.79"/><use xlink:href="#g" x="54.947" y="66.79"/></g><g style="fill:#000;fill-opacity:1"><use xlink:href="#m" x="9.748" y="20.961"/><use xlink:href="#h" x="15.601" y="20.961"/></g><use xlink:href="#a" x="22.428" y="20.961" style="fill:#000;fill-opacity:1"/><use xlink:href="#n" x="27.958" y="20.961" style="fill:#000;fill-opacity:1"/><use xlink:href="#i" x="33.814" y="20.961" style="fill:#000;fill-opacity:1"/><g style="fill:#000;fill-opacity:1"><use xlink:href="#j" x="42.914" y="20.961"/><use xlink:href="#i" x="46.166" y="20.961"/><use xlink:href="#l" x="51.369" y="20.961"/><use xlink:href="#g" x="54.946" y="20.961"/></g><g style="fill:#000;fill-opacity:1"><use xlink:href="#m" x="96.047" y="20.961"/><use xlink:href="#h" x="101.9" y="20.961"/></g><use xlink:href="#a" x="108.727" y="20.961" style="fill:#000;fill-opacity:1"/><use xlink:href="#n" x="114.257" y="20.961" style="fill:#000;fill-opacity:1"/><use xlink:href="#i" x="120.113" y="20.961" style="fill:#000;fill-opacity:1"/><g style="fill:#000;fill-opacity:1"><use xlink:href="#m" x="161.86" y="18.637"/><use xlink:href="#h" x="167.713" y="18.637"/></g><use xlink:href="#a" x="174.54" y="18.637" style="fill:#000;fill-opacity:1"/><use xlink:href="#n" x="180.07" y="18.637" style="fill:#000;fill-opacity:1"/><use xlink:href="#i" x="185.926" y="18.637" style="fill:#000;fill-opacity:1"/><g style="fill:#000;fill-opacity:1"><use xlink:href="#b" x="195.026" y="18.637"/><use xlink:href="#c" x="199.579" y="18.637"/><use xlink:href="#d" x="202.83" y="18.637"/><use xlink:href="#f" x="208.684" y="18.637"/></g><use xlink:href="#g" x="214.865" y="18.637" style="fill:#000;fill-opacity:1"/></svg>