<svg xmlns="http://www.w3.org/2000/svg" xmlns:xlink="http://www.w3.org/1999/xlink" width="264.483" height="22.541" viewBox="0 0 198.362 16.906"><defs><clipPath id="a"><path d="M0 0h34v16.906H0Zm0 0"/></clipPath><clipPath id="d"><path d="M62 0h34v16.906H62Zm0 0"/></clipPath><clipPath id="f"><path d="M123 0h34v16.906h-34Zm0 0"/></clipPath><clipPath id="i"><path d="M179 0h19.363v16.906H179Zm0 0"/></clipPath><clipPath id="j"><path d="M19 0h16v16.906H19Zm0 0"/></clipPath><clipPath id="k"><path d="M80 0h17v16.906H80Zm0 0"/></clipPath><clipPath id="l"><path d="M142 0h16v16.906h-16Zm0 0"/></clipPath><symbol overflow="visible" id="b"><path style="stroke:none" d="M3.438-7.656c0-.282 0-.297-.235-.297-.281.328-.89.766-2.11.766v.343c.266 0 .86 0 1.532-.297v6.22c0 .437-.047.577-1.094.577h-.375V0c.328-.031 1.485-.031 1.875-.031.406 0 1.547 0 1.875.031v-.344h-.375c-1.047 0-1.093-.14-1.093-.578Zm0 0"/></symbol><symbol overflow="visible" id="c"><path style="stroke:none" d="M5.266-2.016H5c-.047.204-.14.875-.25 1.063-.094.11-.766.11-1.125.11H1.406c.328-.282 1.063-1.048 1.36-1.329 1.828-1.672 2.5-2.297 2.5-3.484 0-1.375-1.094-2.297-2.485-2.297-1.375 0-2.203 1.187-2.203 2.219 0 .609.531.609.563.609.265 0 .562-.188.562-.563 0-.343-.219-.562-.562-.562-.094 0-.125 0-.157.016.22-.813.875-1.375 1.641-1.375 1.016 0 1.64.859 1.64 1.953 0 1.015-.577 1.906-1.265 2.672L.578-.281V0h4.375Zm0 0"/></symbol><symbol overflow="visible" id="e"><path style="stroke:none" d="M4.375-3.484c0 2.828-1.25 3.406-1.969 3.406-.297 0-.922-.031-1.219-.453h.063a.467.467 0 0 0 .516-.485c0-.265-.172-.484-.485-.484-.312 0-.5.203-.5.516C.781-.25 1.375.25 2.421.25 3.907.25 5.36-1.344 5.36-3.938c0-3.203-1.343-4.015-2.39-4.015-1.313 0-2.485 1.11-2.485 2.687 0 1.579 1.125 2.641 2.313 2.641.89 0 1.344-.64 1.578-1.25Zm-1.531.625c-.75 0-1.078-.61-1.188-.829-.187-.453-.187-1.03-.187-1.578 0-.656 0-1.234.312-1.734.219-.313.532-.656 1.188-.656.672 0 1.031.593 1.14.86.235.593.235 1.609.235 1.78 0 1.016-.453 2.157-1.5 2.157Zm0 0"/></symbol><symbol overflow="visible" id="g"><path style="stroke:none" d="M2.203-4.297c-.203.016-.25.031-.25.14 0 .11.063.11.266.11h.547c1.03 0 1.484.844 1.484 1.984 0 1.579-.813 1.985-1.406 1.985-.578 0-1.547-.266-1.906-1.063.39.063.734-.156.734-.578a.571.571 0 0 0-.578-.593c-.297 0-.61.171-.61.624C.484-.625 1.547.25 2.875.25c1.422 0 2.484-1.094 2.484-2.297C5.36-3.14 4.47-4 3.33-4.203 4.358-4.5 5.03-5.375 5.03-6.313c0-.937-.984-1.64-2.14-1.64-1.188 0-2.079.734-2.079 1.61 0 .468.375.577.547.577.25 0 .547-.187.547-.546 0-.375-.297-.547-.562-.547-.063 0-.094 0-.125.015.453-.812 1.578-.812 1.64-.812.391 0 1.172.172 1.172 1.343 0 .235-.031.891-.39 1.407-.36.531-.766.562-1.079.578Zm0 0"/></symbol><symbol overflow="visible" id="h"><path style="stroke:none" d="M5.672-7.422v-.281H2.797c-1.453 0-1.469-.156-1.516-.375h-.265L.64-5.688h.265c.031-.218.14-.953.297-1.093.094-.063 1-.063 1.156-.063h2.547L3.641-5.03C3.312-4.563 2.109-2.61 2.109-.36c0 .125 0 .609.485.609.5 0 .5-.469.5-.625v-.594c0-1.781.281-3.172.844-3.969Zm0 0"/></symbol></defs><g clip-path="url(#a)"><path style="fill:none;stroke-width:.3985;stroke-linecap:butt;stroke-linejoin:miter;stroke:#000;stroke-opacity:1;stroke-miterlimit:10" d="M-16.429-7.754h32.86V7.754h-32.86ZM3.278 7.754V-7.754" transform="matrix(1 0 0 -1 17.128 8.453)"/></g><g style="fill:#000;fill-opacity:1"><use xlink:href="#b" x="4.601" y="12.305"/><use xlink:href="#c" x="10.454" y="12.305"/></g><g clip-path="url(#d)"><path style="fill:none;stroke-width:.3985;stroke-linecap:butt;stroke-linejoin:miter;stroke:#000;stroke-opacity:1;stroke-miterlimit:10" d="M45.173-7.754h32.86V7.754h-32.86Zm19.71 15.508V-7.754" transform="matrix(1 0 0 -1 17.128 8.453)"/></g><g style="fill:#000;fill-opacity:1"><use xlink:href="#e" x="66.204" y="12.305"/><use xlink:href="#e" x="72.057" y="12.305"/></g><g clip-path="url(#f)"><path style="fill:none;stroke-width:.3985;stroke-linecap:butt;stroke-linejoin:miter;stroke:#000;stroke-opacity:1;stroke-miterlimit:10" d="M106.778-7.754h32.86V7.754h-32.86Zm19.707 15.508V-7.754" transform="matrix(1 0 0 -1 17.128 8.453)"/></g><g style="fill:#000;fill-opacity:1"><use xlink:href="#g" x="127.807" y="12.305"/><use xlink:href="#h" x="133.66" y="12.305"/></g><path style="fill:none;stroke-width:.3985;stroke-linecap:butt;stroke-linejoin:miter;stroke:#000;stroke-opacity:1;stroke-miterlimit:10" d="M168.384-5.977h11.953V5.976h-11.953Zm0 0" transform="matrix(1 0 0 -1 17.128 8.453)"/><g clip-path="url(#i)"><path style="fill:none;stroke-width:.3985;stroke-linecap:butt;stroke-linejoin:miter;stroke:#000;stroke-opacity:1;stroke-miterlimit:10" d="M180.536 6.176 168.185-6.176M168.185 6.176l12.351-12.352" transform="matrix(1 0 0 -1 17.128 8.453)"/></g><path style="fill:none;stroke-width:.3985;stroke-linecap:butt;stroke-linejoin:miter;stroke:#000;stroke-opacity:1;stroke-miterlimit:10" d="M8.298 0H42.98" transform="matrix(1 0 0 -1 17.128 8.453)"/><path style="stroke:none;fill-rule:nonzero;fill:#000;fill-opacity:1" d="M24.707 8.453c0 1.188.965 2.152 2.152 2.152a2.154 2.154 0 0 0 2.153-2.152 2.154 2.154 0 0 0-2.153-2.152 2.154 2.154 0 0 0-2.152 2.152Zm0 0"/><g clip-path="url(#j)"><path style="fill:none;stroke-width:.3985;stroke-linecap:butt;stroke-linejoin:miter;stroke:#000;stroke-opacity:1;stroke-miterlimit:10" d="M.718 0a2.154 2.154 0 0 1-2.153 2.152A2.154 2.154 0 0 1-3.587 0c0-1.187.965-2.152 2.152-2.152C-.247-2.152.718-1.187.718 0Zm0 0" transform="matrix(-1 0 0 1 25.425 8.453)"/></g><path style="stroke:none;fill-rule:nonzero;fill:#000;fill-opacity:1" d="M62.102 8.453 58.914 6.86l1.195 1.594-1.195 1.594"/><path style="fill:none;stroke-width:.3985;stroke-linecap:butt;stroke-linejoin:miter;stroke:#000;stroke-opacity:1;stroke-miterlimit:10" d="M69.9 0h34.687" transform="matrix(1 0 0 -1 17.128 8.453)"/><path style="stroke:none;fill-rule:nonzero;fill:#000;fill-opacity:1" d="M86.313 8.453a2.151 2.151 0 1 0 4.302.002 2.151 2.151 0 0 0-4.302-.002Zm0 0"/><g clip-path="url(#k)"><path style="fill:none;stroke-width:.3985;stroke-linecap:butt;stroke-linejoin:miter;stroke:#000;stroke-opacity:1;stroke-miterlimit:10" d="M.716 0a2.151 2.151 0 1 1-4.303.002A2.151 2.151 0 0 1 .716 0Zm0 0" transform="matrix(-1 0 0 1 87.029 8.453)"/></g><path style="stroke:none;fill-rule:nonzero;fill:#000;fill-opacity:1" d="M123.707 8.453 120.52 6.86l1.195 1.594-1.195 1.594"/><path style="fill:none;stroke-width:.3985;stroke-linecap:butt;stroke-linejoin:miter;stroke:#000;stroke-opacity:1;stroke-miterlimit:10" d="M131.505 0h34.687" transform="matrix(1 0 0 -1 17.128 8.453)"/><path style="stroke:none;fill-rule:nonzero;fill:#000;fill-opacity:1" d="M147.914 8.453c0 1.188.965 2.152 2.152 2.152a2.154 2.154 0 0 0 2.153-2.152 2.154 2.154 0 0 0-2.153-2.152 2.154 2.154 0 0 0-2.152 2.152Zm0 0"/><g clip-path="url(#l)"><path style="fill:none;stroke-width:.3985;stroke-linecap:butt;stroke-linejoin:miter;stroke:#000;stroke-opacity:1;stroke-miterlimit:10" d="M.718 0a2.154 2.154 0 0 1-2.152 2.152A2.154 2.154 0 0 1-3.586 0c0-1.187.965-2.152 2.152-2.152C-.246-2.152.718-1.187.718 0Zm0 0" transform="matrix(-1 0 0 1 148.632 8.453)"/></g><path style="stroke:none;fill-rule:nonzero;fill:#000;fill-opacity:1" d="M185.313 8.453 182.12 6.86l1.2 1.594-1.2 1.594"/></svg>