<svg xmlns="http://www.w3.org/2000/svg" xmlns:xlink="http://www.w3.org/1999/xlink" width="139.576" height="305.24" viewBox="0 0 104.682 228.93"><defs><symbol id="c" overflow="visible"><path d="M3.64-5.14v.343c.813 0 .907.094.907.672v2.14c0 1.016-.547 1.86-1.438 1.86-.984 0-1.046-.563-1.046-1.188v-3.953L.375-5.14v.344c.922 0 .922.047.922 1.11v1.78c0 .75 0 1.173.36 1.579.28.297.765.453 1.374.453.203 0 .594 0 1-.36.344-.265.532-.718.532-.718V.125L6.234 0v-.344c-.812 0-.921-.094-.921-.672v-4.25Zm0 0" style="stroke:none"/></symbol><symbol id="d" overflow="visible"><path d="m2.063-8.297-1.672.14v.345c.812 0 .906.078.906.671v6.25c0 .547-.125.547-.906.547V0c.343-.031.921-.031 1.28-.031.36 0 .954 0 1.298.031v-.344c-.766 0-.906 0-.906-.547Zm0 0" style="stroke:none"/></symbol><symbol id="e" overflow="visible"><path d="M2.016-4.813h1.671v-.343H2.016v-2.188H1.75c-.016 1.11-.453 2.266-1.531 2.297v.234h1.015v3.329C1.234-.156 2.11.125 2.75.125c.75 0 1.14-.75 1.14-1.61v-.671h-.25v.656c0 .86-.359 1.36-.812 1.36-.812 0-.812-1.11-.812-1.313Zm0 0" style="stroke:none"/></symbol><symbol id="f" overflow="visible"><path d="M2-2.781c0-1.156.469-2.25 1.39-2.25.094 0 .126 0 .172.015-.093.047-.28.11-.28.438 0 .344.265.484.452.484.25 0 .485-.156.485-.484 0-.36-.328-.688-.844-.688-1.016 0-1.36 1.094-1.422 1.329h-.016v-1.329L.329-5.14v.344c.813 0 .922.094.922.672v3.234c0 .547-.14.547-.922.547V0c.344-.031 1-.031 1.36-.031.328 0 1.171 0 1.437.031v-.344h-.234C2.016-.344 2-.484 2-.906Zm0 0" style="stroke:none"/></symbol><symbol id="g" overflow="visible"><path d="M4.61-3.188c0-.656 0-1.124-.516-1.593a2.242 2.242 0 0 0-1.485-.547c-.984 0-1.734.64-1.734 1.422 0 .344.219.515.5.515s.484-.203.484-.5c0-.484-.421-.484-.609-.484.281-.5.86-.719 1.328-.719.547 0 1.266.453 1.266 1.532v.484C1.438-3.047.53-2.047.53-1.125c0 .953 1.094 1.25 1.828 1.25.782 0 1.329-.484 1.547-1.063.047.563.422 1 .938 1 .25 0 .937-.171.937-1.125v-.671h-.265v.671c0 .688-.282.782-.454.782-.453 0-.453-.64-.453-.813Zm-.766 1.5c0 1.172-.875 1.563-1.39 1.563-.595 0-1.079-.422-1.079-1 0-1.578 2.031-1.719 2.469-1.75Zm0 0" style="stroke:none"/></symbol><symbol id="h" overflow="visible"><path d="M5.313-2.906c0-1.11 0-1.438-.266-1.828-.344-.47-.906-.532-1.313-.532-1.03 0-1.515.766-1.671 1.141h-.016v-4.172l-1.672.14v.345c.813 0 .922.078.922.671v6.25c0 .547-.14.547-.922.547V0c.313-.031.969-.031 1.297-.031.344 0 1 0 1.297.031v-.344c-.75 0-.906 0-.906-.547v-2.218c0-1.25.828-1.922 1.578-1.922.734 0 .906.61.906 1.343V-.89c0 .547-.14.547-.906.547V0c.296-.031.953-.031 1.28-.031.345 0 1 0 1.313.031v-.344c-.609 0-.906 0-.921-.36Zm0 0" style="stroke:none"/></symbol><symbol id="i" overflow="visible"><path d="M2.078-7.36a.59.59 0 0 0-.578-.593.577.577 0 0 0-.578.578c0 .36.281.578.578.578.36 0 .578-.297.578-.562ZM.438-5.14v.343c.75 0 .859.078.859.656v3.25c0 .547-.125.547-.906.547V0c.343-.031.906-.031 1.265-.031.125 0 .813 0 1.219.031v-.344c-.766 0-.813-.062-.813-.531v-4.39Zm0 0" style="stroke:none"/></symbol><symbol id="j" overflow="visible"><path d="M5.313-2.906c0-1.11 0-1.438-.266-1.828-.344-.47-.906-.532-1.313-.532-1.171 0-1.625.985-1.718 1.22v-1.22L.375-5.14v.344c.813 0 .922.094.922.672v3.234c0 .547-.14.547-.922.547V0c.313-.031.969-.031 1.297-.031.344 0 1 0 1.297.031v-.344c-.75 0-.906 0-.906-.547v-2.218c0-1.25.828-1.922 1.578-1.922.734 0 .906.61.906 1.343V-.89c0 .547-.14.547-.906.547V0c.296-.031.953-.031 1.28-.031.345 0 1 0 1.313.031v-.344c-.609 0-.906 0-.921-.36Zm0 0" style="stroke:none"/></symbol><symbol id="k" overflow="visible"><path d="M4.875-4.016c.11-.265.313-.78 1.078-.796v-.344c-.344.031-.516.031-.89.031-.25 0-.422 0-.97-.031v.343c.5.032.563.391.563.516 0 .11-.031.172-.093.313L3.343-.891 2.017-4.266c-.063-.171-.079-.171-.079-.234 0-.313.454-.313.672-.313v-.343c-.296.031-.921.031-1.25.031-.39 0-.421 0-1.14-.031v.343c.672 0 .781.063.922.422L2.859-.109c.063.171.079.234.22.234.093 0 .155-.031.25-.234Zm0 0" style="stroke:none"/></symbol><symbol id="l" overflow="visible"><path d="M4.578-2.766c.266 0 .281 0 .281-.234 0-1.203-.64-2.328-2.093-2.328-1.36 0-2.407 1.234-2.407 2.703 0 1.578 1.22 2.75 2.547 2.75 1.422 0 1.953-1.297 1.953-1.547 0-.078-.046-.125-.125-.125-.093 0-.125.063-.14.125-.313 1-1.11 1.281-1.625 1.281-.5 0-1.703-.343-1.703-2.406v-.219ZM1.281-3c.094-1.875 1.14-2.094 1.485-2.094 1.28 0 1.343 1.688 1.359 2.094Zm0 0" style="stroke:none"/></symbol><symbol id="m" overflow="visible"><path d="M4.844-4c.312-.797.875-.813 1.11-.813v-.343c-.345.031-.516.031-.891.031-.282 0-.313 0-.97-.031v.343c.438.032.548.313.548.516 0 .11-.032.172-.079.297L3.345-.984 2.016-4.25c-.063-.156-.063-.234-.063-.25 0-.313.406-.313.656-.313v-.343c-.312.031-.906.031-1.234.031-.453 0-.484 0-1.156-.031v.343c.687 0 .781.063.937.438L2.938 0c-.516 1.266-.516 1.297-.579 1.39-.203.36-.515.813-1.062.813-.36 0-.594-.219-.594-.219s.422-.046.422-.468a.436.436 0 0 0-.438-.438c-.203 0-.453.11-.453.469 0 .453.438.89 1.063.89.672 0 1.172-.578 1.469-1.343Zm0 0" style="stroke:none"/></symbol><symbol id="n" overflow="visible"><path d="M3.922-5.063c0-.203 0-.265-.125-.265-.094 0-.313.266-.406.375-.36-.313-.735-.375-1.125-.375C.828-5.328.39-4.547.39-3.891c0 .141 0 .563.453.97.39.343.797.421 1.344.53.656.125.812.172 1.109.407a.97.97 0 0 1 .375.78c0 .516-.297 1.079-1.36 1.079-.78 0-1.359-.453-1.624-1.64C.64-1.986.64-2 .64-2.016c-.032-.047-.079-.047-.11-.047-.14 0-.14.062-.14.28v1.626c0 .218 0 .281.125.281.062 0 .062-.016.265-.266.063-.093.063-.109.25-.296.453.562 1.094.562 1.297.562 1.25 0 1.875-.703 1.875-1.64 0-.641-.39-1.032-.5-1.141-.422-.375-.75-.438-1.547-.578-.344-.079-1.219-.25-1.219-.97 0-.359.25-.905 1.329-.905C3.562-5.11 3.64-4 3.656-3.641c.016.11.094.11.14.11.126 0 .126-.063.126-.281Zm0 0" style="stroke:none"/></symbol><symbol id="o" overflow="visible"><path d="M8.578-2.906c0-1.11 0-1.438-.281-1.828-.344-.47-.906-.532-1.313-.532-1 0-1.5.72-1.687 1.172-.172-.922-.813-1.172-1.563-1.172-1.171 0-1.625.985-1.718 1.22v-1.22L.375-5.14v.344c.813 0 .922.094.922.672v3.234c0 .547-.14.547-.922.547V0c.313-.031.969-.031 1.297-.031.344 0 1 0 1.297.031v-.344c-.75 0-.906 0-.906-.547v-2.218c0-1.25.828-1.922 1.578-1.922.734 0 .906.61.906 1.343V-.89c0 .547-.14.547-.906.547V0c.296-.031.953-.031 1.28-.031.345 0 1 0 1.313.031v-.344c-.765 0-.921 0-.921-.547v-2.218c0-1.25.828-1.922 1.578-1.922.734 0 .906.61.906 1.343V-.89c0 .547-.14.547-.906.547V0c.312-.031.953-.031 1.28-.031.345 0 1 0 1.313.031v-.344c-.609 0-.906 0-.906-.36Zm0 0" style="stroke:none"/></symbol><symbol id="p" overflow="visible"><path d="M4.328-4.422c-.14 0-.594 0-.594.484 0 .297.204.5.5.5.266 0 .5-.171.5-.515 0-.797-.843-1.375-1.812-1.375-1.39 0-2.5 1.234-2.5 2.75 0 1.531 1.14 2.703 2.5 2.703 1.578 0 1.937-1.438 1.937-1.547 0-.11-.093-.11-.125-.11-.109 0-.125.032-.156.188C4.312-.5 3.672-.14 3.031-.14c-.734 0-1.703-.64-1.703-2.453 0-1.984 1.016-2.469 1.61-2.469.453 0 1.109.172 1.39.641Zm0 0" style="stroke:none"/></symbol><symbol id="q" overflow="visible"><path d="m3.344-3.172-.078-.11c0-.046.75-.687.843-.78.829-.72 1.36-.735 1.61-.75v-.344c-.25.031-.563.031-.907.031-.312 0-.921 0-1.203-.031v.343c.204.016.344.125.344.313 0 .25-.234.453-.25.453L2-2.53v-5.766l-1.672.14v.345c.813 0 .922.078.922.671v6.25c0 .547-.14.547-.922.547V0c.344-.031.922-.031 1.281-.031.344 0 .922 0 1.266.031v-.344c-.766 0-.922 0-.922-.547v-1.265l.766-.672 1.156 1.656c.172.25.266.39.266.547 0 .219-.172.281-.422.281V0c.297-.031.89-.031 1.203-.031.516 0 .547 0 1.047.031v-.344c-.313 0-.688 0-1.016-.5Zm0 0" style="stroke:none"/></symbol><symbol id="r" overflow="visible"><path d="M7.234-4.016c.266-.75.782-.78.985-.796v-.344c-.297.031-.516.031-.875.031-.344 0-.375 0-1.016-.031v.343c.531.032.672.36.672.579 0 .015 0 .093-.047.218L5.86-.89 4.656-4.266c-.047-.14-.047-.171-.047-.203 0-.343.438-.343.688-.343v-.344c-.344.031-.828.031-1.172.031-.39 0-.406 0-1.078-.031v.343c.453 0 .61.032.75.188.047.078.203.469.281.703L3.062-1 1.907-4.25c-.047-.156-.047-.188-.047-.234 0-.329.454-.329.688-.329v-.343c-.297.031-.89.031-1.219.031-.344 0-.36 0-1.11-.031v.343c.61 0 .72.063.86.438l1.5 4.281c.047.125.094.219.219.219.11 0 .172-.047.234-.234L4.22-3.516 5.422-.109c.047.187.11.234.219.234.125 0 .171-.094.218-.219Zm0 0" style="stroke:none"/></symbol><symbol id="s" overflow="visible"><path d="M3.578-8.156v.344c.828 0 .922.078.922.671V-4.5A1.829 1.829 0 0 0 3-5.266C1.61-5.266.422-4.094.422-2.562.422-1.048 1.547.124 2.875.124c.906 0 1.422-.61 1.594-.828v.828L6.156 0v-.344c-.812 0-.906-.094-.906-.672v-7.28Zm.89 6.75c0 .218 0 .265-.171.515-.281.422-.766.766-1.375.766-.297 0-1.594-.11-1.594-2.438 0-.859.14-1.328.406-1.734.235-.36.72-.734 1.313-.734.75 0 1.156.531 1.281.734.14.203.14.219.14.438Zm0 0" style="stroke:none"/></symbol><symbol id="t" overflow="visible"><path d="M8.063-3.875c.171 0 .39 0 .39-.219 0-.218-.203-.218-.39-.218H1.03c-.172 0-.39 0-.39.218 0 .219.203.219.39.219Zm0 2.219c.171 0 .39 0 .39-.203 0-.235-.203-.235-.39-.235H1.03c-.172 0-.39 0-.39.219s.203.219.39.219Zm0 0" style="stroke:none"/></symbol><symbol id="u" overflow="visible"><path d="M2.203-4.297c-.203.016-.25.031-.25.14 0 .11.063.11.266.11h.547c1.03 0 1.484.844 1.484 1.984 0 1.579-.813 1.985-1.406 1.985-.578 0-1.547-.266-1.906-1.063.39.063.734-.156.734-.578a.571.571 0 0 0-.578-.593c-.297 0-.61.171-.61.624C.484-.625 1.547.25 2.875.25c1.422 0 2.484-1.094 2.484-2.297C5.36-3.14 4.47-4 3.33-4.203 4.358-4.5 5.03-5.375 5.03-6.313c0-.937-.984-1.64-2.14-1.64-1.188 0-2.079.734-2.079 1.61 0 .468.375.577.547.577.25 0 .547-.187.547-.546 0-.375-.297-.547-.562-.547-.063 0-.094 0-.125.015.453-.812 1.578-.812 1.64-.812.391 0 1.172.172 1.172 1.343 0 .235-.031.891-.39 1.407-.36.531-.766.562-1.079.578Zm0 0" style="stroke:none"/></symbol><symbol id="v" overflow="visible"><path d="M2.922 1.969c-.766 0-.906 0-.906-.532V-.64c.218.297.703.766 1.468.766 1.375 0 2.594-1.172 2.594-2.703 0-1.516-1.125-2.688-2.437-2.688-1.047 0-1.61.75-1.641.797v-.797L.328-5.14v.344c.844 0 .922.094.922.61v5.625c0 .53-.14.53-.922.53v.345c.313-.016.969-.016 1.297-.016.344 0 1 0 1.297.015Zm-.906-5.782c0-.234 0-.234.14-.437.36-.531.938-.766 1.39-.766.907 0 1.61 1.094 1.61 2.438 0 1.422-.812 2.453-1.718 2.453a1.49 1.49 0 0 1-.97-.375c-.265-.281-.452-.516-.452-.844Zm0 0" style="stroke:none"/></symbol><clipPath id="a"><path d="M0 0h104v228.93H0Zm0 0"/></clipPath><clipPath id="b"><path d="M0 0h104.684v228.93H0Zm0 0"/></clipPath></defs><g clip-path="url(#a)"><path d="M.7 228.23V.695h103.284V228.23Zm0 0" style="stroke:none;fill-rule:nonzero;fill:#fff;fill-opacity:1"/></g><g clip-path="url(#b)"><path d="M-51.642-13.25v227.536H51.643V-13.25Zm0 0" style="fill:none;stroke-width:.3985;stroke-linecap:butt;stroke-linejoin:miter;stroke:#00adef;stroke-opacity:1;stroke-miterlimit:10" transform="matrix(1 0 0 -1 52.341 214.981)"/></g><path d="M-45.001-8.054h90V8.05h-90Zm0 0" style="fill-rule:nonzero;fill:#fff;fill-opacity:1;stroke-width:.09962;stroke-linecap:butt;stroke-linejoin:miter;stroke:#00f;stroke-opacity:1;stroke-miterlimit:10" transform="matrix(1 0 0 -1 52.341 214.981)"/><g style="fill:#000;fill-opacity:1"><use xlink:href="#c" x="27.629" y="219.132"/><use xlink:href="#d" x="34.133" y="219.132"/><use xlink:href="#e" x="37.384" y="219.132"/><use xlink:href="#f" x="41.937" y="219.132"/><use xlink:href="#g" x="46.49" y="219.132"/></g><g style="fill:#000;fill-opacity:1"><use xlink:href="#e" x="56.24" y="219.132"/><use xlink:href="#h" x="60.793" y="219.132"/><use xlink:href="#i" x="67.296" y="219.132"/><use xlink:href="#j" x="70.548" y="219.132"/></g><path d="M-45.001 19.133h90v18.43h-90Zm0 0" style="fill-rule:nonzero;fill:#fff;fill-opacity:1;stroke-width:.19925;stroke-linecap:butt;stroke-linejoin:miter;stroke:#00adef;stroke-opacity:1;stroke-miterlimit:10" transform="matrix(1 0 0 -1 52.341 214.981)"/><use xlink:href="#k" x="29.092" y="189.623" style="fill:#000;fill-opacity:1"/><g style="fill:#000;fill-opacity:1"><use xlink:href="#l" x="34.948" y="189.623"/><use xlink:href="#f" x="40.151" y="189.623"/><use xlink:href="#m" x="44.703" y="189.623"/></g><g style="fill:#000;fill-opacity:1"><use xlink:href="#e" x="54.779" y="189.623"/><use xlink:href="#h" x="59.331" y="189.623"/><use xlink:href="#i" x="65.835" y="189.623"/><use xlink:href="#j" x="69.087" y="189.623"/></g><path d="M-45.001 48.641h90v16.106h-90Zm0 0" style="fill-rule:nonzero;fill:#fff;fill-opacity:1;stroke-width:.3985;stroke-linecap:butt;stroke-linejoin:miter;stroke:#00adef;stroke-opacity:1;stroke-miterlimit:10" transform="matrix(1 0 0 -1 52.341 214.981)"/><g style="fill:#000;fill-opacity:1"><use xlink:href="#e" x="41.936" y="162.439"/><use xlink:href="#h" x="46.489" y="162.439"/><use xlink:href="#i" x="52.992" y="162.439"/><use xlink:href="#j" x="56.244" y="162.439"/></g><path d="M-45.001 76.989h90v16.105h-90Zm0 0" style="fill-rule:nonzero;fill:#fff;fill-opacity:1;stroke-width:.59776;stroke-linecap:butt;stroke-linejoin:miter;stroke:#00adef;stroke-opacity:1;stroke-miterlimit:10" transform="matrix(1 0 0 -1 52.341 214.981)"/><g style="fill:#000;fill-opacity:1"><use xlink:href="#n" x="28.246" y="134.093"/><use xlink:href="#l" x="32.863" y="134.093"/><use xlink:href="#o" x="38.066" y="134.093"/><use xlink:href="#i" x="47.821" y="134.093"/><use xlink:href="#e" x="51.073" y="134.093"/><use xlink:href="#h" x="55.626" y="134.093"/><use xlink:href="#i" x="62.129" y="134.093"/><use xlink:href="#p" x="65.381" y="134.093"/></g><use xlink:href="#q" x="70.261" y="134.093" style="fill:#000;fill-opacity:1"/><path d="M-45.001 105.333h90v16.105h-90Zm0 0" style="fill-rule:nonzero;fill:#fff;fill-opacity:1;stroke-width:.79701;stroke-linecap:butt;stroke-linejoin:miter;stroke:#00adef;stroke-opacity:1;stroke-miterlimit:10" transform="matrix(1 0 0 -1 52.341 214.981)"/><g style="fill:#000;fill-opacity:1"><use xlink:href="#e" x="39.66" y="105.746"/><use xlink:href="#h" x="44.213" y="105.746"/><use xlink:href="#i" x="50.716" y="105.746"/><use xlink:href="#p" x="53.968" y="105.746"/></g><use xlink:href="#q" x="58.848" y="105.746" style="fill:#000;fill-opacity:1"/><path d="M-45.001 132.52h90v18.43h-90Zm0 0" style="fill-rule:nonzero;fill:#fff;fill-opacity:1;stroke-width:1.19553;stroke-linecap:butt;stroke-linejoin:miter;stroke:#00adef;stroke-opacity:1;stroke-miterlimit:10" transform="matrix(1 0 0 -1 52.341 214.981)"/><use xlink:href="#k" x="26.816" y="76.237" style="fill:#000;fill-opacity:1"/><g style="fill:#000;fill-opacity:1"><use xlink:href="#l" x="32.672" y="76.237"/><use xlink:href="#f" x="37.875" y="76.237"/><use xlink:href="#m" x="42.427" y="76.237"/></g><g style="fill:#000;fill-opacity:1"><use xlink:href="#e" x="52.503" y="76.237"/><use xlink:href="#h" x="57.055" y="76.237"/><use xlink:href="#i" x="63.559" y="76.237"/><use xlink:href="#p" x="66.811" y="76.237"/></g><use xlink:href="#q" x="71.691" y="76.237" style="fill:#000;fill-opacity:1"/><path d="M-45.001 162.028h90v16.105h-90Zm0 0" style="fill-rule:nonzero;fill:#fff;fill-opacity:1;stroke-width:1.59404;stroke-linecap:butt;stroke-linejoin:miter;stroke:#00adef;stroke-opacity:1;stroke-miterlimit:10" transform="matrix(1 0 0 -1 52.341 214.981)"/><g style="fill:#000;fill-opacity:1"><use xlink:href="#c" x="25.352" y="49.053"/><use xlink:href="#d" x="31.856" y="49.053"/><use xlink:href="#e" x="35.107" y="49.053"/><use xlink:href="#f" x="39.66" y="49.053"/><use xlink:href="#g" x="44.213" y="49.053"/></g><g style="fill:#000;fill-opacity:1"><use xlink:href="#e" x="53.963" y="49.053"/><use xlink:href="#h" x="58.516" y="49.053"/><use xlink:href="#i" x="65.019" y="49.053"/><use xlink:href="#p" x="68.271" y="49.053"/></g><use xlink:href="#q" x="73.151" y="49.053" style="fill:#000;fill-opacity:1"/><path d="M-45.001 189.211h90v18.43h-90Zm0 0" style="fill-rule:nonzero;fill:#fff;fill-opacity:1;stroke-width:2.98883;stroke-linecap:butt;stroke-linejoin:miter;stroke:#00adef;stroke-opacity:1;stroke-miterlimit:10" transform="matrix(1 0 0 -1 52.341 214.981)"/><g style="fill:#000;fill-opacity:1"><use xlink:href="#d" x="13.646" y="19.545"/><use xlink:href="#i" x="16.898" y="19.545"/><use xlink:href="#j" x="20.15" y="19.545"/><use xlink:href="#l" x="26.653" y="19.545"/></g><g style="fill:#000;fill-opacity:1"><use xlink:href="#r" x="35.754" y="19.545"/><use xlink:href="#i" x="44.208" y="19.545"/><use xlink:href="#s" x="47.46" y="19.545"/><use xlink:href="#e" x="53.964" y="19.545"/><use xlink:href="#h" x="58.516" y="19.545"/><use xlink:href="#t" x="65.02" y="19.545"/><use xlink:href="#u" x="74.125" y="19.545"/><use xlink:href="#v" x="79.978" y="19.545"/><use xlink:href="#e" x="86.482" y="19.545"/></g></svg>