<svg xmlns="http://www.w3.org/2000/svg" xmlns:xlink="http://www.w3.org/1999/xlink" width="316.339" height="175.192" viewBox="0 0 237.254 131.394"><defs><symbol id="a" overflow="visible"><path d="M5.672-4.875c-.39.063-.531.36-.531.578 0 .297.218.39.39.39.36 0 .61-.312.61-.64 0-.5-.579-.719-1.079-.719-.718 0-1.125.72-1.234.938-.281-.89-1.015-.938-1.234-.938-1.219 0-1.86 1.563-1.86 1.829 0 .046.047.109.125.109.094 0 .125-.078.141-.125.406-1.328 1.219-1.578 1.563-1.578.53 0 .64.5.64.781 0 .266-.078.547-.219 1.125L2.578-1.5c-.172.719-.515 1.375-1.156 1.375-.063 0-.36 0-.61-.156a.607.607 0 0 0 .532-.578c0-.235-.188-.391-.407-.391a.638.638 0 0 0-.609.64c0 .5.563.735 1.078.735.578 0 .985-.453 1.235-.953.187.703.796.953 1.234.953 1.219 0 1.86-1.578 1.86-1.828a.107.107 0 0 0-.11-.11c-.11 0-.125.063-.156.157C5.14-.61 4.453-.125 3.906-.125c-.422 0-.64-.313-.64-.797 0-.265.046-.453.234-1.234l.422-1.64c.172-.704.578-1.235 1.14-1.235.016 0 .36 0 .61.156Zm0 0" style="stroke:none"/></symbol><symbol id="e" overflow="visible"><path d="M3.14 1.344c-.312.453-.78.86-1.374.86-.141 0-.72-.032-.891-.579a.305.305 0 0 0 .11.016c.359 0 .609-.313.609-.594 0-.266-.235-.36-.407-.36-.203 0-.609.141-.609.72 0 .609.516 1.03 1.188 1.03 1.203 0 2.406-1.093 2.734-2.421l1.172-4.672c.016-.047.047-.125.047-.203 0-.172-.157-.297-.328-.297-.11 0-.36.047-.454.406l-.89 3.516C4-1.016 4-.984 3.89-.86c-.235.328-.625.734-1.204.734-.671 0-.734-.656-.734-.969 0-.687.328-1.61.656-2.468.125-.344.204-.516.204-.75 0-.5-.36-.954-.954-.954C.766-5.266.33-3.53.33-3.437c0 .046.046.109.124.109.11 0 .125-.047.172-.219.281-1 .734-1.484 1.203-1.484.11 0 .313 0 .313.39 0 .313-.125.657-.313 1.11-.578 1.578-.578 1.969-.578 2.25 0 1.14.813 1.406 1.406 1.406.344 0 .781-.11 1.188-.563l.015.016C3.688.281 3.563.75 3.141 1.344Zm0 0" style="stroke:none"/></symbol><symbol id="b" overflow="visible"><path d="M2.5-5.078c0-.219-.016-.219-.234-.219-.329.313-.75.5-1.5.5v.266c.218 0 .64 0 1.109-.203v4.078c0 .297-.031.39-.781.39H.812V0c.329-.031 1.016-.031 1.375-.031.36 0 1.047 0 1.376.031v-.266H3.28c-.75 0-.781-.093-.781-.39Zm0 0" style="stroke:none"/></symbol><symbol id="c" overflow="visible"><path d="M2.25-1.625c.125-.125.453-.39.594-.5.484-.453.953-.89.953-1.61 0-.953-.797-1.562-1.781-1.562-.97 0-1.594.719-1.594 1.438 0 .39.312.437.422.437.172 0 .422-.11.422-.422 0-.406-.407-.406-.5-.406.234-.594.765-.781 1.156-.781.734 0 1.125.625 1.125 1.297 0 .828-.578 1.437-1.531 2.39l-1 1.047C.422-.219.422-.203.422 0h3.14l.235-1.422h-.25c-.016.156-.078.547-.172.703-.047.063-.656.063-.781.063H1.172Zm0 0" style="stroke:none"/></symbol><symbol id="d" overflow="visible"><path d="M2.016-2.656c.625 0 1.03.453 1.03 1.297 0 1-.562 1.28-.983 1.28-.438 0-1.047-.155-1.329-.577.297 0 .5-.188.5-.438 0-.265-.187-.437-.453-.437-.203 0-.437.125-.437.453 0 .75.812 1.25 1.734 1.25 1.047 0 1.797-.734 1.797-1.531 0-.672-.531-1.266-1.344-1.454.625-.218 1.11-.75 1.11-1.39 0-.64-.72-1.094-1.547-1.094-.86 0-1.5.453-1.5 1.063 0 .296.187.421.406.421.25 0 .406-.171.406-.406 0-.297-.265-.406-.437-.406.344-.438.953-.469 1.094-.469.203 0 .812.063.812.89 0 .548-.234.891-.344 1.016-.234.25-.422.266-.906.297-.156 0-.219.016-.219.125 0 .11.078.11.219.11Zm0 0" style="stroke:none"/></symbol></defs><path d="M56.738 37.352c0-4.7-3.808-8.504-8.504-8.504a8.5 8.5 0 0 0-8.504 8.504 8.503 8.503 0 0 0 8.504 8.503 8.506 8.506 0 0 0 8.504-8.503ZM56.738 65.7c0-4.7-3.808-8.505-8.504-8.505A8.5 8.5 0 0 0 39.73 65.7a8.503 8.503 0 0 0 8.504 8.504 8.506 8.506 0 0 0 8.504-8.504ZM56.738 94.043a8.506 8.506 0 0 0-8.504-8.504 8.503 8.503 0 0 0-8.504 8.504 8.5 8.5 0 0 0 8.504 8.504 8.503 8.503 0 0 0 8.504-8.504Zm0 0" style="stroke:none;fill-rule:nonzero;fill:#ffd9b2;fill-opacity:1"/><path d="M127.605 9.004A8.506 8.506 0 0 0 119.102.5a8.503 8.503 0 0 0-8.504 8.504 8.503 8.503 0 0 0 8.504 8.504 8.506 8.506 0 0 0 8.503-8.504ZM127.605 37.352c0-4.7-3.808-8.504-8.503-8.504a8.5 8.5 0 0 0-8.504 8.504 8.503 8.503 0 0 0 8.504 8.503 8.506 8.506 0 0 0 8.503-8.503ZM127.605 65.7c0-4.7-3.808-8.505-8.503-8.505a8.5 8.5 0 0 0-8.504 8.504 8.503 8.503 0 0 0 8.504 8.504 8.506 8.506 0 0 0 8.503-8.504ZM127.605 94.043a8.506 8.506 0 0 0-8.503-8.504 8.503 8.503 0 0 0-8.504 8.504 8.5 8.5 0 0 0 8.504 8.504 8.503 8.503 0 0 0 8.503-8.504ZM127.605 122.39a8.506 8.506 0 0 0-8.503-8.503 8.503 8.503 0 0 0-8.504 8.504 8.5 8.5 0 0 0 8.504 8.504 8.503 8.503 0 0 0 8.503-8.504Zm0 0" style="stroke:none;fill-rule:nonzero;fill:#80bfbf;fill-opacity:1"/><path d="M198.473 51.523a8.506 8.506 0 0 0-8.504-8.503 8.503 8.503 0 0 0-8.504 8.503 8.5 8.5 0 0 0 8.504 8.504 8.503 8.503 0 0 0 8.504-8.504ZM198.473 79.871a8.506 8.506 0 0 0-8.504-8.504 8.503 8.503 0 0 0-8.504 8.504 8.503 8.503 0 0 0 8.504 8.504 8.506 8.506 0 0 0 8.504-8.504Zm0 0" style="stroke:none;fill-rule:nonzero;fill:#df809f;fill-opacity:1"/><path d="m8.08-25.113 53.355 21.34" style="fill:none;stroke-width:.3985;stroke-linecap:butt;stroke-linejoin:miter;stroke:#000;stroke-opacity:1;stroke-miterlimit:10" transform="matrix(1 0 0 -1 48.233 9.004)"/><path d="M-1.195 1.592C-1.096.997.001.1.298.002c-.297-.1-1.393-1-1.492-1.596" style="fill:none;stroke-width:.31879;stroke-linecap:round;stroke-linejoin:round;stroke:#000;stroke-opacity:1;stroke-miterlimit:10" transform="scale(.99996 -.99996) rotate(21.801 88.01 278.36)"/><path d="M8.704-28.348h52.004" style="fill:none;stroke-width:.3985;stroke-linecap:butt;stroke-linejoin:miter;stroke:#000;stroke-opacity:1;stroke-miterlimit:10" transform="matrix(1 0 0 -1 48.233 9.004)"/><path d="M-1.196 1.593C-1.095.995-.001.101.3-.001 0-.098-1.095-.997-1.196-1.594" style="fill:none;stroke-width:.31879;stroke-linecap:round;stroke-linejoin:round;stroke:#000;stroke-opacity:1;stroke-miterlimit:10" transform="matrix(1 0 0 -1 108.942 37.35)"/><path d="m8.08-31.578 53.355-21.344" style="fill:none;stroke-width:.3985;stroke-linecap:butt;stroke-linejoin:miter;stroke:#000;stroke-opacity:1;stroke-miterlimit:10" transform="matrix(1 0 0 -1 48.233 9.004)"/><path d="M-1.195 1.596C-1.095.996.001.1.297 0 .001-.101-1.097-.995-1.194-1.593" style="fill:none;stroke-width:.31879;stroke-linecap:round;stroke-linejoin:round;stroke:#000;stroke-opacity:1;stroke-miterlimit:10" transform="matrix(.92844 .37137 .37137 -.92844 109.67 61.925)"/><path d="m6.794-33.785 56.141-44.91" style="fill:none;stroke-width:.3985;stroke-linecap:butt;stroke-linejoin:miter;stroke:#000;stroke-opacity:1;stroke-miterlimit:10" transform="matrix(1 0 0 -1 48.233 9.004)"/><path d="M-1.196 1.594C-1.096.994 0 .1.3 0 0-.1-1.095-.996-1.197-1.593" style="fill:none;stroke-width:.31879;stroke-linecap:round;stroke-linejoin:round;stroke:#000;stroke-opacity:1;stroke-miterlimit:10" transform="matrix(.78082 .62466 .62466 -.78082 111.169 87.7)"/><path d="m5.572-35.031 58.793-70.555" style="fill:none;stroke-width:.3985;stroke-linecap:butt;stroke-linejoin:miter;stroke:#000;stroke-opacity:1;stroke-miterlimit:10" transform="matrix(1 0 0 -1 48.233 9.004)"/><path d="M-1.195 1.596C-1.095.995 0 .102.298.001-.001-.1-1.098-.997-1.193-1.593" style="fill:none;stroke-width:.31879;stroke-linecap:round;stroke-linejoin:round;stroke:#000;stroke-opacity:1;stroke-miterlimit:10" transform="matrix(.64015 .76819 .76819 -.64015 112.597 114.588)"/><path d="M6.794-51.258 62.935-6.344" style="fill:none;stroke-width:.3985;stroke-linecap:butt;stroke-linejoin:miter;stroke:#000;stroke-opacity:1;stroke-miterlimit:10" transform="matrix(1 0 0 -1 48.233 9.004)"/><path d="M-1.196 1.595C-1.096.995 0 .102.298-.001.001-.098-1.098-.996-1.195-1.593" style="fill:none;stroke-width:.31879;stroke-linecap:round;stroke-linejoin:round;stroke:#000;stroke-opacity:1;stroke-miterlimit:10" transform="scale(.99994 -.99994) rotate(38.66 77.467 150.792)"/><path d="m8.08-53.46 53.355 21.339" style="fill:none;stroke-width:.3985;stroke-linecap:butt;stroke-linejoin:miter;stroke:#000;stroke-opacity:1;stroke-miterlimit:10" transform="matrix(1 0 0 -1 48.233 9.004)"/><path d="M-1.194 1.595C-1.096.996 0 .099.298 0 0-.1-1.093-.995-1.194-1.594" style="fill:none;stroke-width:.31879;stroke-linecap:round;stroke-linejoin:round;stroke:#000;stroke-opacity:1;stroke-miterlimit:10" transform="scale(.99996 -.99996) rotate(21.801 161.61 264.187)"/><path d="M8.704-56.695h52.004" style="fill:none;stroke-width:.3985;stroke-linecap:butt;stroke-linejoin:miter;stroke:#000;stroke-opacity:1;stroke-miterlimit:10" transform="matrix(1 0 0 -1 48.233 9.004)"/><path d="M-1.196 1.592C-1.095.995-.001.1.3-.002 0-.099-1.095-.998-1.196-1.595" style="fill:none;stroke-width:.31879;stroke-linecap:round;stroke-linejoin:round;stroke:#000;stroke-opacity:1;stroke-miterlimit:10" transform="matrix(1 0 0 -1 108.942 65.698)"/><path d="m8.08-59.926 53.355-21.343" style="fill:none;stroke-width:.3985;stroke-linecap:butt;stroke-linejoin:miter;stroke:#000;stroke-opacity:1;stroke-miterlimit:10" transform="matrix(1 0 0 -1 48.233 9.004)"/><path d="M-1.195 1.595C-1.094.995.001.1.298 0 0-.098-1.097-.995-1.194-1.594" style="fill:none;stroke-width:.31879;stroke-linecap:round;stroke-linejoin:round;stroke:#000;stroke-opacity:1;stroke-miterlimit:10" transform="matrix(.92844 .37137 .37137 -.92844 109.67 90.272)"/><path d="m6.794-62.129 56.141-44.914" style="fill:none;stroke-width:.3985;stroke-linecap:butt;stroke-linejoin:miter;stroke:#000;stroke-opacity:1;stroke-miterlimit:10" transform="matrix(1 0 0 -1 48.233 9.004)"/><path d="M-1.196 1.594C-1.098.996 0 .099.3-.001c-.3-.1-1.394-.996-1.497-1.593" style="fill:none;stroke-width:.31879;stroke-linecap:round;stroke-linejoin:round;stroke:#000;stroke-opacity:1;stroke-miterlimit:10" transform="matrix(.78082 .62466 .62466 -.78082 111.169 116.046)"/><path d="m5.572-78.355 58.793 70.55" style="fill:none;stroke-width:.3985;stroke-linecap:butt;stroke-linejoin:miter;stroke:#000;stroke-opacity:1;stroke-miterlimit:10" transform="matrix(1 0 0 -1 48.233 9.004)"/><path d="M-1.196 1.591C-1.097.997 0 .101.3 0 0-.1-1.095-.994-1.194-1.596" style="fill:none;stroke-width:.31879;stroke-linecap:round;stroke-linejoin:round;stroke:#000;stroke-opacity:1;stroke-miterlimit:10" transform="scale(.99995 -.99995) rotate(50.195 74.244 111.8)"/><path d="m6.794-79.605 56.141 44.914" style="fill:none;stroke-width:.3985;stroke-linecap:butt;stroke-linejoin:miter;stroke:#000;stroke-opacity:1;stroke-miterlimit:10" transform="matrix(1 0 0 -1 48.233 9.004)"/><path d="M-1.197 1.594C-1.094.997 0 .1.3 0 0-.1-1.098-.997-1.196-1.594" style="fill:none;stroke-width:.31879;stroke-linecap:round;stroke-linejoin:round;stroke:#000;stroke-opacity:1;stroke-miterlimit:10" transform="scale(.99994 -.99994) rotate(38.66 117.875 136.618)"/><path d="m8.08-81.808 53.355 21.343" style="fill:none;stroke-width:.3985;stroke-linecap:butt;stroke-linejoin:miter;stroke:#000;stroke-opacity:1;stroke-miterlimit:10" transform="matrix(1 0 0 -1 48.233 9.004)"/><path d="M-1.194 1.594C-1.097.995 0 .098.298 0 0-.1-1.094-.996-1.195-1.595" style="fill:none;stroke-width:.31879;stroke-linecap:round;stroke-linejoin:round;stroke:#000;stroke-opacity:1;stroke-miterlimit:10" transform="matrix(.92844 -.37137 -.37137 -.92844 109.67 69.47)"/><path d="M8.704-85.039h52.004" style="fill:none;stroke-width:.3985;stroke-linecap:butt;stroke-linejoin:miter;stroke:#000;stroke-opacity:1;stroke-miterlimit:10" transform="matrix(1 0 0 -1 48.233 9.004)"/><path d="M-1.196 1.595C-1.095.998-.001.1.3.001 0-.1-1.095-.995-1.196-1.592" style="fill:none;stroke-width:.31879;stroke-linecap:round;stroke-linejoin:round;stroke:#000;stroke-opacity:1;stroke-miterlimit:10" transform="matrix(1 0 0 -1 108.942 94.044)"/><path d="m8.08-88.273 53.355-21.34" style="fill:none;stroke-width:.3985;stroke-linecap:butt;stroke-linejoin:miter;stroke:#000;stroke-opacity:1;stroke-miterlimit:10" transform="matrix(1 0 0 -1 48.233 9.004)"/><path d="M-1.194 1.594C-1.094 1 0 .1.298 0 0-.099-1.096-.996-1.194-1.595" style="fill:none;stroke-width:.31879;stroke-linecap:round;stroke-linejoin:round;stroke:#000;stroke-opacity:1;stroke-miterlimit:10" transform="matrix(.92844 .37137 .37137 -.92844 109.67 118.619)"/><path d="m78.33-4.476 54.695-32.817" style="fill:none;stroke-width:.3985;stroke-linecap:butt;stroke-linejoin:miter;stroke:#000;stroke-opacity:1;stroke-miterlimit:10" transform="matrix(1 0 0 -1 48.233 9.004)"/><path d="M-1.197 1.593C-1.098.996 0 .101.298-.002.001-.098-1.095-.997-1.197-1.596" style="fill:none;stroke-width:.31879;stroke-linecap:round;stroke-linejoin:round;stroke:#000;stroke-opacity:1;stroke-miterlimit:10" transform="matrix(.85747 .51448 .51448 -.85747 181.257 46.298)"/><path d="m77.02-6.152 57.532-57.532" style="fill:none;stroke-width:.3985;stroke-linecap:butt;stroke-linejoin:miter;stroke:#000;stroke-opacity:1;stroke-miterlimit:10" transform="matrix(1 0 0 -1 48.233 9.004)"/><path d="M-1.196 1.595C-1.094.995 0 .1.298 0 0-.099-1.097-.996-1.196-1.593" style="fill:none;stroke-width:.31879;stroke-linecap:round;stroke-linejoin:round;stroke:#000;stroke-opacity:1;stroke-miterlimit:10" transform="scale(1 -1) rotate(-45 3.65 -256.987)"/><path d="m79.4-30.055 52.375-10.472" style="fill:none;stroke-width:.3985;stroke-linecap:butt;stroke-linejoin:miter;stroke:#000;stroke-opacity:1;stroke-miterlimit:10" transform="matrix(1 0 0 -1 48.233 9.004)"/><path d="M-1.194 1.595C-1.094.997 0 .1.3 0c-.3-.1-1.395-.996-1.494-1.593" style="fill:none;stroke-width:.31879;stroke-linecap:round;stroke-linejoin:round;stroke:#000;stroke-opacity:1;stroke-miterlimit:10" transform="matrix(.98055 .1961 .1961 -.98055 180.007 49.532)"/><path d="m78.33-32.824 54.695-32.817" style="fill:none;stroke-width:.3985;stroke-linecap:butt;stroke-linejoin:miter;stroke:#000;stroke-opacity:1;stroke-miterlimit:10" transform="matrix(1 0 0 -1 48.233 9.004)"/><path d="M-1.196 1.593C-1.098.996 0 .1.297 0 0-.1-1.097-.995-1.196-1.596" style="fill:none;stroke-width:.31879;stroke-linecap:round;stroke-linejoin:round;stroke:#000;stroke-opacity:1;stroke-miterlimit:10" transform="matrix(.85747 .51448 .51448 -.85747 181.257 74.645)"/><path d="m79.4-54.988 52.375 10.476" style="fill:none;stroke-width:.3985;stroke-linecap:butt;stroke-linejoin:miter;stroke:#000;stroke-opacity:1;stroke-miterlimit:10" transform="matrix(1 0 0 -1 48.233 9.004)"/><path d="M-1.194 1.594C-1.094.996 0 .1.3 0 0-.1-1.094-.996-1.194-1.593" style="fill:none;stroke-width:.31879;stroke-linecap:round;stroke-linejoin:round;stroke:#000;stroke-opacity:1;stroke-miterlimit:10" transform="scale(.99997 -.99997) rotate(11.309 360.26 882.263)"/><path d="m79.4-58.402 52.375-10.473" style="fill:none;stroke-width:.3985;stroke-linecap:butt;stroke-linejoin:miter;stroke:#000;stroke-opacity:1;stroke-miterlimit:10" transform="matrix(1 0 0 -1 48.233 9.004)"/><path d="M-1.194 1.594C-1.094.996 0 .1.3 0 0-.1-1.095-.996-1.194-1.593" style="fill:none;stroke-width:.31879;stroke-linecap:round;stroke-linejoin:round;stroke:#000;stroke-opacity:1;stroke-miterlimit:10" transform="matrix(.98055 .1961 .1961 -.98055 180.007 77.879)"/><path d="m78.33-80.562 54.695 32.816" style="fill:none;stroke-width:.3985;stroke-linecap:butt;stroke-linejoin:miter;stroke:#000;stroke-opacity:1;stroke-miterlimit:10" transform="matrix(1 0 0 -1 48.233 9.004)"/><path d="M-1.198 1.594C-1.097.995.002.1.297 0 0-.1-1.097-.995-1.196-1.592" style="fill:none;stroke-width:.31879;stroke-linecap:round;stroke-linejoin:round;stroke:#000;stroke-opacity:1;stroke-miterlimit:10" transform="scale(.99997 -.99997) rotate(30.964 193.078 298.832)"/><path d="m79.4-83.332 52.375 10.473" style="fill:none;stroke-width:.3985;stroke-linecap:butt;stroke-linejoin:miter;stroke:#000;stroke-opacity:1;stroke-miterlimit:10" transform="matrix(1 0 0 -1 48.233 9.004)"/><path d="M-1.194 1.593C-1.094.995 0 .099.3 0 0-.1-1.095-.996-1.194-1.594" style="fill:none;stroke-width:.31879;stroke-linecap:round;stroke-linejoin:round;stroke:#000;stroke-opacity:1;stroke-miterlimit:10" transform="scale(.99997 -.99997) rotate(11.309 503.409 868.09)"/><path d="m77.02-107.234 57.532 57.531" style="fill:none;stroke-width:.3985;stroke-linecap:butt;stroke-linejoin:miter;stroke:#000;stroke-opacity:1;stroke-miterlimit:10" transform="matrix(1 0 0 -1 48.233 9.004)"/><path d="M-1.196 1.593C-1.096.996 0 .1.3 0 0-.1-1.096-.998-1.196-1.594" style="fill:none;stroke-width:.31879;stroke-linecap:round;stroke-linejoin:round;stroke:#000;stroke-opacity:1;stroke-miterlimit:10" transform="scale(1 -1) rotate(45 162.26 191.289)"/><path d="m78.33-108.91 54.695 32.816" style="fill:none;stroke-width:.3985;stroke-linecap:butt;stroke-linejoin:miter;stroke:#000;stroke-opacity:1;stroke-miterlimit:10" transform="matrix(1 0 0 -1 48.233 9.004)"/><path d="M-1.196 1.596C-1.096.995 0 .1.297 0 0-.1-1.098-.996-1.196-1.593" style="fill:none;stroke-width:.31879;stroke-linecap:round;stroke-linejoin:round;stroke:#000;stroke-opacity:1;stroke-miterlimit:10" transform="scale(.99997 -.99997) rotate(30.964 244.25 284.658)"/><path d="M-10.159-28.348h-18.187" style="fill:none;stroke-width:.3985;stroke-linecap:butt;stroke-linejoin:miter;stroke:#000;stroke-opacity:1;stroke-miterlimit:10" transform="matrix(1 0 0 -1 48.233 9.004)"/><path d="M-1.196 1.593C-1.095.995-.001.101.3-.001 0-.098-1.095-.997-1.196-1.595" style="fill:none;stroke-width:.31879;stroke-linecap:round;stroke-linejoin:round;stroke:#000;stroke-opacity:1;stroke-miterlimit:10" transform="matrix(1 0 0 -1 38.075 37.35)"/><use xlink:href="#a" x="4.401" y="39.028" style="fill:#000;fill-opacity:1"/><use xlink:href="#b" x="11.054" y="40.821" style="fill:#000;fill-opacity:1"/><path d="M-10.159-56.695h-18.187" style="fill:none;stroke-width:.3985;stroke-linecap:butt;stroke-linejoin:miter;stroke:#000;stroke-opacity:1;stroke-miterlimit:10" transform="matrix(1 0 0 -1 48.233 9.004)"/><path d="M-1.196 1.592C-1.095.994-.001.1.3-.002 0-.099-1.095-.998-1.196-1.595" style="fill:none;stroke-width:.31879;stroke-linecap:round;stroke-linejoin:round;stroke:#000;stroke-opacity:1;stroke-miterlimit:10" transform="matrix(1 0 0 -1 38.075 65.698)"/><use xlink:href="#a" x="4.401" y="67.374" style="fill:#000;fill-opacity:1"/><use xlink:href="#c" x="11.054" y="69.167" style="fill:#000;fill-opacity:1"/><path d="M-10.159-85.039h-18.187" style="fill:none;stroke-width:.3985;stroke-linecap:butt;stroke-linejoin:miter;stroke:#000;stroke-opacity:1;stroke-miterlimit:10" transform="matrix(1 0 0 -1 48.233 9.004)"/><path d="M-1.196 1.595C-1.095.998-.001.1.3.001 0-.1-1.095-.995-1.196-1.592" style="fill:none;stroke-width:.31879;stroke-linecap:round;stroke-linejoin:round;stroke:#000;stroke-opacity:1;stroke-miterlimit:10" transform="matrix(1 0 0 -1 38.075 94.044)"/><use xlink:href="#a" x="4.401" y="95.721" style="fill:#000;fill-opacity:1"/><use xlink:href="#d" x="11.054" y="97.514" style="fill:#000;fill-opacity:1"/><path d="M151.435-42.52h18.187" style="fill:none;stroke-width:.3985;stroke-linecap:butt;stroke-linejoin:miter;stroke:#000;stroke-opacity:1;stroke-miterlimit:10" transform="matrix(1 0 0 -1 48.233 9.004)"/><path d="M-1.195 1.595C-1.098.997 0 .098.3 0 0-.101-1.098-.995-1.195-1.593" style="fill:none;stroke-width:.31879;stroke-linecap:round;stroke-linejoin:round;stroke:#000;stroke-opacity:1;stroke-miterlimit:10" transform="matrix(1 0 0 -1 217.856 51.524)"/><use xlink:href="#e" x="222.413" y="52.935" style="fill:#000;fill-opacity:1"/><use xlink:href="#b" x="228.12" y="54.729" style="fill:#000;fill-opacity:1"/><path d="M151.435-70.867h18.187" style="fill:none;stroke-width:.3985;stroke-linecap:butt;stroke-linejoin:miter;stroke:#000;stroke-opacity:1;stroke-miterlimit:10" transform="matrix(1 0 0 -1 48.233 9.004)"/><path d="M-1.195 1.594C-1.098.996 0 .1.3 0 0-.098-1.098-.996-1.195-1.594" style="fill:none;stroke-width:.31879;stroke-linecap:round;stroke-linejoin:round;stroke:#000;stroke-opacity:1;stroke-miterlimit:10" transform="matrix(1 0 0 -1 217.856 79.871)"/><use xlink:href="#e" x="222.413" y="81.282" style="fill:#000;fill-opacity:1"/><use xlink:href="#c" x="228.12" y="83.075" style="fill:#000;fill-opacity:1"/></svg>