<svg xmlns="http://www.w3.org/2000/svg" xmlns:xlink="http://www.w3.org/1999/xlink" width="167.304" height="157.241" viewBox="0 0 125.478 117.931"><defs><clipPath id="a"><path d="M0 0h125v117.93H0Zm0 0"/></clipPath><clipPath id="b"><path d="M0 7h125.477v97H0Zm0 0"/></clipPath><clipPath id="c"><path d="M28 25h69v92.93H28Zm0 0"/></clipPath><symbol overflow="visible" id="d"><path style="stroke:none" d="M4.625-8.313c-.047-.156-.078-.218-.234-.218-.172 0-.188.031-.25.219l-2.5 7.156c-.172.484-.5.797-1.266.812V0c.719-.031.75-.031 1.14-.031.344 0 .907 0 1.22.031v-.344c-.5-.015-.797-.265-.797-.594 0-.078 0-.109.062-.25l.547-1.593h3.015L6.22-.906c.062.14.062.172.062.203 0 .36-.61.36-.922.36V0c.282-.031 1.235-.031 1.563-.031.328 0 1.187 0 1.469.031v-.344c-.782 0-.985 0-1.157-.5Zm-.578 1.204 1.39 3.984H2.672Zm0 0"/></symbol><symbol overflow="visible" id="e"><path style="stroke:none" d="M.516-8.156v.344H.75c.86 0 .906.109.906.562v6.344c0 .437-.047.562-.906.562H.516V0h4.5c1.53 0 2.609-1.047 2.609-2.188 0-.968-.875-1.921-2.297-2.078 1.14-.218 1.969-.984 1.969-1.875 0-1.03-1.047-2.015-2.61-2.015ZM2.562-4.36v-2.985c0-.39.016-.468.547-.468h1.5c1.204 0 1.625 1.015 1.625 1.671 0 .782-.609 1.782-1.937 1.782ZM3.11-.344c-.53 0-.546-.094-.546-.484v-3.297h2.234c1.14 0 1.734 1 1.734 1.922 0 .969-.718 1.86-1.89 1.86Zm0 0"/></symbol></defs><g clip-path="url(#a)"><path style="fill-rule:nonzero;fill:#fff;fill-opacity:1;stroke-width:.3985;stroke-linecap:butt;stroke-linejoin:miter;stroke:#00adef;stroke-opacity:1;stroke-miterlimit:10" d="M-5.347-19.518v116.53h124.082v-116.53Zm0 0" transform="matrix(1 0 0 -1 6.046 97.712)"/></g><g clip-path="url(#b)"><path style="fill:none;stroke-width:.3985;stroke-linecap:butt;stroke-linejoin:miter;stroke:red;stroke-opacity:1;stroke-miterlimit:10" d="m0 .001 113.388 85.04" transform="matrix(1 0 0 -1 6.046 97.712)"/></g><g clip-path="url(#c)"><path style="fill:none;stroke-width:.3985;stroke-linecap:butt;stroke-linejoin:miter;stroke:#00adef;stroke-opacity:1;stroke-miterlimit:10" d="M28.349-14.175c6.164 34.973 50.523 105.84 56.69 70.867" transform="matrix(1 0 0 -1 6.046 97.712)"/></g><path style="fill:none;stroke-width:.79701;stroke-linecap:butt;stroke-linejoin:miter;stroke:#0f0;stroke-opacity:1;stroke-miterlimit:10" d="M50.153 37.59 83.247 62.44" transform="matrix(1 0 0 -1 6.046 97.712)"/><use xlink:href="#d" x="51.811" y="56.021" style="fill:#00adef;fill-opacity:1"/><use xlink:href="#e" x="85.149" y="47.546" style="fill:#00adef;fill-opacity:1"/></svg>