<svg xmlns="http://www.w3.org/2000/svg" xmlns:xlink="http://www.w3.org/1999/xlink" width="64.679" height="247.399" viewBox="0 0 48.509 185.549"><defs><symbol id="b" overflow="visible"><path d="M4.875-4.016c.11-.265.313-.78 1.078-.796v-.344c-.344.031-.516.031-.89.031-.25 0-.422 0-.97-.031v.343c.5.032.563.391.563.516 0 .11-.031.172-.093.313L3.343-.891 2.017-4.266c-.063-.171-.079-.171-.079-.234 0-.313.454-.313.672-.313v-.343c-.296.031-.921.031-1.25.031-.39 0-.421 0-1.14-.031v.343c.672 0 .781.063.922.422L2.859-.109c.063.171.079.234.22.234.093 0 .155-.031.25-.234Zm0 0" style="stroke:none"/></symbol><symbol id="c" overflow="visible"><path d="M4.578-2.766c.266 0 .281 0 .281-.234 0-1.203-.64-2.328-2.093-2.328-1.36 0-2.407 1.234-2.407 2.703 0 1.578 1.22 2.75 2.547 2.75 1.422 0 1.953-1.297 1.953-1.547 0-.078-.046-.125-.125-.125-.093 0-.125.063-.14.125-.313 1-1.11 1.281-1.625 1.281-.5 0-1.703-.343-1.703-2.406v-.219ZM1.281-3c.094-1.875 1.14-2.094 1.485-2.094 1.28 0 1.343 1.688 1.359 2.094Zm0 0" style="stroke:none"/></symbol><symbol id="d" overflow="visible"><path d="M4.328-4.422c-.14 0-.594 0-.594.484 0 .297.204.5.5.5.266 0 .5-.171.5-.515 0-.797-.843-1.375-1.812-1.375-1.39 0-2.5 1.234-2.5 2.75 0 1.531 1.14 2.703 2.5 2.703 1.578 0 1.937-1.438 1.937-1.547 0-.11-.093-.11-.125-.11-.109 0-.125.032-.156.188C4.312-.5 3.672-.14 3.031-.14c-.734 0-1.703-.64-1.703-2.453 0-1.984 1.016-2.469 1.61-2.469.453 0 1.109.172 1.39.641Zm0 0" style="stroke:none"/></symbol><symbol id="e" overflow="visible"><path d="M2.984 2.984v-.437H1.828V-8.516h1.156v-.453H1.391V2.984Zm0 0" style="stroke:none"/></symbol><symbol id="f" overflow="visible"><path d="M5.36-3.828c0-.985-.063-1.953-.5-2.86-.485-1-1.344-1.265-1.938-1.265-.688 0-1.531.344-1.985 1.344-.328.75-.453 1.5-.453 2.78 0 1.157.094 2.032.516 2.892A2.132 2.132 0 0 0 2.922.25c1.031 0 1.625-.625 1.984-1.313.422-.89.453-2.062.453-2.765ZM2.921.016c-.39 0-1.172-.22-1.39-1.516-.126-.719-.126-1.625-.126-2.469 0-.984 0-1.86.188-2.562.203-.813.812-1.172 1.328-1.172.453 0 1.14.266 1.375 1.297.156.687.156 1.625.156 2.437 0 .797 0 1.703-.14 2.438C4.093-.22 3.328.016 2.921.016Zm0 0" style="stroke:none"/></symbol><symbol id="g" overflow="visible"><path d="M1.86-8.969H.25v.453h1.156V2.547H.25v.437h1.61Zm0 0" style="stroke:none"/></symbol><symbol id="h" overflow="visible"><path d="M3.438-7.656c0-.282 0-.297-.235-.297-.281.328-.89.766-2.11.766v.343c.266 0 .86 0 1.532-.297v6.22c0 .437-.047.577-1.094.577h-.375V0c.328-.031 1.485-.031 1.875-.031.406 0 1.547 0 1.875.031v-.344h-.375c-1.047 0-1.093-.14-1.093-.578Zm0 0" style="stroke:none"/></symbol><symbol id="i" overflow="visible"><path d="M5.266-2.016H5c-.047.204-.14.875-.25 1.063-.094.11-.766.11-1.125.11H1.406c.328-.282 1.063-1.048 1.36-1.329 1.828-1.672 2.5-2.297 2.5-3.484 0-1.375-1.094-2.297-2.485-2.297-1.375 0-2.203 1.187-2.203 2.219 0 .609.531.609.563.609.265 0 .562-.188.562-.563 0-.343-.219-.562-.562-.562-.094 0-.125 0-.157.016.22-.813.875-1.375 1.641-1.375 1.016 0 1.64.859 1.64 1.953 0 1.015-.577 1.906-1.265 2.672L.578-.281V0h4.375Zm0 0" style="stroke:none"/></symbol><clipPath id="a"><path d="M0 0h48.508v185.55H0Zm0 0"/></clipPath></defs><path d="M.7 184.852V.695h47.112v184.157Zm0 0" style="stroke:none;fill-rule:nonzero;fill:#fff;fill-opacity:1"/><g clip-path="url(#a)"><path d="M-23.556-15.228V168.93h47.114V-15.228Zm0 0" style="fill:none;stroke-width:.3985;stroke-linecap:butt;stroke-linejoin:miter;stroke:#00adef;stroke-opacity:1;stroke-miterlimit:10" transform="matrix(1 0 0 -1 24.255 169.624)"/></g><path d="M-18.208-9.88H18.21V9.878h-36.418Zm0 0" style="fill-rule:nonzero;fill:#fff;fill-opacity:1;stroke-width:.3985;stroke-linecap:butt;stroke-linejoin:miter;stroke:#00adef;stroke-opacity:1;stroke-miterlimit:10" transform="matrix(1 0 0 -1 24.255 169.624)"/><use xlink:href="#b" x="9.947" y="172.613" style="fill:#00adef;fill-opacity:1"/><g style="fill:#00adef;fill-opacity:1"><use xlink:href="#c" x="15.803" y="172.613"/><use xlink:href="#d" x="21.006" y="172.613"/><use xlink:href="#e" x="26.208" y="172.613"/><use xlink:href="#f" x="29.46" y="172.613"/><use xlink:href="#g" x="35.314" y="172.613"/></g><path d="M-18.208 38.624H18.21v19.758h-36.418Zm0 0" style="fill-rule:nonzero;fill:#fff;fill-opacity:1;stroke-width:.3985;stroke-linecap:butt;stroke-linejoin:miter;stroke:#00adef;stroke-opacity:1;stroke-miterlimit:10" transform="matrix(1 0 0 -1 24.255 169.624)"/><use xlink:href="#b" x="9.947" y="124.11" style="fill:#00adef;fill-opacity:1"/><g style="fill:#00adef;fill-opacity:1"><use xlink:href="#c" x="15.803" y="124.11"/><use xlink:href="#d" x="21.006" y="124.11"/><use xlink:href="#e" x="26.208" y="124.11"/><use xlink:href="#h" x="29.46" y="124.11"/><use xlink:href="#g" x="35.314" y="124.11"/></g><path d="M-18.208 143.823H18.21v19.758h-36.418Zm0 0" style="fill-rule:nonzero;fill:#fff;fill-opacity:1;stroke-width:.3985;stroke-linecap:butt;stroke-linejoin:miter;stroke:#00adef;stroke-opacity:1;stroke-miterlimit:10" transform="matrix(1 0 0 -1 24.255 169.624)"/><use xlink:href="#b" x="9.947" y="18.913" style="fill:#00adef;fill-opacity:1"/><g style="fill:#00adef;fill-opacity:1"><use xlink:href="#c" x="15.803" y="18.913"/><use xlink:href="#d" x="21.006" y="18.913"/><use xlink:href="#e" x="26.208" y="18.913"/><use xlink:href="#i" x="29.46" y="18.913"/><use xlink:href="#g" x="35.314" y="18.913"/></g></svg>