<svg xmlns="http://www.w3.org/2000/svg" viewBox="0 0 512 512" height="512pt" width="512pt"><g fill-rule="evenodd"><path d="M266.725 66.632c-44.729 2.657-86.41 17.278-125.016 43.82a259.483 259.483 0 0 0-13.342 10.003c-32.605 26.683-56.297 58.269-71.09 94.757-18.15 48.252-17.975 93.79.515 136.587 24.044 49.83 65.536 80.207 124.487 91.12 31.915 5.086 63.761 3.154 95.54-5.826 31.792-8.966 61.376-24.424 88.78-46.377l.339-.185a242.335 242.335 0 0 0 18.91-17.092l20.969 26.37 25.141-102.756-100.904 7.644 20.279 25.462a175.984 175.984 0 0 1-16.296 14.734l-1.043.91c-21.606 16.965-44.959 29.156-70.046 36.544-25.087 7.275-50.16 9.222-75.248 5.826-46.002-7.275-78.715-29.398-98.14-66.383-15.483-32.495-16.35-67.775-2.6-105.854 11.798-30.179 31.21-56.38 58.26-78.56a690.8 690.8 0 0 1 10.58-7.998c22.648-15.53 47.383-25.832 74.204-30.918 26.7-5.101 52.315-4.916 76.82.54l17.338-27.096c-18.842-4.604-38.322-6.366-58.437-5.272" fill="#4575b5"/><path d="M468.207 147.735l-287.661 86.573.867 14.365 274.995-52.913 11.799-48.025m-28.27 116.226L181.413 281.41l-1.03-14.365 271.176-51.109-11.622 48.025" fill="#87a83f"/></g></svg>