<?xml version="1.0" encoding="UTF-8" standalone="no"?>
<svg
   xmlns:dc="http://purl.org/dc/elements/1.1/"
   xmlns:cc="http://creativecommons.org/ns#"
   xmlns:rdf="http://www.w3.org/1999/02/22-rdf-syntax-ns#"
   xmlns:svg="http://www.w3.org/2000/svg"
   xmlns="http://www.w3.org/2000/svg"
   xmlns:sodipodi="http://sodipodi.sourceforge.net/DTD/sodipodi-0.dtd"
   xmlns:inkscape="http://www.inkscape.org/namespaces/inkscape"
   enable-background="new 0 0 32 32"
   version="1.1"
   viewBox="0 0 512 512"
   xml:space="preserve"
   id="svg121"
   sodipodi:docname="social-skype.svg"
   width="512"
   height="512"
   inkscape:version="1.0.2 (e86c870879, 2021-01-15)"><metadata
     id="metadata127"><rdf:RDF><cc:Work
         rdf:about=""><dc:format>image/svg+xml</dc:format><dc:type
           rdf:resource="http://purl.org/dc/dcmitype/StillImage" /></cc:Work></rdf:RDF></metadata><defs
     id="defs125" /><sodipodi:namedview
     pagecolor="#ffffff"
     bordercolor="#666666"
     borderopacity="1"
     objecttolerance="10"
     gridtolerance="10"
     guidetolerance="10"
     inkscape:pageopacity="0"
     inkscape:pageshadow="2"
     inkscape:window-width="640"
     inkscape:window-height="480"
     id="namedview123"
     showgrid="false"
     inkscape:zoom="1.7246094"
     inkscape:cx="256"
     inkscape:cy="256"
     inkscape:current-layer="svg121" /><g
     id="g116"
     style="stroke-width:0.0625;fill:#000000"
     transform="scale(16)"><path
       d="M 16,0 C 7.163,0 0,7.163 0,16 0,24.836 7.163,32 16,32 24.837,32 32,24.836 32,16 32,7.163 24.837,0 16,0 Z"
       fill="#333333"
       id="path114"
       style="stroke-width:0.00390625;fill:#000000" /></g><path
     d="m 267.76,360.272 c -42.304,2.24 -62.096,-7.296 -80.24,-24.656 -20.256,-19.392 -12.128,-41.504 4.384,-42.608 16.496,-1.12 26.4,19.056 35.2,24.688 8.8,5.6 42.24,18.352 59.92,-2.272 19.232,-22.416 -12.8,-34.016 -36.288,-37.536 -33.52,-5.056 -75.856,-23.552 -72.56,-60 3.296,-36.416 30.336,-55.088 58.8,-57.728 36.288,-3.36 59.904,5.6 78.592,21.872 21.6,18.784 9.904,39.776 -3.84,41.472 -13.712,1.68 -29.104,-30.896 -59.344,-31.392 -31.168,-0.496 -52.224,33.072 -13.76,42.608 38.496,9.536 79.712,13.44 94.544,49.312 14.848,35.888 -23.072,73.984 -65.408,76.24 z m 119.296,-85.344 c 0.8,-5.968 1.248,-12.048 1.248,-18.208 0,-74.128 -59.552,-134.24 -132.992,-134.24 -7.296,0 -14.464,0.608 -21.424,1.776 -12.496,-8.256 -27.36,-13.072 -43.344,-13.072 -43.856,0 -79.36,36.048 -79.36,80.528 0,16.192 4.688,31.216 12.784,43.84 -1.088,6.896 -1.648,13.968 -1.648,21.152 0,74.144 59.52,134.24 132.992,134.24 8.288,0 16.368,-0.816 24.224,-2.256 12.192,7.664 26.56,12.144 41.952,12.144 43.84,0 79.36,-36.048 79.36,-80.528 -0.016,-16.832 -5.088,-32.464 -13.792,-45.376 z"
     fill="#ffffff"
     id="path118"
     style="stroke-width:1" /></svg>
