<?xml version="1.0" encoding="UTF-8" standalone="no"?>
<svg
   xmlns:dc="http://purl.org/dc/elements/1.1/"
   xmlns:cc="http://creativecommons.org/ns#"
   xmlns:rdf="http://www.w3.org/1999/02/22-rdf-syntax-ns#"
   xmlns:svg="http://www.w3.org/2000/svg"
   xmlns="http://www.w3.org/2000/svg"
   xmlns:sodipodi="http://sodipodi.sourceforge.net/DTD/sodipodi-0.dtd"
   xmlns:inkscape="http://www.inkscape.org/namespaces/inkscape"
   enable-background="new 0 0 512 512"
   height="512px"
   id="Layer_1"
   version="1.1"
   viewBox="0 0 512 512"
   width="512px"
   xml:space="preserve"
   sodipodi:docname="social-facebook.svg"
   inkscape:version="1.0.2 (e86c870879, 2021-01-15)"><metadata
     id="metadata67"><rdf:RDF><cc:Work
         rdf:about=""><dc:format>image/svg+xml</dc:format><dc:type
           rdf:resource="http://purl.org/dc/dcmitype/StillImage" /></cc:Work></rdf:RDF></metadata><defs
     id="defs65" /><sodipodi:namedview
     pagecolor="#ffffff"
     bordercolor="#666666"
     borderopacity="1"
     objecttolerance="10"
     gridtolerance="10"
     guidetolerance="10"
     inkscape:pageopacity="0"
     inkscape:pageshadow="2"
     inkscape:window-width="640"
     inkscape:window-height="480"
     id="namedview63"
     showgrid="false"
     inkscape:zoom="1.7714844"
     inkscape:cx="256"
     inkscape:cy="256"
     inkscape:current-layer="Layer_1" /><path
     id="path56"
     d="M 256 0 C 185.268 0 121.33833 28.628375 74.986328 74.984375 C 28.634328 121.34037 9.4739031e-15 185.268 0 256 C 0 326.732 28.634328 390.66067 74.986328 437.01367 C 121.33833 483.36767 185.268 512 256 512 C 326.732 512 390.66558 483.36767 437.01758 437.01367 C 483.36858 390.66067 512 326.732 512 256 C 512 185.268 483.36858 121.34038 437.01758 74.984375 C 390.66558 28.628375 326.732 -9.4739031e-15 256 0 z M 275.98828 125.44531 L 316.38867 125.44531 L 316.38867 170.24023 L 287.05078 170.24023 C 282.22378 170.24023 275.55859 172.65084 275.55859 182.71484 L 275.55859 203.69141 L 317.09961 203.69141 L 313.98047 235.44531 L 312.27344 256 L 273.58008 256 L 273.58008 386.69531 L 221.27148 386.69531 L 221.27148 256 L 194.90625 256 L 194.90625 235.30078 L 194.90625 203.69141 L 220.99219 203.69141 L 220.99219 180.16211 C 220.99219 158.61411 231.05528 125.44531 275.98828 125.44531 z " /></svg>
