<?xml version="1.0" encoding="UTF-8" standalone="no"?>
<svg
   xmlns:dc="http://purl.org/dc/elements/1.1/"
   xmlns:cc="http://creativecommons.org/ns#"
   xmlns:rdf="http://www.w3.org/1999/02/22-rdf-syntax-ns#"
   xmlns:svg="http://www.w3.org/2000/svg"
   xmlns="http://www.w3.org/2000/svg"
   xmlns:sodipodi="http://sodipodi.sourceforge.net/DTD/sodipodi-0.dtd"
   xmlns:inkscape="http://www.inkscape.org/namespaces/inkscape"
   enable-background="new 0 0 32 32"
   version="1.1"
   viewBox="0 0 512 512"
   xml:space="preserve"
   id="svg121"
   sodipodi:docname="social-skype.svg"
   width="512"
   height="512"
   inkscape:version="1.0.2 (e86c870879, 2021-01-15)"><metadata
     id="metadata127"><rdf:RDF><cc:Work
         rdf:about=""><dc:format>image/svg+xml</dc:format><dc:type
           rdf:resource="http://purl.org/dc/dcmitype/StillImage" /><dc:title></dc:title></cc:Work></rdf:RDF></metadata><defs
     id="defs125" /><sodipodi:namedview
     pagecolor="#828282"
     bordercolor="#666666"
     borderopacity="1"
     objecttolerance="10"
     gridtolerance="10"
     guidetolerance="10"
     inkscape:pageopacity="0"
     inkscape:pageshadow="2"
     inkscape:window-width="640"
     inkscape:window-height="480"
     id="namedview123"
     showgrid="false"
     inkscape:zoom="1.7246094"
     inkscape:cx="256"
     inkscape:cy="256"
     inkscape:current-layer="svg121"
     inkscape:document-rotation="0" /><path
     id="path114"
     style="fill:#000000;stroke-width:0.0625"
     d="M 256 0 C 114.608 0 0 114.608 0 256 C 0 397.376 114.608 512 256 512 C 397.392 512 512 397.376 512 256 C 512 114.608 397.392 0 256 0 z M 190.54492 111.18359 C 206.52892 111.18359 221.39267 115.99986 233.88867 124.25586 C 240.84867 123.08786 248.0165 122.48047 255.3125 122.48047 C 328.7525 122.48047 388.30469 182.5927 388.30469 256.7207 C 388.30469 262.8807 387.85664 268.95973 387.05664 274.92773 C 395.76064 287.83973 400.83166 303.47269 400.84766 320.30469 C 400.84766 364.78469 365.32828 400.83203 321.48828 400.83203 C 306.09628 400.83203 291.72716 396.3515 279.53516 388.6875 C 271.67916 390.1275 263.6005 390.94336 255.3125 390.94336 C 181.8405 390.94336 122.32031 330.84713 122.32031 256.70312 C 122.32031 249.51912 122.88075 242.44873 123.96875 235.55273 C 115.87275 222.92873 111.18359 207.90489 111.18359 191.71289 C 111.18359 147.23289 146.68892 111.18359 190.54492 111.18359 z M 250.00586 159.4668 C 245.85073 159.51158 241.51256 159.74016 236.97656 160.16016 C 208.51256 162.80016 181.47178 181.47267 178.17578 217.88867 C 174.87978 254.33667 217.21633 272.83267 250.73633 277.88867 C 274.22433 281.40867 306.25544 293.00783 287.02344 315.42383 C 269.34344 336.04783 235.90352 323.29531 227.10352 317.69531 C 218.30352 312.06331 208.4003 291.88781 191.9043 293.00781 C 175.3923 294.11181 167.26353 316.22323 187.51953 335.61523 C 205.66353 352.97523 225.45577 362.51148 267.75977 360.27148 C 310.09577 358.01548 348.01597 319.91925 333.16797 284.03125 C 318.33597 248.15925 277.11905 244.2567 238.62305 234.7207 C 200.15905 225.1847 221.21677 191.61533 252.38477 192.11133 C 282.62477 192.60733 298.01652 225.18391 311.72852 223.50391 C 325.47252 221.80791 337.16836 200.81525 315.56836 182.03125 C 299.21636 167.79325 279.09173 159.15333 250.00586 159.4668 z " /></svg>
