<svg xmlns="http://www.w3.org/2000/svg" width="512" height="512"><path d="M256 0C114.615 0 0 114.615 0 256s114.615 256 256 256 256-114.615 256-256S397.385 0 256 0zm-15.32 137.846h14.677l118.797 92.236L354.496 256l-128.035-99.422 14.219-18.732zm-30.32 49.23 144.1 68.9-13.435 29.563-7.4-3.539-5.547 23.23h6.692v29.54H177.23v-29.54h150.848L177.23 274.174l6.684-28.02 131.258 27.022-118.248-56.545 13.435-29.555zm-72.514 98.463h29.539v59.076h177.23V285.54h29.54v88.615h-236.31V285.54z" style="fill-rule:evenodd;stroke:none;stroke-width:.342328"/></svg>