<svg xmlns="http://www.w3.org/2000/svg" xml:space="preserve" width="512" height="512"><path style="fill:#000;stroke-width:.0625" d="M256 0C114.608 0 0 114.608 0 256c0 141.376 114.608 256 256 256s256-114.624 256-256C512 114.608 397.392 0 256 0zm55.475 139.422c5.642.033 11.239.662 15.789 1.922 4.08 1.232 11.793 5.36 17.297 9.056l9.966 6.817 10.993-3.504c6.112-1.84 14.255-4.928 17.92-6.992 3.455-1.84 6.511-2.864 6.511-2.256 0 3.488-7.536 15.423-13.84 22.015-8.56 9.264-6.11 10.08 11.186 3.905 10.368-3.504 10.59-3.504 8.543.416-1.232 2.048-7.536 9.248-14.256 15.84-11.392 11.312-12 12.543-12 22.015 0 14.608-6.912 45.073-13.84 61.729-12.832 31.296-40.305 63.615-67.793 79.87-38.672 22.833-90.175 28.61-133.535 15.233-14.432-4.544-39.28-16.063-39.28-18.111 0-.624 7.536-1.44 16.704-1.648 19.136-.384 38.272-5.73 54.56-15.217l10.993-6.592-12.625-4.32c-17.92-6.176-34-20.384-38.065-33.76-1.232-4.336-.816-4.543 10.576-4.543l11.825-.178-9.985-4.734c-11.808-5.984-22.59-16.05-27.887-26.354-3.872-7.424-8.752-26.144-7.328-27.584.4-.624 4.689.608 9.569 2.256 14.032 5.136 15.87 3.906 7.726-4.734-15.264-15.648-19.95-38.914-12.623-60.93l3.44-9.871 13.44 13.377c27.487 26.96 59.856 43.006 96.896 47.742l10.175 1.233-.607-10.08c-1.824-26.129 14.255-50 39.695-59.264 5.274-1.854 12.605-2.797 19.86-2.754z"/></svg>