<?xml version="1.0" encoding="UTF-8" standalone="no"?>
<svg
   xmlns:dc="http://purl.org/dc/elements/1.1/"
   xmlns:cc="http://creativecommons.org/ns#"
   xmlns:rdf="http://www.w3.org/1999/02/22-rdf-syntax-ns#"
   xmlns:svg="http://www.w3.org/2000/svg"
   xmlns="http://www.w3.org/2000/svg"
   xmlns:sodipodi="http://sodipodi.sourceforge.net/DTD/sodipodi-0.dtd"
   xmlns:inkscape="http://www.inkscape.org/namespaces/inkscape"
   enable-background="new 0 0 64 64"
   version="1.1"
   viewBox="0 0 512 512"
   xml:space="preserve"
   id="svg78"
   sodipodi:docname="social-github.svg"
   width="512"
   height="512"
   inkscape:version="1.0.2 (e86c870879, 2021-01-15)"><metadata
     id="metadata84"><rdf:RDF><cc:Work
         rdf:about=""><dc:format>image/svg+xml</dc:format><dc:type
           rdf:resource="http://purl.org/dc/dcmitype/StillImage" /></cc:Work></rdf:RDF></metadata><defs
     id="defs82" /><sodipodi:namedview
     pagecolor="#ffffff"
     bordercolor="#666666"
     borderopacity="1"
     objecttolerance="10"
     gridtolerance="10"
     guidetolerance="10"
     inkscape:pageopacity="0"
     inkscape:pageshadow="2"
     inkscape:window-width="640"
     inkscape:window-height="480"
     id="namedview80"
     showgrid="false"
     inkscape:zoom="1.7246094"
     inkscape:cx="256"
     inkscape:cy="256"
     inkscape:current-layer="svg78" /><path
     id="path69"
     style="fill:#000000;stroke-width:1"
     d="M 256 0 C 114.616 0 0 114.616 0 256 C 0 397.384 114.616 512 256 512 C 397.384 512 512 397.384 512 256 C 512 114.616 397.384 0 256 0 z M 183.08789 110.67969 C 183.08789 110.67969 202.12772 110.68014 221.51172 139.74414 C 231.11172 130.14414 260.26494 130.06445 269.96094 130.06445 C 279.62494 130.06445 308.79258 130.14414 318.39258 139.74414 C 337.77658 110.68014 356.86328 110.67969 356.86328 110.67969 C 367.23128 136.68769 359.12016 154.35291 357.16016 159.12891 C 366.84016 168.80891 376.54492 178.51294 376.54492 226.96094 C 376.54492 275.40894 341.36725 299.69666 299.03125 304.47266 C 304.48725 309.20066 308.71289 325.87116 308.71289 333.53516 L 308.73633 401.32812 L 270.01562 401.32812 L 231.26367 401.32812 C 231.26367 401.32812 231.37567 378.33617 231.26367 362.57617 C 178.23167 374.00017 163.43164 333.51172 163.43164 333.51172 C 153.75164 314.12772 144.04883 304.44727 144.04883 304.44727 C 124.66483 292.94327 144.04883 294.76758 144.04883 294.76758 C 163.43283 294.76758 173.11133 314.15234 173.11133 314.15234 C 190.11933 343.02434 220.37623 338.37516 231.24023 333.53516 C 231.24023 323.85516 235.47992 309.20066 240.91992 304.47266 C 198.59992 299.71266 163.37695 275.40894 163.37695 226.96094 C 163.37695 178.51294 173.10497 168.83291 182.79297 159.12891 C 180.84097 154.35291 172.71989 136.68769 183.08789 110.67969 z " /></svg>
