<?xml version="1.0" encoding="UTF-8" standalone="no"?>
<svg
   xmlns:dc="http://purl.org/dc/elements/1.1/"
   xmlns:cc="http://creativecommons.org/ns#"
   xmlns:rdf="http://www.w3.org/1999/02/22-rdf-syntax-ns#"
   xmlns:svg="http://www.w3.org/2000/svg"
   xmlns="http://www.w3.org/2000/svg"
   xmlns:sodipodi="http://sodipodi.sourceforge.net/DTD/sodipodi-0.dtd"
   xmlns:inkscape="http://www.inkscape.org/namespaces/inkscape"
   height="512"
   version="1.1"
   viewBox="0 0 512 512"
   width="512"
   id="svg139"
   sodipodi:docname="social-stackoverflow.svg"
   inkscape:version="1.0.2 (e86c870879, 2021-01-15)">
  <metadata
     id="metadata143">
    <rdf:RDF>
      <cc:Work
         rdf:about="">
        <dc:format>image/svg+xml</dc:format>
        <dc:type
           rdf:resource="http://purl.org/dc/dcmitype/StillImage" />
      </cc:Work>
    </rdf:RDF>
  </metadata>
  <sodipodi:namedview
     pagecolor="#ffffff"
     bordercolor="#666666"
     borderopacity="1"
     objecttolerance="10"
     gridtolerance="10"
     guidetolerance="10"
     inkscape:pageopacity="0"
     inkscape:pageshadow="2"
     inkscape:window-width="640"
     inkscape:window-height="480"
     id="namedview141"
     showgrid="false"
     inkscape:zoom="1.7246094"
     inkscape:cx="256"
     inkscape:cy="256"
     inkscape:current-layer="svg139" />
  <title
     id="title129" />
  <defs
     id="defs131" />
  <path
     id="path133"
     style="fill-rule:evenodd;stroke:none;stroke-width:0.342328"
     d="M 256 0 C 114.6151 0 0 114.6151 0 256 C 0 397.3849 114.6151 512 256 512 C 397.3849 512 512 397.3849 512 256 C 512 114.6151 397.3849 0 256 0 z M 240.67969 137.8457 L 255.35742 137.8457 L 374.1543 230.08203 L 354.49609 256 L 226.46094 156.57812 L 240.67969 137.8457 z M 210.35938 187.07617 L 354.46094 255.97656 L 341.02539 285.53906 L 333.625 282 L 328.07812 305.23047 L 334.76953 305.23047 L 334.76953 334.76953 L 177.23047 334.76953 L 177.23047 305.23047 L 328.07812 305.23047 L 177.23047 274.17383 L 183.91406 246.1543 L 315.17188 273.17578 L 196.92383 216.63086 L 210.35938 187.07617 z M 137.8457 285.53906 L 167.38477 285.53906 L 167.38477 344.61523 L 344.61523 344.61523 L 344.61523 285.53906 L 374.1543 285.53906 L 374.1543 374.1543 L 137.8457 374.1543 L 137.8457 285.53906 z " />
</svg>
