<?xml version="1.0" encoding="UTF-8" standalone="no"?>
<svg
   xmlns:dc="http://purl.org/dc/elements/1.1/"
   xmlns:cc="http://creativecommons.org/ns#"
   xmlns:rdf="http://www.w3.org/1999/02/22-rdf-syntax-ns#"
   xmlns:svg="http://www.w3.org/2000/svg"
   xmlns="http://www.w3.org/2000/svg"
   xmlns:sodipodi="http://sodipodi.sourceforge.net/DTD/sodipodi-0.dtd"
   xmlns:inkscape="http://www.inkscape.org/namespaces/inkscape"
   enable-background="new 0 0 32 32"
   version="1.1"
   viewBox="0 0 512 512"
   xml:space="preserve"
   id="svg163"
   sodipodi:docname="social-twitter.svg"
   width="512"
   height="512"
   inkscape:version="1.0.2 (e86c870879, 2021-01-15)"><metadata
     id="metadata169"><rdf:RDF><cc:Work
         rdf:about=""><dc:format>image/svg+xml</dc:format><dc:type
           rdf:resource="http://purl.org/dc/dcmitype/StillImage" /></cc:Work></rdf:RDF></metadata><defs
     id="defs167" /><sodipodi:namedview
     pagecolor="#ffffff"
     bordercolor="#666666"
     borderopacity="1"
     objecttolerance="10"
     gridtolerance="10"
     guidetolerance="10"
     inkscape:pageopacity="0"
     inkscape:pageshadow="2"
     inkscape:window-width="640"
     inkscape:window-height="480"
     id="namedview165"
     showgrid="false"
     inkscape:zoom="1.7246094"
     inkscape:cx="256"
     inkscape:cy="256"
     inkscape:current-layer="svg163" /><path
     id="path156"
     style="fill:#000000;stroke-width:0.0625"
     d="M 256 0 C 114.608 0 0 114.608 0 256 C 0 397.376 114.608 512 256 512 C 397.392 512 512 397.376 512 256 C 512 114.608 397.392 0 256 0 z M 311.47461 139.42188 C 317.11716 139.45496 322.71367 140.08375 327.26367 141.34375 C 331.34367 142.57575 339.05655 146.70439 344.56055 150.40039 L 354.52734 157.2168 L 365.51953 153.71289 C 371.63153 151.87289 379.77545 148.7847 383.43945 146.7207 C 386.89545 144.8807 389.95117 143.85684 389.95117 144.46484 C 389.95117 147.95284 382.41533 159.88847 376.11133 166.48047 C 367.55133 175.74447 370.00088 176.56077 387.29688 170.38477 C 397.66487 166.88077 397.88784 166.88078 395.83984 170.80078 C 394.60784 172.84878 388.30398 180.04862 381.58398 186.64062 C 370.19198 197.95263 369.58398 199.18425 369.58398 208.65625 C 369.58398 223.26425 362.67214 253.72877 355.74414 270.38477 C 342.91214 301.68077 315.43917 333.99986 287.95117 350.25586 C 249.27917 373.08786 197.77602 378.86428 154.41602 365.48828 C 139.98402 360.94428 115.13672 349.42495 115.13672 347.37695 C 115.13672 346.75295 122.67184 345.93652 131.83984 345.72852 C 150.97584 345.34452 170.11239 339.99972 186.40039 330.51172 L 197.39258 323.91992 L 184.76758 319.59961 C 166.84758 313.42361 150.76712 299.21584 146.70312 285.83984 C 145.47112 281.50384 145.8873 281.29688 157.2793 281.29688 L 169.10352 281.11914 L 159.11914 276.38477 C 147.31114 270.40077 136.52842 260.33525 131.23242 250.03125 C 127.36042 242.60725 122.4803 223.88727 123.9043 222.44727 C 124.3043 221.82327 128.59266 223.05513 133.47266 224.70312 C 147.50466 229.83912 149.34322 228.60875 141.19922 219.96875 C 125.93522 204.32075 121.24817 181.05506 128.57617 159.03906 L 132.01562 149.16797 L 145.45508 162.54492 C 172.94308 189.50492 205.31156 205.55111 242.35156 210.28711 L 252.52734 211.51953 L 251.91992 201.43945 C 250.09592 175.31145 266.17523 151.43978 291.61523 142.17578 C 296.88923 140.32178 304.21991 139.37934 311.47461 139.42188 z " /></svg>
