<?xml version="1.0" encoding="UTF-8" standalone="no"?>
<svg
   xmlns:dc="http://purl.org/dc/elements/1.1/"
   xmlns:cc="http://creativecommons.org/ns#"
   xmlns:rdf="http://www.w3.org/1999/02/22-rdf-syntax-ns#"
   xmlns:svg="http://www.w3.org/2000/svg"
   xmlns="http://www.w3.org/2000/svg"
   xmlns:sodipodi="http://sodipodi.sourceforge.net/DTD/sodipodi-0.dtd"
   xmlns:inkscape="http://www.inkscape.org/namespaces/inkscape"
   height="512"
   viewBox="0 0 512 512"
   width="512"
   version="1.1"
   id="svg48"
   sodipodi:docname="social-email.svg"
   inkscape:version="1.0.2 (e86c870879, 2021-01-15)">
  <metadata
     id="metadata54">
    <rdf:RDF>
      <cc:Work
         rdf:about="">
        <dc:format>image/svg+xml</dc:format>
        <dc:type
           rdf:resource="http://purl.org/dc/dcmitype/StillImage" />
        <dc:title></dc:title>
      </cc:Work>
    </rdf:RDF>
  </metadata>
  <defs
     id="defs52" />
  <sodipodi:namedview
     pagecolor="#949494"
     bordercolor="#666666"
     borderopacity="1"
     objecttolerance="10"
     gridtolerance="10"
     guidetolerance="10"
     inkscape:pageopacity="0"
     inkscape:pageshadow="2"
     inkscape:window-width="640"
     inkscape:window-height="480"
     id="namedview50"
     showgrid="false"
     inkscape:zoom="1.6894531"
     inkscape:cx="256"
     inkscape:cy="256"
     inkscape:current-layer="svg48"
     inkscape:document-rotation="0" />
  <path
     id="path42"
     style="fill-rule:evenodd;stroke-width:1"
     d="M 256,0 C 114.6151,0 0,114.6151 0,256 0,397.3849 114.6151,512 256,512 397.3849,512 512,397.3849 512,256 512,114.6151 397.3849,0 256,0 Z M 141.72223,170.66667 h 226.23611 c 8.55535,0 13.7361,6.72054 13.7361,15.37499 V 331 c 0,7.81213 -5.79184,14.27778 -13.7361,14.27778 H 141.72223 C 133.76971,345.27777 128,338.88645 128,331 V 186.04166 c 0,-8.48929 4.83654,-15.37499 13.72223,-15.37499 z m 12.62499,22.51389 c -3.37754,0 -5.48611,1.99295 -5.48611,5.48611 0,3.29497 2.83752,4.52894 5.125,5.875 15.21961,8.95174 98.87206,62.68992 101.59722,63.11111 2.44439,0.37162 5.70425,-2.05484 7.38889,-3.19445 28.8702,-18.432 58.02133,-37.81197 87.18055,-55.58333 4.64104,-2.83251 11.76389,-6.50872 11.76389,-10.20833 0,-3.49316 -2.1003,-5.48611 -5.4861,-5.48611 -2.11407,0 -78.8981,49.73361 -87.52778,55.25 -4.22813,2.83251 -8.32329,5.16935 -12.40278,7.90277 l -12.875,-8.01389 c -4.97961,-3.05548 -87.18848,-55.13888 -89.27778,-55.13888 z" />
</svg>
