<svg xmlns="http://www.w3.org/2000/svg" xml:space="preserve" width="512" height="512"><path d="M256 0C114.616 0 0 114.616 0 256c0 141.384 114.616 256 256 256 141.384 0 256-114.616 256-256C512 114.616 397.384 0 256 0zm-72.912 110.68s19.04 0 38.424 29.064c9.6-9.6 38.753-9.68 48.449-9.68 9.664 0 38.832.08 48.432 9.68 19.384-29.064 38.47-29.064 38.47-29.064 10.368 26.008 2.257 43.673.297 48.449 9.68 9.68 19.385 19.384 19.385 67.832 0 48.448-35.178 72.736-77.514 77.512 5.456 4.728 9.682 21.398 9.682 29.062l.023 67.793H231.264s.112-22.992 0-38.752c-53.032 11.424-67.832-29.064-67.832-29.064-9.68-19.384-19.383-29.065-19.383-29.065-19.384-11.504 0-9.68 0-9.68 19.384 0 29.062 19.385 29.062 19.385 17.008 28.872 47.265 24.223 58.13 19.383 0-9.68 4.239-24.334 9.679-29.062-42.32-4.76-77.543-29.064-77.543-77.512s9.728-58.128 19.416-67.832c-1.952-4.776-10.073-22.441.295-48.45z" style="fill:#000;stroke-width:1"/></svg>