<svg xmlns="http://www.w3.org/2000/svg" xml:space="preserve" width="512" height="512"><path d="M256 0C114.616 0 0 114.616 0 256c0 141.384 114.616 256 256 256 141.384 0 256-114.616 256-256C512 114.616 397.384 0 256 0zm.145 84.176c83.08 0 150.511 67.464 150.511 150.576 0 83.408-67.431 150.871-150.511 150.871-25.048 0-48.648-6.27-69.424-17.078l-81.377 37.008 22.76-91.106c-14.224-23.048-22.76-50.383-22.76-79.695 0-83.112 67.433-150.576 150.8-150.576zm.023 30.152c-66.584 0-120.64 53.808-120.64 120.416 0 30.184 11.08 57.791 29.296 78.863l-16.512 41.848 36.727-23.36c19.912 14.809 44.377 23.344 71.129 23.344 66.576 0 120.352-54.07 120.352-120.695 0-66.6-53.784-120.416-120.352-120.416zm-42.145 52.96c3.992.271 7.402.569 8.538 2.84l12.806 33.311c.84 2.56-1.135 5.402-3.703 8.538-3.704 4.264-4.272 4.543-7.68 9.103-1.704 2.272-.568 5.128 0 6.264 3.704 8.832 12.24 18.8 19.92 25.912 7.976 7.104 18.488 14.8 27.592 17.943.568 0 3.975 1.433 6.543.865 2.272-.272 3.682-1.976 5.682-4.544 3.688-4.56 5.112-6.264 8.248-10.536 2.552-3.152 5.111-4.287 7.68-2.855l29.007 13.39c2.288 1.137 3.152 3.993 3.424 7.97.592 3.423.865 7.103.297 9.671-1.136 5.968-15.353 18.776-26.457 21.344-23.896 5.408-57.76-13.673-79.672-33.881-21.896-19.936-43.816-52.11-40.68-76.295 1.432-11.104 13.088-26.473 18.784-28.473 2.56-.568 6.263-.568 9.671-.568z" style="fill:#000;stroke-width:.125"/></svg>