<svg xmlns="http://www.w3.org/2000/svg" xml:space="preserve" width="512" height="512"><path d="M256 0C114.608 0 0 114.608 0 256c0 141.376 114.608 256 256 256s256-114.624 256-256C512 114.608 397.392 0 256 0zM155.328 113.248c19.472 0 31.472 12.784 31.84 29.584 0 16.432-12.367 29.6-32.207 29.6h-.354c-19.12 0-31.47-13.152-31.47-29.6 0-16.8 12.72-29.584 32.191-29.584zm167.84 78.545c37.456 0 65.535 24.48 65.535 77.088v98.191l-56.91.016v-91.633c0-23.024-8.242-38.719-28.85-38.719-15.728 0-25.087 10.593-29.199 20.817-1.504 3.648-1.873 8.767-1.873 13.87v95.65h-56.928s.752-155.184 0-171.264h56.928v24.271c7.536-11.664 21.073-28.287 51.297-28.287zm-196.656 4.016h56.912v171.263h-56.912V195.81z" style="stroke-width:1;fill:#000"/></svg>