<?xml version="1.0" encoding="UTF-8" standalone="no"?>
<svg
   xmlns:dc="http://purl.org/dc/elements/1.1/"
   xmlns:cc="http://creativecommons.org/ns#"
   xmlns:rdf="http://www.w3.org/1999/02/22-rdf-syntax-ns#"
   xmlns:svg="http://www.w3.org/2000/svg"
   xmlns="http://www.w3.org/2000/svg"
   xmlns:sodipodi="http://sodipodi.sourceforge.net/DTD/sodipodi-0.dtd"
   xmlns:inkscape="http://www.inkscape.org/namespaces/inkscape"
   enable-background="new 0 0 64 64"
   version="1.1"
   viewBox="0 0 512 512"
   xml:space="preserve"
   id="svg185"
   sodipodi:docname="social-whatsapp.svg"
   width="512"
   height="512"
   inkscape:version="1.0.2 (e86c870879, 2021-01-15)"><metadata
     id="metadata191"><rdf:RDF><cc:Work
         rdf:about=""><dc:format>image/svg+xml</dc:format><dc:type
           rdf:resource="http://purl.org/dc/dcmitype/StillImage" /></cc:Work></rdf:RDF></metadata><defs
     id="defs189" /><sodipodi:namedview
     pagecolor="#ffffff"
     bordercolor="#666666"
     borderopacity="1"
     objecttolerance="10"
     gridtolerance="10"
     guidetolerance="10"
     inkscape:pageopacity="0"
     inkscape:pageshadow="2"
     inkscape:window-width="640"
     inkscape:window-height="480"
     id="namedview187"
     showgrid="false"
     inkscape:zoom="1.7246094"
     inkscape:cx="256"
     inkscape:cy="273.66258"
     inkscape:current-layer="svg185" /><path
     id="path171"
     style="fill:#000000;stroke-width:0.125"
     d="M 256 0 C 114.616 0 0 114.616 0 256 C 0 397.384 114.616 512 256 512 C 397.384 512 512 397.384 512 256 C 512 114.616 397.384 0 256 0 z M 256.14453 84.175781 C 339.22453 84.175781 406.65625 151.63995 406.65625 234.75195 C 406.65625 318.15995 339.22453 385.62305 256.14453 385.62305 C 231.09653 385.62305 207.4967 379.35292 186.7207 368.54492 L 105.34375 405.55273 L 128.10352 314.44727 C 113.87952 291.39927 105.34375 264.06395 105.34375 234.75195 C 105.34375 151.63995 172.77653 84.175781 256.14453 84.175781 z M 256.16797 114.32812 C 189.58397 114.32812 135.52734 168.13614 135.52734 234.74414 C 135.52734 264.92814 146.60822 292.53542 164.82422 313.60742 L 148.3125 355.45508 L 185.03906 332.0957 C 204.95106 346.9037 229.41597 355.43945 256.16797 355.43945 C 322.74397 355.43945 376.51953 301.36814 376.51953 234.74414 C 376.51953 168.14414 322.73597 114.32812 256.16797 114.32812 z M 214.02344 167.28711 C 218.01544 167.55911 221.42455 167.85691 222.56055 170.12891 L 235.36719 203.43945 C 236.20719 205.99945 234.23206 208.84056 231.66406 211.97656 C 227.96006 216.24056 227.39237 216.52008 223.98438 221.08008 C 222.28037 223.35208 223.41637 226.20775 223.98438 227.34375 C 227.68837 236.17575 236.2243 246.14386 243.9043 253.25586 C 251.8803 260.35986 262.39209 268.05522 271.49609 271.19922 C 272.06409 271.19922 275.47106 272.63245 278.03906 272.06445 C 280.31106 271.79245 281.7207 270.08753 283.7207 267.51953 C 287.4087 262.95953 288.83275 261.25637 291.96875 256.98438 C 294.52075 253.83238 297.08044 252.69691 299.64844 254.12891 L 328.65625 267.51953 C 330.94425 268.65553 331.80808 271.51228 332.08008 275.48828 C 332.67208 278.91228 332.94495 282.59216 332.37695 285.16016 C 331.24095 291.12816 317.02392 303.93591 305.91992 306.50391 C 282.02392 311.91191 248.16005 292.83105 226.24805 272.62305 C 204.35205 252.68705 182.43236 220.51212 185.56836 196.32812 C 187.00036 185.22412 198.65556 169.85547 204.35156 167.85547 C 206.91156 167.28747 210.61544 167.28711 214.02344 167.28711 z " /></svg>
