<svg xmlns="http://www.w3.org/2000/svg" width="512" height="512"><path d="M239.131 310.789c-17.508-11.84-35.131-23.509-52.64-35.349-2.285-1.577-3.92-1.691-6.285 0l-44.435 29.851c35.658 23.738 106.515 71.075 106.515 71.075V314.89c0-1.394-1.772-3.177-3.155-4.102zM186.389 238.48q26.502-17.417 52.697-35.269a8.617 8.617 0 0 0 3.2-6.102v-59.086s-70.857 46.994-106.583 70.788c15.657 10.469 30.48 20.469 45.463 30.218 1.165.754 3.885.32 5.223-.549zM271.817 202.686q27.097 18.365 54.434 36.365a4.914 4.914 0 0 0 4.378 0l45.44-30.251-106.355-71.109v60.972a5.474 5.474 0 0 0 2.103 4.023zM258.411 226.709a6.023 6.023 0 0 0-5.417.194c-5.508 3.428-10.823 7.086-16.194 10.686-9.429 6.32-28.971 19.428-28.971 19.428l44.388 29.554a7.063 7.063 0 0 0 7.154.126l44.572-29.714s-38.937-25.897-45.532-30.274z" style="stroke-width:1"/><path d="m141 276.73 29.62-19.84L141 237.12z" style="stroke-width:.875" transform="matrix(1.14286 0 0 1.14286 -36.571 -36.571)"/><path d="M256 0C114.617 0 0 114.617 0 256c0 141.383 114.617 256 256 256 141.383 0 256-114.617 256-256C512 114.617 397.383 0 256 0Zm158.857 302.857c0 6.606-3.028 11.269-8.583 14.96q-70.525 46.857-140.903 93.932c-6.685 4.48-12.765 4.285-19.428-.16q-69.909-46.858-140.149-93.338c-5.84-3.874-8.674-8.64-8.674-15.691v-91.131c0-7.018 2.88-11.818 8.709-15.68 46.754-31.006 93.645-62.126 140.262-93.349 6.652-4.446 12.675-4.571 19.36-.103q70.332 47.097 140.869 93.932c5.349 3.554 8.514 7.942 8.514 14.468z" style="stroke-width:1;fill:#000"/><path d="M324.857 275.691q-25.817 17.532-51.874 34.675c-2.754 1.805-3.303 3.783-3.269 7.074v58.674L376 305.257l-44.034-29.577c-2.629-1.84-4.446-1.794-7.109.011z" style="stroke-width:1"/><path d="m370 237.06-29.59 19.87L370 276.68z" style="stroke-width:.875" transform="matrix(1.14286 0 0 1.14286 -36.571 -36.571)"/></svg>