<?xml version="1.0" encoding="UTF-8" standalone="no"?>
<svg
   xmlns:dc="http://purl.org/dc/elements/1.1/"
   xmlns:cc="http://creativecommons.org/ns#"
   xmlns:rdf="http://www.w3.org/1999/02/22-rdf-syntax-ns#"
   xmlns:svg="http://www.w3.org/2000/svg"
   xmlns="http://www.w3.org/2000/svg"
   xmlns:sodipodi="http://sodipodi.sourceforge.net/DTD/sodipodi-0.dtd"
   xmlns:inkscape="http://www.inkscape.org/namespaces/inkscape"
   enable-background="new 0 0 32 32"
   version="1.1"
   viewBox="0 0 512 512"
   xml:space="preserve"
   id="svg106"
   sodipodi:docname="social-linkedin.svg"
   width="512"
   height="512"
   inkscape:version="1.0.2 (e86c870879, 2021-01-15)"><metadata
     id="metadata112"><rdf:RDF><cc:Work
         rdf:about=""><dc:format>image/svg+xml</dc:format><dc:type
           rdf:resource="http://purl.org/dc/dcmitype/StillImage" /></cc:Work></rdf:RDF></metadata><defs
     id="defs110" /><sodipodi:namedview
     pagecolor="#ffffff"
     bordercolor="#666666"
     borderopacity="1"
     objecttolerance="10"
     gridtolerance="10"
     guidetolerance="10"
     inkscape:pageopacity="0"
     inkscape:pageshadow="2"
     inkscape:window-width="640"
     inkscape:window-height="480"
     id="namedview108"
     showgrid="false"
     inkscape:zoom="1.2369972"
     inkscape:cx="652.69614"
     inkscape:cy="130.43178"
     inkscape:current-layer="svg106" /><path
     id="path99"
     style="stroke-width:1;fill:#000000"
     d="M 256 0 C 114.608 0 0 114.608 0 256 C 0 397.376 114.608 512 256 512 C 397.392 512 512 397.376 512 256 C 512 114.608 397.392 0 256 0 z M 155.32812 113.24805 C 174.80012 113.24805 186.79997 126.03203 187.16797 142.83203 C 187.16797 159.26403 174.80094 172.43164 154.96094 172.43164 L 154.60742 172.43164 C 135.48742 172.43164 123.13672 159.28003 123.13672 142.83203 C 123.13672 126.03203 135.85612 113.24805 155.32812 113.24805 z M 323.16797 191.79297 C 360.62397 191.79297 388.70312 216.27286 388.70312 268.88086 L 388.70312 367.07227 L 331.79297 367.08789 L 331.79297 275.45508 C 331.79297 252.43108 323.55136 236.73633 302.94336 236.73633 C 287.21536 236.73633 277.85614 247.32873 273.74414 257.55273 C 272.24014 261.20073 271.87109 266.31983 271.87109 271.42383 L 271.87109 367.07227 L 214.94336 367.07227 C 214.94336 367.07227 215.69536 211.88859 214.94336 195.80859 L 271.87109 195.80859 L 271.87109 220.08008 C 279.40709 208.41608 292.94397 191.79297 323.16797 191.79297 z M 126.51172 195.80859 L 183.42383 195.80859 L 183.42383 367.07227 L 126.51172 367.07227 L 126.51172 195.80859 z " /></svg>
