<?xml version="1.0" encoding="UTF-8" standalone="no"?>
<svg
   xmlns:dc="http://purl.org/dc/elements/1.1/"
   xmlns:cc="http://creativecommons.org/ns#"
   xmlns:rdf="http://www.w3.org/1999/02/22-rdf-syntax-ns#"
   xmlns:svg="http://www.w3.org/2000/svg"
   xmlns="http://www.w3.org/2000/svg"
   xmlns:sodipodi="http://sodipodi.sourceforge.net/DTD/sodipodi-0.dtd"
   xmlns:inkscape="http://www.inkscape.org/namespaces/inkscape"
   height="512"
   width="512"
   viewBox="-35.20005 -41.33325 130.16196 158.71968"
   version="1.1"
   id="svg4"
   sodipodi:docname="social-youtube.svg"
   inkscape:version="1.0.2 (e86c870879, 2021-01-15)">
  <metadata
     id="metadata10">
    <rdf:RDF>
      <cc:Work
         rdf:about="">
        <dc:format>image/svg+xml</dc:format>
        <dc:type
           rdf:resource="http://purl.org/dc/dcmitype/StillImage" />
      </cc:Work>
    </rdf:RDF>
  </metadata>
  <defs
     id="defs8" />
  <sodipodi:namedview
     pagecolor="#ffffff"
     bordercolor="#666666"
     borderopacity="1"
     objecttolerance="10"
     gridtolerance="10"
     guidetolerance="10"
     inkscape:pageopacity="0"
     inkscape:pageshadow="2"
     inkscape:window-width="1918"
     inkscape:window-height="1057"
     id="namedview6"
     showgrid="false"
     inkscape:zoom="0.35126925"
     inkscape:cx="1057.4172"
     inkscape:cy="857.00167"
     inkscape:window-x="0"
     inkscape:window-y="21"
     inkscape:window-maximized="0"
     inkscape:current-layer="svg4" />
  <path
     id="path16"
     style="fill:#000000;stroke-width:0.999999"
     d="M 256 0 C 114.61701 0 0 114.61701 0 256 C 0 397.38299 114.61701 512 256 512 C 397.38299 512 512 397.38299 512 256 C 512 114.61701 397.38299 0 256 0 z M 256 125.33594 C 256 125.33594 371.98891 125.33679 400.91406 133.13867 C 416.87187 137.43162 429.44096 150.08045 433.70703 166.14258 C 441.45834 195.25583 441.45898 256 441.45898 256 C 441.45898 256 441.45834 316.74262 433.70703 345.85742 C 429.44096 361.92116 416.87187 374.56913 400.91406 378.86523 C 371.98891 386.66396 256 386.66406 256 386.66406 C 256 386.66406 140.01109 386.66396 111.08594 378.86523 C 95.12655 374.56913 82.55901 361.92116 78.292969 345.85742 C 70.541663 316.74262 70.541016 256 70.541016 256 C 70.541016 256 70.541663 195.25583 78.292969 166.14258 C 82.55901 150.08045 95.128131 137.43162 111.08594 133.13867 C 140.01109 125.33679 256 125.33594 256 125.33594 z M 218.06445 200.84961 L 218.06445 311.15234 L 315.00977 256.00195 L 218.06445 200.84961 z "
     transform="matrix(0.30999938,0,0,0.30999938,-49.47891,-41.33325)" />
</svg>
