<?xml version="1.0" encoding="UTF-8" standalone="no"?>
<svg
   xmlns:dc="http://purl.org/dc/elements/1.1/"
   xmlns:cc="http://creativecommons.org/ns#"
   xmlns:rdf="http://www.w3.org/1999/02/22-rdf-syntax-ns#"
   xmlns:svg="http://www.w3.org/2000/svg"
   xmlns="http://www.w3.org/2000/svg"
   xmlns:sodipodi="http://sodipodi.sourceforge.net/DTD/sodipodi-0.dtd"
   xmlns:inkscape="http://www.inkscape.org/namespaces/inkscape"
   height="511.99997"
   viewBox="0 0 511.99997 511.99997"
   width="511.99997"
   version="1.1"
   id="svg34"
   sodipodi:docname="social-codepen.svg"
   inkscape:version="1.0.2 (e86c870879, 2021-01-15)">
  <metadata
     id="metadata40">
    <rdf:RDF>
      <cc:Work
         rdf:about="">
        <dc:format>image/svg+xml</dc:format>
        <dc:type
           rdf:resource="http://purl.org/dc/dcmitype/StillImage" />
      </cc:Work>
    </rdf:RDF>
  </metadata>
  <defs
     id="defs38" />
  <sodipodi:namedview
     pagecolor="#ffffff"
     bordercolor="#666666"
     borderopacity="1"
     objecttolerance="10"
     gridtolerance="10"
     guidetolerance="10"
     inkscape:pageopacity="0"
     inkscape:pageshadow="2"
     inkscape:window-width="640"
     inkscape:window-height="480"
     id="namedview36"
     showgrid="false"
     inkscape:zoom="1.7714844"
     inkscape:cx="224"
     inkscape:cy="224"
     inkscape:current-layer="svg34" />
  <title
     id="title16" />
  <path
     d="m 239.13142,310.78856 c -17.50857,-11.84 -35.13143,-23.50857 -52.64,-35.34857 -2.28571,-1.57714 -3.92,-1.69143 -6.28571,0 l -44.43429,29.85143 c 35.65714,23.73714 106.51428,71.07428 106.51428,71.07428 v -61.47428 c 0,-1.39429 -1.77142,-3.17715 -3.15428,-4.10286 z"
     id="path18"
     style="stroke-width:1" />
  <path
     d="m 186.38856,238.47999 q 26.50286,-17.41714 52.69714,-35.26857 a 8.6171425,8.6171425 0 0 0 3.2,-6.10286 v -59.08571 c 0,0 -70.85714,46.99428 -106.58285,70.78857 15.65714,10.46857 30.48,20.46857 45.46286,30.21714 1.16571,0.75429 3.88571,0.32 5.22285,-0.54857 z"
     id="path20"
     style="stroke-width:1" />
  <path
     d="m 271.81713,202.68571 q 27.09714,18.36571 54.43429,36.36571 a 4.9142855,4.9142855 0 0 0 4.37714,0 l 45.44,-30.25143 -106.35429,-71.10857 v 60.97143 a 5.4742855,5.4742855 0 0 0 2.10286,4.02286 z"
     id="path22"
     style="stroke-width:1" />
  <path
     d="m 258.41142,226.70856 a 6.0228569,6.0228569 0 0 0 -5.41714,0.19429 c -5.50858,3.42857 -10.82286,7.08571 -16.19429,10.68571 -9.42857,6.32 -28.97143,19.42857 -28.97143,19.42857 l 44.38857,29.55429 a 7.0628569,7.0628569 0 0 0 7.15429,0.12571 l 44.57142,-29.71428 c 0,0 -38.93714,-25.89715 -45.53142,-30.27429 z"
     id="path24"
     style="stroke-width:1" />
  <polygon
     points="141,276.73 170.62,256.89 141,237.12 "
     id="polygon26"
     transform="matrix(1.1428571,0,0,1.1428571,-36.571426,-36.571426)"
     style="stroke-width:0.875" />
  <path
     d="M 255.99999,0 C 114.61714,0 0,114.61714 0,255.99999 c 0,141.38285 114.61714,255.99999 255.99999,255.99999 141.38285,0 255.99999,-114.61714 255.99999,-255.99999 C 511.99998,114.61714 397.38284,0 255.99999,0 Z m 158.85714,302.85713 c 0,6.6057 -3.02859,11.26857 -8.58286,14.96 q -70.52571,46.85714 -140.90285,93.93141 c -6.68572,4.48 -12.76573,4.28573 -19.42857,-0.16 Q 176.03428,364.7314 105.79428,318.25142 c -5.839998,-3.87429 -8.674298,-8.64 -8.674298,-15.69143 v -91.13143 c 0,-7.01714 2.88,-11.81714 8.708588,-15.68 46.75428,-31.00571 93.64571,-62.12571 140.26285,-93.34858 6.65143,-4.445698 12.67428,-4.571408 19.36,-0.10285 q 70.33141,47.09714 140.86855,93.93142 c 5.34857,3.55429 8.5143,7.94286 8.5143,14.46856 z"
     id="path28"
     style="stroke-width:1;fill:#000000" />
  <path
     d="m 324.85713,275.69142 q -25.81714,17.53143 -51.87428,34.67428 c -2.75429,1.80572 -3.30286,3.78286 -3.26858,7.07429 v 58.67428 L 375.99998,305.25713 331.9657,275.67999 c -2.62857,-1.84 -4.44571,-1.79429 -7.10857,0.0114 z"
     id="path30"
     style="stroke-width:1" />
  <polygon
     points="370,237.06 340.41,256.93 370,276.68 "
     id="polygon32"
     transform="matrix(1.1428571,0,0,1.1428571,-36.571426,-36.571426)"
     style="stroke-width:0.875" />
</svg>
