<svg xmlns="http://www.w3.org/2000/svg" xml:space="preserve" width="512" height="512"><path style="fill:#000;stroke-width:.0625" d="M256 0C114.608 0 0 114.608 0 256c0 141.376 114.608 256 256 256s256-114.624 256-256C512 114.608 397.392 0 256 0zm-65.455 111.184c15.984 0 30.848 4.816 43.344 13.072a129.472 129.472 0 0 1 21.423-1.776c73.44 0 132.993 60.113 132.993 134.24 0 6.16-.448 12.24-1.248 18.208 8.704 12.912 13.775 28.545 13.79 45.377 0 44.48-35.519 80.527-79.359 80.527-15.392 0-29.76-4.48-41.953-12.144-7.856 1.44-15.935 2.255-24.223 2.255-73.472 0-132.992-60.096-132.992-134.24 0-7.184.56-14.254 1.649-21.15-8.096-12.624-12.785-27.648-12.785-43.84 0-44.48 35.505-80.53 79.36-80.53zm59.46 48.283c-4.154.045-8.492.273-13.028.693-28.464 2.64-55.505 21.313-58.801 57.729-3.296 36.448 39.04 54.944 72.56 60 23.488 3.52 55.52 15.119 36.287 37.535-17.68 20.624-51.12 7.871-59.92 2.271-8.8-5.632-18.703-25.807-35.199-24.687-16.512 1.104-24.64 23.215-4.384 42.607 18.144 17.36 37.936 26.896 80.24 24.656 42.336-2.256 80.256-40.352 65.408-76.24-14.832-35.872-56.049-39.774-94.545-49.31-38.464-9.536-17.406-43.106 13.762-42.61 30.24.496 45.632 33.073 59.344 31.393 13.744-1.696 25.44-22.689 3.84-41.473-16.353-14.238-36.477-22.878-65.563-22.564z"/></svg>