<svg xmlns="http://www.w3.org/2000/svg" width="512" height="512"><path d="M256 0C114.615 0 0 114.615 0 256s114.615 256 256 256 256-114.615 256-256S397.385 0 256 0ZM141.722 170.667h226.236c8.556 0 13.736 6.72 13.736 15.375V331c0 7.812-5.791 14.278-13.736 14.278H141.722C133.77 345.278 128 338.886 128 331V186.042c0-8.49 4.837-15.375 13.722-15.375zm12.625 22.514c-3.377 0-5.486 1.993-5.486 5.486 0 3.295 2.838 4.529 5.125 5.875 15.22 8.951 98.872 62.69 101.597 63.11 2.445.372 5.705-2.054 7.39-3.194 28.87-18.432 58.02-37.812 87.18-55.583 4.64-2.833 11.764-6.509 11.764-10.208 0-3.493-2.1-5.486-5.486-5.486-2.115 0-78.899 49.733-87.528 55.25-4.228 2.832-8.324 5.169-12.403 7.902l-12.875-8.014c-4.98-3.055-87.188-55.138-89.278-55.138z" style="fill-rule:evenodd;stroke-width:1"/></svg>