<svg xmlns="http://www.w3.org/2000/svg" height="512" width="512" xml:space="preserve"><path d="M256 0C185.268 0 121.338 28.628 74.986 74.984 28.634 121.34 0 185.268 0 256c0 70.732 28.634 134.66 74.986 181.014C121.338 483.368 185.268 512 256 512c70.732 0 134.666-28.632 181.018-74.986C483.368 390.66 512 326.732 512 256c0-70.732-28.631-134.66-74.982-181.016C390.666 28.628 326.732 0 256 0zm19.988 125.445h40.4v44.795h-29.337c-4.827 0-11.492 2.41-11.492 12.475v20.976h41.54l-3.119 31.754L312.273 256H273.58v130.695h-52.309V256h-26.365v-52.309h26.086v-23.529c0-21.548 10.063-54.717 54.996-54.717z"/></svg>