<?xml version="1.0" encoding="UTF-8" standalone="no"?>
<!-- Generator: Adobe Illustrator 16.0.4, SVG Export Plug-In . SVG Version: 6.00 Build 0)  -->

<svg
   xmlns:dc="http://purl.org/dc/elements/1.1/"
   xmlns:cc="http://creativecommons.org/ns#"
   xmlns:rdf="http://www.w3.org/1999/02/22-rdf-syntax-ns#"
   xmlns:svg="http://www.w3.org/2000/svg"
   xmlns="http://www.w3.org/2000/svg"
   xmlns:sodipodi="http://sodipodi.sourceforge.net/DTD/sodipodi-0.dtd"
   xmlns:inkscape="http://www.inkscape.org/namespaces/inkscape"
   version="1.1"
   id="Layer_1"
   x="0px"
   y="0px"
   width="1200"
   height="200"
   viewBox="0 0 1200 200"
   enable-background="new 0 0 306 344.35"
   xml:space="preserve"
   sodipodi:docname="cpp_logo.svg"
   inkscape:version="0.92.4 (5da689c313, 2019-01-14)"><metadata
   id="metadata25"><rdf:RDF><cc:Work
       rdf:about=""><dc:format>image/svg+xml</dc:format><dc:type
         rdf:resource="http://purl.org/dc/dcmitype/StillImage" /><dc:title></dc:title></cc:Work></rdf:RDF></metadata><defs
   id="defs23" /><sodipodi:namedview
   pagecolor="#ffffff"
   bordercolor="#666666"
   borderopacity="1"
   objecttolerance="10"
   gridtolerance="10"
   guidetolerance="10"
   inkscape:pageopacity="1"
   inkscape:pageshadow="2"
   inkscape:window-width="1920"
   inkscape:window-height="1020"
   id="namedview21"
   showgrid="false"
   inkscape:zoom="0.54708333"
   inkscape:cx="741.18601"
   inkscape:cy="171.62527"
   inkscape:window-x="0"
   inkscape:window-y="31"
   inkscape:window-maximized="1"
   inkscape:current-layer="Layer_1" />





<g
   id="g841"
   transform="matrix(0.49572052,0,0,0.49572052,524.15476,86.206829)"><path
     style="fill:#00599c"
     inkscape:connector-curvature="0"
     id="path2"
     d="m 302.107,113.91199 c 2.401,-4.159 3.893,-8.845 3.893,-13.053 V -45.210006 c 0,-4.208 -1.49,-8.893 -3.892,-13.052 L 153,27.824994 Z" /><path
     style="fill:#004482"
     inkscape:connector-curvature="0"
     id="path4"
     d="m 166.25,196.84299 126.5,-73.034 c 3.644,-2.104 6.956,-5.737 9.357,-9.897 L 153,27.824994 3.893,113.91299 c 2.401,4.159 5.714,7.793 9.357,9.896 l 126.5,73.034 c 7.287,4.208 19.213,4.208 26.5,0 z" /><path
     style="fill:#659ad2"
     inkscape:connector-curvature="0"
     id="path6"
     d="m 302.108,-58.263006 c -2.402,-4.16 -5.715,-7.793 -9.358,-9.897 l -126.5,-73.034004 c -7.287,-4.208 -19.213,-4.208 -26.5,0 l -126.5,73.034004 c -7.288,4.207 -13.25,14.535 -13.25,22.95 V 100.85899 c 0,4.208 1.491,8.894 3.893,13.053 L 153,27.824994 Z" /><g
     transform="translate(0,-144.35001)"
     id="g10">
	<path
   style="fill:#ffffff"
   inkscape:connector-curvature="0"
   id="path8"
   d="m 153,274.175 c -56.243,0 -102,-45.757 -102,-102 0,-56.243 45.757,-102 102,-102 36.292,0 70.139,19.53 88.331,50.968 l -44.143,25.544 C 188.083,130.951 171.15,121.175 153,121.175 c -28.122,0 -51,22.878 -51,51 0,28.121 22.878,51 51,51 18.152,0 35.085,-9.776 44.191,-25.515 l 44.143,25.543 c -18.192,31.441 -52.04,50.972 -88.334,50.972 z" />
</g><g
     transform="translate(0,-144.35001)"
     id="g14">
	<polygon
   style="fill:#ffffff"
   id="polygon12"
   points="232.334,189.175 243.666,189.175 243.666,177.841 255,177.841 255,166.508 243.666,166.508 243.666,155.175 232.334,155.175 232.334,166.508 221,166.508 221,177.841 232.334,177.841 " />
</g><g
     transform="translate(0,-144.35001)"
     id="g18">
	<polygon
   style="fill:#ffffff"
   id="polygon16"
   points="274.834,189.175 286.166,189.175 286.166,177.841 297.5,177.841 297.5,166.508 286.166,166.508 286.166,155.175 274.834,155.175 274.834,166.508 263.5,166.508 263.5,177.841 274.834,177.841 " />
</g></g>
</svg>