<?xml version="1.0" encoding="UTF-8" standalone="no"?>
<svg
   xmlns:sketch="http://www.bohemiancoding.com/sketch/ns"
   xmlns:dc="http://purl.org/dc/elements/1.1/"
   xmlns:cc="http://creativecommons.org/ns#"
   xmlns:rdf="http://www.w3.org/1999/02/22-rdf-syntax-ns#"
   xmlns:svg="http://www.w3.org/2000/svg"
   xmlns="http://www.w3.org/2000/svg"
   xmlns:sodipodi="http://sodipodi.sourceforge.net/DTD/sodipodi-0.dtd"
   xmlns:inkscape="http://www.inkscape.org/namespaces/inkscape"
   width="1200"
   height="200"
   viewBox="0 0 1200 200"
   version="1.1"
   id="svg38"
   sodipodi:docname="dropzone.svg"
   inkscape:export-filename="/home/geraldo/git/Intmain/site-geraldo.me/static/img/headers/dropzone.png"
   inkscape:export-xdpi="92.160004"
   inkscape:export-ydpi="92.160004"
   inkscape:version="0.92.4 (5da689c313, 2019-01-14)">
  <metadata
     id="metadata42">
    <rdf:RDF>
      <cc:Work
         rdf:about="">
        <dc:format>image/svg+xml</dc:format>
        <dc:type
           rdf:resource="http://purl.org/dc/dcmitype/StillImage" />
        <dc:title>Untitled 5</dc:title>
      </cc:Work>
    </rdf:RDF>
  </metadata>
  <sodipodi:namedview
     pagecolor="#ffffff"
     bordercolor="#666666"
     borderopacity="1"
     objecttolerance="10"
     gridtolerance="10"
     guidetolerance="10"
     inkscape:pageopacity="1"
     inkscape:pageshadow="2"
     inkscape:window-width="1920"
     inkscape:window-height="1020"
     id="namedview40"
     showgrid="false"
     inkscape:zoom="0.74601457"
     inkscape:cx="657.86443"
     inkscape:cy="60.104076"
     inkscape:window-x="0"
     inkscape:window-y="31"
     inkscape:window-maximized="1"
     inkscape:current-layer="svg38" />
  <!-- Generator: Sketch 3.2.1 (9971) - http://www.bohemiancoding.com/sketch -->
  <title
     id="title2">Untitled 5</title>
  <desc
     id="desc4">Created with Sketch.</desc>
  <defs
     id="defs6" />
  <g
     id="Page-1"
     sketch:type="MSPage"
     style="fill:none;fill-rule:evenodd;stroke:none;stroke-width:1"
     transform="matrix(2.0601373,0,0,2.0601373,169.91441,13.42685)">
    <g
       id="new-logo"
       sketch:type="MSLayerGroup">
      <g
         id="Group"
         sketch:type="MSShapeGroup">
        <path
           d="m 135.128,35.154 v 3.897 c -1.169,-1.17 -4.222,-4.287 -10.586,-4.287 -9.159,0 -17.862,6.949 -17.862,19.16 0,10.848 7.145,19.291 18.056,19.291 7.274,0 9.873,-3.571 10.912,-5.065 v 3.896 H 145.91 V 23.982 h -10.781 v 11.172 z m -1.949,25.267 c -1.687,1.688 -4.091,2.728 -6.689,2.728 -5.065,0 -9.027,-3.702 -9.027,-9.224 v -0.063 c 0,-4.158 2.923,-9.028 9.157,-9.028 2.533,0 4.808,0.908 6.431,2.532 1.624,1.559 2.662,3.766 2.662,6.365 0.129,2.662 -0.845,5.001 -2.534,6.69 z"
           id="Shape"
           inkscape:connector-curvature="0"
           style="fill:#656c7f" />
        <path
           d="M 168.309,45.611 V 34.764 c -6.236,0 -8.12,3.313 -9.159,5.262 v -4.027 h -10.133 v 36.048 h 10.781 V 52.693 c 0,-5.067 2.6,-7.081 8.119,-7.081 h 0.392 z"
           id="path9"
           inkscape:connector-curvature="0"
           style="fill:#656c7f" />
        <path
           d="m 186.353,34.829 c -13.121,0 -19.421,10.328 -19.421,19.096 v 0.065 c 0,8.833 6.3,19.161 19.421,19.161 13.12,0 19.421,-10.328 19.421,-19.161 0,-8.833 -6.301,-19.161 -19.421,-19.161 z m 0,28.254 c -4.677,0 -8.64,-3.832 -8.64,-9.027 v -0.065 c 0,-5.26 3.963,-9.093 8.64,-9.093 4.675,0 8.638,3.833 8.638,9.093 -0.001,5.26 -3.964,9.092 -8.638,9.092 z"
           id="path11"
           inkscape:connector-curvature="0"
           style="fill:#656c7f" />
        <path
           d="m 274.429,44.183 v 0 l 5.86,-8.184 h -5.86 -2.896 -24.929 v 8.184 h 16.199 l -20.684,27.84 h 5.485 v 0.024 h 28.232 v -8.184 h -15.501 z"
           id="path13"
           inkscape:connector-curvature="0"
           style="fill:#656c7f" />
        <path
           d="m 294.072,34.829 c -13.12,0 -19.421,10.328 -19.421,19.096 v 0.065 c 0,8.833 6.301,19.161 19.421,19.161 13.12,0 19.421,-10.328 19.421,-19.161 0,-8.833 -6.301,-19.161 -19.421,-19.161 z m 0,28.254 c -4.678,0 -8.639,-3.832 -8.639,-9.027 v -0.065 c 0,-5.26 3.961,-9.093 8.639,-9.093 4.676,0 8.639,3.833 8.639,9.093 0,5.26 -3.963,9.092 -8.639,9.092 z"
           id="path15"
           inkscape:connector-curvature="0"
           style="fill:#656c7f" />
        <path
           d="m 335.713,34.765 c -6.43,0 -8.703,3.313 -9.938,5.066 V 35.999 H 315.71 v 36.048 h 10.78 V 52.432 c 0,-3.701 0.844,-7.534 6.172,-7.534 4.806,0 5.65,3.508 5.65,7.47 v 19.68 h 10.78 V 49.51 c 0.001,-4.872 -1.232,-14.745 -13.379,-14.745 z"
           id="path17"
           inkscape:connector-curvature="0"
           style="fill:#656c7f" />
        <path
           d="m 383.547,40.481 c -3.378,-3.572 -8.119,-5.717 -13.64,-5.717 -10.979,0 -18.902,9.288 -18.902,19.356 0,10.716 8.769,19.095 19.097,19.095 3.701,0 7.275,-1.104 10.262,-3.246 3.053,-2.079 5.585,-5.197 7.34,-9.224 h -11.042 c -1.3,1.883 -3.116,3.378 -6.56,3.378 -4.223,0 -7.86,-2.533 -8.314,-6.366 h 26.826 c 0.843,-6.626 -0.522,-12.405 -5.067,-17.276 z m -21.629,9.092 c 0.259,-1.688 2.469,-5.716 8.054,-5.716 5.585,0 7.793,4.027 8.054,5.716 z"
           id="path19"
           inkscape:connector-curvature="0"
           style="fill:#656c7f" />
        <path
           d="m 229.553,34.765 c -5.521,0 -9.093,2.47 -11.432,5.196 V 35.999 H 207.988 V 84.023 H 218.77 V 72.046 68.798 c 1.299,1.365 4.352,4.482 10.848,4.482 10.262,0 17.537,-8.509 17.537,-18.9 0,-8.379 -4.807,-19.615 -17.602,-19.615 z m 6.819,19.291 c 0,4.547 -3.377,9.157 -9.028,9.157 -2.533,0 -4.807,-1.038 -6.431,-2.663 -1.623,-1.624 -2.596,-3.896 -2.596,-6.429 0,-2.599 0.973,-4.937 2.531,-6.562 1.626,-1.688 3.896,-2.727 6.495,-2.727 5.911,0 9.028,4.936 9.028,9.157 v 0.067 z"
           id="path21"
           inkscape:connector-curvature="0"
           style="fill:#656c7f" />
        <path
           d="m 36.023,12.023 c -13.255,0 -24,10.745 -24,24 v 24 h 6 18 c 13.255,0 24,-10.745 24,-24 0,-13.255 -10.745,-24 -24,-24 z m 0,42 h -18 v -18 c 0,-9.941 8.059,-18 18,-18 9.941,0 18,8.059 18,18 0,9.941 -8.058,18 -18,18 z"
           id="path23"
           inkscape:connector-curvature="0"
           style="fill:#028bf4" />
        <path
           d="m 36.023,24.023 c -6.627,0 -12,5.373 -12,12 v 12 h 6 6 c 6.627,0 12,-5.373 12,-12 0,-6.627 -5.373,-12 -12,-12 z m 0,18 h -6 v -6 c 0,-3.313 2.687,-6 6,-6 3.313,0 6,2.687 6,6 0,3.313 -2.686,6 -6,6 z"
           id="path25"
           inkscape:connector-curvature="0"
           style="fill:#028bf4" />
        <path
           d="m 36.023,0.023 h -36 v 72 h 36 c 19.882,0 36,-16.118 36,-36 0,-19.882 -16.118,-36 -36,-36 z m 0,66 h -30 v -18 -12 c 0,-16.568 13.432,-30 30,-30 16.568,0 30,13.432 30,30 0,16.568 -13.431,30 -30,30 z"
           id="path27"
           inkscape:connector-curvature="0"
           style="fill:#028bf4" />
      </g>
      <g
         id="g34"
         transform="translate(390,35)"
         sketch:type="MSShapeGroup"
         style="fill:#656c7f">
        <path
           d="m 12.757,11.92 c 0,2.269 -0.194,3.438 -0.585,4.293 -0.391,0.829 -1.22,1.682 -2,2.146 -1.098,0.707 -2.415,1.049 -3.634,1.049 -0.415,0 -5.172,0 -5.952,-4.757 -0.073,-0.439 -0.122,-0.903 -0.122,-1.39 h 4.902 c 0,0.17 0.024,0.341 0.05,0.535 0.098,0.732 0.365,1.562 1.341,1.562 0.708,0 1.05,-0.366 1.221,-0.829 0.169,-0.488 0.169,-1.048 0.169,-1.463 V 1.016 h 4.61 z"
           id="path30"
           inkscape:connector-curvature="0" />
        <path
           d="m 19.29,13.09 c 0,2.098 1.292,2.464 1.878,2.464 1.097,0 1.756,-0.902 1.756,-1.731 0,-0.951 -0.756,-1.244 -3.537,-2.415 -1.268,-0.513 -4.414,-1.78 -4.414,-5.172 0,-3.633 3.292,-5.56 6.316,-5.56 2.488,0 6.001,1.269 6.073,5.609 H 22.801 C 22.702,5.676 22.558,4.529 21.142,4.529 c -0.805,0 -1.585,0.562 -1.585,1.414 0,0.829 0.488,1.049 3.731,2.513 3.366,1.513 4.22,3.073 4.22,5.17 0,2.879 -1.513,5.782 -6.292,5.782 -4.731,0 -6.635,-2.781 -6.514,-6.318 z"
           id="path32"
           inkscape:connector-curvature="0" />
      </g>
    </g>
  </g>
</svg>
