<svg xmlns="http://www.w3.org/2000/svg" xmlns:xlink="http://www.w3.org/1999/xlink" viewBox="0 0 120.11 109.73"><defs><style>.cls-1,.cls-2{fill:#e65324;}.cls-2{fill-rule:evenodd;}.cls-3{fill:url(#linear-gradient);}</style><linearGradient id="linear-gradient" x1="51.52" y1="102.62" x2="52.46" y2="24.78" gradientUnits="userSpaceOnUse"><stop offset="0" stop-color="#025ea2"/><stop offset="0.45" stop-color="#237ab7"/></linearGradient></defs><title>icon-4</title><g id="Слой_2" data-name="Слой 2"><g id="Layer_3" data-name="Layer 3"><path class="cls-1" d="M18.21,84.52a48.19,48.19,0,0,1,30.19-78L40,14.83l7,7a33.37,33.37,0,0,0-5.23,62.66Z"/><polygon class="cls-1" points="105.28 109.73 105.28 80.07 120.11 94.9 105.28 109.73"/><path class="cls-2" d="M94.39,87.49h13.86v14.83H74.14v-.5A51.32,51.32,0,0,0,94.39,87.49Z"/><path class="cls-3" d="M59.31,6.07a48.19,48.19,0,0,1-3,96.24H0V87.49H55.61A33.37,33.37,0,0,0,59.31,21v8.7L44.49,14.83,59.31,0Z"/></g></g></svg>