<?xml version="1.0" encoding="UTF-8" standalone="no"?>
<svg
   xmlns:dc="http://purl.org/dc/elements/1.1/"
   xmlns:cc="http://creativecommons.org/ns#"
   xmlns:rdf="http://www.w3.org/1999/02/22-rdf-syntax-ns#"
   xmlns:svg="http://www.w3.org/2000/svg"
   xmlns="http://www.w3.org/2000/svg"
   xmlns:sodipodi="http://sodipodi.sourceforge.net/DTD/sodipodi-0.dtd"
   xmlns:inkscape="http://www.inkscape.org/namespaces/inkscape"
   width="200px"
   height="200px"
   viewBox="0 0 200 200"
   version="1.1"
   id="svg331"
   sodipodi:docname="artificial-intelligence.svg"
   inkscape:version="1.0.2 (e86c870879, 2021-01-15)">
  <metadata
     id="metadata337">
    <rdf:RDF>
      <cc:Work
         rdf:about="">
        <dc:format>image/svg+xml</dc:format>
        <dc:type
           rdf:resource="http://purl.org/dc/dcmitype/StillImage" />
      </cc:Work>
    </rdf:RDF>
  </metadata>
  <defs
     id="defs335" />
  <sodipodi:namedview
     pagecolor="#ffffff"
     bordercolor="#666666"
     borderopacity="1"
     objecttolerance="10"
     gridtolerance="10"
     guidetolerance="10"
     inkscape:pageopacity="0"
     inkscape:pageshadow="2"
     inkscape:window-width="640"
     inkscape:window-height="480"
     id="namedview333"
     showgrid="false"
     inkscape:zoom="2.0399941"
     inkscape:cx="105.89545"
     inkscape:cy="159.80655"
     inkscape:current-layer="svg331" />
  <title
     id="title303">artificial intelligence</title>
  <g
     id="g1172"
     style="stroke:#249ec7;stroke-opacity:1">
    <path
       d="M106,27A23,23,0,1,0,62.45,37.33a18.45,18.45,0,0,0-9-2.33c-11,0-20,9.85-20,22a23.09,23.09,0,0,0,5.81,15.5A19.12,19.12,0,0,0,35,72c-12.7,0-23,12.54-23,28s10.3,28,23,28a19.12,19.12,0,0,0,4.31-.5A23.09,23.09,0,0,0,33.5,143c0,12.15,9,22,20,22a18.45,18.45,0,0,0,9-2.33A23,23,0,1,0,106,173c0-.34,0-0.67,0-1h0V28h0C106,27.67,106,27.34,106,27Z"
       fill="none"
       stroke="#220728"
       stroke-linejoin="bevel"
       stroke-width="8"
       id="path305"
       style="fill:none;stroke:#249ec7;stroke-opacity:1" />
    <path
       d="M67.26,189.26a23,23,0,0,0,32.53-32.53H86.9"
       fill="none"
       stroke="#220728"
       stroke-miterlimit="10"
       stroke-width="8"
       id="path307"
       style="stroke:#249ec7;stroke-opacity:1" />
    <path
       d="M66.26,10.74A23,23,0,0,1,98.79,43.26H87.67"
       fill="none"
       stroke="#220728"
       stroke-miterlimit="10"
       stroke-width="8"
       id="path309"
       style="stroke:#249ec7;stroke-opacity:1" />
    <polyline
       points="106 95 81 95 49.25 124.76"
       fill="none"
       stroke="#220728"
       stroke-miterlimit="10"
       stroke-width="8"
       id="polyline311"
       style="stroke:#249ec7;stroke-opacity:1" />
    <line
       x1="44.97"
       y1="86.65"
       x2="62.45"
       y2="111.44"
       fill="none"
       stroke="#220728"
       stroke-miterlimit="10"
       stroke-width="8"
       id="line313"
       style="stroke:#249ec7;stroke-opacity:1" />
    <line
       x1="62.45"
       y1="162.67"
       x2="74.5"
       y2="146"
       fill="none"
       stroke="#220728"
       stroke-miterlimit="10"
       stroke-width="8"
       id="line315"
       style="stroke:#249ec7;stroke-opacity:1" />
    <polyline
       points="62.45 37.49 71 51 71 71"
       fill="none"
       stroke="#220728"
       stroke-miterlimit="10"
       stroke-width="8"
       id="polyline317"
       style="stroke:#249ec7;stroke-opacity:1" />
    <line
       x1="152"
       y1="100"
       x2="104"
       y2="100"
       fill="none"
       stroke="#220728"
       stroke-miterlimit="10"
       stroke-width="8"
       id="line319"
       style="stroke:#249ec7;stroke-opacity:1" />
    <polyline
       points="107 131 131 131 143 152.67"
       fill="none"
       stroke="#220728"
       stroke-miterlimit="10"
       stroke-width="8"
       id="polyline321"
       style="stroke:#249ec7;stroke-opacity:1" />
    <polyline
       points="107 70 131 70 143 48.33"
       fill="none"
       stroke="#220728"
       stroke-miterlimit="10"
       stroke-width="8"
       id="polyline323"
       style="stroke:#249ec7;stroke-opacity:1" />
  </g>
  <circle
     cx="171"
     cy="100"
     r="16"
     fill="none"
     stroke="#ffc548"
     stroke-miterlimit="10"
     stroke-width="8"
     id="circle325" />
  <circle
     cx="149"
     cy="170"
     r="16"
     fill="none"
     stroke="#ffc548"
     stroke-miterlimit="10"
     stroke-width="8"
     id="circle327" />
  <circle
     cx="149"
     cy="30"
     r="16"
     fill="none"
     stroke="#ffc548"
     stroke-miterlimit="10"
     stroke-width="8"
     id="circle329" />
</svg>
