<?xml version="1.0" encoding="UTF-8" standalone="no"?>
<svg
   xmlns:dc="http://purl.org/dc/elements/1.1/"
   xmlns:cc="http://creativecommons.org/ns#"
   xmlns:rdf="http://www.w3.org/1999/02/22-rdf-syntax-ns#"
   xmlns:svg="http://www.w3.org/2000/svg"
   xmlns="http://www.w3.org/2000/svg"
   xmlns:sodipodi="http://sodipodi.sourceforge.net/DTD/sodipodi-0.dtd"
   xmlns:inkscape="http://www.inkscape.org/namespaces/inkscape"
   width="378.87302pt"
   height="378.86002pt"
   version="1.1"
   viewBox="0 0 378.87302 378.86002"
   id="svg164"
   sodipodi:docname="code-review.svg"
   inkscape:version="1.0.2 (e86c870879, 2021-01-15)">
  <metadata
     id="metadata170">
    <rdf:RDF>
      <cc:Work
         rdf:about="">
        <dc:format>image/svg+xml</dc:format>
        <dc:type
           rdf:resource="http://purl.org/dc/dcmitype/StillImage" />
      </cc:Work>
    </rdf:RDF>
  </metadata>
  <defs
     id="defs168" />
  <sodipodi:namedview
     pagecolor="#ffffff"
     bordercolor="#666666"
     borderopacity="1"
     objecttolerance="10"
     gridtolerance="10"
     guidetolerance="10"
     inkscape:pageopacity="0"
     inkscape:pageshadow="2"
     inkscape:window-width="640"
     inkscape:window-height="480"
     id="namedview166"
     showgrid="false"
     inkscape:zoom="0.88663564"
     inkscape:cx="252.57333"
     inkscape:cy="252.57333"
     inkscape:current-layer="svg164" />
  <g
     id="g162"
     transform="translate(-186.57,-186.57)"
     style="fill:#008000">
    <path
       d="M 533.86,186.57 H 281.29 c -17.367,0 -31.574,14.211 -31.574,31.574 v 142.07 c 0,17.363 14.207,31.574 31.574,31.574 h 31.574 v 63.141 l 94.715,-63.141 h 126.29 c 17.363,0 31.574,-14.211 31.574,-31.574 v -142.07 c 0,-17.363 -14.211,-31.574 -31.574,-31.574 z m -179.23,125.33 -16.746,16.746 -28.32,-28.305 c -6.1328,-6.1328 -6.1328,-16.188 0,-22.32 l 28.32,-28.305 16.75,16.742 -22.73,22.723 z m 53.449,16.746 h -24.715 l 23.68,-78.934 h 24.73 z m 97.504,-28.309 -28.301,28.309 -16.742,-16.742 22.723,-22.723 -22.723,-22.723 16.742,-16.742 28.305,28.305 c 6.1367,6.1289 6.1367,16.184 -0.004,22.316 z"
       id="path152"
       style="fill:#008000" />
    <path
       d="m 186.57,454.93 c 0,26.145 21.211,47.359 47.359,47.359 26.133,0 47.359,-21.211 47.359,-47.359 0,-26.145 -21.227,-47.359 -47.359,-47.359 -26.148,0 -47.359,21.215 -47.359,47.359 z"
       id="path154"
       style="fill:#008000" />
    <path
       d="m 312.86,565.43 c 0,-17.453 -14.137,-31.57 -31.574,-31.57 h -94.715 v 31.57 z"
       id="path156"
       style="fill:#008000" />
    <path
       d="m 565.43,454.93 c 0,26.145 -21.211,47.359 -47.359,47.359 -26.133,0 -47.359,-21.211 -47.359,-47.359 0,-26.145 21.227,-47.359 47.359,-47.359 26.148,0 47.359,21.215 47.359,47.359 z"
       id="path158"
       style="fill:#008000" />
    <path
       d="m 439.14,565.43 c 0,-17.453 14.137,-31.57 31.574,-31.57 h 94.715 v 31.57 z"
       id="path160"
       style="fill:#008000" />
  </g>
</svg>
