<?xml version="1.0" encoding="UTF-8"?>
<svg xmlns="http://www.w3.org/2000/svg" id="Ebene_1" viewBox="0 0 237.74 237.74">
  <defs>
    <style>.cls-1{fill:#e5e8ed;}.cls-2{fill:#323d8c;}</style>
  </defs>
  <path class="cls-1" d="M118.87,0C53.22,0,0,53.22,0,118.87s53.22,118.87,118.87,118.87,118.87-53.22,118.87-118.87h0C237.74,53.22,184.52,0,118.87,0Zm0,230.32c-61.55,0-111.45-49.91-111.44-111.46,0-61.55,49.91-111.45,111.46-111.44,61.55,0,111.44,49.9,111.44,111.45s-49.9,111.45-111.45,111.45h-.01Z"></path>
  <g>
    <path class="cls-2" d="M165.06,122.43h-4.6v-14.24c0-8.32-7.48-9.56-11.94-9.56h-11.86c-5.94,0-7.6,2.21-11.62,7.55l-.78,1.03-3.67-2.78,.77-1.02c4.26-5.65,7.07-9.38,15.3-9.38h11.86c7.99,0,16.54,3.72,16.54,14.16v14.24Z"></path>
    <polygon class="cls-2" points="136.59 122.43 131.99 122.43 131.99 115.47 128.2 117.37 126.15 113.25 131.38 110.64 136.59 110.64 136.59 122.43"></polygon>
    <rect class="cls-2" x="150.97" y="110.57" width="4.6" height="11.86"></rect>
    <path class="cls-2" d="M101,167.51h-4.6v-59.24h5.64l.62,.47s5.45,4.15,9.31,7.13c2.79,2.15,5.9,1.22,7.88,.18-2.79-2.93-8.02-8.35-10.83-10.88-4.46-4.03-8.54-6.53-15.07-6.53h-11.86c-1.99,0-11.94,.58-11.94,11.94v9.49c0,3.8,4.02,7.19,7.19,7.19v4.6c-5.45,0-11.79-5.15-11.79-11.79v-9.49c0-11.42,8.3-16.54,16.54-16.54h11.86c8.44,0,13.71,3.71,18.15,7.71,4.08,3.68,12.61,12.74,12.97,13.12l1.64,1.75-1.81,1.57c-2.85,2.46-9.8,5.91-15.74,1.33-2.77-2.13-6.36-4.88-8.16-6.25v54.25Z"></path>
    <rect class="cls-2" x="75.05" y="108.19" width="4.6" height="59.32"></rect>
    <rect class="cls-2" x="84.54" y="134.29" width="4.6" height="33.22"></rect>
    <path class="cls-2" d="M88.03,91.51c-5.95,0-10.6-4.35-10.6-9.89v-3.8c0-5.55,4.66-9.89,10.6-9.89s10.6,4.35,10.6,9.89v3.8c0,5.55-4.66,9.89-10.6,9.89Zm0-18.98c-2.95,0-6,1.98-6,5.29v3.8c0,3.31,3.05,5.29,6,5.29s6-1.98,6-5.29v-3.8c0-3.31-3.05-5.29-6-5.29Z"></path>
    <path class="cls-2" d="M144.97,91.51c-5.95,0-10.6-4.35-10.6-9.89v-3.8c0-5.55,4.66-9.89,10.6-9.89s10.6,4.35,10.6,9.89v3.8c0,5.55-4.66,9.89-10.6,9.89Zm0-18.98c-2.95,0-6,1.98-6,5.29v3.8c0,3.31,3.05,5.29,6,5.29s6-1.98,6-5.29v-3.8c0-3.31-3.05-5.29-6-5.29Z"></path>
    <polygon class="cls-2" points="172.18 141.34 146.16 141.34 146.16 136.74 167.58 136.74 167.58 131.85 105.82 131.85 105.82 127.25 172.18 127.25 172.18 141.34"></polygon>
    <rect class="cls-2" x="160.46" y="139.04" width="4.6" height="28.47"></rect>
    <rect class="cls-2" x="105.82" y="155.72" width="56.94" height="4.6"></rect>
    <rect class="cls-2" x="105.82" y="136.74" width="23.73" height="4.6"></rect>
  </g>
</svg>
