<?xml version="1.0" encoding="UTF-8" standalone="no"?>
<svg
   xmlns:dc="http://purl.org/dc/elements/1.1/"
   xmlns:cc="http://creativecommons.org/ns#"
   xmlns:rdf="http://www.w3.org/1999/02/22-rdf-syntax-ns#"
   xmlns:svg="http://www.w3.org/2000/svg"
   xmlns="http://www.w3.org/2000/svg"
   xmlns:sodipodi="http://sodipodi.sourceforge.net/DTD/sodipodi-0.dtd"
   xmlns:inkscape="http://www.inkscape.org/namespaces/inkscape"
   version="1.1"
   id="Calque_6"
   x="0px"
   y="0px"
   viewBox="0 0 16.221649 18"
   xml:space="preserve"
   sodipodi:docname="dast.svg"
   inkscape:version="1.0.2 (e86c870879, 2021-01-15)"
   width="16.221649"
   height="18"><metadata
   id="metadata4487"><rdf:RDF><cc:Work
       rdf:about=""><dc:format>image/svg+xml</dc:format><dc:type
         rdf:resource="http://purl.org/dc/dcmitype/StillImage" /></cc:Work></rdf:RDF></metadata><defs
   id="defs4485" /><sodipodi:namedview
   pagecolor="#ffffff"
   bordercolor="#666666"
   borderopacity="1"
   objecttolerance="10"
   gridtolerance="10"
   guidetolerance="10"
   inkscape:pageopacity="0"
   inkscape:pageshadow="2"
   inkscape:window-width="640"
   inkscape:window-height="480"
   id="namedview4483"
   showgrid="false"
   inkscape:zoom="37.041667"
   inkscape:cx="8.060825"
   inkscape:cy="9"
   inkscape:current-layer="Calque_6"
   inkscape:document-rotation="0" />
<style
   type="text/css"
   id="style4472">
	.st0{fill:#499CD2;}
	.st1{fill:#174F7B;}
</style>
<title
   id="title4474">security-analaysis</title>
<path
   class="st0"
   d="m 0.06082501,4.3 c 0,0.2 0,0.4 0,0.6 v 0 c -0.2,2.4 0.1,4.9 0.8,7.2 0.49999999,1.3 1.29999999,2.5 2.29999999,3.4 1.3,1.2 2.8,2 4.5,2.5 h 0.2 c 0.2,0 0.3,0 0.5,0 h 0.2 c 1.7,-0.5 3.2,-1.4 4.5,-2.5 1,-1 1.8,-2.1 2.3,-3.4 0.7,-2.3 1,-4.8 0.8,-7.2 v 0 c 0,-0.2 0,-0.4 0,-0.6 0,-1 -0.9,-1.8 -1.9,-1.8 -2,0 -3.9,-0.8 -5.4,-2.2 v 0 c -0.1,-0.2 -0.5,-0.3 -0.8,-0.3 -0.3,0 -0.6,0.1 -0.8,0.3 v 0 c -1.4,1.4 -3.4,2.1 -5.3,2.2 -0.99999999,0 -1.89999999,0.8 -1.89999999,1.8 z M 5.260825,2.8 c 1,-0.4 1.9,-1 2.7,-1.8 0.1,-0.1 0.1,-0.1 0.2,0 0.8,0.7 1.7,1.3 2.7,1.7 1.1,0.4 2.2,0.7 3.3,0.7 0.5,0 0.9,0.4 0.9,0.9 0,0.2 0,0.4 0,0.6 0.2,2.3 -0.1,4.6 -0.8,6.9 -1,2.6 -3,4.3 -6.1,5.4 h -0.2 c -3.2,-1.1 -5.2,-2.8 -6.2,-5.4 -0.6,-2.2 -0.89999999,-4.5 -0.7,-6.8 v 0 c 0,-0.2 0,-0.4 0,-0.6 0,-0.5 0.4,-0.9 0.9,-0.9 1.1,0 2.3,-0.3 3.3,-0.7 z"
   id="path4476"
   style="fill:#008000" />
<path
   class="st1"
   d="m 8.060825,13.4 c -2.5,0 -4.5,-2 -4.5,-4.5 0,-2.5 2,-4.5 4.5,-4.5 2.5,0 4.5,2 4.5,4.5 0,0 0,0 0,0 0,2.5 -2,4.5 -4.5,4.5 z m 0,-8 c -1.9,0 -3.5,1.5 -3.5,3.5 0,2 1.5,3.5 3.5,3.5 2,0 3.5,-1.5 3.5,-3.5 0,0 0,0 0,0 0,-1.9 -1.6,-3.5 -3.5,-3.5 z"
   id="path4478"
   style="fill:#008000" />
<path
   class="st1"
   d="m 7.660825,10.6 c -0.1,0 -0.3,-0.1 -0.4,-0.1 l -1.1,-1.1 c -0.2,-0.2 -0.2,-0.5 0,-0.7 0,0 0,0 0,0 0.2,-0.2 0.5,-0.2 0.7,0 0,0 0,0 0,0 l 0.8,0.8 1.9,-1.9 c 0.2,-0.2 0.5,-0.2 0.7,0 0.2,0.2 0.2,0.5 0,0.7 l -2.3,2.3 c -0.1,0 -0.2,0 -0.3,0 z"
   id="path4480"
   style="fill:#ffff00" />
</svg>
