<?xml version="1.0" encoding="UTF-8" standalone="no"?>
<svg
   xmlns:dc="http://purl.org/dc/elements/1.1/"
   xmlns:cc="http://creativecommons.org/ns#"
   xmlns:rdf="http://www.w3.org/1999/02/22-rdf-syntax-ns#"
   xmlns:svg="http://www.w3.org/2000/svg"
   xmlns="http://www.w3.org/2000/svg"
   xmlns:sodipodi="http://sodipodi.sourceforge.net/DTD/sodipodi-0.dtd"
   xmlns:inkscape="http://www.inkscape.org/namespaces/inkscape"
   width="2426.4485"
   height="2426.4485"
   viewBox="0 0 187.085 187.085"
   version="1.1"
   id="svg5516"
   sodipodi:docname="ddd.svg"
   inkscape:version="1.0.2 (e86c870879, 2021-01-15)">
  <metadata
     id="metadata5522">
    <rdf:RDF>
      <cc:Work
         rdf:about="">
        <dc:format>image/svg+xml</dc:format>
        <dc:type
           rdf:resource="http://purl.org/dc/dcmitype/StillImage" />
        <dc:title></dc:title>
      </cc:Work>
    </rdf:RDF>
  </metadata>
  <defs
     id="defs5520" />
  <sodipodi:namedview
     pagecolor="#ffffff"
     bordercolor="#666666"
     borderopacity="1"
     objecttolerance="10"
     gridtolerance="10"
     guidetolerance="10"
     inkscape:pageopacity="0"
     inkscape:pageshadow="2"
     inkscape:window-width="640"
     inkscape:window-height="480"
     id="namedview5518"
     showgrid="false"
     inkscape:zoom="0.3556"
     inkscape:cx="715.49341"
     inkscape:cy="426.26429"
     inkscape:current-layer="svg5516" />
  <g
     id="g5526"
     transform="translate(0,60.6765)">
    <path
       d="m 126.41,5.056 v 55.619 h 55.621 V 5.056 Z m -60.676,0 v 55.619 h 55.62 V 5.056 Z M 5.058,60.676 h 55.62 V 5.056 H 5.058 Z m 58.148,5.056 H 0 V 0 h 187.085 v 65.732 z"
       id="path5512"
       style="fill:#008000" />
    <path
       d="m 28.659,20.541 c 3.615,0 6.204,0.887 7.766,2.658 1.561,1.772 2.343,5.058 2.343,9.858 0,3.628 -0.351,6.249 -1.049,7.866 -0.698,1.617 -1.664,2.752 -2.896,3.4 -1.233,0.648 -3.307,0.973 -6.224,0.973 h -3.42 V 20.541 Z m -17.492,35.08 h 20.759 c 2.487,0 5.264,-0.412 8.328,-1.236 2.24,-0.596 4.338,-1.797 6.291,-3.598 1.954,-1.803 3.481,-4.039 4.581,-6.707 1.099,-2.666 1.65,-6.42 1.65,-11.264 0,-3.089 -0.37,-6.014 -1.111,-8.774 C 50.925,21.281 49.732,18.86 48.086,16.78 46.44,14.699 44.358,13.104 41.84,11.991 39.321,10.878 36.016,10.323 31.925,10.323 H 11.167 Z m 81.961,-35.08 c 3.614,0 6.204,0.887 7.765,2.658 1.561,1.772 2.344,5.058 2.344,9.858 0,3.628 -0.352,6.249 -1.049,7.866 -0.697,1.617 -1.664,2.752 -2.896,3.4 -1.232,0.648 -3.307,0.973 -6.224,0.973 h -3.42 V 20.541 Z m -17.492,35.08 h 20.758 c 2.488,0 5.264,-0.412 8.328,-1.236 2.24,-0.596 4.338,-1.797 6.291,-3.598 1.955,-1.803 3.482,-4.039 4.582,-6.707 1.1,-2.666 1.65,-6.42 1.65,-11.264 0,-3.089 -0.369,-6.014 -1.111,-8.774 -0.74,-2.761 -1.932,-5.182 -3.578,-7.262 -1.646,-2.081 -3.729,-3.676 -6.246,-4.789 -2.517,-1.113 -5.824,-1.668 -9.916,-1.668 H 75.636 Z m 74.376,-35.08 c 3.615,0 6.205,0.887 7.766,2.658 1.561,1.772 2.344,5.058 2.344,9.858 0,3.628 -0.352,6.249 -1.049,7.866 -0.699,1.617 -1.664,2.752 -2.898,3.4 -1.232,0.648 -3.307,0.973 -6.223,0.973 h -3.42 V 20.541 Z m -17.492,35.08 h 20.76 c 2.486,0 5.264,-0.412 8.328,-1.236 2.24,-0.596 4.338,-1.797 6.291,-3.598 1.953,-1.803 3.482,-4.039 4.582,-6.707 1.098,-2.666 1.65,-6.42 1.65,-11.264 0,-3.089 -0.371,-6.014 -1.111,-8.774 -0.74,-2.761 -1.932,-5.182 -3.578,-7.262 -1.646,-2.081 -3.729,-3.676 -6.246,-4.789 -2.52,-1.113 -5.824,-1.668 -9.916,-1.668 h -20.76 z"
       fill-rule="evenodd"
       clip-rule="evenodd"
       id="path5514"
       style="fill:#00ff00" />
  </g>
</svg>
