<?xml version="1.0" encoding="UTF-8" standalone="no"?>
<svg
   xmlns:dc="http://purl.org/dc/elements/1.1/"
   xmlns:cc="http://creativecommons.org/ns#"
   xmlns:rdf="http://www.w3.org/1999/02/22-rdf-syntax-ns#"
   xmlns:svg="http://www.w3.org/2000/svg"
   xmlns="http://www.w3.org/2000/svg"
   xmlns:sodipodi="http://sodipodi.sourceforge.net/DTD/sodipodi-0.dtd"
   xmlns:inkscape="http://www.inkscape.org/namespaces/inkscape"
   height="512"
   viewBox="-20.21 56.72 68.380671 106.56451"
   width="512"
   version="1.1"
   id="svg4824"
   sodipodi:docname="devops.svg"
   inkscape:version="1.0.2 (e86c870879, 2021-01-15)">
  <metadata
     id="metadata4830">
    <rdf:RDF>
      <cc:Work
         rdf:about="">
        <dc:format>image/svg+xml</dc:format>
        <dc:type
           rdf:resource="http://purl.org/dc/dcmitype/StillImage" />
        <dc:title></dc:title>
      </cc:Work>
    </rdf:RDF>
  </metadata>
  <defs
     id="defs4828" />
  <sodipodi:namedview
     pagecolor="#ffffff"
     bordercolor="#666666"
     borderopacity="1"
     objecttolerance="10"
     gridtolerance="10"
     guidetolerance="10"
     inkscape:pageopacity="0"
     inkscape:pageshadow="2"
     inkscape:window-width="640"
     inkscape:window-height="480"
     id="namedview4826"
     showgrid="false"
     inkscape:zoom="0.94695158"
     inkscape:cx="455.56398"
     inkscape:cy="328.80208"
     inkscape:current-layer="svg4824"
     inkscape:document-rotation="0" />
  <g
     id="g538"
     transform="matrix(0.37233086,0,0,0.37233086,-12.685193,64.028198)"
     style="stroke-width:2.68578">
    <g
       fill="#0d2c40"
       id="g4806"
       transform="translate(-72.376109,-20.520067)"
       style="fill:#00ff00;stroke-width:2.68578">
      <path
         d="m 93.09,176.17 20.91,1.54 v 17.86 c 0,0 -39.07,38.48 -96,-7.08 h 19.4 l 2.15,-17.55 c 0,0 22.14,22.47 53.54,5.23 z"
         id="path4798"
         style="fill:#00ff00;stroke-width:2.68578" />
      <path
         d="m 22.28,93.66 c 0,0 -42.49,39.56 -7.7,90.21 l 19.42,1.85 1.85,-18.78 c 0,0 -17.85,-29.25 5.21,-52.34 L 20.38,113 Z"
         id="path4800"
         style="fill:#00ff00;stroke-width:2.68578" />
      <path
         d="m 26.9,90.89 c 0,0 53,-34.17 93.29,7.08 l -17.86,-1.23 -1.85,20 c 0,0 -20.32,-24.62 -54.18,-5.53 l -20.63,-0.92 z"
         id="path4802"
         style="fill:#00ff00;stroke-width:2.68578" />
      <path
         d="m 105.1,121.68 1.23,-20.63 18.78,1.85 56.65,63.11 h -19.39 l -1.85,17.55 z"
         id="path4804"
         style="fill:#00ff00;stroke-width:2.68578" />
    </g>
    <g
       fill="#02d35f"
       id="g4816"
       transform="translate(-72.376109,-20.520067)"
       style="fill:#ececec;stroke-width:2.68578">
      <path
         d="m 98.33,172.79 71.73,-79.13 19.09,1.85 -1.23,19.4 -70.5,78.5 0.3,-20.32 z"
         id="path4808"
         style="fill:#ececec;stroke-width:2.68578" />
      <path
         d="m 172.83,90.81 19.86,1.62 -1.38,18.94 c 0,0 29.32,-18.71 50.8,1.15 l 21,0.92 L 265,95 c 0,0 -32.82,-37 -92.17,-4.19 z"
         id="path4810"
         style="fill:#ececec;stroke-width:2.68578" />
      <path
         d="m 245.11,115.52 21,1.23 1.62,-18.55 c 0,0 45.95,51.19 -3.7,95.21 l -20.31,-1.41 1.85,-21 c 0,0 27.48,-30.77 -0.46,-55.48 z"
         id="path4812"
         style="fill:#ececec;stroke-width:2.68578" />
      <path
         d="m 186.69,170.94 -21.21,-1.85 -1.19,18.71 c 0,0 37.64,43.41 94.44,8.77 l -19.4,-1.57 1.85,-20.09 c 0,0 -24.71,19.81 -54.49,-3.97 z"
         id="path4814"
         style="fill:#ececec;stroke-width:2.68578" />
    </g>
  </g>
</svg>
