<?xml version="1.0" encoding="UTF-8"?>
<svg xmlns="http://www.w3.org/2000/svg" id="Ebene_1" viewBox="0 0 237.74 237.74">
  <defs>
    <style>.cls-1{fill:#e5e8ed;}.cls-2{fill:#323d8c;}</style>
  </defs>
  <path class="cls-1" d="M118.87,0C53.22,0,0,53.22,0,118.87s53.22,118.87,118.87,118.87,118.87-53.22,118.87-118.87h0C237.74,53.22,184.52,0,118.87,0Zm0,230.32c-61.55,0-111.45-49.91-111.44-111.46,0-61.55,49.91-111.45,111.46-111.44,61.55,0,111.44,49.9,111.44,111.45s-49.9,111.45-111.45,111.45h-.01Z"></path>
  <g>
    <path class="cls-2" d="M166.24,168.93h-4.6v-11.25c-.4-1.3-4.94-4.55-9.01-4.55s-8.61,3.24-9.01,4.55v11.25h-4.6v-11.32c0-4.5,7.92-9.08,13.61-9.08s13.61,4.57,13.61,9.08v11.32Zm-22.63-11.21h0Zm18.04,0h0Z"></path>
    <path class="cls-2" d="M152.63,153.13c-5.18,0-9.09-4.32-9.09-10.05v-2.59c0-5.73,3.91-10.05,9.08-10.05s9.08,4.32,9.08,10.05v2.59c0,5.73-3.91,10.05-9.08,10.05Zm0-18.09c-3.08,0-4.49,2.83-4.49,5.45v2.59c0,2.63,1.4,5.46,4.49,5.46s4.48-2.83,4.48-5.45v-2.59c0-2.63-1.4-5.45-4.49-5.45Z"></path>
    <path class="cls-2" d="M123.23,168.97h-52.02c-3.76,0-6.82-3.06-6.82-6.82v-33.93c0-3.76,3.06-6.82,6.82-6.82h52.02c3.76,0,6.82,3.06,6.82,6.82v10.16l10.58,7.94-10.58,7.94v7.9c0,3.76-3.06,6.82-6.82,6.82Zm-52.02-42.97c-1.23,0-2.22,1-2.22,2.22v33.93c0,1.23,1,2.22,2.22,2.22h52.02c1.23,0,2.22-1,2.22-2.22v-10.2l7.51-5.63-7.51-5.64v-12.46c0-1.23-1-2.22-2.22-2.22h-52.02Z"></path>
    <path class="cls-2" d="M91.6,116.91h-4.6v-11.25c-.4-1.3-4.94-4.55-9.01-4.55s-8.61,3.24-9.01,4.55v11.25h-4.6v-11.32c0-4.5,7.92-9.08,13.61-9.08s13.61,4.57,13.61,9.08v11.32Zm-4.59-11.21h0Zm-18.04,0h0Z"></path>
    <path class="cls-2" d="M77.99,101.11c-5.18,0-9.08-4.32-9.08-10.05v-2.59c0-5.73,3.91-10.05,9.08-10.05s9.08,4.32,9.08,10.05v2.59c0,5.73-3.91,10.05-9.08,10.05Zm0-18.09c-3.08,0-4.49,2.83-4.49,5.45v2.59c0,2.63,1.4,5.45,4.49,5.45s4.49-2.83,4.49-5.46v-2.59c0-2.63-1.4-5.45-4.49-5.45Z"></path>
    <path class="cls-2" d="M159.42,116.95h-52.02c-3.76,0-6.82-3.06-6.82-6.82v-7.9l-10.58-7.94,10.58-7.94v-10.16c0-3.76,3.06-6.82,6.82-6.82h52.02c3.76,0,6.82,3.06,6.82,6.82v33.93c0,3.76-3.06,6.82-6.82,6.82Zm-61.76-22.66l7.51,5.63v10.2c0,1.23,1,2.22,2.22,2.22h52.02c1.23,0,2.22-1,2.22-2.22v-33.93c0-1.23-1-2.22-2.22-2.22h-52.02c-1.23,0-2.22,1-2.22,2.22v12.46l-7.51,5.64Z"></path>
  </g>
</svg>
