<?xml version="1.0" encoding="UTF-8" standalone="no"?>
<svg
   xmlns:dc="http://purl.org/dc/elements/1.1/"
   xmlns:cc="http://creativecommons.org/ns#"
   xmlns:rdf="http://www.w3.org/1999/02/22-rdf-syntax-ns#"
   xmlns:svg="http://www.w3.org/2000/svg"
   xmlns="http://www.w3.org/2000/svg"
   xmlns:sodipodi="http://sodipodi.sourceforge.net/DTD/sodipodi-0.dtd"
   xmlns:inkscape="http://www.inkscape.org/namespaces/inkscape"
   enable-background="new 0 0 50 50"
   height="50px"
   id="Layer_1"
   version="1.1"
   viewBox="0 0 50 50"
   width="50px"
   xml:space="preserve"
   sodipodi:docname="engine.svg"
   inkscape:version="1.0.2 (e86c870879, 2021-01-15)"><metadata
     id="metadata17"><rdf:RDF><cc:Work
         rdf:about=""><dc:format>image/svg+xml</dc:format><dc:type
           rdf:resource="http://purl.org/dc/dcmitype/StillImage" /></cc:Work></rdf:RDF></metadata><defs
     id="defs15" /><sodipodi:namedview
     pagecolor="#ffffff"
     bordercolor="#666666"
     borderopacity="1"
     objecttolerance="10"
     gridtolerance="10"
     guidetolerance="10"
     inkscape:pageopacity="0"
     inkscape:pageshadow="2"
     inkscape:window-width="640"
     inkscape:window-height="480"
     id="namedview13"
     showgrid="false"
     inkscape:zoom="18.14"
     inkscape:cx="13.974642"
     inkscape:cy="25"
     inkscape:current-layer="Layer_1" /><rect
     fill="none"
     height="50"
     width="50"
     id="rect2" /><polyline
     fill="none"
     points="30,14 30,10   35,10 35,6 21,6 21,10 26,10 26,14 "
     stroke="#000000"
     stroke-linejoin="round"
     stroke-miterlimit="10"
     stroke-width="2"
     id="polyline4"
     style="font-variation-settings:normal;opacity:1;vector-effect:none;fill:#00ffff;fill-opacity:1;stroke:#3b42ff;stroke-width:2.0077;stroke-linecap:round;stroke-linejoin:round;stroke-miterlimit:10;stroke-dasharray:none;stroke-dashoffset:0;stroke-opacity:1;stop-color:#000000;stop-opacity:1" /><polyline
     fill="none"
     points="9,27 5,27 5,21   1,21 1,37 5,37 5,31 9,31 "
     stroke="#000000"
     stroke-linejoin="round"
     stroke-miterlimit="10"
     stroke-width="2"
     id="polyline6"
     style="font-variation-settings:normal;opacity:1;vector-effect:none;fill:#00ffff;fill-opacity:1;stroke:#3b42ff;stroke-width:2.0077;stroke-linecap:round;stroke-linejoin:round;stroke-miterlimit:10;stroke-dasharray:none;stroke-dashoffset:0;stroke-opacity:1;stop-color:#000000;stop-opacity:1" /><path
     d="  M45,20v5h-3v-8.157C42,15.826,41.189,15,40.191,15H19.99c-0.479,0-0.941,0.195-1.28,0.542L14,21h-3c-1,0-2,1-2,2v12  c0,1.018,1.002,2,2,2h3l4.712,5.461C19.051,42.806,19.511,43,19.99,43h12.855c0.479,0,0.939-0.194,1.278-0.539l7.346-7.482  c0.341-0.346,0.53-0.814,0.53-1.303V31h3v5h4V20H45z"
     fill="none"
     stroke="#000000"
     stroke-linecap="round"
     stroke-linejoin="round"
     stroke-miterlimit="10"
     stroke-width="2.0077"
     id="path8"
     style="fill:#00ffff;stroke:#3b42ff;stroke-opacity:1" /><polygon
     points="32,28 24,39 27,30 22,30 27,20 32,20 27,28 "
     id="polygon10"
     style="fill:#3b42ff;fill-opacity:1" /></svg>
