<?xml version="1.0" encoding="UTF-8" standalone="no"?>
<svg
   xmlns:dc="http://purl.org/dc/elements/1.1/"
   xmlns:cc="http://creativecommons.org/ns#"
   xmlns:rdf="http://www.w3.org/1999/02/22-rdf-syntax-ns#"
   xmlns:svg="http://www.w3.org/2000/svg"
   xmlns="http://www.w3.org/2000/svg"
   xmlns:sodipodi="http://sodipodi.sourceforge.net/DTD/sodipodi-0.dtd"
   xmlns:inkscape="http://www.inkscape.org/namespaces/inkscape"
   height="1182"
   viewBox="1 1 134.99931314 62.608"
   width="2500"
   version="1.1"
   id="svg378"
   sodipodi:docname="isc.svg"
   inkscape:version="1.0.2 (e86c870879, 2021-01-15)">
  <metadata
     id="metadata384">
    <rdf:RDF>
      <cc:Work
         rdf:about="">
        <dc:format>image/svg+xml</dc:format>
        <dc:type
           rdf:resource="http://purl.org/dc/dcmitype/StillImage" />
      </cc:Work>
    </rdf:RDF>
  </metadata>
  <defs
     id="defs382" />
  <sodipodi:namedview
     pagecolor="#ffffff"
     bordercolor="#666666"
     borderopacity="1"
     objecttolerance="10"
     gridtolerance="10"
     guidetolerance="10"
     inkscape:pageopacity="0"
     inkscape:pageshadow="2"
     inkscape:window-width="640"
     inkscape:window-height="480"
     id="namedview380"
     showgrid="false"
     inkscape:zoom="0.608"
     inkscape:cx="921.05263"
     inkscape:cy="591"
     inkscape:current-layer="svg378" />
  <g
     fill="#24514a"
     id="g376"
     style="fill:#49a698;fill-opacity:1">
    <path
       d="m19.193 63.608c-9.418-7.088-18.193-15.788-18.193-31.075 0-14.258 12.752-26.872 20.265-31.533l2.967 1.744c-20.064 17.691-20.2 43.449-1.544 58.88z"
       id="path370"
       style="fill:#49a698;fill-opacity:1" />
    <path
       d="m21.705 53.78v-41.323h5.498v41.323zm35.9-12.18c0 1.563-.264 3.108-.794 4.635-.529 1.527-1.27 2.82-2.225 3.88a11.38 11.38 0 0 1 -3.656 2.694c-1.391.647-3.068.97-5.028.97-2.104 0-3.996-.269-5.675-.808-1.68-.539-3.388-1.338-5.126-2.398v-6.683h.274c1.477 1.689 3.182 2.991 5.117 3.908 1.934.916 3.754 1.267 5.45 1.374 7.812.49 8.35-9.202 3.783-11.707-.91-.498-2.56-1.646-3.77-2.42-2.998-1.919-6.94-3.382-8.806-6.057-1.264-1.813-1.872-2.379-1.872-5.307 0-3.36 1.033-6.112 3.097-8.259 2.065-2.147 4.686-3.22 7.861-3.22 2.052 0 3.934.27 5.646.808 1.712.54 3.228 1.204 4.548 1.994v6.306h-.274c-1.111-1.294-2.572-2.367-4.382-3.22-1.81-.854-3.113-.856-5.006-.934-7.34-.302-8.167 6.864-3.473 10.483 4.092 3.156 8.239 3.865 11.95 7.497 1.402 1.37 2.361 3.59 2.361 6.464zm40.911 8.838c-15.977 7.39-36.265 2.3-36.265-17.414 0-19.522 21.398-24.491 36.265-17.606v6.091h-.44c-10.144-8.21-30.854-4.907-30.854 11.515 0 17.136 21.171 19.427 30.883 11.373h.411z"
       id="path372"
       style="fill:#49a698;fill-opacity:1" />
    <path
       d="m97.79 63.608c9.419-7.088 18.193-15.788 18.193-31.075 0-14.258-12.752-26.872-20.265-31.533l-2.968 1.744c20.064 17.691 20.2 43.449 1.544 58.88zm20.46-38.841v-.375l4.31-6.601c.901-1.384 1.352-2.558 1.352-3.522 0-1.27-.717-1.906-2.15-1.906-.507 0-.983.133-1.428.4-.444.265-.767.602-.967 1.009l-1.211-.996c.213-.613.63-1.102 1.253-1.465s1.376-.544 2.259-.544c1.32 0 2.354.305 3.098.915.745.61 1.118 1.473 1.118 2.587 0 1.033-.495 2.335-1.484 3.907l-3.09 4.901h5.39v1.69zm9.59-9.205c0-1.077.383-1.996 1.147-2.759.765-.762 1.685-1.143 2.762-1.143a3.76 3.76 0 0 1 2.76 1.143 3.76 3.76 0 0 1 1.143 2.76c0 1.076-.381 1.997-1.144 2.761-.762.765-1.682 1.147-2.759 1.147s-1.997-.382-2.762-1.147-1.146-1.685-1.146-2.762zm7.175 0c0-.903-.318-1.673-.955-2.31s-1.407-.955-2.31-.955-1.675.318-2.314.955-.958 1.407-.958 2.31.32 1.675.958 2.314c.639.638 1.41.958 2.313.958.904 0 1.674-.32 2.31-.958.638-.64.956-1.41.956-2.314zm-2.05 2.357-1.221-2.067h-.695v2.067h-.69v-4.812h1.234c1.158 0 1.737.444 1.737 1.332 0 .618-.31 1.054-.932 1.309l1.314 2.17zm-1.916-4.221v1.598c.058.008.208.012.451.012.448 0 .75-.057.904-.171s.231-.331.231-.652c0-.529-.347-.793-1.042-.793h-.272z"
       id="path374"
       style="fill:#49a698;fill-opacity:1" />
  </g>
</svg>
