<?xml version="1.0" encoding="UTF-8" standalone="no"?>
<svg
   xmlns:dc="http://purl.org/dc/elements/1.1/"
   xmlns:cc="http://creativecommons.org/ns#"
   xmlns:rdf="http://www.w3.org/1999/02/22-rdf-syntax-ns#"
   xmlns:svg="http://www.w3.org/2000/svg"
   xmlns="http://www.w3.org/2000/svg"
   xmlns:sodipodi="http://sodipodi.sourceforge.net/DTD/sodipodi-0.dtd"
   xmlns:inkscape="http://www.inkscape.org/namespaces/inkscape"
   width="24.000004"
   height="24.000046"
   viewBox="0 0 24.000004 24.000046"
   role="img"
   version="1.1"
   id="svg16"
   sodipodi:docname="junit.svg"
   inkscape:version="1.0.2 (e86c870879, 2021-01-15)">
  <metadata
     id="metadata22">
    <rdf:RDF>
      <cc:Work
         rdf:about="">
        <dc:format>image/svg+xml</dc:format>
        <dc:type
           rdf:resource="http://purl.org/dc/dcmitype/StillImage" />
      </cc:Work>
    </rdf:RDF>
  </metadata>
  <defs
     id="defs20" />
  <sodipodi:namedview
     pagecolor="#ffffff"
     bordercolor="#666666"
     borderopacity="1"
     objecttolerance="10"
     gridtolerance="10"
     guidetolerance="10"
     inkscape:pageopacity="0"
     inkscape:pageshadow="2"
     inkscape:window-width="640"
     inkscape:window-height="480"
     id="namedview18"
     showgrid="false"
     inkscape:zoom="12.115588"
     inkscape:cx="9.9242422"
     inkscape:cy="18.329108"
     inkscape:current-layer="svg16" />
  <path
     style="fill:#ff0000"
     d="m 15.585943,12.195358 c 0.132282,0.109209 0.235234,0.214172 0.302733,0.310547 -0.06738,-0.09637 -0.170546,-0.201338 -0.302733,-0.310547 z"
     id="path899" />
  <path
     style="fill:#ff0000"
     d="m 16.093754,3.632859 v 0.1601563 h 0.002 V 3.632859 Z"
     id="path897" />
  <path
     style="fill:#ff0000"
     d="m 6.648442,19.316452 c -0.00121,-6.82e-4 -0.00269,-0.0013 -0.00391,-0.002 v 3.419922 a 11.998,11.998 0 0 0 0.00391,0.002 z"
     id="path893" />
  <ellipse
     style="fill:#ffffff;fill-opacity:1;fill-rule:evenodd;stroke:none;stroke-width:1;stop-color:#000000"
     id="path901"
     cx="11.837991"
     cy="12.148016"
     rx="11.518866"
     ry="11.447857" />
  <path
     style="fill:#ff0000"
     d="m 6.6503951,19.316452 v -0.253906 h -0.00195 v 0.253906 z"
     id="path891" />
  <path
     style="fill:#25a162;fill-opacity:1"
     d="M 16.099613,0.74614025 V 3.632859 5.9687965 H 9.9199264 L 9.5488326,10.013719 c 0.262,-0.044 0.5772184,-0.096251 0.9492184,-0.1562506 0.380001,-0.06 0.844672,-0.089844 1.388672,-0.089844 v 0.00195 c 1.647,0 2.950109,0.4356416 3.91211,1.3066416 0.960999,0.872 1.441405,2.060406 1.441405,3.566406 0,1.744 -0.547578,3.106844 -1.642577,4.089844 -1.088001,0.977 -2.63839,1.464844 -4.65039,1.464844 -1.8230139,0 -3.254305,-0.293787 -4.2968759,-0.88086 v 3.421875 a 12,12 0 0 0 5.3496089,1.261721 c 6.628,0 12,-5.373 12,-11.999999 a 12.007,12.007 0 0 0 -7.650391,-11.16992238 8.493,8.493 0 0 0 -0.25,-0.0839844 z"
     id="path14" />
  <path
     style="fill:#ff0000"
     d="m -22.345698,20.697312 c 0.06668,0.03223 0.207931,0.09231 0.396484,0.171875 h 0.0059 c -0.19175,-0.08067 -0.334403,-0.1392 -0.402344,-0.171875 z"
     id="path881" />
  <path
     style="fill:#ff0000"
     d="m -22.673823,20.617234 v 0.251953 h 0.002 v -0.251953 z"
     id="path879" />
  <path
     style="fill:#dc524a;fill-opacity:1"
     d="M 11.998047,0 C 5.371954,0.00107 0,5.3736577 0,12.000001 a 11.998,11.998 0 0 0 6.644532,10.734374 v -3.419921 -2.38086 a 7.89,7.89 0 0 0 2.078125,0.792969 c 0.782,0.186 1.508686,0.279297 2.179687,0.279297 1.184,0 2.087077,-0.263969 2.705078,-0.792969 0.619,-0.53 0.927735,-1.305172 0.927735,-2.326172 0,-1.952 -1.246375,-2.927734 -3.734376,-2.927734 -0.349999,0 -0.782875,0.03733 -1.296874,0.111328 -0.514,0.067 -0.964563,0.144375 -1.351563,0.234375 L 6.978516,11.613281 7.605469,3.6328125 h 8.48828 V 0.7441406 A 12,12 0 0 0 12,0 Z"
     id="path44" />
</svg>
