<?xml version="1.0" encoding="iso-8859-1"?>
<!-- Generator: Adobe Illustrator 19.0.0, SVG Export Plug-In . SVG Version: 6.00 Build 0)  -->
<svg version="1.1" id="Layer_1" xmlns="http://www.w3.org/2000/svg" xmlns:xlink="http://www.w3.org/1999/xlink" x="0px" y="0px"
	 viewBox="0 0 499.2 499.2" style="enable-background:new 0 0 499.2 499.2;" xml:space="preserve">
<g>
	<path style="fill:#FFF8EF;" d="M216,143.2l22.4,23.2l0,0h-4.8c-4,0-8,4-8,8v8h-24c-4,0-8,4-8,8v27.2l-28,13.6c-2.4,1.6-4,4-4,7.2
		v24.8l-21.6,7.2l-21.6-21.6c-6.4-6.4-8-16-4-23.2l2.4-4.8c1.6-3.2,0.8-7.2-1.6-8.8l-22.4-22.4l68-68l16.8,16.8
		c1.6,1.6,4.8,3.2,7.2,2.4l13.6-2.4C204.8,136,211.2,138.4,216,143.2z"/>
	<path style="fill:#FFF8EF;" d="M407.2,189.6L384,212c-2.4,2.4-3.2,6.4-1.6,9.6l4,8c2.4,5.6,1.6,12-2.4,16.8l-24.8,24l-21.6-5.6
		v-42.4c0-4-4-8-8-8h-24v-16c0-4-4-8-8-8h-24v-16c0-4-4-8-8-8h-4.8l0,0l10.4-11.2l14.4-14.4c3.2-3.2,8-4.8,12.8-4l16.8,3.2
		c2.4,0.8,5.6,0,7.2-2.4l16.8-17.6L407.2,189.6z"/>
	<path style="fill:#FFF8EF;" d="M321.6,269.6c0,12.8-6.4,24.8-16.8,31.2l-4,2.4c-1.6,1.6-3.2,4.8-3.2,7.2v24h-96v-32
		c0-3.2-2.4-6.4-5.6-8l-2.4-0.8c-9.6-3.2-16-12-16-21.6v-28.8l16-8v27.2h16v-64h16v64h16v-72v-8h16v16v64h16v-56h16v16v40h16v-32h16
		V269.6z"/>
</g>
<g>
	<polygon style="fill:#2FB4C2;" points="305.6,382.4 305.6,454.4 193.6,454.4 193.6,382.4 249.6,382.4 249.6,366.4 193.6,366.4 
		193.6,350.4 305.6,350.4 305.6,366.4 281.6,366.4 281.6,382.4 	"/>
	
		<rect x="372.879" y="60.034" transform="matrix(-0.7071 0.7071 -0.7071 -0.7071 785.5096 -93.3025)" style="fill:#2FB4C2;" width="78.399" height="111.999"/>
	
		<rect x="31.229" y="76.724" transform="matrix(-0.7071 0.7071 -0.7071 -0.7071 230.8781 136.2135)" style="fill:#2FB4C2;" width="111.999" height="78.399"/>
</g>
<path style="fill:#42210B;" d="M344.8,104l79.2,79.2l56-56L400.8,48L344.8,104z M382.4,220.8c-1.6-3.2-0.8-7.2,1.6-9.6l23.2-22.4
	L338.4,120l-16.8,17.6c-1.6,2.4-4.8,2.4-7.2,2.4l-16.8-3.2c-4.8-0.8-9.6,0.8-12.8,4l-14.4,14.4l-9.6,11.2l0,0h4.8c4,0,8,4,8,8v16h24
	c4,0,8,4,8,8v16h24c4,0,8,4,8,8v42.4l21.6,6.4l24.8-24.8c4-4,5.6-11.2,2.4-16.8L382.4,220.8z M177.6,272c0,9.6,6.4,18.4,16,21.6
	l3.2,0.8c3.2,0.8,5.6,4,5.6,8v32h96v-24c0-2.4,1.6-5.6,4-6.4l4-2.4c10.4-7.2,16.8-18.4,16.8-31.2v-40h-16v32h-16v-40v-16h-16v56h-16
	v-64v-16h-16v8v72h-16v-64h-16v64h-16v-27.2l-16,8V272H177.6z M305.6,350.4h-112v16h56v16h-56v72h112v-72h-24v-16h24V350.4z
	 M154.4,104l-56-56l-79.2,79.2l56,56L154.4,104z M104.8,31.2l37.6,37.6c32-20,68.8-30.4,107.2-30.4l0,0v16l0,0
	c-33.6,0-67.2,8.8-96,26.4L172,99.2c1.6,1.6,2.4,3.2,2.4,5.6s-0.8,4-2.4,5.6l14.4,13.6l8.8-1.6c12-2.4,24,1.6,32.8,9.6l12,12
	l10.4,10.4l10.4-10.4l14.4-14.4c7.2-7.2,17.6-10.4,27.2-8l12,2.4l13.6-14.4c-2.4-3.2-2.4-8,0-11.2l67.2-67.2c3.2-3.2,8-3.2,11.2,0
	l90.4,90.4c1.6,1.6,2.4,3.2,2.4,5.6c0,2.4-0.8,4-2.4,5.6l-49.6,49.6c12,38.4,13.6,78.4,3.2,117.6l-15.2-4c8.8-32.8,8.8-68-0.8-100.8
	l-4.8,4.8c-1.6,1.6-4,2.4-5.6,2.4c-2.4,0-4-0.8-5.6-2.4l-19.2,18.4l2.4,4c5.6,12,3.2,25.6-5.6,35.2l-28,28c-1.6,1.6-4,2.4-5.6,2.4
	c-0.8,0-1.6,0-2.4,0l-23.2-6.4c-2.4,13.6-10.4,26.4-22.4,34.4l0,0v18.4c4,0,8,4,8,8v120c0,4-4,8-8,8H185.6c-4,0-8-4-8-8v-20.8
	C140,428,108,404,84,372l12.8-9.6c20.8,28,48.8,48.8,80.8,61.6v-81.6c0-4,4-8,8-8V308c-12-4.8-20.8-16-23.2-28l-22.4,7.2
	c-0.8,0-1.6,0-2.4,0c-2.4,0-4-0.8-5.6-2.4L106.4,260c-11.2-11.2-13.6-27.2-7.2-40.8l-18.4-18.4c-1.6,1.6-3.2,2.4-5.6,2.4
	s-4-0.8-5.6-2.4L2.4,133.6c-3.2-3.2-3.2-8,0-11.2l90.4-91.2C96,28.8,101.6,28.8,104.8,31.2z M114.4,225.6c-4,8-2.4,16.8,4,23.2
	l21.6,21.6l21.6-7.2v-24.8c0-3.2,1.6-5.6,4-7.2l28-13.6v-27.2c0-4,4-8,8-8h24v-8c0-4,4-8,8-8h4.8l0,0L216,143.2
	c-4.8-4.8-12-7.2-18.4-5.6L184,140c-2.4,0.8-5.6,0-7.2-2.4L160,120.8l-68,68l22.4,22.4c2.4,2.4,3.2,6.4,1.6,8.8L114.4,225.6z"/>
<g>
	<path style="fill:#1D9AAE;" d="M88,72c5.6-5.6,14.4-6.4,21.6-1.6l41.6,29.6l-52-52L20,127.2l52,52l-30.4-41.6
		c-4.8-6.4-4-16,1.6-21.6L88,72z"/>
	<path style="fill:#1D9AAE;" d="M427.2,180l52-52L400,48.8l-52,52L393.6,68c4.8-3.2,10.4-2.4,14.4,0.8l50.4,50.4c4,4,4,9.6,0.8,14.4
		L427.2,180z"/>
	<path style="fill:#1D9AAE;" d="M285.6,446.4h-72c-6.4,0-12.8-4.8-13.6-12l-6.4-52v72h112v-72l-6.4,52
		C298.4,441.6,292.8,446.4,285.6,446.4z"/>
</g>
<g>
	<path style="fill:#D9CDC1;" d="M124.8,229.6l0.8-3.2c2.4-7.2,0.8-16-4.8-21.6l-22.4-22.4l-5.6,5.6l22.4,22.4
		c2.4,2.4,3.2,6.4,1.6,9.6l-2.4,4c-4,8-2.4,17.6,4,23.2l21.6,21.6l21.6-7.2v-7.2l-4.8,2.4c-6.4,3.2-14.4,1.6-20-3.2l-8.8-8.8
		C124,240.8,122.4,235.2,124.8,229.6z"/>
	<path style="fill:#D9CDC1;" d="M308.8,150.4c8,0,16-3.2,22.4-8.8l14.4-14.4l-6.4-6.4l-16.8,17.6c-1.6,2.4-4.8,2.4-7.2,2.4
		l-16.8-3.2c-4.8-0.8-9.6,0.8-12.8,4L271.2,156l-10.4,10.4l0,0h4.8c2.4,0,4,0.8,5.6,2.4L284,156c3.2-3.2,8-5.6,12.8-5.6L308.8,150.4
		L308.8,150.4z"/>
	<path style="fill:#D9CDC1;" d="M289.6,312.8L289.6,312.8c0,8-6.4,13.6-13.6,13.6h-52c-8,0-13.6-6.4-13.6-13.6v-5.6
		c0-8-4-15.2-10.4-19.2l-6.4-4c-4.8-3.2-7.2-8-7.2-13.6V240l-8,4v28.8c0,9.6,6.4,18.4,16,21.6l3.2,0.8c3.2,0.8,5.6,4,5.6,8v32h96
		v-24c0-2.4,1.6-5.6,4-6.4l4-2.4c10.4-7.2,16.8-18.4,16.8-31.2v-40.8h-8v44c0,7.2-4,14.4-9.6,18.4l-8.8,4
		C292.8,300,289.6,306.4,289.6,312.8z"/>
</g>
<g>
</g>
<g>
</g>
<g>
</g>
<g>
</g>
<g>
</g>
<g>
</g>
<g>
</g>
<g>
</g>
<g>
</g>
<g>
</g>
<g>
</g>
<g>
</g>
<g>
</g>
<g>
</g>
<g>
</g>
</svg>
