<?xml version="1.0" encoding="UTF-8" standalone="no"?>
<svg
   xmlns:dc="http://purl.org/dc/elements/1.1/"
   xmlns:cc="http://creativecommons.org/ns#"
   xmlns:rdf="http://www.w3.org/1999/02/22-rdf-syntax-ns#"
   xmlns:svg="http://www.w3.org/2000/svg"
   xmlns="http://www.w3.org/2000/svg"
   xmlns:sodipodi="http://sodipodi.sourceforge.net/DTD/sodipodi-0.dtd"
   xmlns:inkscape="http://www.inkscape.org/namespaces/inkscape"
   width="375.04025pt"
   height="442.34027pt"
   version="1.1"
   viewBox="0 0 375.04025 442.34027"
   id="svg927"
   sodipodi:docname="ia.svg"
   inkscape:version="1.0.2 (e86c870879, 2021-01-15)">
  <metadata
     id="metadata933">
    <rdf:RDF>
      <cc:Work
         rdf:about="">
        <dc:format>image/svg+xml</dc:format>
        <dc:type
           rdf:resource="http://purl.org/dc/dcmitype/StillImage" />
      </cc:Work>
    </rdf:RDF>
  </metadata>
  <defs
     id="defs931" />
  <sodipodi:namedview
     pagecolor="#ffffff"
     bordercolor="#666666"
     borderopacity="1"
     objecttolerance="10"
     gridtolerance="10"
     guidetolerance="10"
     inkscape:pageopacity="0"
     inkscape:pageshadow="2"
     inkscape:window-width="640"
     inkscape:window-height="480"
     id="namedview929"
     showgrid="false"
     inkscape:zoom="0.88663564"
     inkscape:cx="250.02698"
     inkscape:cy="294.88533"
     inkscape:current-layer="svg927" />
  <g
     id="g925"
     transform="translate(-188.47976,-154.836)"
     style="fill:#00ccff">
    <path
       d="m 293.19,306.03 h -13.75 v -7.2734 c 0,-4.0859 -3.3125,-7.3984 -7.3984,-7.3984 -4.0859,0 -7.3984,3.3125 -7.3984,7.3984 v 14.676 c 0,4.0859 3.3125,7.3984 7.3984,7.3984 h 21.148 c 4.0859,0 7.3984,-3.3125 7.3984,-7.3984 0,-4.0898 -3.3125,-7.4023 -7.3984,-7.4023 z"
       id="path917"
       style="fill:#00ccff" />
    <path
       d="m 389.84,321.43 h 14.91 c 0.0312,0.0781 0.0664,0.16406 0.10156,0.24219 l -10.543,10.543 c -1.3867,1.3867 -2.168,3.2695 -2.168,5.2344 0,1.9609 0.77734,3.8438 2.168,5.2344 l 17.402,17.402 c 2.8906,2.8906 7.5781,2.8906 10.465,0 l 10.547,-10.547 c 0.0781,0.0312 0.16016,0.0664 0.24219,0.10156 v 14.91 c 0,4.0859 3.3125,7.3984 7.3984,7.3984 h 24.613 c 4.0859,0 7.3984,-3.3125 7.3984,-7.3984 v -14.91 c 0.0781,-0.0312 0.16016,-0.0664 0.24219,-0.10156 l 10.543,10.543 c 2.8906,2.8906 7.5781,2.8906 10.465,0 l 17.402,-17.402 c 2.8906,-2.8906 2.8906,-7.5742 0,-10.465 l -10.543,-10.543 c 0.0312,-0.0781 0.0664,-0.16406 0.10156,-0.24219 h 14.91 c 4.0859,0 7.3984,-3.3125 7.3984,-7.3984 v -24.613 c 0,-4.0859 -3.3125,-7.3984 -7.3984,-7.3984 h -14.91 c -0.0312,-0.0781 -0.0664,-0.16406 -0.10156,-0.24219 l 10.543,-10.547 c 2.8906,-2.8906 2.8906,-7.5742 0,-10.465 l -17.402,-17.402 c -2.7773,-2.7773 -7.6875,-2.7773 -10.465,0 l -10.543,10.543 c -0.0781,-0.0312 -0.16016,-0.0664 -0.24219,-0.0977 v -14.91 c 0,-4.0859 -3.3125,-7.3984 -7.3984,-7.3984 h -24.613 c -4.0859,0 -7.3984,3.3125 -7.3984,7.3984 v 14.91 c -0.0781,0.0312 -0.16016,0.0664 -0.24219,0.0977 l -10.547,-10.543 c -2.8906,-2.8906 -7.5781,-2.8906 -10.465,0 l -17.402,17.402 c -2.8906,2.8906 -2.8906,7.5742 0,10.465 l 10.543,10.547 c -0.0312,0.0781 -0.0664,0.16016 -0.10156,0.24219 h -14.91 c -4.0859,0 -7.3984,3.3125 -7.3984,7.3984 v 24.613 c -0.004,4.0859 3.3086,7.3984 7.3984,7.3984 z m 7.3984,-24.617 h 12.766 c 3.2969,0 6.1992,-2.1797 7.1094,-5.3516 0.78125,-2.7109 1.8398,-5.2773 3.1445,-7.6328 1.5977,-2.8867 1.0938,-6.4805 -1.2383,-8.8164 l -9.0117,-9.0156 6.9375,-6.9375 9.0156,9.0117 c 2.332,2.3359 5.9219,2.8398 8.8164,1.2422 2.3633,-1.3086 4.9297,-2.3633 7.6328,-3.1445 3.1719,-0.91016 5.3555,-3.8125 5.3555,-7.1094 v -12.766 h 9.8125 v 12.766 c 0,3.3008 2.1836,6.1992 5.3555,7.1094 2.7031,0.77734 5.2734,1.8359 7.6328,3.1445 2.8906,1.5938 6.4805,1.0938 8.8164,-1.2422 l 9.0117,-9.0117 6.9375,6.9375 -9.0117,9.0156 c -2.332,2.332 -2.8398,5.9297 -1.2383,8.8164 1.3047,2.3594 2.3633,4.9297 3.1445,7.6367 0.91406,3.168 3.8125,5.3516 7.1094,5.3516 h 12.766 v 9.8125 h -12.766 c -3.2969,0 -6.1992,2.1797 -7.1094,5.3516 -0.77734,2.707 -1.8398,5.2734 -3.1445,7.6406 -1.5977,2.8906 -1.0898,6.4805 1.2422,8.8164 l 9.0117,9.0117 -6.9375,6.9375 -9.0117,-9.0117 c -2.332,-2.3359 -5.9258,-2.8398 -8.8164,-1.2383 -2.3555,1.3008 -4.9258,2.3633 -7.6367,3.1445 -3.168,0.91406 -5.3516,3.8125 -5.3516,7.1094 v 12.766 H 447.77 v -12.766 c 0,-3.2969 -2.1797,-6.1992 -5.3516,-7.1094 -2.7109,-0.78125 -5.2773,-1.8398 -7.6367,-3.1445 -2.8906,-1.6016 -6.4805,-1.0898 -8.8164,1.2383 l -9.0156,9.0117 -6.9375,-6.9375 9.0117,-9.0117 c 2.3359,-2.3359 2.8398,-5.9297 1.2383,-8.8164 -1.3047,-2.3555 -2.3633,-4.9297 -3.1445,-7.6367 -0.91406,-3.168 -3.8125,-5.3516 -7.1094,-5.3516 h -12.766 z"
       id="path919"
       style="fill:#00ccff" />
    <path
       d="m 452.66,330 c 15.594,0 28.277,-12.688 28.277,-28.277 0,-15.594 -12.688,-28.277 -28.277,-28.277 -15.594,0 -28.277,12.688 -28.277,28.277 0,15.589 12.688,28.277 28.277,28.277 z m 0,-41.758 c 7.4336,0 13.48,6.0469 13.48,13.48 0,7.4331 -6.0469,13.48 -13.48,13.48 -7.4336,0 -13.48,-6.0469 -13.48,-13.48 0.004,-7.4336 6.0508,-13.48 13.48,-13.48 z"
       id="path921"
       style="fill:#00ccff" />
    <path
       d="m 563.52,313.06 c 0,-42.266 -16.461,-81.996 -46.344,-111.88 -29.887,-29.887 -69.621,-46.344 -111.89,-46.344 -27.262,0 -53.902,6.9961 -77.488,20.262 l -4.0859,-5.7695 c -0.15234,-0.21484 -0.34375,-0.38672 -0.51172,-0.58594 -0.22266,-0.26953 -0.4375,-0.54297 -0.68359,-0.78516 -0.24609,-0.24219 -0.51172,-0.45312 -0.77734,-0.66406 -0.26172,-0.21094 -0.51563,-0.42578 -0.79297,-0.60937 -0.28516,-0.1875 -0.58984,-0.33984 -0.89062,-0.5 -0.28906,-0.15234 -0.57422,-0.30859 -0.875,-0.42969 -0.3125,-0.12891 -0.63672,-0.21875 -0.96094,-0.31641 -0.3125,-0.0937 -0.62109,-0.19141 -0.94141,-0.25391 -0.32812,-0.0664 -0.65625,-0.0937 -0.98828,-0.12891 -0.32812,-0.0312 -0.65234,-0.0703 -0.98438,-0.0742 -0.33594,-0.004 -0.66406,0.0352 -1,0.0664 -0.33203,0.0312 -0.65625,0.0547 -0.98438,0.11719 -0.33984,0.0664 -0.66797,0.16797 -1.0039,0.26953 -0.31641,0.0937 -0.62891,0.17969 -0.9375,0.30469 -0.33594,0.13672 -0.65234,0.3125 -0.97656,0.48438 -0.21875,0.11719 -0.44922,0.19531 -0.66406,0.32812 -49.871,31.426 -79.641,86.008 -79.641,146 v 0.25391 l -37.273,66.887 c -4.9102,6.6914 -5.7305,15.402 -2.0977,22.973 3.5156,7.3359 10.523,12.023 18.473,12.457 l 19.055,3.9141 v 44.402 c 0,1.0938 0.0352,2.1758 0.10547,3.2422 0.88672,13.512 7.7773,25.906 18.902,34.008 8.3359,6.0742 18.234,9.2422 28.305,9.2422 3.918,0 7.8633,-0.48047 11.746,-1.457 l 29.297,-7.3633 v 85.707 c 0,5.7227 4.6367,10.359 10.359,10.359 h 173.4 c 5.7227,0 10.359,-4.6367 10.359,-10.359 v -155.81 c 2.1953,-1.9648 4.3672,-3.9766 6.4453,-6.0547 29.887,-29.887 46.344,-69.621 46.344,-111.89 z M 405.29,175.55 c 36.73,0 71.262,14.305 97.234,40.273 25.973,25.969 40.273,60.504 40.273,97.23 0,36.73 -14.305,71.262 -40.273,97.234 -1.9414,1.9375 -3.9531,3.8359 -6.0039,5.6602 l -101.46,0.004 -6.8203,-45.961 c -0.14063,-0.94531 -0.41016,-1.8633 -0.80078,-2.7344 l -25.859,-57.391 v -83.793 c 0,-2.1445 -0.66406,-4.2383 -1.9062,-5.9883 l -19.809,-27.961 c 20.02,-10.84 42.457,-16.574 65.422,-16.574 z M 282.27,488.37 c -7.8945,1.9766 -16.211,0.36328 -22.805,-4.4414 -6.2305,-4.5391 -9.9336,-11.152 -10.426,-18.629 -0.043,-0.61719 -0.0625,-1.2461 -0.0625,-1.875 v -52.848 c 0,-4.918 -3.457,-9.1562 -8.2734,-10.148 l -28.195,-5.7969 c -0.6875,-0.14062 -1.3867,-0.21094 -2.0859,-0.21094 -0.21484,0 -0.65625,0 -1.0078,-0.73047 -0.21875,-0.45703 -0.36719,-1.1523 0.1875,-1.8398 0.36328,-0.44922 0.6875,-0.93359 0.97266,-1.4375 l 39.012,-70.008 c 0.88672,-1.5938 1.3398,-3.3906 1.3086,-5.2188 l -0.0352,-1.3359 c -0.0156,-0.43359 -0.0312,-0.875 -0.0312,-1.3125 0,-49.484 22.949,-94.746 61.852,-122.97 l 28.195,39.797 v 82.719 c 0,1.4688 0.3125,2.918 0.91406,4.2578 l 26.18,58.109 13.215,89.059 z m 113.06,-7.0508 c 0.17578,-0.043 0.32812,-0.12891 0.5,-0.17969 0.34766,-0.10547 0.68359,-0.22656 1.0117,-0.36719 0.30859,-0.12891 0.60156,-0.27344 0.89062,-0.42969 0.30469,-0.16406 0.59375,-0.34375 0.87891,-0.53516 0.27344,-0.1875 0.54297,-0.38672 0.79688,-0.59766 0.25391,-0.21484 0.49609,-0.43359 0.73047,-0.67188 0.23438,-0.23828 0.45703,-0.48438 0.66406,-0.73828 0.21094,-0.25781 0.40234,-0.51953 0.58594,-0.79688 0.18359,-0.27344 0.35156,-0.55469 0.50781,-0.84766 0.15625,-0.29297 0.30078,-0.59375 0.42578,-0.89844 0.12891,-0.30859 0.24219,-0.61719 0.33984,-0.93359 0.0976,-0.3164 0.17578,-0.63281 0.24609,-0.96094 0.0703,-0.33984 0.125,-0.67969 0.16016,-1.0273 0.0312,-0.32422 0.0508,-0.64453 0.0547,-0.97266 0.004,-0.36328 -0.0156,-0.72656 -0.0508,-1.0938 -0.0195,-0.17578 0.004,-0.34375 -0.0234,-0.51953 l -4.9062,-33.082 h 25.625 v 77.742 h -86.43 v -18.516 z m -57.992,47.887 h 86.43 v 47.238 h -86.43 z m 101.23,47.238 v -139.78 h 51.453 v 139.78 z"
       id="path923"
       style="fill:#00ccff" />
  </g>
</svg>
