<?xml version="1.0" encoding="UTF-8" standalone="no"?>
<svg
   xmlns:dc="http://purl.org/dc/elements/1.1/"
   xmlns:cc="http://creativecommons.org/ns#"
   xmlns:rdf="http://www.w3.org/1999/02/22-rdf-syntax-ns#"
   xmlns:svg="http://www.w3.org/2000/svg"
   xmlns="http://www.w3.org/2000/svg"
   xmlns:sodipodi="http://sodipodi.sourceforge.net/DTD/sodipodi-0.dtd"
   xmlns:inkscape="http://www.inkscape.org/namespaces/inkscape"
   id="Ebene_1"
   viewBox="0 0 106.67 102.17"
   version="1.1"
   sodipodi:docname="marketing.svg"
   width="106.67"
   height="102.17"
   inkscape:version="1.0.2 (e86c870879, 2021-01-15)">
  <metadata
     id="metadata2244">
    <rdf:RDF>
      <cc:Work
         rdf:about="">
        <dc:format>image/svg+xml</dc:format>
        <dc:type
           rdf:resource="http://purl.org/dc/dcmitype/StillImage" />
      </cc:Work>
    </rdf:RDF>
  </metadata>
  <sodipodi:namedview
     pagecolor="#ffffff"
     bordercolor="#666666"
     borderopacity="1"
     objecttolerance="10"
     gridtolerance="10"
     guidetolerance="10"
     inkscape:pageopacity="0"
     inkscape:pageshadow="2"
     inkscape:window-width="640"
     inkscape:window-height="480"
     id="namedview2242"
     showgrid="false"
     inkscape:zoom="3.7393791"
     inkscape:cx="-0.15481289"
     inkscape:cy="52.230003"
     inkscape:current-layer="Ebene_1" />
  <defs
     id="defs2217">
    <style
       id="style2215">.cls-1{fill:#e5e8ed;}.cls-2{fill:#323d8c;}</style>
  </defs>
  <path
     class="cls-2"
     d="M 17.82,84.49 C 11.55,84.49 6.64,79.3 6.64,72.68 V 69.51 C 6.64,62.89 11.55,57.7 17.82,57.7 24.09,57.7 29,62.89 29,69.51 v 3.17 c 0,6.62 -4.91,11.81 -11.18,11.81 z m 0,-22.19 c -3.69,0 -6.58,3.17 -6.58,7.21 v 3.17 c 0,4.04 2.89,7.21 6.58,7.21 3.69,0 6.58,-3.17 6.58,-7.21 v -3.17 c 0,-4.04 -2.89,-7.21 -6.58,-7.21 z"
     id="path2221"
     style="fill:#4c58be;fill-opacity:1" />
  <path
     class="cls-2"
     d="m 37.88,102.16 h -4.6 V 90.97 c 0,-3.75 -8.7,-6.58 -14.34,-6.58 -5.64,0 -14.34,2.82 -14.34,6.58 v 11.19 H 0 V 90.97 c 0,-7.9 12.34,-11.18 18.94,-11.18 6.6,0 18.94,3.28 18.94,11.18 z"
     id="path2223"
     style="fill:#4c58be;fill-opacity:1" />
  <path
     class="cls-2"
     d="m 54.44,91.15 c -5.65,0 -10.07,-4.77 -10.07,-10.86 v -2.85 c 0,-6.09 4.42,-10.86 10.07,-10.86 5.65,0 10.07,4.77 10.07,10.86 v 2.85 c 0,6.09 -4.42,10.86 -10.07,10.86 z m 0,-19.97 c -3.07,0 -5.47,2.75 -5.47,6.26 v 2.85 c 0,3.51 2.4,6.26 5.47,6.26 3.07,0 5.47,-2.75 5.47,-6.26 v -2.85 c 0,-3.51 -2.4,-6.26 -5.47,-6.26 z"
     id="path2225"
     style="fill:#4c58be;fill-opacity:1" />
  <path
     class="cls-2"
     d="m 73.38,102.16 h -4.6 v -4.53 c 0,-4.08 -8.63,-6.58 -13.32,-6.58 -3.56,0 -9.06,1.42 -11.73,3.71 l -2.99,-3.49 c 4.12,-3.53 11.06,-4.81 14.72,-4.81 6.25,0 17.92,3.28 17.92,11.18 v 4.53 z"
     id="path2227"
     style="fill:#4c58be;fill-opacity:1" />
  <path
     class="cls-2"
     d="m 37.83,69.15 c -0.5,0 -1,-0.08 -1.5,-0.25 -1.85,-0.64 -3.05,-2.31 -3.05,-4.27 V 53.43 H 11.17 c -3.71,0 -6.74,-3.02 -6.74,-6.74 V 6.74 C 4.43,3.02 7.45,0 11.17,0 h 48.82 c 3.71,0 6.74,3.02 6.74,6.74 v 39.95 c 0,3.72 -3.02,6.74 -6.74,6.74 H 52.24 L 41.37,67.41 c -0.88,1.13 -2.18,1.75 -3.54,1.75 z M 11.17,4.6 C 9.99,4.6 9.03,5.56 9.03,6.74 v 39.95 c 0,1.18 0.96,2.14 2.14,2.14 H 37.88 V 64.4 L 49.99,48.83 h 10 c 1.18,0 2.14,-0.96 2.14,-2.14 V 6.74 C 62.13,5.56 61.17,4.6 59.99,4.6 Z"
     id="path2229"
     style="fill:#4c58be;fill-opacity:1" />
  <path
     class="cls-2"
     d="m 75.55,78.03 c -0.5,0 -1,-0.08 -1.5,-0.25 C 72.2,77.14 71,75.47 71,73.51 V 62.3 H 64.42 V 57.7 H 75.6 V 73.27 L 87.71,57.7 h 12.22 c 1.18,0 2.14,-0.96 2.14,-2.14 V 15.61 c 0,-1.18 -0.96,-2.14 -2.14,-2.14 H 71.08 v -4.6 h 28.85 c 3.72,0 6.74,3.02 6.74,6.74 v 39.95 c 0,3.71 -3.02,6.74 -6.74,6.74 H 89.96 L 79.09,76.28 c -0.88,1.13 -2.18,1.75 -3.54,1.75 z"
     id="path2231"
     style="fill:#4c58be;fill-opacity:1" />
  <path
     class="cls-2"
     d="M 84.4,48.98 H 73.22 V 22.19 H 84.4 c 3.72,0 6.74,3.02 6.74,6.74 v 2.22 c 0,1.7 -0.63,3.25 -1.67,4.44 1.04,1.19 1.67,2.74 1.67,4.44 v 2.22 c 0,3.72 -3.02,6.74 -6.74,6.74 z m -6.58,-4.6 h 6.58 c 1.18,0 2.14,-0.96 2.14,-2.14 v -2.22 c 0,-1.18 -0.96,-2.14 -2.14,-2.14 h -6.58 z m 0,-11.1 h 6.58 c 1.18,0 2.14,-0.96 2.14,-2.14 v -2.22 c 0,-1.18 -0.96,-2.14 -2.14,-2.14 h -6.58 z"
     id="path2233"
     style="fill:#4c58be;fill-opacity:1" />
  <path
     class="cls-2"
     d="m 44.53,40.03 h -4.6 V 20.06 c 0,-1.18 -0.96,-2.14 -2.14,-2.14 h -4.44 c -1.18,0 -2.14,0.96 -2.14,2.14 v 19.97 h -4.6 V 20.06 c 0,-3.72 3.02,-6.74 6.74,-6.74 h 4.44 c 3.72,0 6.74,3.02 6.74,6.74 z"
     id="path2235"
     style="fill:#4c58be;fill-opacity:1" />
  <rect
     class="cls-2"
     x="28.919998"
     y="26.629997"
     width="13.31"
     height="4.5999999"
     id="rect2237"
     style="fill:#4c58be;fill-opacity:1" />
</svg>
