<?xml version="1.0" encoding="UTF-8" standalone="no"?>
<svg
   xmlns:dc="http://purl.org/dc/elements/1.1/"
   xmlns:cc="http://creativecommons.org/ns#"
   xmlns:rdf="http://www.w3.org/1999/02/22-rdf-syntax-ns#"
   xmlns:svg="http://www.w3.org/2000/svg"
   xmlns="http://www.w3.org/2000/svg"
   xmlns:sodipodi="http://sodipodi.sourceforge.net/DTD/sodipodi-0.dtd"
   xmlns:inkscape="http://www.inkscape.org/namespaces/inkscape"
   id="Layer_1"
   data-name="Layer 1"
   viewBox="0 0 82.27 122.88"
   version="1.1"
   sodipodi:docname="measurement.svg"
   inkscape:version="1.0.2 (e86c870879, 2021-01-15)">
  <metadata
     id="metadata11">
    <rdf:RDF>
      <cc:Work
         rdf:about="">
        <dc:format>image/svg+xml</dc:format>
        <dc:type
           rdf:resource="http://purl.org/dc/dcmitype/StillImage" />
      </cc:Work>
    </rdf:RDF>
  </metadata>
  <defs
     id="defs9" />
  <sodipodi:namedview
     pagecolor="#ffffff"
     bordercolor="#666666"
     borderopacity="1"
     objecttolerance="10"
     gridtolerance="10"
     guidetolerance="10"
     inkscape:pageopacity="0"
     inkscape:pageshadow="2"
     inkscape:window-width="640"
     inkscape:window-height="480"
     id="namedview7"
     showgrid="false"
     inkscape:zoom="7.3811851"
     inkscape:cx="41.134998"
     inkscape:cy="61.439999"
     inkscape:current-layer="Layer_1" />
  <title
     id="title2">measurement-vertical</title>
  <path
     d="M39.47,0h40.1a2.68,2.68,0,0,1,1.87.76l.08.08a2.67,2.67,0,0,1,.75,1.86V120.18a2.74,2.74,0,0,1-.76,1.87l-.13.12a2.72,2.72,0,0,1-1.81.71H39.47a2.72,2.72,0,0,1-1.87-.76l-.13-.13a2.72,2.72,0,0,1-.71-1.81V2.7A2.73,2.73,0,0,1,37.52.83l.07-.07A2.69,2.69,0,0,1,39.47,0ZM77.22,15.81H58.14V10.75H77.22V5.06H41.82V117.82h35.4v-5.69H66.7v-5.06H77.22v-5.65H58.14v-5H77.22V90.72H66.7v-5H77.22V80H58.14V75H77.22V69.32H66.7v-5H77.22V58.62H58.14V53.56H77.22V47.92H66.7V42.86H77.22V37.22H58.14V32.16H77.22V26.51H66.7V21.46H77.22V15.81ZM24,.23a3.22,3.22,0,0,1,0,6.43H3.22a3.22,3.22,0,1,1,0-6.43Zm0,115.66a3.22,3.22,0,0,1,0,6.44H3.22a3.22,3.22,0,1,1,0-6.44Zm.31-93.78a3.21,3.21,0,0,1-4.85,4.2l-2.62-3V99.6l2.62-3a3.21,3.21,0,0,1,4.85,4.2L16,110.31a3.21,3.21,0,0,1-4.53.33l-.29-.3-8.27-9.27a3.22,3.22,0,1,1,4.8-4.28l2.64,3V23.11l-2.65,3a3.22,3.22,0,0,1-4.8-4.28l8.26-9.28.3-.29a3.21,3.21,0,0,1,4.53.33l8.26,9.54Z"
     id="path4"
     style="fill:#ff0000" />
</svg>
