<?xml version="1.0" encoding="UTF-8" standalone="no"?>
<svg
   xmlns:dc="http://purl.org/dc/elements/1.1/"
   xmlns:cc="http://creativecommons.org/ns#"
   xmlns:rdf="http://www.w3.org/1999/02/22-rdf-syntax-ns#"
   xmlns:svg="http://www.w3.org/2000/svg"
   xmlns="http://www.w3.org/2000/svg"
   xmlns:sodipodi="http://sodipodi.sourceforge.net/DTD/sodipodi-0.dtd"
   xmlns:inkscape="http://www.inkscape.org/namespaces/inkscape"
   version="1.1"
   id="Capa_1"
   x="0px"
   y="0px"
   viewBox="0 0 512 512"
   style="enable-background:new 0 0 512 512;"
   xml:space="preserve"
   sodipodi:docname="mechanic.svg"
   inkscape:version="1.0.2 (e86c870879, 2021-01-15)"><metadata
   id="metadata3541"><rdf:RDF><cc:Work
       rdf:about=""><dc:format>image/svg+xml</dc:format><dc:type
         rdf:resource="http://purl.org/dc/dcmitype/StillImage" /></cc:Work></rdf:RDF></metadata><defs
   id="defs3539">
	

		
	
	

		
	</defs><sodipodi:namedview
   pagecolor="#ffffff"
   bordercolor="#666666"
   borderopacity="1"
   objecttolerance="10"
   gridtolerance="10"
   guidetolerance="10"
   inkscape:pageopacity="0"
   inkscape:pageshadow="2"
   inkscape:window-width="640"
   inkscape:window-height="480"
   id="namedview3537"
   showgrid="false"
   inkscape:zoom="1.7363281"
   inkscape:cx="140.8144"
   inkscape:cy="256"
   inkscape:current-layer="Capa_1" />
<style
   type="text/css"
   id="style3516">
	.st0{fill:#0C1E59;}
</style>


<g
   id="g4115"
   style="fill:#183db5;fill-opacity:1"><path
     class="st0"
     d="m 256,181 c -33.1,0 -60,26.9 -60,60 0,33.1 26.9,60 60,60 33.1,0 60,-26.9 60,-60 0,-33.1 -26.9,-60 -60,-60 z"
     id="path3518"
     style="fill:#183db5;fill-opacity:1" /><path
     class="st0"
     d="m 499.5,211.2 -39.8,-6.5 c -5,-19.9 -12.8,-38.8 -23.4,-56.4 l 22.9,-32.1 c 4.3,-6 3.6,-14.1 -1.6,-19.3 L 415.2,54.5 C 410,49.3 401.8,48.6 395.9,52.9 L 363.8,75.8 C 346.2,65.2 327.3,57.4 307.4,52.4 L 300.9,12.6 C 299.6,5.3 293.3,0 286,0 h -60 c -7.3,0 -13.6,5.3 -14.8,12.5 l -6.5,39.8 c -19.9,5 -38.8,12.8 -56.4,23.4 L 116.2,52.8 c -6,-4.3 -14.2,-3.6 -19.3,1.6 L 54.5,96.9 c -5.2,5.2 -5.9,13.4 -1.6,19.3 l 22.9,32.1 c -10.6,17.6 -18.4,36.5 -23.4,56.4 l -39.8,6.5 C 5.3,212.4 0,218.7 0,226 v 60 c 0,7.3 5.3,13.6 12.5,14.8 l 39.8,6.5 c 5,19.9 12.8,38.8 23.4,56.4 l -22.9,32.1 c -4.3,6 -3.6,14.1 1.6,19.3 l 42.4,42.4 c 5.2,5.2 13.4,5.8 19.3,1.6 l 32.1,-22.9 c 17.6,10.6 36.5,18.4 56.4,23.4 l 6.5,39.8 c 1.2,7.2 7.5,12.5 14.8,12.5 h 60 c 7.3,0 13.6,-5.3 14.8,-12.5 l 6.5,-39.8 c 19.9,-5 38.8,-12.8 56.4,-23.4 l 32.1,22.9 c 5.9,4.2 14.1,3.6 19.3,-1.6 l 42.4,-42.4 c 5.2,-5.2 5.9,-13.4 1.6,-19.3 l -22.9,-32.1 c 10.6,-17.6 18.4,-36.5 23.4,-56.4 l 39.8,-6.5 c 7.2,-1.2 12.5,-7.5 12.5,-14.8 v -60 c 0.2,-7.3 -5.1,-13.6 -12.3,-14.8 z M 256,421 C 165,421 91,347 91,256 91,165 165,91 256,91 c 91,0 165,74 165,165 0,91 -74,165 -165,165 z"
     id="path3524"
     style="fill:#183db5;fill-opacity:1" /><g
     id="g3534"
     style="fill:#183db5;fill-opacity:1">
	<g
   id="g3532"
   style="fill:#183db5;fill-opacity:1">
		<path
   class="st0"
   d="M325.3,297.7C308.8,317.9,284,331,256,331s-52.8-13.1-69.3-33.3c-14.4,12.7-24.9,29.5-30.7,48.2    c24.7,27.5,60.2,45.1,99.9,45.1s75.2-17.6,99.9-45.1C350.2,327.2,339.7,310.5,325.3,297.7z"
   id="path3530"
   style="fill:#183db5;fill-opacity:1" />
	</g>
</g></g>
</svg>
