<?xml version="1.0" encoding="iso-8859-1"?>
<!-- Generator: Adobe Illustrator 23.0.3, SVG Export Plug-In . SVG Version: 6.00 Build 0)  -->
<svg version="1.1" id="Capa_1" xmlns="http://www.w3.org/2000/svg" xmlns:xlink="http://www.w3.org/1999/xlink" x="0px" y="0px"
	 viewBox="-49 161.311 512 471.378" style="enable-background:new -49 161.311 512 471.378;" xml:space="preserve">
<path style="fill:#C77458;" d="M381.98,448.427c9.052-4.258,17.455-9.968,24.873-17.037c15.756-15.005,25.696-34.708,28.429-56.081
	c15.284-0.001,27.718-12.432,27.718-27.71v-9.56c0-15.024-12.015-27.294-26.94-27.709v-36.391c0-0.029-0.004-0.058-0.004-0.087
	v-29.457c0-45.813-37.271-83.084-83.084-83.084H228.317c-4.142,0-7.5,3.358-7.5,7.5v55.171c0,3.122,0.253,6.255,0.752,9.313
	c0.667,4.088,4.519,6.86,8.611,6.193c4.088-0.667,6.86-4.522,6.193-8.611c-0.369-2.26-0.556-4.58-0.556-6.895v-47.671h117.154
	c37.542,0,68.084,30.542,68.084,68.084v22.042H278.273c-6.79,0-13.322-1.59-19.195-4.575c-0.017-0.009-0.034-0.017-0.051-0.026
	c-4.023-2.051-7.739-4.75-11.005-8.067c-2.906-2.951-7.655-2.988-10.606-0.081s-2.987,7.655-0.081,10.606
	c3.242,3.292,6.815,6.133,10.635,8.515c-0.005,0.378-0.02,0.748-0.02,1.129v36.391c-14.925,0.409-26.94,12.682-26.94,27.709v9.56
	c0,15.279,12.431,27.71,27.71,27.71h0.005c4.15,32.6,24.873,59.76,53.295,73.116v8.618l-4.672,5.826H139.19h-15.74v-14.447
	c28.416-13.358,49.138-40.516,53.294-73.113h0.006c15.279,0,27.71-12.431,27.71-27.71v-9.56c0-15.027-12.015-27.3-26.94-27.709
	v-40.201c0-0.013-0.002-0.026-0.002-0.039v-47.376c0-30.954-25.183-56.137-56.137-56.137h-15.952c-4.142,0-7.5,3.358-7.5,7.5
	s3.358,7.5,7.5,7.5h15.952c22.683,0,41.137,18.454,41.137,41.137v46.245H96.243c-2.288,0-4.543-0.773-6.349-2.178l-30.607-23.806
	c-3.451-2.686-7.864-3.618-12.107-2.556c-4.243,1.06-7.698,3.958-9.481,7.952l-6.457,14.462c-1.661,3.722-5.368,6.126-9.443,6.126
	H4.414V222.19c0-8.846,7.196-16.042,16.042-16.042h25.788c4.142,0,7.5-3.358,7.5-7.5v-8.564c0-4.691,3.816-8.507,8.507-8.507h13.297
	c4.142,0,7.5-3.358,7.5-7.5s-3.358-7.5-7.5-7.5H62.251c-12.962,0-23.507,10.545-23.507,23.507v1.064H20.456
	c-17.117,0-31.042,13.925-31.042,31.042v47.872c0,0.023-0.003,0.045-0.003,0.068v40.201c-14.925,0.415-26.94,12.686-26.94,27.709
	v9.56c0,15.277,12.433,27.707,27.715,27.71c4.15,32.601,24.877,59.762,53.305,73.118v14.442H27.75
	c-4.606,0-9.153,0.513-13.592,1.516c-3.671-6.434-10.584-10.791-18.507-10.791h-18.359c-14.498,0-26.292,11.794-26.292,26.292
	v41.015c0,10.59,6.297,19.731,15.34,23.893v80.394c0,4.142,3.358,7.5,7.5,7.5H193.1c4.142,0,7.5-3.358,7.5-7.5v-100.91
	c0-18.521-8.254-35.141-21.263-46.41h106.096c-4.005,5.857-5.692,13.076-4.631,20.129l6.816,45.597
	c0.593,4.051,3.165,7.495,6.88,9.212c3.723,1.72,8.023,1.447,11.513-0.739L342,529.439l35.999,22.631
	c1.963,1.233,4.189,1.858,6.428,1.858c1.715,0,3.437-0.367,5.051-1.109c3.721-1.709,6.304-5.149,6.91-9.201l6.819-45.614
	c1.059-7.045-0.626-14.256-4.625-20.113c25.193,0.463,45.548,21.086,45.548,46.388v93.41h-21.208v-50.553c0-4.142-3.358-7.5-7.5-7.5
	s-7.5,3.358-7.5,7.5v50.553H276.08v-86.75c0-4.142-3.358-7.5-7.5-7.5h-45.82c-4.142,0-7.5,3.358-7.5,7.5s3.358,7.5,7.5,7.5h38.32
	v86.75c0,4.142,3.358,7.5,7.5,7.5h183.05c4.142,0,7.5-3.358,7.5-7.5v-100.91c0-33.861-27.548-61.41-61.41-61.41h-11.068
	l-4.672-5.826V448.427z M4.53,367.423c-0.206-3.986-3.499-7.113-7.49-7.113h-6.85c-7.014,0-12.72-5.702-12.72-12.71v-9.56
	c0-7.014,5.706-12.72,12.72-12.72h6.72c4.142,0,7.5-3.358,7.5-7.5v-33.861h17.389c9.986,0,19.069-5.892,23.141-15.011l6.007-13.457
	l29.738,23.129c4.425,3.442,9.951,5.338,15.558,5.338h66.277v33.861c0,4.142,3.358,7.5,7.5,7.5h6.73
	c7.008,0,12.71,5.706,12.71,12.72v9.56c0,7.008-5.702,12.71-12.71,12.71h-6.86c-3.991,0-7.283,3.126-7.49,7.112
	c-1.633,31.494-21.527,57.871-49.115,69.104c-0.103,0.039-0.207,0.075-0.307,0.118c-9.129,3.673-19.09,5.696-29.509,5.696
	C41.374,442.339,6.699,409.432,4.53,367.423z M83.47,457.339c8.642,0,17.016-1.181,24.98-3.369v27.71
	c0,6.67-2.601,12.944-7.323,17.667c-4.716,4.716-10.987,7.313-17.657,7.313c-13.774,0-24.98-11.206-24.98-24.98v-27.708
	C66.454,456.158,74.828,457.339,83.47,457.339z M-34,479.887c0-6.227,5.065-11.292,11.292-11.292h18.359
	c3.477,0,6.306,2.829,6.306,6.306v50.987c0,3.477-2.829,6.306-6.306,6.306h-18.359c-6.227,0-11.292-5.065-11.292-11.292V479.887z
	 M185.6,524.279v93.41h-21.215v-50.553c0-4.142-3.358-7.5-7.5-7.5s-7.5,3.358-7.5,7.5v50.553H17.546v-50.553
	c0-4.142-3.358-7.5-7.5-7.5s-7.5,3.358-7.5,7.5v50.553H-18.66v-70.495h14.312c11.748,0,21.306-9.558,21.306-21.306v-46.75
	c3.518-0.837,7.129-1.269,10.793-1.269h15.74v3.81c0,22.045,17.935,39.98,39.98,39.98c10.676,0,20.714-4.158,28.263-11.707
	c7.556-7.556,11.717-17.597,11.717-28.273v-3.81h15.74C164.781,477.869,185.6,498.689,185.6,524.279z M263.07,367.423
	c-0.206-3.986-3.499-7.113-7.49-7.113h-6.86c-7.009,0-12.71-5.702-12.71-12.71v-9.56c0-7.014,5.702-12.72,12.71-12.72h6.73
	c4.142,0,7.5-3.358,7.5-7.5v-38.451c4.928,1.354,10.067,2.069,15.323,2.069H421.06v36.382c0,4.142,3.358,7.5,7.5,7.5h6.72
	c7.014,0,12.72,5.706,12.72,12.72v9.56c0,7.008-5.706,12.71-12.72,12.71h-6.85c-3.99,0-7.282,3.125-7.49,7.11
	c-1.055,20.248-9.732,39.108-24.434,53.111c-7.299,6.956-15.726,12.359-24.844,16.051c-0.074,0.03-0.146,0.062-0.218,0.094
	c-9.255,3.715-19.219,5.664-29.444,5.664c-10.411,0-20.365-2.02-29.489-5.686c-0.118-0.051-0.24-0.095-0.361-0.141
	C284.575,425.273,264.696,398.905,263.07,367.423z M342,457.339c8.543,0,16.927-1.166,24.98-3.377v24.968
	c0,0.051-0.019,0.089-0.039,0.114l-24.787,30.226c-0.029,0.036-0.06,0.073-0.153,0.073l0,0c-0.086,0-0.11-0.029-0.142-0.068
	l-24.804-30.247c-0.021-0.024-0.036-0.066-0.036-0.097v-24.958C324.983,456.158,333.357,457.339,342,457.339z M301.8,536.999
	l-6.163-41.225c-0.547-3.639,0.459-7.371,2.764-10.242l3.756-4.684c0.362,2.822,1.501,5.51,3.314,7.707l24.786,30.225
	c0.059,0.073,0.128,0.135,0.188,0.206L301.8,536.999z M388.373,495.781L382.211,537l-28.648-18.01
	c0.06-0.071,0.128-0.132,0.187-0.204l24.776-30.213c1.819-2.206,2.957-4.896,3.318-7.723l3.757,4.685
	C387.909,488.409,388.919,492.142,388.373,495.781z"/>
<path style="fill:#C77458;" d="M342.003,399.697c17.415,0,32.892-10.417,39.431-26.538c1.557-3.838-0.293-8.212-4.131-9.769
	c-3.838-1.556-8.212,0.292-9.769,4.131c-4.231,10.434-14.253,17.176-25.53,17.176c-7.353,0-14.277-2.868-19.49-8.067
	c-2.63-2.631-4.661-5.691-6.035-9.097c-1.55-3.841-5.92-5.697-9.762-4.148c-3.841,1.55-5.698,5.921-4.148,9.762
	c2.133,5.285,5.275,10.025,9.345,14.096C319.964,395.274,330.651,399.697,342.003,399.697z"/>
<path style="fill:#C77458;" d="M306.176,323.424v-4.181c0-4.142-3.358-7.5-7.5-7.5s-7.5,3.358-7.5,7.5v4.181
	c0,4.142,3.358,7.5,7.5,7.5S306.176,327.566,306.176,323.424z"/>
<path style="fill:#C77458;" d="M385.331,330.924c4.142,0,7.5-3.358,7.5-7.5v-4.181c0-4.142-3.358-7.5-7.5-7.5s-7.5,3.358-7.5,7.5
	v4.181C377.831,327.566,381.189,330.924,385.331,330.924z"/>
<path style="fill:#C77458;" d="M122.896,373.159c1.557-3.838-0.293-8.212-4.131-9.769c-3.838-1.556-8.212,0.292-9.769,4.131
	c-4.232,10.434-14.253,17.176-25.53,17.176c-7.353,0-14.277-2.868-19.49-8.067c-2.63-2.631-4.661-5.691-6.035-9.097
	c-1.551-3.841-5.921-5.697-9.762-4.148c-3.841,1.55-5.698,5.921-4.148,9.762c2.133,5.285,5.275,10.025,9.345,14.096
	c8.051,8.031,18.738,12.454,30.09,12.454C100.88,399.697,116.357,389.28,122.896,373.159z"/>
<path style="fill:#C77458;" d="M47.638,323.424v-4.181c0-4.142-3.358-7.5-7.5-7.5s-7.5,3.358-7.5,7.5v4.181
	c0,4.142,3.358,7.5,7.5,7.5S47.638,327.566,47.638,323.424z"/>
<path style="fill:#C77458;" d="M126.793,330.924c4.142,0,7.5-3.358,7.5-7.5v-4.181c0-4.142-3.358-7.5-7.5-7.5s-7.5,3.358-7.5,7.5
	v4.181C119.293,327.566,122.651,330.924,126.793,330.924z"/>
</svg>
