<?xml version="1.0" encoding="utf-8"?>
<!-- Generator: Adobe Illustrator 23.0.3, SVG Export Plug-In . SVG Version: 6.00 Build 0)  -->
<svg version="1.1" id="Camada_1" xmlns="http://www.w3.org/2000/svg" xmlns:xlink="http://www.w3.org/1999/xlink" x="0px" y="0px"
	 viewBox="0 0 26.3 28.6" style="enable-background:new 0 0 26.3 28.6;" xml:space="preserve">
<style type="text/css">
	.st0{fill:#12739E;}
	.st1{fill:#FFFFFF;}
</style>
<circle class="st0" cx="13.1" cy="14.3" r="13"/>
<path class="st1" d="M15.8,12c0,0,0.2-1.6,1.7-1.6h3.8L21.1,12h-2.5c0,0-0.7-0.1-0.8,0.5l-0.2,1.1h2.8l-0.2,1.5h-2.8L17,18.2h-2
	C15,18.2,15.8,12,15.8,12z M6.8,18.2L6.8,18.2c0.1,0,0.4-2.5,0.6-3.5c0.1-0.1,0.4-0.4,0.8-0.5c0.2-0.1,0.8-0.3,0.6,0.5l-0.5,3.5h1.9
	l0.5-3.4c0.3-0.3,0.6-0.5,0.8-0.6s0.8-0.3,0.6,0.5l-0.5,3.5h1.9l0.7-4.8c0.2-1-1.4-1.4-2.4-0.8c-0.3,0.1-0.7,0.5-1,0.7
	c0-0.9-1.4-1.2-2.4-0.7c-0.4,0.2-1,0.7-1.2,0.9v-0.8H5.5L5,18.2H6.8z"/>
</svg>
