<?xml version="1.0" encoding="UTF-8" standalone="no"?>
<svg
   xmlns:dc="http://purl.org/dc/elements/1.1/"
   xmlns:cc="http://creativecommons.org/ns#"
   xmlns:rdf="http://www.w3.org/1999/02/22-rdf-syntax-ns#"
   xmlns:svg="http://www.w3.org/2000/svg"
   xmlns="http://www.w3.org/2000/svg"
   xmlns:sodipodi="http://sodipodi.sourceforge.net/DTD/sodipodi-0.dtd"
   xmlns:inkscape="http://www.inkscape.org/namespaces/inkscape"
   id="Ebene_1"
   viewBox="0 0 96.230001 108.4"
   version="1.1"
   sodipodi:docname="money.svg"
   width="96.230003"
   height="108.4"
   inkscape:version="1.0.2 (e86c870879, 2021-01-15)">
  <metadata
     id="metadata5189">
    <rdf:RDF>
      <cc:Work
         rdf:about="">
        <dc:format>image/svg+xml</dc:format>
        <dc:type
           rdf:resource="http://purl.org/dc/dcmitype/StillImage" />
      </cc:Work>
    </rdf:RDF>
  </metadata>
  <sodipodi:namedview
     pagecolor="#ffffff"
     bordercolor="#666666"
     borderopacity="1"
     objecttolerance="10"
     gridtolerance="10"
     guidetolerance="10"
     inkscape:pageopacity="0"
     inkscape:pageshadow="2"
     inkscape:window-width="640"
     inkscape:window-height="480"
     id="namedview5187"
     showgrid="false"
     inkscape:zoom="3.7393791"
     inkscape:cx="48.110003"
     inkscape:cy="55.350003"
     inkscape:current-layer="Ebene_1" />
  <defs
     id="defs5162">
    <style
       id="style5160">.cls-1{fill:#e5e8ed;}.cls-2{fill:#323d8c;}</style>
  </defs>
  <g
     id="g5184"
     transform="translate(-70.76,-63.52)"
     style="fill:#008000">
    <path
       class="cls-2"
       d="m 150.2,133.23 c -1.33,0 -2.61,-0.56 -3.53,-1.61 l -9.53,-10.45 h -32.75 c -3.93,0 -7.12,-3.2 -7.12,-7.12 V 70.64 c 0,-3.92 3.19,-7.12 7.12,-7.12 h 55.48 c 3.92,0 7.12,3.19 7.12,7.12 v 43.4 c 0,3.93 -3.2,7.14 -7.14,7.14 h -4.92 v 7.35 c 0,1.98 -1.2,3.71 -3.05,4.41 -0.55,0.21 -1.12,0.31 -1.67,0.31 z M 104.39,68.11 c -1.39,0 -2.52,1.13 -2.52,2.52 v 43.41 c 0,1.39 1.13,2.52 2.52,2.52 h 34.78 l 10.93,11.98 c 0.07,0.08 0.08,0.09 0.15,0.07 0.07,-0.03 0.07,-0.05 0.07,-0.1 v -11.95 h 9.52 c 1.4,0 2.54,-1.14 2.54,-2.54 v -43.4 c 0,-1.39 -1.13,-2.52 -2.52,-2.52 h -55.48 z"
       id="path5166"
       style="fill:#008000" />
    <path
       class="cls-2"
       d="m 104.42,147.7 c -0.56,0 -1.13,-0.1 -1.68,-0.31 -1.86,-0.7 -3.05,-2.43 -3.05,-4.41 v -9.76 h -21.8 c -3.93,0 -7.13,-3.2 -7.13,-7.14 V 85.09 c 0,-3.92 3.19,-7.12 7.12,-7.12 h 16.89 v 4.6 H 77.88 c -1.39,0 -2.52,1.13 -2.52,2.52 v 40.99 c 0,1.4 1.14,2.54 2.54,2.54 h 26.4 v 14.36 c 0,0.06 0,0.08 0.07,0.11 0.05,0.02 0.07,0.02 0.09,0 l 10.86,-14.46 h 10.79 c 1.39,0 2.52,-1.13 2.52,-2.52 v -2.41 h 4.6 v 2.41 c 0,3.93 -3.2,7.12 -7.12,7.12 h -8.5 l -9.66,12.86 c -0.92,1.05 -2.2,1.61 -3.53,1.61 z"
       id="path5168"
       style="fill:#008000" />
    <path
       class="cls-2"
       d="m 150.11,171.92 h -4.6 v -4.82 c -0.3,-1.29 -5.31,-4.92 -9.76,-4.92 -4.45,0 -9.46,3.63 -9.76,4.99 v 4.75 h -4.59 v -4.82 c 0,-4.6 8.43,-9.52 14.36,-9.52 5.93,0 14.36,4.92 14.36,9.52 v 4.82 z"
       id="path5170"
       style="fill:#008000" />
    <path
       class="cls-2"
       d="m 135.75,162.06 c -5.44,0 -9.53,-4.53 -9.53,-10.53 v -2.74 c 0,-6 4.1,-10.53 9.53,-10.53 5.43,0 9.53,4.53 9.53,10.53 v 2.74 c 0,6 -4.1,10.53 -9.53,10.53 z m 0,-19.2 c -3.39,0 -4.93,3.07 -4.93,5.93 v 2.74 c 0,2.85 1.54,5.93 4.93,5.93 3.39,0 4.93,-3.07 4.93,-5.93 v -2.74 c 0,-2.85 -1.54,-5.93 -4.93,-5.93 z"
       id="path5172"
       style="fill:#008000" />
    <path
       class="cls-2"
       d="m 99.47,171.92 h -4.6 v -4.82 c -0.3,-1.29 -5.31,-4.92 -9.76,-4.92 -4.45,0 -9.46,3.63 -9.76,4.99 v 4.75 h -4.59 v -4.82 c 0,-4.6 8.43,-9.52 14.36,-9.52 5.93,0 14.36,4.92 14.36,9.52 v 4.82 z"
       id="path5174"
       style="fill:#008000" />
    <path
       class="cls-2"
       d="m 85.11,162.06 c -5.44,0 -9.53,-4.53 -9.53,-10.53 v -2.74 c 0,-6 4.1,-10.53 9.54,-10.53 5.44,0 9.53,4.53 9.53,10.53 v 2.74 c 0,6 -4.1,10.53 -9.53,10.53 z m 0,-19.2 c -3.39,0 -4.94,3.07 -4.94,5.93 v 2.74 c 0,2.85 1.54,5.93 4.93,5.93 3.39,0 4.93,-3.07 4.93,-5.93 v -2.74 c 0,-2.85 -1.54,-5.93 -4.93,-5.93 z"
       id="path5176"
       style="fill:#008000" />
    <path
       class="cls-2"
       d="m 133.34,106.7 h -4.82 c -3.93,0 -7.12,-3.2 -7.12,-7.12 v -2.41 h 4.6 v 2.41 c 0,1.39 1.13,2.52 2.52,2.52 h 4.82 c 1.39,0 2.52,-1.13 2.52,-2.52 v -1.35 c 0,-1.09 -0.69,-2.05 -1.72,-2.39 l -7.87,-2.62 c -2.91,-0.97 -4.87,-3.69 -4.87,-6.76 v -1.35 c 0,-3.93 3.2,-7.12 7.12,-7.12 h 4.82 c 3.93,0 7.12,3.2 7.12,7.12 v 2.41 h -4.6 v -2.41 c 0,-1.39 -1.13,-2.52 -2.52,-2.52 h -4.82 c -1.39,0 -2.52,1.13 -2.52,2.52 v 1.35 c 0,1.09 0.69,2.05 1.72,2.39 l 7.87,2.62 c 2.91,0.97 4.87,3.69 4.87,6.76 v 1.35 c 0,3.93 -3.2,7.12 -7.12,7.12 z"
       id="path5178"
       style="fill:#008000" />
    <rect
       class="cls-2"
       x="128.63"
       y="73.050003"
       width="4.5999999"
       height="7.23"
       id="rect5180"
       style="fill:#008000" />
    <rect
       class="cls-2"
       x="128.63"
       y="104.4"
       width="4.5999999"
       height="7.23"
       id="rect5182"
       style="fill:#008000" />
  </g>
</svg>
