<?xml version="1.0" encoding="utf-8"?>
<svg viewBox="0 0 50 49.14" xmlns="http://www.w3.org/2000/svg">
  <defs>
    <style>.cls-1{fill:#e58613;}.cls-2{fill:#fff;}.cls-3{fill:none;}.cls-4{fill:#678925;}.cls-5{fill:#2f6fa8;}.cls-6{fill:#c1a840;}</style>
  </defs>
  <title>icon_mt4_fbs</title>
  <g id="Layer_2" data-name="Layer 2">
    <g id="Layer_1-2" data-name="Layer 1">
      <g id="icon_mt4_fbs">
        <circle class="cls-1" cx="24.99" cy="28.16" r="12.15"/>
        <circle class="cls-2" cx="24.99" cy="28.16" r="9.68"/>
        <path class="cls-3" d="M8.32,27.55a17,17,0,0,1,3.14-.84,13.7,13.7,0,0,1,.62-2.8C10.71,24.56,8.26,26.66,8.32,27.55Z"/>
        <path class="cls-3" d="M33,42.51a17.8,17.8,0,0,1-2.05-2,13.72,13.72,0,0,1-2.42.91C30,42.17,32.4,42.93,33,42.51Z"/>
        <path class="cls-3" d="M33.65,14a17.44,17.44,0,0,1-.84,3.11,13.08,13.08,0,0,1,2.11,1.82C35,17.35,34.42,14.36,33.65,14Z"/>
        <ellipse class="cls-4" cx="25.03" cy="6.06" rx="4.89" ry="6.06"/>
        <path class="cls-4" d="M32.81,17.09A17.44,17.44,0,0,0,33.65,14c.77.38,1.35,3.37,1.27,4.93a13.59,13.59,0,0,1,3.69,8.67C40.21,25.15,44.9,8.2,30.75,4c.76,8.32-4.91,9.26-5.57,9.28s-6.81-.77-6-9.13C9.88,6.18,9.1,14.74,9.37,17.88a15.62,15.62,0,0,1,6.58-2A4.38,4.38,0,0,1,16.88,14c0,.74.05,1.16.06,1.77.45-.06,1.65-.18,3.21-.24a13.61,13.61,0,0,1,12.66,1.58Z"/>
        <ellipse class="cls-5" cx="44.21" cy="39.01" rx="4.89" ry="6.06" transform="translate(-11.68 57.78) rotate(-59.99)"/>
        <path class="cls-5" d="M37.85,35.5c.34-.6,4.07-5.51,10.89-.6,2.94-9.08-4.08-14-6.94-15.37a15.4,15.4,0,0,1-1.52,6.72A4.47,4.47,0,0,1,41.43,28l-1.57-.83c-.17.41-.64,1.46-1.34,2.8A13.64,13.64,0,0,1,31,40.49a17.8,17.8,0,0,0,2.05,2c-.64.42-3-.34-4.47-1.11a13.71,13.71,0,0,1-9.45-.86C21.51,44,33,54.55,43.1,45,35.51,41.47,37.53,36.08,37.85,35.5Z"/>
        <path class="cls-6" d="M11,35.94c-1.36-2.34-4.8-2.87-7.7-1.2S-.81,39.67.55,42s4.8,2.88,7.69,1.2S12.38,38.28,11,35.94Z"/>
        <path class="cls-6" d="M11.37,28.25c0-.52,0-1,.09-1.54a17,17,0,0,0-3.14.84c-.06-.89,2.39-3,3.76-3.64a13.58,13.58,0,0,1,3.79-5.77,11.22,11.22,0,0,1,2-1.67C16,16-2.44,20.19,1.18,35c6.81-4.83,10.47-.4,10.81.17S14.75,41.48,7.1,45C13.49,52,21.29,48.41,23.88,46.6a15.4,15.4,0,0,1-5.07-4.67,4.67,4.67,0,0,1-2.08.13l1.5-1c-.22-.29-.72-1-1.33-1.91A13.6,13.6,0,0,1,11.37,28.25Z"/>
      </g>
    </g>
  </g>
  <path d="M 27.895 23.81 L 23.375 23.81 C 23.268 24.617 23.182 25.243 23.115 25.69 C 23.048 26.143 23.002 26.477 22.975 26.69 C 22.948 26.91 22.932 27.047 22.925 27.1 C 22.925 27.147 22.925 27.177 22.925 27.19 C 22.998 27.11 23.122 27.043 23.295 26.99 C 23.475 26.937 23.662 26.893 23.855 26.86 C 24.055 26.827 24.248 26.803 24.435 26.79 C 24.628 26.783 24.778 26.78 24.885 26.78 C 25.458 26.78 25.972 26.88 26.425 27.08 C 26.878 27.28 27.262 27.55 27.575 27.89 C 27.895 28.23 28.138 28.613 28.305 29.04 C 28.465 29.467 28.545 29.91 28.545 30.37 C 28.545 31.263 28.398 31.977 28.105 32.51 C 27.812 33.043 27.448 33.447 27.015 33.72 C 26.582 34 26.132 34.18 25.665 34.26 C 25.192 34.333 24.785 34.37 24.445 34.37 C 24.072 34.37 23.715 34.34 23.375 34.28 C 23.042 34.22 22.735 34.143 22.455 34.05 C 22.175 33.957 21.932 33.863 21.725 33.77 C 21.518 33.677 21.358 33.603 21.245 33.55 L 21.245 31.91 C 21.398 32.01 21.592 32.117 21.825 32.23 C 22.065 32.343 22.315 32.453 22.575 32.56 C 22.835 32.66 23.112 32.743 23.405 32.81 C 23.692 32.877 23.962 32.91 24.215 32.91 C 25.028 32.91 25.662 32.703 26.115 32.29 C 26.575 31.87 26.805 31.23 26.805 30.37 C 26.805 29.743 26.605 29.25 26.205 28.89 C 25.812 28.53 25.292 28.35 24.645 28.35 C 24.252 28.35 23.875 28.397 23.515 28.49 C 23.148 28.583 22.835 28.733 22.575 28.94 L 21.165 28.94 C 21.165 28.853 21.175 28.69 21.195 28.45 C 21.222 28.21 21.248 27.923 21.275 27.59 C 21.308 27.257 21.348 26.893 21.395 26.5 C 21.442 26.107 21.485 25.707 21.525 25.3 C 21.632 24.36 21.758 23.327 21.905 22.2 L 27.895 22.2 L 27.895 23.81 Z" transform="matrix(1, 0, 0, 1, 0, 0)" style="fill: rgb(51, 51, 51); white-space: pre;"/>
</svg>