<?xml version="1.0" encoding="UTF-8" standalone="no"?>
<svg
   xmlns:dc="http://purl.org/dc/elements/1.1/"
   xmlns:cc="http://creativecommons.org/ns#"
   xmlns:rdf="http://www.w3.org/1999/02/22-rdf-syntax-ns#"
   xmlns:svg="http://www.w3.org/2000/svg"
   xmlns="http://www.w3.org/2000/svg"
   xmlns:sodipodi="http://sodipodi.sourceforge.net/DTD/sodipodi-0.dtd"
   xmlns:inkscape="http://www.inkscape.org/namespaces/inkscape"
   width="55.050076"
   viewBox="0 0 77.650634 55.038539"
   version="1.1"
   id="svg6"
   sodipodi:docname="owasp-zap.svg"
   height="55.03854"
   inkscape:version="1.0.2 (e86c870879, 2021-01-15)">
  <metadata
     id="metadata12">
    <rdf:RDF>
      <cc:Work
         rdf:about="">
        <dc:format>image/svg+xml</dc:format>
        <dc:type
           rdf:resource="http://purl.org/dc/dcmitype/StillImage" />
      </cc:Work>
    </rdf:RDF>
  </metadata>
  <defs
     id="defs10" />
  <sodipodi:namedview
     pagecolor="#ffffff"
     bordercolor="#666666"
     borderopacity="1"
     objecttolerance="10"
     gridtolerance="10"
     guidetolerance="10"
     inkscape:pageopacity="0"
     inkscape:pageshadow="2"
     inkscape:window-width="640"
     inkscape:window-height="480"
     id="namedview8"
     showgrid="false"
     inkscape:zoom="11.3774"
     inkscape:cx="27.500235"
     inkscape:cy="30.818047"
     inkscape:current-layer="svg6" />
  <path
     d="m 49.480331,10.374039 a 3.46,3.46 0 0 1 0.44,3 3.38,3.38 0 0 1 -2.16,2.139999 l -1.17,0.38 10.74,13.56 a 3.39,3.39 0 0 1 -1.83,5.41 l -2,0.5 14.5,18.37 a 37.78,37.78 0 0 0 -28.15,-62.9999996 c -1.34,0 -2.66,0.07 -4,0.2 z m -26.15,26.619999 a 3.4,3.4 0 0 1 0.45,-6.09 l 1.22,-0.47 -13.81,-10 a 3.4,3.4 0 0 1 0.62,-5.859999 l 0.2,-0.09 -5.4700001,-3.84 A 37.79,37.79 0 0 0 61.860331,59.244038 Z"
     fill="#ffffff"
     id="path2"
     style="fill:#2a7fff" />
  <path
     d="m 67.840331,58.214038 -18.84,-23.89 a 0.55,0.55 0 0 1 0.28,-0.87 l 5.55,-1.36 a 0.58,0.58 0 0 0 0.23,-0.13 0.48,0.48 0 0 0 0.09,-0.11 0.62,0.62 0 0 0 0.08,-0.24 0.58,0.58 0 0 0 0,-0.26 0.54,0.54 0 0 0 -0.07,-0.13 l -12.87,-16.12 a 0.75,0.75 0 0 1 -0.07,-0.12 0.55,0.55 0 0 1 0.31,-0.739999 l 4.35,-1.4 a 0.54,0.54 0 0 0 0.26,-0.83 l -16.22,-23.060001 a 0.5,0.5 0 0 0 -0.61,-0.22 L 0.32033088,1.7340387 a 0.55,0.55 0 0 0 -0.1,0.94 L 16.940331,14.554039 a 0.52,0.52 0 0 1 0.22,0.489999 0.45,0.45 0 0 1 -0.09,0.26 0.48,0.48 0 0 1 -0.09,0.11 l -0.13,0.08 -3.93,1.72 a 0.55,0.55 0 0 0 -0.29,0.31 v 0.13 a 0.59,0.59 0 0 0 0.22,0.5 l 8.62,6.22 8.61,6.21 a 0.55,0.55 0 0 1 0,0.87 0.57,0.57 0 0 1 -0.13,0.08 l -5.11,2 a 0.55,0.55 0 0 0 -0.28,0.75 0.56,0.56 0 0 0 0.21,0.22 l 42.43,24.5 a 0.53,0.53 0 0 0 0.64,-0.79 z"
     fill="#ffffff"
     id="path4"
     style="fill:#ffffff" />
</svg>
