<?xml version="1.0" encoding="UTF-8" standalone="no"?>
<svg
   xmlns:dc="http://purl.org/dc/elements/1.1/"
   xmlns:cc="http://creativecommons.org/ns#"
   xmlns:rdf="http://www.w3.org/1999/02/22-rdf-syntax-ns#"
   xmlns:svg="http://www.w3.org/2000/svg"
   xmlns="http://www.w3.org/2000/svg"
   xmlns:sodipodi="http://sodipodi.sourceforge.net/DTD/sodipodi-0.dtd"
   xmlns:inkscape="http://www.inkscape.org/namespaces/inkscape"
   viewBox="0 0 261.49332 261.50668"
   height="261.50668"
   width="261.49332"
   xml:space="preserve"
   id="svg2"
   version="1.1"
   sodipodi:docname="owasp.svg"
   inkscape:version="1.0.2 (e86c870879, 2021-01-15)"><sodipodi:namedview
   pagecolor="#ffffff"
   bordercolor="#666666"
   borderopacity="1"
   objecttolerance="10"
   gridtolerance="10"
   guidetolerance="10"
   inkscape:pageopacity="0"
   inkscape:pageshadow="2"
   inkscape:window-width="1920"
   inkscape:window-height="1048"
   id="namedview3767"
   showgrid="false"
   inkscape:zoom="3.1739151"
   inkscape:cx="130.74666"
   inkscape:cy="130.75334"
   inkscape:window-x="0"
   inkscape:window-y="16"
   inkscape:window-maximized="1"
   inkscape:current-layer="svg2"
   inkscape:document-rotation="0" /><metadata
   id="metadata8"><rdf:RDF><cc:Work
       rdf:about=""><dc:format>image/svg+xml</dc:format><dc:type
         rdf:resource="http://purl.org/dc/dcmitype/StillImage" /></cc:Work></rdf:RDF></metadata><defs
   id="defs6" /><path
   id="path14"
   style="fill:#666666;fill-opacity:1;fill-rule:nonzero;stroke:none;stroke-width:0.133333"
   d="M 130.75053,261.50667 C 58.539065,261.50667 0,202.96654 0,130.75507 0,58.544008 58.539065,0.00400987 130.75053,0.00400987 c 72.20946,0 130.74946,58.53999813 130.74946,130.75106013 0,72.21147 -58.54,130.7516 -130.74946,130.7516 m -0.001,-241.379994 c -61.096795,0 -110.627594,49.530665 -110.627594,110.627334 0,61.098 49.530799,110.62866 110.627594,110.62866 61.09587,0 110.62653,-49.53066 110.62653,-110.62866 0,-61.096669 -49.53066,-110.627334 -110.62653,-110.627334" /><path
   id="path16"
   style="fill:#999999;fill-opacity:1;fill-rule:nonzero;stroke:none;stroke-width:0.133333"
   d="m 173.21333,223.40667 c -4.18133,-0.003 -19.41867,-27.12133 -21.46667,-34.85306 -4.28133,-16.18814 -3.36,-23.0272 -3.104,-25.2136 0.784,-6.676 7.26134,-10.012 7.65334,-19.04014 0.12133,-2.788 1.52933,-16.72653 2.65333,-27.61453 -2.77333,-0.54267 -5.536,-1.79333 -7.992,-3.73333 7.37333,9.88933 -3.47867,21.74106 -19.24693,37.51093 -16.7364,16.73587 -53.884402,32.2692 -53.884402,32.2692 0,0 15.5344,-37.1484 32.269862,-53.88427 12.30254,-12.3012 22.21814,-21.61053 30.68014,-21.61053 2.38533,0 4.656,0.74 6.83066,2.36 -1.94133,-2.45467 -3.19066,-5.216 -3.73466,-7.98933 -10.88814,1.12666 -24.82774,2.532 -27.61414,2.65466 -9.0292,0.392 -12.36573,6.86934 -19.037596,7.652 -0.768133,0.0907 -2.1104,0.264 -4.2296,0.264 -3.9156,0 -10.483866,-0.58933 -20.984932,-3.36933 -8.409334,-2.224 -39.743733,-20.049332 -34.2016,-22.289332 2.826134,-1.144 11.833333,-1.917334 23.695333,-1.917334 11.407867,0 25.456266,0.714667 39.179195,2.502667 17.1104,2.229333 32.8,5.049333 43.492,7.146667 0.17334,-0.574667 0.38134,-1.133334 0.63067,-1.676 l -10.93067,-5.238667 c 0,0 -8.73053,-10.018666 -7.79826,-10.709333 0.036,-0.02667 0.0817,-0.04 0.1364,-0.04 1.36933,0 8.35386,7.985333 9.02586,8.894666 0.51734,0.172 3.47867,1.16 6.59334,2.196 l -3.092,-2.704 c 0,0 -4.232,-15.673333 -3.12934,-16.042666 0.0133,-0.004 0.028,-0.0067 0.044,-0.0067 1.16134,0 5.00134,13.629333 5.33067,14.608 0.75467,0.661333 3.304,1.654667 6.48933,3.492 l -3.34933,-8.616 c 0,0 1.516,-14.214666 2.65067,-14.214666 0.009,0 0.0173,0.0013 0.0267,0.0027 1.14267,0.228 -0.224,11.855999 -0.51333,13.303999 0.41467,0.636 2.984,4.577333 5.56,8.529333 1.58533,-0.597333 3.29067,-0.892 5.04133,-0.892 2.00934,0 4.076,0.389334 6.08134,1.156 -2.568,-5.467999 -2.37334,-11.166666 1.032,-14.569333 1.07733,-1.08 2.38666,-1.833333 3.84533,-2.28 0.176,-0.994666 0.63733,-1.938666 1.39333,-2.695999 0.98534,-0.984 2.28267,-1.473334 3.596,-1.473334 1.37467,0 2.768,0.537334 3.83467,1.605334 1.02267,1.02 1.55333,2.338666 1.59867,3.651999 1.644,-3.387999 3.584,-7.959999 3.448,-9.441333 -0.316,-3.352 -4.204,-9.285333 -4.24,-9.345333 -0.25334,-0.382666 -0.148,-0.9 0.23733,-1.154666 0.14,-0.092 0.29867,-0.136 0.456,-0.136 0.27067,0 0.536,0.132 0.69467,0.376 0.172,0.256 4.156,6.338666 4.51066,10.105333 0.19734,2.154666 -2.276,7.583999 -3.624,10.357333 1.89334,1.036 3.73867,2.404 5.424,4.089333 1.684,1.684 3.052,3.529333 4.08934,5.424 2.668,-1.297333 7.78666,-3.634667 10.09466,-3.634667 0.092,0 0.18,0.0027 0.26267,0.01067 3.76533,0.354667 9.84933,4.338666 10.104,4.508 0.384,0.252 0.49066,0.769333 0.23733,1.153333 -0.16,0.242667 -0.42533,0.374667 -0.696,0.374667 -0.156,0 -0.31467,-0.044 -0.45467,-0.137334 -0.06,-0.03867 -5.992,-3.925333 -9.34533,-4.238666 -0.0507,-0.0053 -0.10533,-0.0067 -0.16266,-0.0067 -1.63067,0 -6.00934,1.862667 -9.28134,3.452 1.316,0.044 2.63467,0.577333 3.65334,1.6 2.08933,2.086667 2.14666,5.412 0.132,7.426667 -0.756,0.757333 -1.69867,1.222666 -2.69334,1.396 -0.44933,1.46 -1.204,2.769333 -2.28133,3.846666 -1.87733,1.878667 -4.45067,2.778667 -7.30133,2.778667 -2.31734,0 -4.81734,-0.596 -7.26934,-1.746667 1.436,3.749336 1.54534,7.718666 0.26534,11.121336 3.94933,2.576 7.896,5.14666 8.528,5.56133 1.03733,-0.20667 7.26666,-0.96267 10.82266,-0.96267 1.42134,0 2.41734,0.12 2.48134,0.44534 0.23066,1.14133 -14.20934,2.68266 -14.20934,2.68266 l -8.61733,-3.35333 c 1.83867,3.188 2.828,5.736 3.49067,6.492 0.996,0.33333 14.968,4.272 14.6,5.37467 -0.0413,0.128 -0.28667,0.18266 -0.688,0.18266 -3.08,0 -15.352,-3.31333 -15.352,-3.31333 l -2.70667,-3.092 c 1.03867,3.116 2.024,6.07467 2.19867,6.59333 0.94666,0.7 9.54266,8.22667 8.85333,9.16107 -0.036,0.0484 -0.0947,0.0699 -0.176,0.0699 -1.508,0 -10.532,-7.8656 -10.532,-7.8656 l -5.24,-10.932 c -0.54133,0.25066 -1.10133,0.456 -1.67733,0.63066 2.09733,10.692 4.91866,26.38147 7.15066,43.4908 3.64534,27.9932 2.82534,57.3292 0.58534,62.87613 -0.18,0.44627 -0.46134,0.65307 -0.82667,0.65307" />
</svg>
