<?xml version="1.0" encoding="UTF-8" standalone="no"?>
<svg
   xmlns:dc="http://purl.org/dc/elements/1.1/"
   xmlns:cc="http://creativecommons.org/ns#"
   xmlns:rdf="http://www.w3.org/1999/02/22-rdf-syntax-ns#"
   xmlns:svg="http://www.w3.org/2000/svg"
   xmlns="http://www.w3.org/2000/svg"
   xmlns:sodipodi="http://sodipodi.sourceforge.net/DTD/sodipodi-0.dtd"
   xmlns:inkscape="http://www.inkscape.org/namespaces/inkscape"
   width="355.18051pt"
   height="473.46793pt"
   version="1.1"
   viewBox="0 0 355.18051 473.46793"
   id="svg406"
   sodipodi:docname="project-management.svg"
   inkscape:version="1.0.2 (e86c870879, 2021-01-15)">
  <metadata
     id="metadata410">
    <rdf:RDF>
      <cc:Work
         rdf:about="">
        <dc:format>image/svg+xml</dc:format>
        <dc:type
           rdf:resource="http://purl.org/dc/dcmitype/StillImage" />
      </cc:Work>
    </rdf:RDF>
  </metadata>
  <sodipodi:namedview
     pagecolor="#ffffff"
     bordercolor="#666666"
     borderopacity="1"
     objecttolerance="10"
     gridtolerance="10"
     guidetolerance="10"
     inkscape:pageopacity="0"
     inkscape:pageshadow="2"
     inkscape:window-width="640"
     inkscape:window-height="480"
     id="namedview408"
     showgrid="false"
     inkscape:zoom="0.88663564"
     inkscape:cx="236.78373"
     inkscape:cy="315.57056"
     inkscape:current-layer="svg406" />
  <defs
     id="defs382">
    <clipPath
       id="a">
      <path
         d="M 198,139.21 H 554 V 612.79 H 198 Z"
         id="path379" />
    </clipPath>
  </defs>
  <g
     clip-path="url(#a)"
     id="g386"
     transform="translate(-198.4122,-139.32207)"
     style="fill:#00aad4">
    <path
       d="m 543.73,188.54 h -88.797 v -9.8672 c 0,-2.6172 -1.0391,-5.125 -2.8867,-6.9766 -1.8516,-1.8516 -4.3594,-2.8906 -6.9766,-2.8906 h -30.883 c -2.9648,-11.34 -10.816,-20.777 -21.43,-25.754 -10.613,-4.9727 -22.891,-4.9727 -33.504,0 -10.613,4.9766 -18.469,14.414 -21.43,25.754 h -30.883 c -5.4492,0 -9.8672,4.418 -9.8672,9.8672 v 9.8672 h -88.797 c -5.4492,0 -9.8633,4.418 -9.8633,9.8672 v 404.52 c 0,2.6172 1.0391,5.125 2.8867,6.9766 1.8516,1.8516 4.3594,2.8906 6.9766,2.8906 h 335.45 c 2.6172,0 5.1289,-1.0391 6.9766,-2.8906 1.8516,-1.8516 2.8906,-4.3594 2.8906,-6.9766 v -404.52 c 0,-2.6172 -1.0391,-5.1289 -2.8906,-6.9766 -1.8477,-1.8516 -4.3594,-2.8906 -6.9766,-2.8906 z m -226.92,0 h 29.598 c 2.6172,0 5.125,-1.0391 6.9766,-2.8906 1.8516,-1.8516 2.8906,-4.3594 2.8906,-6.9766 0,-7.0508 3.7617,-13.562 9.8672,-17.09 6.1055,-3.5234 13.625,-3.5234 19.73,0 6.1055,3.5273 9.8672,10.039 9.8672,17.09 0,2.6172 1.0391,5.125 2.8906,6.9766 1.8477,1.8516 4.3594,2.8906 6.9766,2.8906 h 29.598 v 19.73 h -118.39 z M 533.87,593.06 H 218.15 V 208.27 h 78.93 v 9.8672 c 0,2.6172 1.0391,5.125 2.8906,6.9766 1.8516,1.8516 4.3594,2.8906 6.9766,2.8906 h 138.13 c 2.6172,0 5.125,-1.0391 6.9766,-2.8906 1.8477,-1.8516 2.8867,-4.3594 2.8867,-6.9766 V 208.27 h 78.93 z"
       id="path384"
       style="fill:#00aad4" />
  </g>
  <path
     d="m 118.3878,345.20792 h -59.199 c -5.4492,0 -9.8672,4.418 -9.8672,9.8672 v 59.199 -0.004 c 0,2.6172 1.043,5.125 2.8906,6.9766 1.8516,1.8516 4.3594,2.8906 6.9766,2.8906 h 59.199 c 2.6172,0 5.125,-1.0391 6.9766,-2.8906 1.8477,-1.8516 2.8906,-4.3594 2.8906,-6.9766 v -59.195 c 0,-2.6172 -1.043,-5.1289 -2.8906,-6.9766 -1.8516,-1.8516 -4.3594,-2.8906 -6.9766,-2.8906 z m -9.8672,59.199 -39.465,-0.004 v -39.465 h 39.465 z"
     id="path388"
     style="fill:#00aad4" />
  <path
     d="m 118.3878,236.67792 h -59.199 c -5.4492,0 -9.8672,4.418 -9.8672,9.86721 v 59.199 c 0,2.6172 1.043,5.125 2.8906,6.9766 1.8516,1.8477 4.3594,2.8867 6.9766,2.8867 h 59.199 c 2.6172,0 5.125,-1.0391 6.9766,-2.8867 1.8477,-1.8516 2.8906,-4.3594 2.8906,-6.9766 v -59.199 c 0,-2.61721 -1.043,-5.125 -2.8906,-6.97661 -1.8516,-1.8516 -4.3594,-2.8906 -6.9766,-2.8906 z m -9.8672,59.19901 h -39.465 v -39.46501 h 39.465 z"
     id="path390"
     style="fill:#00aad4" />
  <path
     d="m 295.9878,177.47792 h -128.26 c -5.4492,0 -9.8672,4.418 -9.8672,9.86721 0,5.44529 4.418,9.86329 9.8672,9.86329 h 128.26 c 5.4453,0 9.8633,-4.418 9.8633,-9.86329 0,-5.44921 -4.418,-9.86721 -9.8633,-9.86721 z"
     id="path392"
     style="fill:#00aad4" />
  <path
     d="m 167.7278,138.01792 c -5.4492,0 -9.8672,4.418 -9.8672,9.8633 0,5.4492 4.418,9.8672 9.8672,9.8672 h 128.26 c 5.4453,0 9.8633,-4.418 9.8633,-9.8672 0,-5.4453 -4.418,-9.8633 -9.8633,-9.8633 z"
     id="path394"
     style="fill:#00aad4" />
  <path
     d="m 295.9878,286.00792 h -128.26 c -5.4492,0 -9.8672,4.418 -9.8672,9.86721 0,5.4492 4.418,9.8672 9.8672,9.8672 h 128.26 c 5.4453,0 9.8633,-4.418 9.8633,-9.8672 0,-5.44921 -4.418,-9.86721 -9.8633,-9.86721 z"
     id="path396"
     style="fill:#00aad4" />
  <path
     d="m 295.9878,246.54792 h -128.26 c -5.4492,0 -9.8672,4.418 -9.8672,9.8672 0,5.4492 4.418,9.86721 9.8672,9.86721 h 128.26 c 5.4453,0 9.8633,-4.41801 9.8633,-9.86721 0,-5.4492 -4.418,-9.8672 -9.8633,-9.8672 z"
     id="path398"
     style="fill:#00aad4" />
  <path
     d="m 295.9878,394.53792 h -128.26 c -5.4492,0 -9.8672,4.4141 -9.8672,9.8633 0,5.4492 4.418,9.8672 9.8672,9.8672 h 128.26 c 5.4453,0 9.8633,-4.418 9.8633,-9.8672 0,-5.4492 -4.418,-9.8633 -9.8633,-9.8633 z"
     id="path400"
     style="fill:#00aad4" />
  <path
     d="m 295.9878,355.07792 h -128.26 c -5.4492,0 -9.8672,4.4141 -9.8672,9.8633 0,5.4492 4.418,9.8672 9.8672,9.8672 h 128.26 c 5.4453,0 9.8633,-4.418 9.8633,-9.8672 0,-5.4492 -4.418,-9.8633 -9.8633,-9.8633 z"
     id="path402"
     style="fill:#00aad4" />
  <path
     d="m 111.3878,140.87792 -32.457,32.559 -12.727,-12.824 h -0.004 c -3.8672,-3.8711 -10.141,-3.8711 -14.008,0 -3.8711,3.86721 -3.8711,10.141 0,14.008 32.461,32.363 19.734,33.547 73.207,-19.734 v 0.004 c 3.8672,-3.8711 3.8672,-10.141 0,-14.012 -3.8672,-3.8672 -10.141,-3.8672 -14.012,0 z"
     id="path404"
     style="fill:#00aad4" />
</svg>
