<?xml version="1.0" encoding="UTF-8" standalone="no"?>
<svg
   xmlns:dc="http://purl.org/dc/elements/1.1/"
   xmlns:cc="http://creativecommons.org/ns#"
   xmlns:rdf="http://www.w3.org/1999/02/22-rdf-syntax-ns#"
   xmlns:svg="http://www.w3.org/2000/svg"
   xmlns="http://www.w3.org/2000/svg"
   xmlns:sodipodi="http://sodipodi.sourceforge.net/DTD/sodipodi-0.dtd"
   xmlns:inkscape="http://www.inkscape.org/namespaces/inkscape"
   width="442.01001pt"
   height="442.005pt"
   version="1.1"
   viewBox="0 0 442.01001 442.005"
   id="svg16"
   sodipodi:docname="refactoring.svg"
   inkscape:version="1.0.2 (e86c870879, 2021-01-15)">
  <metadata
     id="metadata22">
    <rdf:RDF>
      <cc:Work
         rdf:about="">
        <dc:format>image/svg+xml</dc:format>
        <dc:type
           rdf:resource="http://purl.org/dc/dcmitype/StillImage" />
      </cc:Work>
    </rdf:RDF>
  </metadata>
  <defs
     id="defs20" />
  <sodipodi:namedview
     pagecolor="#ffffff"
     bordercolor="#666666"
     borderopacity="1"
     objecttolerance="10"
     gridtolerance="10"
     guidetolerance="10"
     inkscape:pageopacity="0"
     inkscape:pageshadow="2"
     inkscape:window-width="640"
     inkscape:window-height="480"
     id="namedview18"
     showgrid="false"
     inkscape:zoom="0.88663564"
     inkscape:cx="294.68"
     inkscape:cy="294.67333"
     inkscape:current-layer="svg16" />
  <g
     id="g14"
     transform="translate(-154.99,-154.995)"
     style="fill:#00ccff">
    <path
       d="m 597,415.46 c 0,-4.1836 -1.6602,-8.1992 -4.6211,-11.16 -2.9609,-2.9609 -6.9766,-4.625 -11.164,-4.625 h -173.64 c -4.1875,0 -8.2031,1.6641 -11.164,4.625 -2.9609,2.9609 -4.6211,6.9766 -4.6211,11.16 v 31.57 l 205.21,0.004 z m -173.64,15.789 h -7.8945 c -4.3594,0 -7.8906,-3.5352 -7.8906,-7.8945 0,-4.3593 3.5312,-7.8945 7.8906,-7.8945 h 7.8945 c 4.3594,0 7.8945,3.5352 7.8945,7.8945 0,4.3593 -3.5352,7.8945 -7.8945,7.8945 z m 39.465,0 h -7.8945 c -4.3555,0 -7.8906,-3.5352 -7.8906,-7.8945 0,-4.3593 3.5352,-7.8945 7.8906,-7.8945 h 7.8945 c 4.3594,0 7.8945,3.5352 7.8945,7.8945 0,4.3593 -3.5352,7.8945 -7.8945,7.8945 z m 110.5,0 h -47.359 c -4.3594,0 -7.8945,-3.5352 -7.8945,-7.8945 0,-4.3593 3.5352,-7.8945 7.8945,-7.8945 h 47.359 c 4.3594,0 7.8906,3.5352 7.8906,7.8945 0,4.3593 -3.5312,7.8945 -7.8906,7.8945 z"
       id="path2"
       style="fill:#00ccff" />
    <path
       d="m 407.57,597 h 173.64 c 4.1875,0 8.2031,-1.6602 11.164,-4.6211 2.9609,-2.9609 4.6211,-6.9766 4.6211,-11.164 v -118.39 h -205.21 v 118.39 c 0,4.1875 1.6602,8.2031 4.6211,11.164 2.9609,2.9609 6.9766,4.6211 11.164,4.6211 z m 157.86,-47.359 h 7.8945 v 0.004 c 4.3594,0 7.8906,3.5312 7.8906,7.8906 0,4.3594 -3.5312,7.8945 -7.8906,7.8945 H 565.43 c -4.3594,0 -7.8945,-3.5352 -7.8945,-7.8945 0,-4.3594 3.5352,-7.8906 7.8945,-7.8906 z m -39.465,-63.145 h 7.8945 v 0.004 c 4.3594,0 7.8906,3.5352 7.8906,7.8945 0,4.3555 -3.5312,7.8906 -7.8906,7.8906 h -7.8945 c -4.3594,0 -7.8945,-3.5352 -7.8945,-7.8906 0,-4.3594 3.5352,-7.8945 7.8945,-7.8945 z m -71.039,0 h 39.465 l 0.004,0.004 c 4.3555,0 7.8906,3.5352 7.8906,7.8945 0,4.3555 -3.5352,7.8906 -7.8906,7.8906 h -39.469 c -4.3555,0 -7.8906,-3.5352 -7.8906,-7.8906 0,-4.3594 3.5352,-7.8945 7.8906,-7.8945 z m 0,31.57 h 63.145 v 0.004 c 4.3594,0 7.8945,3.5352 7.8945,7.8945 0,4.3593 -3.5352,7.8945 -7.8945,7.8945 h -63.145 c -4.3555,0 -7.8906,-3.5352 -7.8906,-7.8945 0,-4.3593 3.5352,-7.8945 7.8906,-7.8945 z m 0,31.57 78.934,0.008 c 4.3594,0 7.8906,3.5312 7.8906,7.8906 0,4.3594 -3.5312,7.8945 -7.8906,7.8945 h -78.934 c -4.3555,0 -7.8906,-3.5352 -7.8906,-7.8945 0,-4.3594 3.5352,-7.8906 7.8906,-7.8906 z m -39.465,-63.145 h 7.8945 v 0.008 c 4.3594,0 7.8945,3.5352 7.8945,7.8945 0,4.3555 -3.5352,7.8906 -7.8945,7.8906 h -7.8945 c -4.3594,0 -7.8906,-3.5352 -7.8906,-7.8906 0,-4.3594 3.5312,-7.8945 7.8906,-7.8945 z m 0,31.57 h 7.8945 v 0.008 c 4.3594,0 7.8945,3.5352 7.8945,7.8945 0,4.3593 -3.5352,7.8945 -7.8945,7.8945 h -7.8945 c -4.3594,0 -7.8906,-3.5352 -7.8906,-7.8945 0,-4.3593 3.5312,-7.8945 7.8906,-7.8945 z m 0,31.57 h 7.8945 v 0.0117 c 4.3594,0 7.8945,3.5312 7.8945,7.8906 0,4.3594 -3.5352,7.8945 -7.8945,7.8945 h -7.8945 c -4.3594,0 -7.8906,-3.5352 -7.8906,-7.8945 0,-4.3594 3.5312,-7.8906 7.8906,-7.8906 z"
       id="path4"
       style="fill:#00ccff" />
    <path
       d="m 360.21,170.78 c 0,-4.1836 -1.6641,-8.1992 -4.625,-11.16 -2.957,-2.9609 -6.9727,-4.625 -11.16,-4.625 h -173.65 c -4.1836,0 -8.1992,1.6641 -11.16,4.625 -2.9609,2.9609 -4.625,6.9766 -4.625,11.16 v 31.574 h 205.22 z m -173.64,15.789 h -7.8945 c -4.3594,0 -7.8945,-3.5352 -7.8945,-7.8945 0,-4.3593 3.5352,-7.8945 7.8945,-7.8945 h 7.8945 c 4.3594,0 7.8906,3.5352 7.8906,7.8945 0,4.3593 -3.5312,7.8945 -7.8906,7.8945 z m 39.465,0 h -7.8945 c -4.3594,0 -7.8906,-3.5352 -7.8906,-7.8945 0,-4.3593 3.5312,-7.8945 7.8906,-7.8945 h 7.8945 c 4.3594,0 7.8906,3.5352 7.8906,7.8945 0,4.3593 -3.5312,7.8945 -7.8906,7.8945 z m 110.5,0 H 289.18 c -4.3594,0 -7.8945,-3.5352 -7.8945,-7.8945 0,-4.3593 3.5352,-7.8945 7.8945,-7.8945 h 47.359 -0.004 c 4.3594,0 7.8945,3.5352 7.8945,7.8945 0,4.3593 -3.5352,7.8945 -7.8945,7.8945 z"
       id="path6"
       style="fill:#00ccff" />
    <path
       d="m 170.78,352.32 h 173.65 c 4.1875,0 8.2031,-1.6641 11.16,-4.625 2.9609,-2.9609 4.625,-6.9766 4.625,-11.164 v -118.39 h -205.22 v 118.39 c 0,4.1875 1.6641,8.2031 4.625,11.164 2.9609,2.9609 6.9766,4.625 11.16,4.625 z m 157.86,-47.359 h 7.8945 c 4.3594,0 7.8945,3.5352 7.8945,7.8906 0,4.3594 -3.5352,7.8945 -7.8945,7.8945 h -7.8906 c -4.3594,0 -7.8945,-3.5352 -7.8945,-7.8945 0,-4.3555 3.5352,-7.8906 7.8945,-7.8906 z m -39.465,-63.145 h 7.8945 c 4.3594,0 7.8945,3.5352 7.8945,7.8945 0,4.3593 -3.5352,7.8906 -7.8945,7.8906 h -7.8906 c -4.3594,0 -7.8945,-3.5312 -7.8945,-7.8906 0,-4.3594 3.5352,-7.8945 7.8945,-7.8945 z m -71.039,0 h 39.469 c 4.3594,0 7.8945,3.5352 7.8945,7.8945 0,4.3593 -3.5352,7.8906 -7.8945,7.8906 H 218.14 c -4.3594,0 -7.8906,-3.5312 -7.8906,-7.8906 0,-4.3594 3.5312,-7.8945 7.8906,-7.8945 z m 0,31.57 h 63.148 c 4.3594,0 7.8945,3.5352 7.8945,7.8945 0,4.3593 -3.5352,7.8945 -7.8945,7.8945 h -63.145 c -4.3594,0 -7.8906,-3.5352 -7.8906,-7.8945 0,-4.3593 3.5312,-7.8945 7.8906,-7.8945 z m 0,31.57 78.934,0.004 c 4.3594,0 7.8945,3.5352 7.8945,7.8906 0,4.3594 -3.5352,7.8945 -7.8945,7.8945 h -78.93 c -4.3594,0 -7.8906,-3.5352 -7.8906,-7.8945 0,-4.3555 3.5312,-7.8906 7.8906,-7.8906 z m -39.461,-63.141 h 7.8945 c 4.3594,0 7.8906,3.5352 7.8906,7.8945 0,4.3593 -3.5312,7.8906 -7.8906,7.8906 h -7.8945 c -4.3594,0 -7.8945,-3.5312 -7.8945,-7.8906 0,-4.3594 3.5352,-7.8945 7.8945,-7.8945 z m 0,31.57 h 7.8945 c 4.3594,0 7.8906,3.5352 7.8906,7.8945 0,4.3593 -3.5312,7.8945 -7.8906,7.8945 h -7.8945 c -4.3594,0 -7.8945,-3.5352 -7.8945,-7.8945 0,-4.3593 3.5352,-7.8945 7.8945,-7.8945 z m 0,31.57 7.8945,0.004 c 4.3594,0 7.8906,3.5352 7.8906,7.8906 0,4.3594 -3.5312,7.8945 -7.8906,7.8945 h -7.8945 c -4.3594,0 -7.8945,-3.5352 -7.8945,-7.8945 0,-4.3555 3.5352,-7.8906 7.8945,-7.8906 z"
       id="path8"
       style="fill:#00ccff" />
    <path
       d="m 520.01,333.32 c -1.3164,1.6289 -1.9336,3.7148 -1.7109,5.7969 0.21875,2.082 1.2578,3.9922 2.8906,5.3086 l 17.363,14.035 c 3.3906,2.7383 8.3555,2.2109 11.098,-1.1797 l 14.035,-17.363 h -0.004 c 1.3828,-1.6172 2.0508,-3.7266 1.8516,-5.8477 -0.19531,-2.1172 -1.2383,-4.0664 -2.8906,-5.4062 -1.6562,-1.3359 -3.7773,-1.9531 -5.8906,-1.7031 -2.1133,0.25 -4.0391,1.3398 -5.3359,3.0273 l -2.1094,2.6055 c -15.043,-72.379 -69.301,-123.04 -140.94,-130.23 h 0.004 c -4.3359,-0.4375 -8.207,2.7266 -8.6445,7.0625 -0.43359,4.3398 2.7266,8.207 7.0664,8.6445 76.617,7.6641 115.06,62.969 126.76,116.03 l -2.4375,-1.9727 h -0.004 c -1.6289,-1.3164 -3.7148,-1.9297 -5.8008,-1.7031 -2.082,0.22656 -3.9922,1.2695 -5.3047,2.9023 z"
       id="path10"
       style="fill:#00ccff" />
    <path
       d="m 231.99,418.68 c 1.3203,-1.6289 1.9336,-3.7148 1.7148,-5.7969 -0.22266,-2.082 -1.2617,-3.9922 -2.8906,-5.3086 l -17.363,-14.035 c -3.3906,-2.7383 -8.3594,-2.2109 -11.098,1.1758 l -14.035,17.363 v 0.004 c -1.3789,1.6172 -2.0469,3.7266 -1.8516,5.8438 0.19922,2.1211 1.2422,4.0703 2.8945,5.4062 1.6523,1.3398 3.7773,1.9531 5.8906,1.707 2.1133,-0.25 4.0352,-1.3438 5.332,-3.0273 l 2.1094,-2.6055 c 15.051,72.371 69.309,123.04 140.95,130.24 0.27734,0 0.53516,0.0391 0.78906,0.0391 4.207,0 7.6719,-3.2969 7.8828,-7.5 0.21094,-4.1992 -2.9102,-7.8281 -7.0938,-8.2461 -76.617,-7.6641 -115.06,-62.969 -126.76,-116.03 l 2.4375,1.9727 c 1.6328,1.3125 3.7188,1.9219 5.8008,1.6953 2.082,-0.22656 3.9883,-1.2695 5.2969,-2.9023 z"
       id="path12"
       style="fill:#00ccff" />
  </g>
</svg>
