<?xml version="1.0" encoding="UTF-8" standalone="no"?>
<svg
   xmlns:dc="http://purl.org/dc/elements/1.1/"
   xmlns:cc="http://creativecommons.org/ns#"
   xmlns:rdf="http://www.w3.org/1999/02/22-rdf-syntax-ns#"
   xmlns:svg="http://www.w3.org/2000/svg"
   xmlns="http://www.w3.org/2000/svg"
   xmlns:sodipodi="http://sodipodi.sourceforge.net/DTD/sodipodi-0.dtd"
   xmlns:inkscape="http://www.inkscape.org/namespaces/inkscape"
   version="1.0"
   id="Calque_1"
   x="0px"
   y="0px"
   width="435.04099"
   height="292.383"
   viewBox="0 0 435.04099 292.383"
   enable-background="new 0 0 512 512"
   xml:space="preserve"
   sodipodi:docname="responsive-design.svg"
   inkscape:version="1.0.2 (e86c870879, 2021-01-15)"><metadata
   id="metadata10"><rdf:RDF><cc:Work
       rdf:about=""><dc:format>image/svg+xml</dc:format><dc:type
         rdf:resource="http://purl.org/dc/dcmitype/StillImage" /></cc:Work></rdf:RDF></metadata><defs
   id="defs8" /><sodipodi:namedview
   pagecolor="#ffffff"
   bordercolor="#666666"
   borderopacity="1"
   objecttolerance="10"
   gridtolerance="10"
   guidetolerance="10"
   inkscape:pageopacity="0"
   inkscape:pageshadow="2"
   inkscape:window-width="640"
   inkscape:window-height="480"
   id="namedview6"
   showgrid="false"
   inkscape:zoom="1.7714844"
   inkscape:cx="215.206"
   inkscape:cy="144.191"
   inkscape:current-layer="Calque_1" />
<g
   id="iphone"
   transform="translate(-40.794,-111.809)">
</g>
<path
   fill="#1A171B"
   d="M 423.274,0 H 11.766 V 0.001 C 5.295,0.001 0,5.295 0,11.767 v 268.849 c 0,6.472 5.295,11.767 11.766,11.767 h 411.508 c 6.471,0 11.767,-5.295 11.767,-11.767 V 11.766 C 435.04,5.295 429.744,0 423.274,0 Z m -282.812,212.272 65.103,22.27 -72.458,26.371 -52.699,-144.802 88.421,-32.18 -37.518,109.679 c -2.616,7.645 1.501,16.046 9.151,18.662 z m 40.163,-7.462 c 0.734,-2.145 3.074,-3.296 5.218,-2.562 l 14.797,5.062 c 2.153,0.736 3.297,3.079 2.563,5.224 -0.735,2.149 -3.073,3.299 -5.227,2.562 l -14.797,-5.062 c -2.144,-0.734 -3.289,-3.074 -2.554,-5.224 z M 156.645,176.584 200.832,47.409 283.637,75.734 239.45,204.909 Z M 302.38,77.983 c 2.615,-7.647 -1.503,-16.047 -9.15,-18.664 l -29.27,-10.012 37.992,-13.827 52.7,144.802 -99.675,36.276 z M 20.494,20.314 h 264.495 l -51.252,18.654 -30.433,-10.41 c -7.649,-2.616 -16.049,1.502 -18.665,9.149 l -7.475,21.851 -102.67,37.368 c -11.562,4.206 -17.522,16.987 -13.312,28.547 l 51.174,140.6 c 0.805,2.215 1.927,4.222 3.292,5.993 H 20.494 Z M 414.545,272.067 H 161.036 l 199.508,-72.612 c 11.56,-4.211 17.521,-16.992 13.312,-28.554 L 322.679,30.299 c -1.494,-4.104 -4.071,-7.497 -7.286,-9.985 h 99.152 z"
   id="path3"
   style="fill:#00aad4" />
</svg>
