<?xml version="1.0" encoding="UTF-8" standalone="no"?>
<svg
   xmlns:dc="http://purl.org/dc/elements/1.1/"
   xmlns:cc="http://creativecommons.org/ns#"
   xmlns:rdf="http://www.w3.org/1999/02/22-rdf-syntax-ns#"
   xmlns:svg="http://www.w3.org/2000/svg"
   xmlns="http://www.w3.org/2000/svg"
   xmlns:sodipodi="http://sodipodi.sourceforge.net/DTD/sodipodi-0.dtd"
   xmlns:inkscape="http://www.inkscape.org/namespaces/inkscape"
   width="473.58002pt"
   height="441.6188pt"
   version="1.1"
   viewBox="0 0 473.58002 441.6188"
   id="svg277"
   sodipodi:docname="scrum.svg"
   inkscape:version="1.0.2 (e86c870879, 2021-01-15)">
  <metadata
     id="metadata281">
    <rdf:RDF>
      <cc:Work
         rdf:about="">
        <dc:format>image/svg+xml</dc:format>
        <dc:type
           rdf:resource="http://purl.org/dc/dcmitype/StillImage" />
      </cc:Work>
    </rdf:RDF>
  </metadata>
  <sodipodi:namedview
     pagecolor="#ffffff"
     bordercolor="#666666"
     borderopacity="1"
     objecttolerance="10"
     gridtolerance="10"
     guidetolerance="10"
     inkscape:pageopacity="0"
     inkscape:pageshadow="2"
     inkscape:window-width="640"
     inkscape:window-height="480"
     id="namedview279"
     showgrid="false"
     inkscape:zoom="0.88663564"
     inkscape:cx="315.72"
     inkscape:cy="294.39893"
     inkscape:current-layer="svg277" />
  <defs
     id="defs265">
    <clipPath
       id="b">
      <path
         d="m 445,547 h 167.79 v 50 H 445 Z"
         id="path259" />
    </clipPath>
    <clipPath
       id="a">
      <path
         d="M 139.21,155 H 540 V 597 H 139.21 Z"
         id="path262" />
    </clipPath>
  </defs>
  <g
     id="g275"
     transform="translate(-139.21,-155.2008)"
     style="fill:#5f5fd3">
    <g
       clip-path="url(#b)"
       id="g269"
       style="fill:#5f5fd3">
      <path
         d="m 510.38,547.46 c -17.926,20.734 -40.117,37.59 -65.211,49.348 h 167.63 V 547.46 Z"
         id="path267"
         style="fill:#5f5fd3" />
    </g>
    <g
       clip-path="url(#a)"
       id="g273"
       style="fill:#5f5fd3">
      <path
         d="m 539.5,420.04 c 0,-97.473 -79.305,-176.77 -176.77,-176.77 -55.031,0 -104.25,25.297 -136.68,64.848 -6.168,-1.7344 -11.73,-4.832 -16.285,-9.082 -7.7852,-7.2422 -12.73,-17.48 -12.73,-28.926 0,-21.867 17.781,-39.648 39.648,-39.648 3.3867,0 6.6641,0.50781 9.8516,1.3125 l -15.277,30.949 33.648,-11.422 46.633,-15.816 -1.1562,-3.3867 -26.047,-76.898 -15.758,31.898 c -10.145,-3.9141 -20.82,-5.9883 -31.898,-5.9883 -49.074,0 -88.992,39.926 -88.992,88.992 0,29.348 14.34,55.344 36.316,71.559 4.9648,3.6641 10.301,6.8281 15.98,9.4102 -9.0195,21.199 -14.023,44.512 -14.023,68.969 0,21.637 4.0703,42.621 11.66,62.625 l -32.895,14.238 78.836,31.184 31.203,-78.809 -31.852,13.781 c -4.9531,-13.746 -7.6133,-28.152 -7.6133,-43.012 0,-70.27 57.172,-127.43 127.43,-127.43 70.258,0 127.43,57.164 127.43,127.43 0,70.262 -57.172,127.42 -127.43,127.42 l -223.52,0.004 v 49.348 h 223.52 c 97.473,0 176.77,-79.297 176.77,-176.77 z"
         id="path271"
         style="fill:#5f5fd3" />
    </g>
  </g>
</svg>
