<?xml version="1.0" encoding="UTF-8" standalone="no"?>
<svg
   xmlns:dc="http://purl.org/dc/elements/1.1/"
   xmlns:cc="http://creativecommons.org/ns#"
   xmlns:rdf="http://www.w3.org/1999/02/22-rdf-syntax-ns#"
   xmlns:svg="http://www.w3.org/2000/svg"
   xmlns="http://www.w3.org/2000/svg"
   xmlns:sodipodi="http://sodipodi.sourceforge.net/DTD/sodipodi-0.dtd"
   xmlns:inkscape="http://www.inkscape.org/namespaces/inkscape"
   width="413.68402pt"
   height="463.87885pt"
   version="1.1"
   viewBox="0 0 413.68402 463.87885"
   id="svg1569"
   sodipodi:docname="sell.svg"
   inkscape:version="1.0.2 (e86c870879, 2021-01-15)">
  <metadata
     id="metadata1575">
    <rdf:RDF>
      <cc:Work
         rdf:about="">
        <dc:format>image/svg+xml</dc:format>
        <dc:type
           rdf:resource="http://purl.org/dc/dcmitype/StillImage" />
      </cc:Work>
    </rdf:RDF>
  </metadata>
  <defs
     id="defs1573" />
  <sodipodi:namedview
     pagecolor="#ffffff"
     bordercolor="#666666"
     borderopacity="1"
     objecttolerance="10"
     gridtolerance="10"
     guidetolerance="10"
     inkscape:pageopacity="0"
     inkscape:pageshadow="2"
     inkscape:window-width="640"
     inkscape:window-height="480"
     id="namedview1571"
     showgrid="false"
     inkscape:zoom="0.88663564"
     inkscape:cx="275.78266"
     inkscape:cy="309.2771"
     inkscape:current-layer="svg1569" />
  <path
     d="m 253.547,411.23783 c 6.0117,0 10.867,4.875 10.867,10.867 0,5.9961 -4.875,10.867 -10.867,10.867 H 10.867 c -5.9961,0 -10.867,-4.875 -10.867,-10.867 0,-0.64063 0.0586,-1.25 0.15625,-1.8594 l 33.73,-288.57 c 0.625,-5.5391 5.3438,-9.6328 10.785,-9.6328 v -0.0156 h 71.633 V 98.031026 c 0,-26.965 11.023,-51.473 28.785,-69.246 17.758,-17.758 42.281,-28.785 69.246,-28.785 26.965,0 51.473,11.023 69.234,28.785 17.758,17.758 28.785,42.266 28.785,69.246 v 23.996004 h 71.633 c 5.7695,0 10.5,4.5039 10.855,10.172 l 18.77,160.6 c 0.68359,5.9531 -3.5938,11.336 -9.5469,12.02 -5.9531,0.68359 -11.336,-3.5938 -12.02,-9.5469 l -17.703,-151.5 h -61.973 v 68.352 c 0,5.9961 -4.875,10.867 -10.867,10.867 -6.0117,0 -10.867,-4.875 -10.867,-10.867 v -68.352 h -152.56 v 68.352 c 0,5.9961 -4.875,10.867 -10.867,10.867 -6.0117,0 -10.867,-4.875 -10.867,-10.867 v -68.352 h -61.973 l -31.258,267.44 h 230.48 z m 62.742,-128.25 c 0.53906,-0.55469 1.1367,-1.0508 1.7891,-1.4766 l 0.0273,-0.0156 0.19922,-0.12891 0.0156,-0.0156 0.21484,-0.12891 0.0273,-0.0156 c 1.6211,-0.95312 3.4961,-1.5078 5.5117,-1.5078 2.0156,0 3.8945,0.55469 5.5117,1.5078 l 0.0274,0.0156 0.21484,0.12891 0.0156,0.0156 0.19922,0.12891 0.0274,0.0156 c 0.65234,0.42578 1.25,0.92187 1.7891,1.4766 l 69.633,69.633 c 4.25,4.25 4.25,11.125 0,15.371 -4.2344,4.25 -11.125,4.25 -15.371,0 l -51.16,-51.16 v 136.18 c 0,5.9961 -4.875,10.867 -10.867,10.867 -5.9961,0 -10.867,-4.875 -10.867,-10.867 v -136.18 l -51.176,51.16 c -4.25,4.25 -11.125,4.25 -15.371,0 -4.25,-4.25 -4.25,-11.125 0,-15.371 l 69.633,-69.633 z m -178.25,-160.95 h 152.56 V 98.041826 c 0,-20.969 -8.582,-40.035 -22.418,-53.875 -13.84,-13.824 -32.906,-22.418 -53.859,-22.418 -20.969,0 -40.035,8.582 -53.859,22.418 -13.84,13.84 -22.418,32.906 -22.418,53.875 v 23.996004 z"
     id="path1567"
     style="fill:#ffcc00" />
</svg>
