<?xml version="1.0" encoding="UTF-8" standalone="no"?>
<svg
   xmlns:dc="http://purl.org/dc/elements/1.1/"
   xmlns:cc="http://creativecommons.org/ns#"
   xmlns:rdf="http://www.w3.org/1999/02/22-rdf-syntax-ns#"
   xmlns:svg="http://www.w3.org/2000/svg"
   xmlns="http://www.w3.org/2000/svg"
   xmlns:sodipodi="http://sodipodi.sourceforge.net/DTD/sodipodi-0.dtd"
   xmlns:inkscape="http://www.inkscape.org/namespaces/inkscape"
   version="1.1"
   id="Layer_1"
   x="0px"
   y="0px"
   viewBox="0 0 122.88 98.48"
   style="enable-background:new 0 0 122.88 98.48"
   xml:space="preserve"
   sodipodi:docname="seo.svg"
   inkscape:version="1.0.2 (e86c870879, 2021-01-15)"><metadata
     id="metadata4648"><rdf:RDF><cc:Work
         rdf:about=""><dc:format>image/svg+xml</dc:format><dc:type
           rdf:resource="http://purl.org/dc/dcmitype/StillImage" /></cc:Work></rdf:RDF></metadata><defs
     id="defs4646" /><sodipodi:namedview
     pagecolor="#ffffff"
     bordercolor="#666666"
     borderopacity="1"
     objecttolerance="10"
     gridtolerance="10"
     guidetolerance="10"
     inkscape:pageopacity="0"
     inkscape:pageshadow="2"
     inkscape:window-width="640"
     inkscape:window-height="480"
     id="namedview4644"
     showgrid="false"
     inkscape:zoom="9.0272133"
     inkscape:cx="61.439999"
     inkscape:cy="49.240002"
     inkscape:current-layer="Layer_1"
     inkscape:document-rotation="0" /><style
     type="text/css"
     id="style4635"><![CDATA[
	.st0{fill:#263036;}
	.st1{fill-rule:evenodd;clip-rule:evenodd;fill:#90CAF8;}
]]></style><path
     class="st1"
     d="m 68.36,4.78 c 21.09,0 38.18,17.1 38.18,38.18 0,21.09 -17.1,38.18 -38.18,38.18 -10.78,0 -20.51,-4.47 -27.46,-11.65 h 12.09 c 0.9,0 1.76,-0.13 2.56,-0.38 3.86,1.9 8.21,2.96 12.81,2.96 16.08,0 29.11,-13.04 29.11,-29.11 0,-16.08 -13.03,-29.11 -29.11,-29.11 -4.7,0 -9.14,1.12 -13.08,3.1 -0.95,-0.36 -2,-0.56 -3.1,-0.56 H 40.95 C 47.89,9.22 57.61,4.78 68.36,4.78 Z"
     id="path4637" /><path
     class="st0"
     d="M 26.37,35.09 H 15.23 v -2.95 c 0,-1.38 -0.15,-2.26 -0.43,-2.64 -0.28,-0.38 -0.75,-0.56 -1.41,-0.56 -0.72,0 -1.26,0.25 -1.63,0.77 -0.37,0.5 -0.55,1.27 -0.55,2.3 0,1.33 0.21,2.33 0.63,3 0.41,0.66 1.54,1.48 3.39,2.44 5.32,2.75 8.67,5.01 10.05,6.76 1.39,1.76 2.08,4.59 2.08,8.49 0,2.84 -0.39,4.93 -1.16,6.28 -0.77,1.35 -2.25,2.47 -4.45,3.38 -2.2,0.92 -4.75,1.37 -7.68,1.37 -3.21,0 -5.94,-0.53 -8.22,-1.58 C 3.58,61.1 2.11,59.77 1.4,58.14 0.7,56.51 0.35,54.2 0.35,51.22 V 48.6 h 11.14 v 4.85 c 0,1.49 0.16,2.46 0.47,2.88 0.31,0.43 0.87,0.64 1.66,0.64 0.8,0 1.39,-0.27 1.78,-0.81 0.39,-0.54 0.58,-1.34 0.58,-2.4 0,-2.34 -0.37,-3.88 -1.11,-4.6 C 14.1,48.44 12.24,47.23 9.26,45.53 6.28,43.82 4.32,42.58 3.35,41.81 2.39,41.04 1.58,39.97 0.95,38.61 0.32,37.24 0,35.5 0,33.38 c 0,-3.05 0.45,-5.29 1.35,-6.7 0.9,-1.41 2.35,-2.51 4.37,-3.31 2.01,-0.8 4.43,-1.19 7.28,-1.19 3.11,0 5.76,0.44 7.95,1.3 2.19,0.87 3.64,1.97 4.35,3.29 0.71,1.32 1.07,3.56 1.07,6.73 z M 68.32,0 c 11.87,0 22.61,4.81 30.39,12.59 7.77,7.77 12.58,18.52 12.58,30.39 0,8.68 -2.57,16.76 -7.01,23.52 l 18.6,20.27 -12.82,11.72 -17.93,-19.73 c -6.81,4.54 -15,7.2 -23.8,7.2 -11.87,0 -22.61,-4.81 -30.39,-12.59 -1.22,-1.22 -2.37,-2.52 -3.44,-3.88 h 6.34 c 0.16,0.16 0.32,0.33 0.48,0.49 6.91,6.91 16.46,11.18 27,11.18 10.54,0 20.09,-4.27 27,-11.18 6.91,-6.91 11.18,-16.46 11.18,-27 0,-10.54 -4.26,-20.09 -11.17,-27 v 0 0 C 88.42,9.07 78.87,4.8 68.33,4.8 c -10.54,0 -20.09,4.27 -27,11.18 -0.13,0.13 -0.27,0.27 -0.4,0.4 h -6.37 c 1.05,-1.33 2.17,-2.6 3.37,-3.79 C 45.71,4.81 56.45,0 68.32,0 V 0 Z M 31.63,22.99 h 20.55 v 7.96 h -8.53 v 7.61 h 8 v 7.56 h -8 v 8.77 h 9.34 v 7.96 H 31.63 Z m 53.14,23.37 c 0,4.01 -0.11,6.84 -0.33,8.5 -0.21,1.67 -0.89,3.19 -2.04,4.57 -1.15,1.38 -2.7,2.44 -4.66,3.18 -1.96,0.74 -4.23,1.11 -6.83,1.11 -2.47,0 -4.68,-0.35 -6.64,-1.05 -1.96,-0.7 -3.55,-1.74 -4.74,-3.13 -1.2,-1.39 -1.91,-2.92 -2.14,-4.55 -0.22,-1.65 -0.34,-4.52 -0.34,-8.62 v -6.82 c 0,-4.01 0.11,-6.84 0.33,-8.5 0.21,-1.67 0.9,-3.19 2.04,-4.57 1.14,-1.38 2.7,-2.44 4.66,-3.18 1.96,-0.74 4.23,-1.11 6.83,-1.11 2.47,0 4.68,0.35 6.64,1.05 1.96,0.7 3.55,1.74 4.74,3.13 1.2,1.4 1.91,2.92 2.14,4.55 0.22,1.65 0.34,4.52 0.34,8.62 z M 72.75,33.27 c 0,-1.85 -0.12,-3.03 -0.35,-3.55 -0.23,-0.51 -0.71,-0.77 -1.43,-0.77 -0.61,0 -1.08,0.21 -1.41,0.63 -0.32,0.41 -0.49,1.65 -0.49,3.7 v 18.61 c 0,2.31 0.11,3.74 0.32,4.28 0.21,0.55 0.71,0.81 1.49,0.81 0.8,0 1.31,-0.31 1.54,-0.93 0.23,-0.62 0.33,-2.11 0.33,-4.45 z"
     id="path4639"
     style="fill:#ffcc00" /></svg>
