<?xml version="1.0" encoding="UTF-8" standalone="no"?>
<svg
   xmlns:dc="http://purl.org/dc/elements/1.1/"
   xmlns:cc="http://creativecommons.org/ns#"
   xmlns:rdf="http://www.w3.org/1999/02/22-rdf-syntax-ns#"
   xmlns:svg="http://www.w3.org/2000/svg"
   xmlns="http://www.w3.org/2000/svg"
   xmlns:sodipodi="http://sodipodi.sourceforge.net/DTD/sodipodi-0.dtd"
   xmlns:inkscape="http://www.inkscape.org/namespaces/inkscape"
   width="458.78146pt"
   height="458.77802pt"
   version="1.1"
   viewBox="0 0 458.78146 458.77802"
   id="svg1356"
   sodipodi:docname="soft-skill.svg"
   inkscape:version="1.0.2 (e86c870879, 2021-01-15)">
  <metadata
     id="metadata1362">
    <rdf:RDF>
      <cc:Work
         rdf:about="">
        <dc:format>image/svg+xml</dc:format>
        <dc:type
           rdf:resource="http://purl.org/dc/dcmitype/StillImage" />
      </cc:Work>
    </rdf:RDF>
  </metadata>
  <defs
     id="defs1360" />
  <sodipodi:namedview
     pagecolor="#ffffff"
     bordercolor="#666666"
     borderopacity="1"
     objecttolerance="10"
     gridtolerance="10"
     guidetolerance="10"
     inkscape:pageopacity="0"
     inkscape:pageshadow="2"
     inkscape:window-width="640"
     inkscape:window-height="480"
     id="namedview1358"
     showgrid="false"
     inkscape:zoom="0.44331782"
     inkscape:cx="392.62527"
     inkscape:cy="191.59212"
     inkscape:current-layer="svg1356" />
  <path
     d="m 426.96144,324.8456 v -146.51 c 17.758,-2.2188 31.82,-17.758 31.82,-36.258 0,-20.719 -16.281,-37 -37,-37 -11.098,0 -21.461,5.1797 -28.859,14.059 l -127.27,-73.996 c 0.73828,-2.9609 0.73828,-5.1797 0.73828,-8.1406 0,-20.719 -16.281,-37 -37,-37 -20.719,0 -37,16.281 -37,37 0,2.9609 0,5.1797 0.73828,8.1406 l -127.27,73.258 c -6.6602,-8.8789 -17.02,-14.059 -28.859,-14.059 -20.719,0 -37,16.281 -37,37 0,18.5 14.059,34.039 32.559,36.258 v 146.52 C 14.063,327.0707 0,342.6136 0,361.8516 c 0,20.719 16.281,37 37,37 14.059,0 26.641,-7.3984 32.559,-19.98 0.73828,-0.73828 0.73828,-2.2188 1.4805,-2.9609 0,0 0,-0.73828 0.73828,-0.73828 0,-0.73828 0.73828,-1.4805 0.73828,-2.2188 0,-0.73828 0.73828,-1.4805 0.73828,-1.4805 0,-0.73828 0,-1.4805 0.73828,-2.2188 v -1.4805 -4.4414 c 0,-2.2188 0,-4.4414 -0.73828,-6.6602 0,-0.73828 0,-1.4805 -0.73828,-2.2188 0,-1.4805 -0.73828,-2.9609 -1.4805,-4.4414 0,-0.73828 -0.73828,-1.4805 -0.73828,-2.2188 -0.73828,-0.73828 -0.73828,-1.4805 -1.4805,-2.2188 l 116.91,-64.379 c 3.6992,-2.2188 5.1797,-6.6602 2.9609,-10.359 -2.2188,-3.6992 -6.6602,-5.1797 -10.359,-2.9609 l -118.39,64.375 -0.73828,-0.73828 c -1.4805,-1.4805 -2.9609,-2.2188 -5.1797,-2.9609 h -0.73828 c -2.2188,-0.73828 -4.4414,-2.2188 -5.918,-2.2188 l -0.004,-148.73 c 0,0 0.73828,0 0.73828,-0.73828 1.4805,-0.73828 3.6992,-1.4805 5.1797,-2.2188 0.73828,0 1.4805,-0.73828 2.2188,-1.4805 1.4805,-0.73828 2.2188,-1.4805 3.6992,-2.2188 0.004,-0.004 0.74219,-0.74219 1.4844,-0.74219 0.73828,-0.73828 2.2188,-1.4805 2.9609,-2.2188 l 88.797,48.84 c 1.4805,0.73828 2.2188,0.73828 3.6992,0.73828 2.9609,0 5.1797,-1.4805 6.6602,-3.6992 2.2188,-3.6992 0.73828,-8.1406 -2.9609,-10.359 l -87.316,-48.098 c 0.73828,-1.4805 0.73828,-2.9609 1.4805,-4.4414 0,-0.73828 0.73828,-1.4805 0.73828,-2.2188 0.73828,-2.2188 0.73828,-4.4414 0.73828,-6.6602 v -4.4414 -1.4805 c 0,-0.73828 -0.73828,-2.2188 -0.73828,-2.9609 v -0.73828 l 126.54,-73.258 c -1.4805,0 -1.4805,0 -0.74219,0.73828 0,0.73828 0.73828,0.73828 0.73828,1.4805 0.73828,0.73828 1.4805,1.4805 2.2188,2.9609 l 0.73828,0.73828 c 1.4805,0.73828 2.2188,2.2188 3.6992,2.9609 0,0 0.73828,0 0.73828,0.73828 1.4805,0.73828 2.2188,1.4805 3.6992,2.2188 0.73828,0 0.73828,0.73828 1.4805,0.73828 0.73828,0.73828 2.2188,0.73828 2.9609,1.4805 0.73828,0 1.4805,0 1.4805,0.73828 0.73828,0 1.4805,0.73828 2.9609,0.73828 v 68.078 c 0,4.4414 2.9609,7.3984 7.3984,7.3984 4.4414,0 7.3984,-2.9609 7.3984,-7.3984 v -68.078 c 0.73828,0 1.4805,-0.73828 2.9609,-0.73828 0.73828,0 1.4805,0 1.4805,-0.73828 0.73828,0 2.2188,-0.73828 2.9609,-1.4805 0.73828,0 0.73828,-0.73828 1.4805,-0.73828 0.73828,-0.73828 2.2188,-1.4805 2.9609,-1.4805 0,0 0.73828,-0.73828 1.4805,-0.73828 1.4805,-0.73828 2.2188,-2.2188 3.6992,-2.9609 0.73828,-0.73828 0.73828,-0.73828 1.4805,-1.4805 l 2.2188,-2.2188 c 0.74609,-1.4766 1.4844,-2.2188 2.2266,-2.957 0,0 0,-0.74219 0.73828,-0.74219 l 126.54,73.258 v 0.73828 c 0,0.73828 -0.73828,2.2188 -0.73828,2.9609 v 1.4805 4.4414 c 0,2.2188 0,4.4414 0.73828,6.6602 0,0.73828 0,1.4805 0.73828,2.2188 0,0.73828 0.73828,1.4805 0.73828,2.9609 l -87.316,48.098 c -3.6992,2.2188 -5.1797,6.6602 -2.9609,10.359 1.4805,2.2188 3.6992,3.6992 6.6602,3.6992 1.4805,0 2.2188,0 3.6992,-0.73828 l 87.316,-48.098 1.4805,1.4805 c 0.73828,0.73828 2.2188,1.4805 2.9609,2.9609 0.73828,0.73828 1.4805,0.73828 2.2188,1.4805 0.73828,0.73828 2.2188,1.4805 3.6992,2.2188 0.73828,0.73828 1.4805,0.73828 2.2188,1.4805 1.4805,0.73828 2.9609,1.4805 4.4414,1.4805 0.73828,0 0.73828,0 1.4805,0.73828 l 0.004,147.25 h -0.73828 c -2.2188,0.73828 -3.6992,1.4805 -5.1797,2.2188 -0.73828,0 -1.4805,0.73828 -2.2188,0.73828 -1.4805,0.73828 -2.2188,1.4805 -3.6992,2.2188 -2.2227,1.4805 -2.9648,2.2227 -3.7031,2.2227 l -0.73828,0.73828 -119.88,-65.855 c -3.6992,-2.2188 -8.1406,-0.73828 -10.359,2.9609 -2.2188,3.6992 -0.73828,8.1406 2.9609,10.359 l 117.66,65.117 v 0.73828 c 0,0.73828 -0.73828,1.4805 -0.73828,2.2188 -0.73828,1.4805 -0.73828,2.9609 -1.4805,4.4414 0,0.73828 -0.73828,1.4805 -0.73828,2.2188 -0.008,1.4805 -0.008,3.6992 -0.008,5.9219 0,5.918 1.4805,11.84 3.6992,16.281 5.918,12.578 18.5,19.98 32.559,19.98 20.719,0 37,-16.281 37,-37 0.73828,-18.5 -13.32,-34.043 -31.078,-36.262 z m -412.16,-183.51 c 0,-12.578 9.6211,-22.199 22.199,-22.199 8.1406,0 16.281,4.4414 19.98,11.84 1.4766,3.6992 2.2188,7.3984 2.2188,10.359 0,1.4805 0,2.9609 -0.73828,4.4414 -1.4805,9.6172 -9.6211,17.016 -19.242,17.758 -13.32,1.4805 -24.418,-8.8789 -24.418,-22.199 z m 22.199,242.71 c -12.578,0 -22.199,-9.6211 -22.199,-22.199 0,-12.5779 9.6211,-22.199 22.199,-22.199 h 2.2188 c 11.102,0.73828 19.98,10.359 19.98,22.199 0,3.6992 -0.73828,6.6602 -2.2188,9.6211 -3.7031,7.3984 -11.102,12.578 -19.98,12.578 z m 192.39,-369.25 c 12.578,0 22.199,9.6211 22.199,22.199 0,2.9609 -0.73828,5.918 -1.4805,8.1406 -3.6992,8.8789 -11.836,14.059 -20.719,14.059 h -3.6992 c -7.3984,-1.4805 -14.059,-5.918 -17.02,-13.32 -0.73828,-2.9609 -1.4805,-5.918 -1.4805,-8.8789 0,-12.578 10.359,-22.199 22.199,-22.199 z m 192.39,104.34 c 12.578,0 22.199,9.6211 22.199,22.199 0,12.578 -9.6211,22.199 -22.199,22.199 h -1.4805 -0.73828 c -11.098,-0.73828 -19.98,-10.359 -19.98,-22.199 0,-3.6992 0.73828,-6.6602 2.2188,-10.359 3.6992,-6.6602 11.84,-11.84 19.98,-11.84 z m 0,264.91 c -8.1406,0 -16.281,-4.4414 -19.98,-12.578 -1.4805,-2.9609 -2.2188,-6.6602 -2.2188,-9.6211 0,-11.098 8.8789,-21.461 20.719,-22.199 h 1.4805 c 12.578,0 22.199,9.6211 22.199,22.199 0,12.5779 -9.6211,22.199 -22.199,22.199 z"
     id="path1348"
     style="fill:#aa8800" />
  <g
     id="g1369"
     style="fill:#ffcc00">
    <path
       d="m 252.33144,295.9856 h -45.879 c -44.398,0 -80.656,36.258 -80.656,80.656 v 74.738 c 0,4.4414 2.9609,7.3984 7.3984,7.3984 h 192.39 c 4.4414,0 7.3984,-2.9609 7.3984,-7.3984 l 0.004,-74.738 c 0,-44.398 -36.258,-80.656 -80.656,-80.656 z m 65.855,148 h -177.59 v -67.336 c 0,-36.258 29.598,-65.855 65.855,-65.855 h 45.879 c 36.258,0 65.855,29.598 65.855,65.855 z"
       id="path1350"
       style="fill:#ffcc00" />
    <path
       d="m 255.29144,268.6056 c 2.2188,-1.4805 4.4414,-2.2188 6.6602,-3.6992 15.539,-9.6211 25.16,-26.641 26.641,-44.398 v -4.4414 c 0,-32.559 -26.641,-59.199 -59.199,-59.199 -32.558,0 -59.199,26.641 -59.199,59.199 0,2.2188 0,4.4414 0.73828,6.6602 2.2188,19.238 14.059,36.258 31.078,45.137 8.8789,4.4414 17.758,6.6602 28.117,6.6602 8.1484,0.004 17.027,-1.4766 25.164,-5.918 z m -46.617,-14.059 c -12.578,-6.6602 -21.461,-19.238 -22.938,-34.039 v -5.1797 c 0,-24.418 19.98,-44.398 44.398,-44.398 24.418,0 44.398,19.98 44.398,44.398 v 2.9609 0.73828 c -0.73828,15.539 -10.359,29.598 -25.16,36.258 -13.32,6.6602 -28.859,5.9219 -40.699,-0.73828 z"
       id="path1352"
       style="fill:#ffcc00" />
  </g>
</svg>
