<?xml version="1.0" encoding="UTF-8" standalone="no"?>
<svg
   xmlns:dc="http://purl.org/dc/elements/1.1/"
   xmlns:cc="http://creativecommons.org/ns#"
   xmlns:rdf="http://www.w3.org/1999/02/22-rdf-syntax-ns#"
   xmlns:svg="http://www.w3.org/2000/svg"
   xmlns="http://www.w3.org/2000/svg"
   xmlns:sodipodi="http://sodipodi.sourceforge.net/DTD/sodipodi-0.dtd"
   xmlns:inkscape="http://www.inkscape.org/namespaces/inkscape"
   width="317.15933"
   height="211.17577"
   viewBox="0 -193.5 317.15933 211.17577"
   version="1.1"
   preserveAspectRatio="xMidYMid"
   id="svg8"
   sodipodi:docname="sonarqube.svg"
   inkscape:version="1.0.2 (e86c870879, 2021-01-15)">
  <metadata
     id="metadata14">
    <rdf:RDF>
      <cc:Work
         rdf:about="">
        <dc:format>image/svg+xml</dc:format>
        <dc:type
           rdf:resource="http://purl.org/dc/dcmitype/StillImage" />
      </cc:Work>
    </rdf:RDF>
  </metadata>
  <defs
     id="defs12" />
  <sodipodi:namedview
     pagecolor="#ffffff"
     bordercolor="#666666"
     borderopacity="1"
     objecttolerance="10"
     gridtolerance="10"
     guidetolerance="10"
     inkscape:pageopacity="0"
     inkscape:pageshadow="2"
     inkscape:window-width="640"
     inkscape:window-height="480"
     id="namedview10"
     showgrid="false"
     inkscape:zoom="1.7714844"
     inkscape:cx="61.242907"
     inkscape:cy="62.5"
     inkscape:current-layer="svg8"
     inkscape:document-rotation="0" />
  <path
     d="m 301.93644,-84.71269 h -6.28503 c 0,-50.62519 -41.77249,-91.81005 -93.11305,-91.81005 v -6.28504 c 54.81096,0 99.39808,43.99525 99.39808,98.09509 z m 4.34332,-33.76716 c -7.54119,-31.75731 -33.27747,-58.26431 -65.54576,-67.53006 l 1.44777,-5.03739 c 34.05672,9.78098 61.21948,37.7826 69.19074,71.35388 z m 7.07705,-29.80281 c -7.77539,-16.95597 -21.03528,-31.74454 -37.30568,-41.63623 l 2.17591,-3.58111 c 16.99004,10.33028 30.80775,25.75757 38.9323,43.46723 z"
     fill="#499cd2"
     fill-rule="nonzero"
     id="path4" />
  <g
     id="g263"
     transform="translate(-5.8949834,-290.74338)">
    <path
       style="fill:#e6e6e6"
       d="m 205.48316,205.96516 h 15.53375 v -25.24234 c 0,-1.32855 0.10219,-2.4527 0.30659,-3.47466 1.02195,-4.90539 4.90539,-7.86906 10.62835,-7.86906 1.73732,0 2.96367,0.20439 4.19002,0.40878 V 155.1739 c -1.12415,-0.2044 -1.83952,-0.30659 -3.27026,-0.30659 -4.90539,0 -10.93494,3.06587 -13.48983,10.42396 h -0.40879 l -0.61317,-9.29981 h -13.28544 c 0.30659,4.29222 0.40878,9.09542 0.40878,16.45351 z"
       id="path235" />
    <path
       id="path231"
       style="fill:#e6e6e6"
       d="m 176.35742,348.36719 c -9.09542,0 -15.94332,2.55437 -19.41797,4.49609 l 2.86133,9.91406 c 3.27026,-1.94172 8.68709,-3.67968 13.79688,-3.67968 7.66467,0 9.0957,3.78237 9.0957,6.43945 v 0.61133 c -17.67985,0 -29.33008,6.13248 -29.33008,19.11133 0,7.97127 6.02912,15.33007 16.14649,15.33007 5.92735,0 11.03832,-2.14718 14.30859,-6.13281 h 0.30664 l 0.91992,5.00781 h 14 c -0.61317,-2.75929 -0.81836,-7.35758 -0.81836,-12.05859 v -17.47656 c 0,-11.75251 -5.21124,-21.5625 -21.86914,-21.5625 z m 6.84766,27.49023 v 5.41602 c 0,0.91976 -0.10225,1.84063 -0.30664,2.6582 -1.02196,3.16806 -4.29298,5.72266 -8.07422,5.72266 -3.47466,0 -6.13086,-1.94211 -6.13086,-5.92774 0,-5.92735 6.33607,-7.86914 14.51172,-7.86914 z"
       transform="translate(0,-193.5)" />
    <path
       style="fill:#e6e6e6"
       d="m 101.85674,205.96516 h 15.53374 v -28.81919 c 0,-1.43074 0.10219,-2.86148 0.51098,-3.88344 1.12415,-2.86148 3.67904,-5.82515 7.97126,-5.82515 5.62076,0 7.86907,4.39441 7.86907,10.83274 v 27.69504 h 15.53374 V 176.4306 c 0,-14.71618 -7.66467,-21.56329 -17.88424,-21.56329 -8.38005,0 -13.38764,4.8032 -15.43155,8.07346 h -0.30659 l -0.71537,-6.94931 h -13.48983 c 0.2044,4.49661 0.40879,9.70859 0.40879,15.94253 z"
       id="path229" />
    <path
       id="path225"
       style="fill:#e6e6e6"
       d="m 71.914062,348.36719 c -16.146918,0 -26.77539,10.32183 -26.77539,26.46875 0,16.14692 11.241485,25.7539 25.855469,25.7539 h 0.101562 c 13.285439,0 26.263672,-8.38143 26.263672,-26.57226 0,-15.12497 -10.218154,-25.65039 -25.445313,-25.65039 z m -0.511718,11.13867 c 7.051502,0 9.912109,7.56378 9.912109,14.92187 0,8.99322 -3.780368,15.02149 -9.912109,15.02149 h -0.101563 c -6.540524,0 -10.117187,-6.43767 -10.117187,-14.91992 0,-7.46028 2.86066,-15.02344 10.21875,-15.02344 z"
       transform="translate(0,-193.5)" />
    <path
       style="fill:#e6e6e6"
       d="m 5.8949834,203.41027 c 3.7812406,2.04391 9.6063946,3.57684 16.1469186,3.57684 14.307397,0 21.563291,-6.84711 21.563291,-16.24911 -0.102196,-7.2559 -3.985632,-12.0591 -13.489831,-15.32936 -6.131742,-2.04391 -8.07346,-3.37246 -8.07346,-5.72296 0,-2.45269 2.14611,-3.98563 5.92735,-3.98563 4.190023,0 8.584438,1.63513 10.832743,2.75928 l 2.657088,-10.62835 c -3.06587,-1.53293 -8.175655,-2.96367 -14.000809,-2.96367 -12.365678,0 -20.3369423,7.0515 -20.3369423,16.4535 -0.1021957,5.82516 3.8834363,11.44592 14.3073963,14.92058 5.722959,1.83952 7.255894,3.16806 7.255894,5.72295 0,2.5549 -1.941718,4.08783 -6.64272,4.08783 -4.598806,0 -10.526156,-1.94172 -13.387635,-3.67904 z"
       id="path223" />
  </g>
  <g
     id="g256"
     transform="translate(-173.74503,-204.32032)">
    <path
       id="path243"
       style="fill:#e6e6e6"
       d="m 420.11719,349.15625 c -14.4096,0 -23.30078,11.75131 -23.30078,26.67187 0,14.81837 9.19925,24.93555 24.32421,24.93555 7.86908,0 13.38662,-1.73723 16.55469,-3.16797 l -1.63476,-6.4375 c -3.27026,1.43074 -7.25699,2.55469 -13.69532,2.55469 -8.99322,0 -16.65693,-5.00732 -16.86132,-17.06641 h 34.64453 c 0.20439,-1.02196 0.30664,-2.35188 0.30664,-4.1914 0,-9.09541 -4.19097,-23.29883 -20.33789,-23.29883 z m -0.71485,6.4375 c 10.01517,0 12.46744,8.89032 12.36524,14.61328 h -26.16211 c 0.71537,-6.23394 4.59925,-14.61328 13.79687,-14.61328 z"
       transform="translate(0,-193.5)" />
    <path
       id="path239"
       style="fill:#e6e6e6"
       d="m 347.35352,327.18359 v 59.78321 c 0,4.39442 -0.10162,9.40294 -0.40821,12.77539 h 7.76758 l 0.50977,-8.17578 h 0.20507 c 3.78125,6.54052 9.40295,9.30078 16.55665,9.30078 11.03712,0 22.27734,-8.79021 22.27734,-26.57227 0,-14.92057 -8.58418,-25.13867 -20.84766,-25.13867 -7.97127,0 -13.69327,3.47362 -16.86133,8.99219 h -0.20507 v -30.96485 z m 23.09765,29.02344 c 9.6064,0 14.71485,8.48287 14.71485,18.49805 0,11.34372 -5.51729,19.00781 -15.02149,19.00781 -6.43833,0 -11.7529,-4.29145 -13.49023,-10.52539 -0.20439,-1.02196 -0.30664,-2.14733 -0.30664,-3.27148 v -8.89063 c 0,-1.43074 0.20514,-2.6571 0.51172,-3.78125 1.73732,-6.74491 7.46005,-11.03711 13.59179,-11.03711 z"
       transform="translate(0,-193.5)" />
    <path
       style="fill:#e6e6e6"
       d="m 337.54363,156.77952 h -8.99322 v 30.24992 c 0,1.73733 -0.30659,3.37246 -0.81757,4.59881 -1.63513,4.08783 -5.82515,8.27785 -11.8547,8.27785 -8.07346,0 -11.03713,-6.43833 -11.03713,-15.84033 v -27.28625 h -8.99322 v 28.92138 c 0,17.27107 9.2998,21.66549 17.06668,21.66549 8.78883,0 14.103,-5.21198 16.35131,-9.19761 h 0.20439 l 0.51098,8.07345 h 7.97126 c -0.30659,-3.88343 -0.40878,-8.38004 -0.40878,-13.59203 z"
       id="path237" />
    <path
       id="path221"
       style="fill:#e6e6e6"
       d="m 264.45312,348.56836 c -5.06412,0.0156 -10.17828,1.49165 -14.67968,4.55273 -12.01225,8.16288 -15.13003,24.51971 -6.96289,36.52344 7.22183,10.63688 20.8619,14.28232 32.22265,9.33008 l 10.17188,16.52148 8.07422,-5.48437 -10.16992,-16.52344 c 8.78883,-8.74199 10.41624,-22.78021 3.18164,-33.4043 -5.09649,-7.51031 -13.39769,-11.54169 -21.8379,-11.51562 z m 0.0234,7.88476 c 5.91168,-0.0126 11.72997,2.81042 15.29883,8.0586 5.71445,8.39282 3.52669,19.86954 -4.87891,25.58398 -8.39708,5.70593 -19.86403,3.51623 -25.57421,-4.88086 -5.71019,-8.39707 -3.51818,-19.86723 4.8789,-25.58593 3.14731,-2.13973 6.72838,-3.16825 10.27539,-3.17579 z"
       transform="translate(0,-193.5)" />
  </g>
</svg>
