<?xml version="1.0" encoding="UTF-8"?>
<svg xmlns="http://www.w3.org/2000/svg" id="Ebene_1" viewBox="0 0 237.74 237.74">
  <defs>
    <style>.cls-1{fill:#e5e8ed;}.cls-2{fill:#323d8c;}</style>
  </defs>
  <path class="cls-1" d="M118.87,0C53.22,0,0,53.22,0,118.87s53.22,118.87,118.87,118.87,118.87-53.22,118.87-118.87h0C237.74,53.22,184.52,0,118.87,0Zm0,230.32c-61.55,0-111.45-49.91-111.44-111.46,0-61.55,49.91-111.45,111.46-111.44,61.55,0,111.44,49.9,111.44,111.45s-49.9,111.45-111.45,111.45h-.01Z"></path>
  <g>
    <path class="cls-2" d="M93.03,162.28c-6.56,0-11.7-5.43-11.7-12.37v-3.36c0-6.93,5.14-12.37,11.7-12.37s11.7,5.43,11.7,12.37v3.36c0,6.93-5.14,12.37-11.7,12.37Zm0-23.49c-3.98,0-7.1,3.41-7.1,7.77v3.36c0,4.36,3.12,7.77,7.1,7.77s7.1-3.41,7.1-7.77v-3.36c0-4.36-3.12-7.77-7.1-7.77Z"></path>
    <path class="cls-2" d="M116.47,174.07h-4.6v-4.8c0-3.92-11.4-7.1-18.84-7.1s-18.84,3.18-18.84,7.1v4.8h-4.6v-4.8c0-8.75,16.1-11.7,23.44-11.7s23.44,2.94,23.44,11.7v4.8Z"></path>
    <path class="cls-2" d="M91.86,103.55c-5.8,0-10.52-4.72-10.52-10.52s4.72-10.52,10.52-10.52,10.52,4.72,10.52,10.52-4.72,10.52-10.52,10.52Zm0-16.44c-3.27,0-5.92,2.66-5.92,5.92s2.66,5.92,5.92,5.92,5.92-2.66,5.92-5.92-2.66-5.92-5.92-5.92Z"></path>
    <path class="cls-2" d="M154.06,103.55h-21.04v-21.04h21.04v21.04Zm-16.44-4.6h11.84v-11.84h-11.84v11.84Z"></path>
    <path class="cls-2" d="M128.27,103.55h-21.14c-.84,0-1.62-.46-2.02-1.2-.4-.74-.37-1.64,.08-2.35l10.57-16.44c.42-.66,1.15-1.06,1.93-1.06s1.51,.4,1.93,1.06l10.57,16.44c.46,.71,.49,1.61,.08,2.35-.4,.74-1.18,1.2-2.02,1.2Zm-16.93-4.6h12.71l-6.36-9.89-6.36,9.89Z"></path>
    <path class="cls-2" d="M104.78,124.69c-5.76,0-11.05-3.03-14-7.88-1.95,.55-3.95,.83-5.97,.83-12.28,0-22.27-9.99-22.27-22.27s9.7-21.97,21.73-22.26c3.05-4.38,8.09-7.05,13.46-7.05,3.44,0,6.76,1.08,9.53,3.07,5.43-5.02,12.39-7.76,19.83-7.76,9.33,0,18.03,4.41,23.56,11.88,.79-.09,1.54-.13,2.28-.13,12.28,0,22.27,9.99,22.27,22.27s-9.99,22.27-22.27,22.27c-3.44,0-6.85-.81-9.94-2.36-4.76,3.09-10.22,4.71-15.9,4.71-3.23,0-6.4-.53-9.44-1.56-3.1,3.95-7.78,6.26-12.87,6.26Zm-11.66-13.59l.89,1.99c1.9,4.25,6.12,7,10.77,7,4.12,0,7.88-2.11,10.05-5.65l1.03-1.67,1.81,.75c3.01,1.24,6.18,1.87,9.43,1.87,5.19,0,10.17-1.61,14.41-4.67l1.22-.88,1.29,.76c2.72,1.59,5.8,2.44,8.92,2.44,9.74,0,17.67-7.93,17.67-17.67s-7.93-17.67-17.67-17.67c-.92,0-1.89,.09-2.97,.27l-1.47,.25-.83-1.24c-4.6-6.9-12.29-11.02-20.57-11.02-6.88,0-13.28,2.78-18.01,7.83l-1.58,1.68-1.68-1.59c-2.21-2.08-5.08-3.23-8.09-3.23-4.2,0-8.12,2.27-10.22,5.93l-.69,1.2-1.38-.05c-.12,0-.25-.01-.37-.02-.08,0-.17-.01-.25-.01-9.74,0-17.67,7.92-17.67,17.67s7.93,17.67,17.67,17.67c2.13,0,4.24-.39,6.28-1.17l2.03-.77Z"></path>
    <path class="cls-2" d="M116.52,145.83c-5.15,0-9.35-4.19-9.35-9.35s4.19-9.35,9.35-9.35,9.35,4.19,9.35,9.35-4.19,9.35-9.35,9.35Zm0-14.09c-2.62,0-4.75,2.13-4.75,4.75s2.13,4.75,4.75,4.75,4.75-2.13,4.75-4.75-2.13-4.75-4.75-4.75Z"></path>
  </g>
</svg>
