<?xml version="1.0" encoding="UTF-8" standalone="no"?>
<svg
   xmlns:dc="http://purl.org/dc/elements/1.1/"
   xmlns:cc="http://creativecommons.org/ns#"
   xmlns:rdf="http://www.w3.org/1999/02/22-rdf-syntax-ns#"
   xmlns:svg="http://www.w3.org/2000/svg"
   xmlns="http://www.w3.org/2000/svg"
   xmlns:sodipodi="http://sodipodi.sourceforge.net/DTD/sodipodi-0.dtd"
   xmlns:inkscape="http://www.inkscape.org/namespaces/inkscape"
   width="462.62601pt"
   height="402.12601pt"
   version="1.1"
   viewBox="0 0 462.62601 402.12601"
   id="svg4"
   sodipodi:docname="typewrite.svg"
   inkscape:version="1.0.2 (e86c870879, 2021-01-15)">
  <metadata
     id="metadata10">
    <rdf:RDF>
      <cc:Work
         rdf:about="">
        <dc:format>image/svg+xml</dc:format>
        <dc:type
           rdf:resource="http://purl.org/dc/dcmitype/StillImage" />
      </cc:Work>
    </rdf:RDF>
  </metadata>
  <defs
     id="defs8" />
  <sodipodi:namedview
     pagecolor="#ffffff"
     bordercolor="#666666"
     borderopacity="1"
     objecttolerance="10"
     gridtolerance="10"
     guidetolerance="10"
     inkscape:pageopacity="0"
     inkscape:pageshadow="2"
     inkscape:window-width="640"
     inkscape:window-height="480"
     id="namedview6"
     showgrid="false"
     inkscape:zoom="0.88663564"
     inkscape:cx="318.56406"
     inkscape:cy="278.21873"
     inkscape:current-layer="svg4" />
  <path
     d="m 59.39,107.051 h 25.02 v 87.887 h 337.27 v -87.887 h 25.02 c 8.7656,0 15.926,7.1602 15.926,15.926 v 87.137 c 0,8.7656 -7.1602,15.926 -15.926,15.926 h -30.688 v 97.734 c 0,0 18.539,25.66 18.539,35.391 v 20.344 c 0,0 -1.1523,22.617 -22.305,22.617 H 93.866 c -21.156,0 -22.305,-22.617 -22.305,-22.617 v -20.344 c 0,-9.7188 18.539,-35.391 18.539,-35.391 V 226.04 H 59.412 c -8.7656,0 -15.926,-7.1758 -15.926,-15.926 v -87.137 c 0,-8.7656 7.1602,-15.926 15.926,-15.926 z m 46.516,66.379 h 294.25 V 0 h -294.25 z m 32.832,-81.906 h 228.59 v 19.648 h -228.59 z m 0,-49.84 h 228.59 v 19.648 h -228.59 z m -113.66,96.77 H 0 v 56.176 h 25.078 z m 321.73,208.61 c 6.4805,0 11.734,5.2578 11.734,11.734 0,6.4922 -5.2578,11.734 -11.734,11.734 -6.4805,0 -11.734,-5.2578 -11.734,-11.734 0,-6.4805 5.2578,-11.734 11.734,-11.734 z m -37.508,0 c 6.4805,0 11.734,5.2578 11.734,11.734 0,6.4922 -5.2578,11.734 -11.734,11.734 -6.4805,0 -11.734,-5.2578 -11.734,-11.734 0,-6.4805 5.2578,-11.734 11.734,-11.734 z m -37.508,0 c 6.4805,0 11.734,5.2578 11.734,11.734 0,6.4922 -5.2578,11.734 -11.734,11.734 -6.4805,0 -11.734,-5.2578 -11.734,-11.734 0,-6.4805 5.2578,-11.734 11.734,-11.734 z m -37.508,0 c 6.4805,0 11.734,5.2578 11.734,11.734 0,6.4922 -5.2578,11.734 -11.734,11.734 -6.4805,0 -11.734,-5.2578 -11.734,-11.734 0,-6.4805 5.2578,-11.734 11.734,-11.734 z m -37.508,0 c 6.4805,0 11.734,5.2578 11.734,11.734 0,6.4922 -5.2578,11.734 -11.734,11.734 -6.4805,0 -11.734,-5.2578 -11.734,-11.734 0,-6.4805 5.2578,-11.734 11.734,-11.734 z m -37.508,0 c 6.4805,0 11.734,5.2578 11.734,11.734 0,6.4922 -5.2578,11.734 -11.734,11.734 -6.4805,0 -11.734,-5.2578 -11.734,-11.734 0,-6.4805 5.2578,-11.734 11.734,-11.734 z m 225.06,-38.758 c 6.4805,0 11.734,5.2578 11.734,11.734 0,6.4805 -5.2578,11.734 -11.734,11.734 -6.4922,0 -11.734,-5.2578 -11.734,-11.734 0,-6.4922 5.2578,-11.734 11.734,-11.734 z m -37.508,0 c 6.4805,0 11.734,5.2578 11.734,11.734 0,6.4805 -5.2578,11.734 -11.734,11.734 -6.4805,0 -11.734,-5.2578 -11.734,-11.734 0,-6.4922 5.2578,-11.734 11.734,-11.734 z m -37.508,0 c 6.4805,0 11.734,5.2578 11.734,11.734 0,6.4805 -5.2578,11.734 -11.734,11.734 -6.4805,0 -11.734,-5.2578 -11.734,-11.734 0,-6.4922 5.2578,-11.734 11.734,-11.734 z m -37.508,0 c 6.4805,0 11.734,5.2578 11.734,11.734 0,6.4805 -5.2578,11.734 -11.734,11.734 -6.4805,0 -11.734,-5.2578 -11.734,-11.734 0,-6.4922 5.2578,-11.734 11.734,-11.734 z m -37.508,0 c 6.4805,0 11.734,5.2578 11.734,11.734 0,6.4805 -5.2578,11.734 -11.734,11.734 -6.4805,0 -11.734,-5.2578 -11.734,-11.734 0,-6.4922 5.2578,-11.734 11.734,-11.734 z m -37.508,0 c 6.4805,0 11.734,5.2578 11.734,11.734 0,6.4805 -5.2578,11.734 -11.734,11.734 -6.4805,0 -11.734,-5.2578 -11.734,-11.734 0,-6.4922 5.2578,-11.734 11.734,-11.734 z m -37.508,0 c 6.4805,0 11.734,5.2578 11.734,11.734 0,6.4805 -5.2578,11.734 -11.734,11.734 -6.4805,0 -11.734,-5.2578 -11.734,-11.734 0,-6.4922 5.2578,-11.734 11.734,-11.734 z m -37.508,0 c 6.4805,0 11.734,5.2578 11.734,11.734 0,6.4805 -5.2578,11.734 -11.734,11.734 -6.4805,0 -11.734,-5.2578 -11.734,-11.734 0,-6.4922 5.2578,-11.734 11.734,-11.734 z m 225.06,-38.758 c 6.4805,0 11.734,5.2578 11.734,11.734 0,6.4922 -5.2578,11.734 -11.734,11.734 -6.4805,0 -11.734,-5.2578 -11.734,-11.734 0,-6.4805 5.2578,-11.734 11.734,-11.734 z m -37.508,0 c 6.4805,0 11.734,5.2578 11.734,11.734 0,6.4922 -5.2578,11.734 -11.734,11.734 -6.4805,0 -11.734,-5.2578 -11.734,-11.734 0,-6.4805 5.2578,-11.734 11.734,-11.734 z m -37.508,0 c 6.4805,0 11.734,5.2578 11.734,11.734 0,6.4922 -5.2578,11.734 -11.734,11.734 -6.4805,0 -11.734,-5.2578 -11.734,-11.734 0,-6.4805 5.2578,-11.734 11.734,-11.734 z m -37.508,0 c 6.4805,0 11.734,5.2578 11.734,11.734 0,6.4922 -5.2578,11.734 -11.734,11.734 -6.4805,0 -11.734,-5.2578 -11.734,-11.734 0,-6.4805 5.2578,-11.734 11.734,-11.734 z m -37.508,0 c 6.4805,0 11.734,5.2578 11.734,11.734 0,6.4922 -5.2578,11.734 -11.734,11.734 -6.4805,0 -11.734,-5.2578 -11.734,-11.734 0,-6.4805 5.2578,-11.734 11.734,-11.734 z m -37.508,0 c 6.4805,0 11.734,5.2578 11.734,11.734 0,6.4922 -5.2578,11.734 -11.734,11.734 -6.4805,0 -11.734,-5.2578 -11.734,-11.734 0,-6.4805 5.2578,-11.734 11.734,-11.734 z m -51.504,-37.594 h 290.54 v 17.504 h -290.54 z"
     fill-rule="evenodd"
     id="path2"
     style="fill:#008080" />
</svg>
