<?xml version="1.0" encoding="UTF-8" standalone="no"?>
<svg
   xmlns:dc="http://purl.org/dc/elements/1.1/"
   xmlns:cc="http://creativecommons.org/ns#"
   xmlns:rdf="http://www.w3.org/1999/02/22-rdf-syntax-ns#"
   xmlns:svg="http://www.w3.org/2000/svg"
   xmlns="http://www.w3.org/2000/svg"
   xmlns:sodipodi="http://sodipodi.sourceforge.net/DTD/sodipodi-0.dtd"
   xmlns:inkscape="http://www.inkscape.org/namespaces/inkscape"
   version="1.1"
   id="Layer_1"
   x="0px"
   y="0px"
   width="270"
   height="270"
   viewBox="0 0 267.3 267.21649"
   enable-background="new 0 0 396 288"
   xml:space="preserve"
   sodipodi:docname="uml.svg"
   inkscape:version="1.0.2 (e86c870879, 2021-01-15)"><metadata
   id="metadata69"><rdf:RDF><cc:Work
       rdf:about=""><dc:format>image/svg+xml</dc:format><dc:type
         rdf:resource="http://purl.org/dc/dcmitype/StillImage" /><dc:title></dc:title></cc:Work></rdf:RDF></metadata><defs
   id="defs67" /><sodipodi:namedview
   pagecolor="#ffffff"
   bordercolor="#666666"
   borderopacity="1"
   objecttolerance="10"
   gridtolerance="10"
   guidetolerance="10"
   inkscape:pageopacity="0"
   inkscape:pageshadow="2"
   inkscape:window-width="640"
   inkscape:window-height="480"
   id="namedview65"
   showgrid="false"
   inkscape:zoom="3.1168385"
   inkscape:cx="-39.942859"
   inkscape:cy="133.17374"
   inkscape:current-layer="Layer_1" />


<g
   id="g74"
   transform="translate(27.127,3.334245)"><polygon
     fill="#fbbd16"
     points="288.753,272.151 288.753,145.616 247.914,126.278 234.982,186.663 221.937,113.84 181.323,94.391 181.323,221.04 208.096,234.496 208.096,158.167 222.729,240.603 246.553,252.477 261.867,183.949 261.867,258.923 "
     id="polygon2"
     transform="translate(-181.323,-12.203)" /><polygon
     fill="#452e7f"
     points="292.496,145.583 335.152,123.418 335.152,215.238 394.142,184.709 394.369,219.31 292.611,272.796 "
     id="polygon4"
     transform="translate(-181.323,-12.203)" /><path
     fill="#962444"
     d="M 93.975,-0.045 63.812,26.624 c 0,0 58.851,30.25 66,33.825 7.15,3.574 17.325,10.449 6.325,20.625 -11,10.175 -23.1,8.8 -31.35,4.675 -8.25,-4.125 -69.3,-34.925 -69.3,-34.925 L 4.413,77.223 c 0,0 59.949,30.525 69.85,35.75 9.9,5.226 46.75,18.15 81.675,-9.075 34.925,-27.225 29.976,-37.125 29.976,-39.05 0,-1.925 -0.825,-12.1 -6.875,-18.425 -6.051,-6.325 -23.65,-15.4 -31.075,-19.25 -7.425,-3.85 -53.989,-27.218 -53.989,-27.218 z"
     id="path6" /></g>

























</svg>
