<?xml version="1.0" encoding="UTF-8" standalone="no"?>
<svg
   xmlns:dc="http://purl.org/dc/elements/1.1/"
   xmlns:cc="http://creativecommons.org/ns#"
   xmlns:rdf="http://www.w3.org/1999/02/22-rdf-syntax-ns#"
   xmlns:svg="http://www.w3.org/2000/svg"
   xmlns="http://www.w3.org/2000/svg"
   xmlns:sodipodi="http://sodipodi.sourceforge.net/DTD/sodipodi-0.dtd"
   xmlns:inkscape="http://www.inkscape.org/namespaces/inkscape"
   width="340.39001pt"
   height="436.5802pt"
   version="1.1"
   viewBox="0 0 340.39001 436.5802"
   id="svg1454"
   sodipodi:docname="vimscript.svg"
   inkscape:version="1.0.2 (e86c870879, 2021-01-15)">
  <metadata
     id="metadata1460">
    <rdf:RDF>
      <cc:Work
         rdf:about="">
        <dc:format>image/svg+xml</dc:format>
        <dc:type
           rdf:resource="http://purl.org/dc/dcmitype/StillImage" />
      </cc:Work>
    </rdf:RDF>
  </metadata>
  <defs
     id="defs1458" />
  <sodipodi:namedview
     pagecolor="#ffffff"
     bordercolor="#666666"
     borderopacity="1"
     objecttolerance="10"
     gridtolerance="10"
     guidetolerance="10"
     inkscape:pageopacity="0"
     inkscape:pageshadow="2"
     inkscape:window-width="640"
     inkscape:window-height="480"
     id="namedview1456"
     showgrid="false"
     inkscape:zoom="0.88663564"
     inkscape:cx="226.93106"
     inkscape:cy="291.05066"
     inkscape:current-layer="svg1454" />
  <g
     id="g1452"
     transform="translate(-205.8017,-157.712)"
     style="fill:#008000">
    <path
       d="m 368.6,346.54 v 53.277 l 60.93,35.188 60.938,-35.188 v -70.371 l -60.938,-35.18 -46.129,26.633 v -53.277 l -60.93,-35.18 -60.938,35.18 v 70.363 l 60.938,35.188 z m 14.801,0 38.715,22.348 v 44.754 l -38.715,-22.379 z m 53.516,67.121 v -44.695 l 38.754,-22.414 v 44.73 z m 31.352,-79.918 -38.68,22.371 -38.789,-22.406 38.715,-22.355 z m -99.668,-4.2969 -38.754,22.371 v -44.695 l 38.754,-22.406 z m -7.3984,-57.547 -38.68,22.363 -38.773,-22.375 38.723,-22.348 z m -84.867,12.793 38.715,22.348 v 44.754 l -38.715,-22.348 z"
       id="path1448"
       style="fill:#008000" />
    <path
       d="M 538.79,462.36 V 267.79 l -2.168,-2.168 -107.91,-107.91 h -185.91 c -7.8516,0 -15.379,3.1172 -20.93,8.668 -5.5508,5.5508 -8.6719,13.078 -8.6719,20.93 v 249.68 c -2.2422,1.2891 -4.1055,3.1445 -5.4062,5.3828 -1.3008,2.2344 -1.9844,4.7734 -1.9922,7.3594 v 107.56 c 0.0117,9.8086 3.9141,19.215 10.848,26.148 6.9375,6.9375 16.34,10.84 26.152,10.852 h 266.39 c 9.8086,-0.0117 19.215,-3.9141 26.148,-10.852 6.9375,-6.9336 10.84,-16.34 10.852,-26.148 v -82.188 c -0.004,-2.5859 -0.69141,-5.1289 -1.9922,-7.3672 -1.2969,-2.2383 -3.1641,-4.0938 -5.4102,-5.3828 z M 333.87,564.35 H 318.776 L 301.26,498.284 h 14.125 l 10.648,44.488 11.195,-44.488 h 14.207 z m 38.895,0 h -14.129 v -66.066 h 14.125 z m 71.387,0 h -12.578 l -0.004,-45.02 -12.875,45.02 h -10.777 l -12.68,-44.926 v 44.922 l -12.582,0.004 v -66.066 h 18.871 l 11.723,42.453 11.84,-42.453 h 19.059 z m 79.84,-104.04 h -162.16 l -17.758,-20.32 -0.004,0.004 c -2.8086,-3.2148 -6.8672,-5.0547 -11.137,-5.0547 h -104.93 v -247.62 c 0,-3.9258 1.5586,-7.6875 4.3359,-10.465 2.7734,-2.7734 6.5391,-4.3359 10.465,-4.3359 h 175.45 v 76.145 c 0,7.8516 3.1172,15.379 8.668,20.93 5.5508,5.551 13.082,8.668 20.93,8.668 h 76.145 z"
       id="path1450"
       style="fill:#008000" />
  </g>
</svg>
