<?xml version="1.0" encoding="UTF-8" standalone="no"?>
<svg
   xmlns:dc="http://purl.org/dc/elements/1.1/"
   xmlns:cc="http://creativecommons.org/ns#"
   xmlns:rdf="http://www.w3.org/1999/02/22-rdf-syntax-ns#"
   xmlns:svg="http://www.w3.org/2000/svg"
   xmlns="http://www.w3.org/2000/svg"
   xmlns:sodipodi="http://sodipodi.sourceforge.net/DTD/sodipodi-0.dtd"
   xmlns:inkscape="http://www.inkscape.org/namespaces/inkscape"
   width="106.625"
   height="104.1875"
   version="1.1"
   id="svg10"
   sodipodi:docname="vmware.svg"
   inkscape:version="1.0.2 (e86c870879, 2021-01-15)">
  <defs
     id="defs14" />
  <sodipodi:namedview
     pagecolor="#ffffff"
     bordercolor="#666666"
     borderopacity="1"
     objecttolerance="10"
     gridtolerance="10"
     guidetolerance="10"
     inkscape:pageopacity="0"
     inkscape:pageshadow="2"
     inkscape:window-width="640"
     inkscape:window-height="480"
     id="namedview12"
     showgrid="false"
     inkscape:zoom="5.9168283"
     inkscape:cx="59.879785"
     inkscape:cy="49.821041"
     inkscape:current-layer="svg10"
     inkscape:document-rotation="0" />
  <title
     id="title2">VMware Logo</title>
  <desc
     id="desc4">This is shape (source) for Clarity vector icon theme for gtk</desc>
  <metadata
     id="metadata6">
    <rdf:RDF>
      <cc:Work
         rdf:about="">
        <dc:title>VMware Logo</dc:title>
        <dc:description>This is shape (source) for Clarity vector icon theme for gtk</dc:description>
        <dc:creator>
          <cc:Agent>
            <dc:title>Jakub Jankiewicz</dc:title>
          </cc:Agent>
        </dc:creator>
        <dc:rights>
          <cc:Agent>
            <dc:title>Jakub Jankiewicz</dc:title>
          </cc:Agent>
        </dc:rights>
        <dc:date>2010</dc:date>
        <dc:format>image/svg+xml</dc:format>
        <dc:type
           rdf:resource="http://purl.org/dc/dcmitype/StillImage" />
        <cc:license
           rdf:resource="http://creativecommons.org/licenses/by-sa/3.0/" />
      </cc:Work>
    </rdf:RDF>
  </metadata>
  <path
     d="M 26,0 C 19.431504,0 14.0625,5.405236 14.0625,11.96875 v 23.625 H 11.96875 C 5.400254,35.59375 0,40.994004 0,47.5625 v 44.65625 c 0,6.56849 5.400252,11.96875 11.96875,11.96875 H 56.625 c 6.568498,0 11.96875,-5.40026 11.96875,-11.96875 v -5.8125 H 94.6875 c 6.56849,0 11.9375,-5.405235 11.9375,-11.96875 V 29.75 c 0,-6.563515 -5.36901,-11.96875 -11.9375,-11.96875 H 82.625 v -5.8125 C 82.625,5.405236 77.255996,0 70.6875,0 Z m 0,9 h 44.6875 c 1.728519,0 2.9375,1.228408 2.9375,2.96875 v 5.8125 H 50 c -6.568496,0 -11.96875,5.400254 -11.96875,11.96875 v 5.84375 H 23.0625 v -23.625 C 23.0625,10.228408 24.271481,9 26,9 Z M 50,26.8125 H 73.625 V 56.625 c 0,1.740342 -1.208981,2.96875 -2.9375,2.96875 H 68.59375 V 47.5625 c 0,-6.568496 -5.400254,-11.96875 -11.96875,-11.96875 H 47.0625 V 29.75 c 0,-1.740342 1.197159,-2.9375 2.9375,-2.9375 z m 32.625,0 h 12.0625 c 1.74034,0 2.9375,1.197158 2.9375,2.9375 v 44.6875 c 0,1.74034 -1.19716,2.9375 -2.9375,2.9375 H 68.59375 v -8.78125 h 2.09375 c 6.568496,0 11.9375,-5.405236 11.9375,-11.96875 z M 11.96875,44.59375 H 14.0625 V 56.625 c 0,6.563514 5.369004,11.96875 11.9375,11.96875 h 12.03125 v 5.84375 c 0,6.568496 5.400254,11.96875 11.96875,11.96875 h 9.5625 v 5.8125 c 0,1.74034 -1.208982,2.96875 -2.9375,2.96875 H 11.96875 C 10.240232,95.1875 9,93.94727 9,92.21875 V 47.5625 c 0,-1.728519 1.240231,-2.96875 2.96875,-2.96875 z m 11.09375,0 h 14.96875 v 15 H 26 c -1.728519,0 -2.9375,-1.228408 -2.9375,-2.96875 z m 24,0 h 9.5625 c 1.728519,0 2.9375,1.228408 2.9375,2.96875 v 12.03125 h -12.5 z m 0,24 h 12.5 V 77.375 H 50 c -1.740341,0 -2.9375,-1.197159 -2.9375,-2.9375 z"
     id="path8"
     style="fill:#37abc8" />
</svg>
