<?xml version="1.0" encoding="UTF-8" standalone="no"?>
<svg
   xmlns:dc="http://purl.org/dc/elements/1.1/"
   xmlns:cc="http://creativecommons.org/ns#"
   xmlns:rdf="http://www.w3.org/1999/02/22-rdf-syntax-ns#"
   xmlns:svg="http://www.w3.org/2000/svg"
   xmlns="http://www.w3.org/2000/svg"
   xmlns:sodipodi="http://sodipodi.sourceforge.net/DTD/sodipodi-0.dtd"
   xmlns:inkscape="http://www.inkscape.org/namespaces/inkscape"
   version="1.1"
   id="svg2"
   width="600"
   height="600"
   viewBox="0 0 600 599.99998"
   sodipodi:docname="zeromq.svg"
   inkscape:version="1.0.2 (e86c870879, 2021-01-15)">
  <metadata
     id="metadata8">
    <rdf:RDF>
      <cc:Work
         rdf:about="">
        <dc:format>image/svg+xml</dc:format>
        <dc:type
           rdf:resource="http://purl.org/dc/dcmitype/StillImage" />
        <dc:title></dc:title>
      </cc:Work>
    </rdf:RDF>
  </metadata>
  <defs
     id="defs6" />
  <sodipodi:namedview
     pagecolor="#ffffff"
     bordercolor="#666666"
     borderopacity="1"
     objecttolerance="10"
     gridtolerance="10"
     guidetolerance="10"
     inkscape:pageopacity="0"
     inkscape:pageshadow="2"
     inkscape:window-width="640"
     inkscape:window-height="480"
     id="namedview4"
     showgrid="false"
     inkscape:zoom="2.555"
     inkscape:cx="221.60934"
     inkscape:cy="89.516197"
     inkscape:current-layer="g10" />
  <g
     inkscape:groupmode="layer"
     inkscape:label="Image"
     id="g10"
     transform="translate(-9.1147344,-67.983803)">
    <path
       style="fill:#ff0000;fill-opacity:1"
       d="m 85.09954,458.72926 c -1.925,-0.48317 -5.75,-1.41762 -8.5,-2.07655 -2.75,-0.65893 -9.697476,-3.60555 -15.438836,-6.54805 l -10.438835,-5.35 -6.888008,6.64981 -6.888008,6.64981 -12.173156,-12.18884 -12.173157,-12.18884 6.724988,-6.57724 6.724988,-6.57725 -1.595577,-3.15197 c -0.877567,-1.73358 -2.13715,-3.82697 -2.799072,-4.65197 -1.737658,-2.16576 -7.555327,-16.62436 -7.555327,-18.77718 0,-1.00255 -0.459476,-2.2823 -1.021057,-2.84388 -2.609864,-2.60986 -2.592004,-43.16588 0.02016,-45.77804 0.550493,-0.5505 1.023078,-1.9234 1.050188,-3.0509 0.05331,-2.21702 5.347885,-14.94177 8.504552,-20.43944 4.029673,-7.01811 13.660829,-18.24299 20.676768,-24.09828 9.189918,-7.66961 25.474026,-15.95763 37.23482,-18.95117 8.036274,-2.04551 10.679034,-2.23604 25.499999,-1.83844 14.76222,0.39603 17.44297,0.74527 25.00923,3.25814 4.66106,1.54801 12.28212,4.78978 16.93569,7.20394 l 8.46104,4.38939 6.09121,-6.03707 c 3.35017,-3.32039 6.33522,-6.03707 6.63345,-6.03707 0.29824,0 5.8085,5.26626 12.24504,11.70279 l 11.70279,11.70279 -6.68604,6.73768 -6.68604,6.73767 2.47039,3.30953 c 4.1589,5.57162 7.73726,14.13485 12.03875,28.80954 1.7772,6.06297 1.7772,32.93703 0,39 -6.12177,20.88461 -11.88007,31.58051 -23.59619,43.8293 -11.18018,11.68847 -22.00302,18.54203 -38.33079,24.27295 -8.25114,2.89608 -9.75915,3.09309 -26.25396,3.42995 -9.625,0.19657 -19.075,-0.0379 -21,-0.52111 z m 35.5,-34.7036 c 16.58558,-6.11016 29.34622,-17.26611 35.84152,-31.33432 5.59277,-12.11341 7.03874,-25.28924 4.07618,-37.1424 -1.87043,-7.48353 -4.46279,-13.83077 -5.64882,-13.83077 -1.3875,0 -77.76888,76.19875 -77.76888,77.58293 0,1.65341 9.964856,5.43749 17,6.45561 7.2468,1.04876 21.47777,0.11916 26.5,-1.73105 z M 91.035049,356.07795 c 21.485471,-21.25213 39.064491,-38.96685 39.064491,-39.36606 0,-0.3992 -3.2625,-1.87922 -7.25,-3.28892 -31.751938,-11.22529 -65.905566,6.31295 -76.297535,39.17958 -2.477964,7.83704 -2.304254,23.73681 0.347137,31.77362 2.034482,6.16686 3.920234,10.342 4.67109,10.342 0.220179,0 17.979346,-17.3881 39.464817,-38.64022 z M 493.59954,458.78091 c -28.50255,-5.67032 -55.03118,-26.48862 -66.19695,-51.94797 -1.35437,-3.08812 -2.86857,-6.51477 -3.36489,-7.61477 -1.04671,-2.31983 -2.74102,-9.06234 -3.88844,-15.47407 -2.29086,-12.80122 -0.23632,-37.3842 3.88844,-46.52593 0.49632,-1.1 2.01052,-4.52665 3.36489,-7.61477 3.69259,-8.41957 8.78969,-15.88599 16.22699,-23.76992 11.83619,-12.54699 23.62536,-20.03546 40.46996,-25.70648 8.15484,-2.74547 9.27154,-2.86263 27.5,-2.88525 16.92195,-0.021 19.7656,0.21995 26,2.20304 32.80325,10.43434 56.4306,35.04717 64.57982,67.27338 2.65793,10.51083 2.6606,31.85205 0.005,42.68665 -2.18894,8.93183 -6.05522,18.72155 -9.63049,24.38514 -1.35007,2.13866 -2.45468,4.06874 -2.45468,4.28908 0,0.22033 3.825,4.1341 8.5,8.69725 4.675,4.56315 8.5,8.78666 8.5,9.38557 3.5e-4,1.34154 -22.15638,23.55631 -23.49441,23.55631 -0.52991,0 -4.6864,-3.7036 -9.23666,-8.23022 l -8.27319,-8.23021 -2.7477,1.75922 c -5.9159,3.78769 -16.58145,8.83516 -23.98366,11.35027 -6.99016,2.3751 -9.45849,2.66652 -24.76403,2.92374 -9.35,0.15714 -18.8,-0.0724 -21,-0.51006 z m 33.5,-34.23671 c 1.925,-0.59091 5.94068,-2.17316 8.92374,-3.51612 l 5.42374,-2.44174 -17.71819,-17.73873 -17.7182,-17.73873 11.60052,-11.44536 c 6.38029,-6.29494 11.97962,-11.44535 12.44296,-11.44535 0.46334,0 8.34963,7.34857 17.52508,16.33016 18.54403,18.15224 18.06564,17.96228 20.57548,8.16984 2.66342,-10.39171 2.70063,-22.60335 0.099,-32.5 -3.59293,-13.66778 -16.85115,-29.39417 -30.15413,-35.76769 -10.5599,-5.05929 -15.03192,-6.06462 -27,-6.06972 -8.30236,-0.003 -11.86044,0.46625 -17,2.24452 -9.82574,3.39969 -16.79628,7.75842 -24.18975,15.12605 -10.79406,10.75634 -16.81025,25.23893 -16.81025,40.46684 0,28.21241 21.80867,53.59002 49.5,57.60057 6.13635,0.88873 19.7619,0.1799 24.5,-1.27454 z m -313,-58.5604 v -89.73437 l 12.20039,11.98437 c 6.71021,6.5914 27.62219,27.28437 46.47107,45.98437 18.84887,18.7 34.6212,33.85536 35.04961,33.67857 0.42841,-0.17679 21.33038,-20.76429 46.44883,-45.75 25.11844,-24.98571 45.93094,-45.42857 46.25,-45.42857 0.31905,0 0.5801,40.28563 0.5801,89.52361 v 89.52362 l -17.25,-0.27362 -17.25,-0.27361 v -47.74995 c 0,-31.37467 -0.34519,-47.74996 -1.00658,-47.75 -0.55362,-3e-5 -13.82571,12.825 -29.49353,28.50006 l -28.48695,28.50011 -28.51283,-28.50011 c -15.68205,-15.67506 -29.07246,-28.50011 -29.75647,-28.50011 -0.97425,0 -1.24364,10.39753 -1.24364,48 v 48 h -17 -17 z"
       id="path14" />
  </g>
</svg>
